<svg width="21" height="21" viewBox="0 0 21 21" fill="none" xmlns="http://www.w3.org/2000/svg">
<path d="M10.5 14V18.375M10.5 14L15.75 18.375M10.5 14L5.25 18.375M18.375 2.625V9.8C18.375 11.2701 18.375 12.0052 18.0889 12.5667C17.8372 13.0607 17.4357 13.4622 16.9417 13.7139C16.3802 14 15.6451 14 14.175 14H6.825C5.35486 14 4.61979 14 4.05828 13.7139C3.56435 13.4622 3.16278 13.0607 2.91111 12.5667C2.625 12.0052 2.625 11.2701 2.625 9.8V2.625M7 7.875V10.5M10.5 6.125V10.5M14 9.625V10.5M19.25 2.625H1.75" stroke="black" stroke-opacity="0.9" stroke-linecap="round" stroke-linejoin="round"/>
</svg>
