<svg width="21" height="21" viewBox="0 0 21 21" fill="none" xmlns="http://www.w3.org/2000/svg">
<path d="M7 2.625H6.825C5.35486 2.625 4.61979 2.625 4.05828 2.91111C3.56435 3.16278 3.16278 3.56435 2.91111 4.05827C2.625 4.61979 2.625 5.35486 2.625 6.825V7M7 18.375H6.825C5.35486 18.375 4.61979 18.375 4.05828 18.0889C3.56435 17.8372 3.16278 17.4357 2.91111 16.9417C2.625 16.3802 2.625 15.6451 2.625 14.175V14M18.375 7V6.825C18.375 5.35486 18.375 4.61979 18.0889 4.05828C17.8372 3.56435 17.4357 3.16278 16.9417 2.91111C16.3802 2.625 15.6451 2.625 14.175 2.625H14M18.375 14V14.175C18.375 15.6451 18.375 16.3802 18.0889 16.9417C17.8372 17.4357 17.4357 17.8372 16.9417 18.0889C16.3802 18.375 15.6451 18.375 14.175 18.375H14M2.625 10.5H2.63375M6.5625 10.5H6.57125M14.4375 10.5H14.4463M10.5 10.5H10.5088M18.375 10.5H18.3838" stroke="black" stroke-opacity="0.9" stroke-linecap="round" stroke-linejoin="round"/>
</svg>
