<svg width="123" height="108" fill="none" xmlns="http://www.w3.org/2000/svg"><g clip-path="url(#a)" fill-rule="evenodd" clip-rule="evenodd" fill="#000"><path d="M3.188 104.662v.431c0 1.026.176 1.354.705 1.354.412 0 .618-.343.618-.982 0-.654-.162-1.041-.838-1.947l-.677-1.011c-.838-1.279-1.118-1.963-1.118-2.84 0-1.308.78-2.14 2.015-2.14.927 0 1.603.535 1.795 1.441.073.372.073.417.073 1.235l-1.338.133c0-.505-.015-.683-.044-.892-.044-.401-.265-.625-.574-.625-.368 0-.573.328-.573.922 0 .61.058.744.97 2.126l.691 1.011c.633.936.986 1.947.986 2.795 0 1.323-.72 2.067-2 2.067-.736 0-1.25-.238-1.633-.758-.324-.447-.427-.863-.427-1.725 0-.208 0-.297.015-.535l1.354-.06Zm10.517-.594c.015.535.03.773.03 1.04 0 1.769-.648 2.632-1.987 2.632-1.28 0-1.926-.804-1.926-2.379v-5.456c0-1.576.647-2.379 1.926-2.379 1.325 0 1.987.862 1.987 2.587 0 .238 0 .402-.03.788h-1.368c.03-.312.03-.446.03-.684 0-1.1-.133-1.398-.619-1.398-.44 0-.558.224-.558 1.086v5.456c0 .862.117 1.086.558 1.086.486 0 .619-.298.619-1.354 0-.297-.016-.565-.03-1.025h1.368Zm7.945.996c0 1.189-.044 1.427-.308 1.858-.324.505-.943.818-1.633.818-.692 0-1.31-.313-1.633-.818-.265-.431-.31-.684-.31-1.858v-4.877c0-1.174.045-1.427.31-1.858.323-.49.941-.803 1.633-.803.69 0 1.31.312 1.633.803.264.43.308.684.308 1.858v4.877Zm-1.368-5.441c0-.566-.162-.804-.573-.804-.398 0-.574.238-.574.804v6.02c0 .565.162.804.574.804.397 0 .573-.239.573-.804v-6.02Zm9.328 5.441c0 1.189-.045 1.427-.31 1.858-.323.505-.941.818-1.632.818-.692 0-1.31-.313-1.634-.818-.265-.431-.31-.684-.31-1.858v-4.877c0-1.174.045-1.427.31-1.858.324-.49.942-.803 1.634-.803.69 0 1.309.312 1.632.803.265.43.31.684.31 1.858v4.877Zm-1.37-5.441c0-.566-.16-.804-.572-.804-.398 0-.574.238-.574.804v6.02c0 .565.161.804.574.804.396 0 .573-.239.573-.804v-6.02Zm6.753-1.947c1.192 0 1.634.148 2.03.653.412.52.53 1.041.53 2.305 0 1.323-.118 1.828-.515 2.289-.353.417-.956.64-1.78.64h-.191v4.029h-1.368v-9.916h1.294Zm.266 4.608c.808 0 .97-.267.97-1.665 0-1.383-.162-1.65-.97-1.65h-.192v3.315h.192Zm14.858 5.308H48.75l-1.618-5.204v5.204h-1.368v-9.916h1.177l1.81 5.842v-5.842h1.367v9.916Zm7.428-9.916v1.293h-1.941v2.78h1.354v1.293h-1.354v3.256h2.059v1.294h-3.427v-9.916h3.31Zm3.841 0h1.25l.693 5.634.661-5.634h1.074l.662 5.842.692-5.842h1.25l-1.25 9.916h-1.192l-.72-5.338-.648 5.338h-1.221l-1.25-9.916Zm11.342 6.986v.431c0 1.026.178 1.354.706 1.354.412 0 .619-.343.619-.982 0-.654-.162-1.041-.839-1.947l-.676-1.011c-.84-1.279-1.119-1.963-1.119-2.84 0-1.308.78-2.14 2.015-2.14.928 0 1.605.535 1.796 1.441.073.372.073.417.073 1.235l-1.339.133c0-.505-.014-.683-.044-.892-.044-.401-.265-.625-.573-.625-.368 0-.575.328-.575.922 0 .61.06.744.972 2.126l.69 1.011c.634.936.987 1.947.987 2.795 0 1.323-.72 2.067-2.001 2.067-.735 0-1.25-.238-1.633-.758-.324-.447-.427-.863-.427-1.725 0-.208 0-.297.015-.535l1.353-.06Zm17.2 2.929h-.735l-.206-.684c-.383.565-.794.833-1.265.833-.574 0-1.118-.343-1.398-.877-.22-.416-.28-.818-.28-1.71v-5.248c0-1.576.648-2.379 1.942-2.379 1.31 0 1.971.862 1.971 2.587 0 .209 0 .402-.029.788H88.56c.03-.327.03-.461.03-.684 0-1.1-.133-1.398-.618-1.398-.442 0-.559.224-.559 1.086v5.248c0 .728.014.832.088.996.103.208.264.312.47.312a.533.533 0 0 0 .501-.357c.073-.163.088-.312.088-.951v-1.428h-.603v-1.174h1.971v5.04Zm5.458-9.915c1.103 0 1.603.177 2 .698.353.461.515 1.13.515 2.066 0 1.234-.132 1.68-.692 2.409l.957 4.743h-1.471l-.795-4.268c-.235.045-.28.045-.485.06v4.208h-1.368v-9.916h1.339Zm.22 4.31c.442 0 .692-.104.824-.356.103-.193.132-.431.132-1.338 0-1.07-.19-1.323-.956-1.323h-.191v3.017h.191Zm10.312 3.078c0 1.189-.043 1.427-.308 1.858-.324.505-.942.818-1.633.818-.692 0-1.309-.313-1.633-.818-.265-.431-.309-.684-.309-1.858v-4.877c0-1.174.044-1.427.309-1.858.324-.49.941-.803 1.633-.803.691 0 1.309.312 1.633.803.265.43.308.684.308 1.858v4.877Zm-1.368-5.441c0-.566-.162-.804-.573-.804-.397 0-.574.238-.574.804v6.02c0 .565.162.804.574.804.397 0 .573-.239.573-.804v-6.02Zm6.827 6.021c0 .564.176.803.573.803.413 0 .574-.239.574-.803v-7.968h1.368v7.403c0 1.174-.043 1.427-.309 1.858-.323.491-.94.803-1.633.803-.691 0-1.309-.312-1.632-.803-.265-.431-.309-.684-.309-1.858v-7.403h1.368v7.968Zm7.929-7.968c1.192 0 1.633.148 2.03.653.412.52.53 1.041.53 2.305 0 1.323-.118 1.828-.516 2.289-.352.417-.956.64-1.78.64h-.191v4.029h-1.368v-9.916h1.295Zm.264 4.608c.81 0 .972-.267.972-1.665 0-1.383-.162-1.65-.972-1.65h-.191v3.315h.191Zm2.661-11.945h-6.583l-1.843-6.12c-3.424 5.056-7.111 7.451-11.324 7.451-5.135 0-10.006-3.06-12.508-7.85-1.974-3.727-2.501-7.32-2.501-15.303V21.55c0-14.104 5.793-21.29 17.379-21.29 11.719 0 17.643 7.718 17.643 23.152 0 1.864 0 3.592-.263 7.052h-12.245c.264-2.927.264-4.124.264-6.12 0-9.847-1.186-12.507-5.531-12.507-3.95 0-5.003 1.995-5.003 9.713v46.968c0 6.52.132 7.452.79 8.916.922 1.862 2.371 2.793 4.213 2.793 1.975 0 3.687-1.197 4.477-3.193.658-1.464.79-2.794.79-8.516V55.744h-5.398V45.232h17.643V90.34ZM81.457 91.67H68.845L53.928 43.704V91.67H41.315V.26h10.85l16.68 53.859V.259h12.612V91.67ZM12.293 64.127v3.858c0 9.181 1.58 12.108 6.32 12.108 3.686 0 5.53-3.06 5.53-8.781 0-5.855-1.448-9.314-7.505-17.431l-6.057-9.047C3.076 33.391.574 27.269.574 19.42.574 7.71 7.554.26 18.614.26c8.294 0 14.351 4.79 16.063 12.906.657 3.326.657 3.726.657 11.044l-11.981 1.197c0-4.524-.132-6.12-.395-7.983-.395-3.593-2.37-5.588-5.136-5.588-3.29 0-5.134 2.927-5.134 8.25 0 5.454.527 6.652 8.69 19.026l6.188 9.048c5.662 8.383 8.822 17.43 8.822 25.015 0 11.841-6.451 18.495-17.907 18.495-6.582 0-11.19-2.13-14.615-6.787C.97 80.892.048 77.166.048 69.45c0-1.863 0-2.661.132-4.79l12.113-.532Z"/></g><defs><clipPath id="a"><path fill="#fff" transform="translate(0 .125)" d="M0 0h122.902v107.75H0z"/></clipPath></defs></svg>