<svg xmlns="http://www.w3.org/2000/svg" xml:space="preserve" style="enable-background:new 0 0 1544.8 185.4" viewBox="0 0 1544.8 185.4"><path d="M15.8 92.7c0-47.3 35.8-79.1 81.7-79.1 38.1 0 57.8 20.9 67.9 41.1l-33.9 16.1c-5-12.2-18.1-22.3-33.9-22.3-24-.1-41.6 19.2-41.6 44.2S73.6 137 97.5 137c15.8 0 28.9-10.1 33.9-22.3l33.9 16.1c-9.9 19.7-29.8 41.1-67.9 41.1-45.8-.1-81.6-32.2-81.6-79.2zm203.7 76.4v-61.7l-58-91.3H206l33.3 56.4L272 16.1h44.7L259 107.4v61.7h-39.5zm110.8 0v-153H417c30.3 0 44.7 19.7 44.7 39 0 19-11.7 31.9-26.2 35.1 16.3 2.5 29.1 18.1 29.1 37.4 0 22.2-14.9 41.5-45 41.5h-89.3zm39.4-93.8H408c8 0 13.5-5.7 13.5-13.3S416 48.9 408 48.9h-38.3v26.4zm0 61h39.7c9.4 0 15.1-5.7 15.1-14 0-7.8-5.5-14.5-15.1-14.5h-39.7v28.5zm109.7 32.8v-153h112.2v33.3h-72.7v25.5H590v33.5h-71.1v27.5h72.7v33.3H479.4zm215.8 0-25.7-51.8h-20.2v51.8h-39.5v-153h76.6c33.9 0 53.2 22.5 53.2 50.9 0 26.6-16.3 40.8-30.5 45.9l31.2 56.2h-45.1zM680.5 49.3h-31.2v34.4h31.2c10.3 0 19-6.7 19-17.2s-8.6-17.2-19-17.2zm86.3 68.6c11 11 28 20.2 48.9 20.2 13.5 0 21.8-5.7 21.8-13.1 0-8.7-9.9-12.2-26.1-15.6-25.2-5-60.6-11.5-60.6-47.7 0-25.7 21.8-47.9 61-47.9 24.5 0 45.9 7.3 62.2 21.3l-21.6 28.2c-12.8-10.6-29.6-15.8-43.1-15.8-13.1 0-18.1 5.3-18.1 11.9 0 8 9.4 10.8 26.4 14 25.2 5.3 60.1 12.6 60.1 47.3 0 30.7-22.7 51.2-63.8 51.2-31 0-52.5-9.6-67.9-24.3l20.8-29.7zm121.3-25.2c0-47.3 35.8-79.1 81.7-79.1 38.1 0 57.8 20.9 67.9 41.1l-33.9 16.1c-5-12.2-18.1-22.3-33.9-22.3-23.9 0-41.5 19.3-41.5 44.3s17.7 44.3 41.5 44.3c15.8 0 28.9-10.1 33.9-22.3l33.9 16.1c-9.9 19.7-29.8 41.1-67.9 41.1-45.9-.2-81.7-32.3-81.7-79.3zm240.6-79.1c46.8 0 81.7 32.6 81.7 79.1 0 46.6-34.9 79.1-81.7 79.1s-81.9-32.6-81.9-79.1c.1-46.6 35.2-79.1 81.9-79.1zm0 34.8c-25.5 0-41.7 19.3-41.7 44.3 0 24.8 16.3 44.3 41.7 44.3 25.2 0 41.5-19.5 41.5-44.3.1-25-16.2-44.3-41.5-44.3zm175.7-34.8c46.8 0 81.7 32.6 81.7 79.1 0 46.6-34.9 79.1-81.7 79.1s-81.9-32.6-81.9-79.1c.1-46.6 35.2-79.1 81.9-79.1zm0 34.8c-25.5 0-41.7 19.3-41.7 44.3 0 24.8 16.3 44.3 41.7 44.3 25.2 0 41.5-19.5 41.5-44.3.1-25-16.2-44.3-41.5-44.3zm94.8 120.7v-153h76.6c34.4 0 53.2 23.2 53.2 50.9 0 27.5-18.8 50.2-53.2 50.2h-37.2V169h-39.4zm71.3-119.8h-31.9v34.4h31.9c10.6 0 18.4-6.7 18.4-17 0-10.5-7.8-17.4-18.4-17.4z"/></svg>