<svg xmlns="http://www.w3.org/2000/svg" viewBox="0 0 170 121" style="enable-background:new 0 0 170 121" xml:space="preserve"><style>.st0{fill:#0078ae}.st1{fill:#fff}.st4{fill:#005288}</style><g id="Standard"><path class="st0" d="M0 0h170v71H0z"/><circle transform="rotate(-22.301 31.109 31.274)" class="st1" cx="31.1" cy="31.3" r="17.5"/><path d="M41.7 25c-.2.1-.4.1-.6.2 1.1 1.8 1.7 3.9 1.7 6.1 0 6.5-5.3 11.7-11.7 11.7-6.5 0-11.7-5.3-11.7-11.7 0-2.3.7-4.5 1.9-6.3-.2-.1-.4-.1-.6-.2-1.2 1.9-1.9 4.1-1.9 6.6 0 6.8 5.5 12.3 12.3 12.3 6.8 0 12.3-5.5 12.3-12.3 0-2.4-.6-4.6-1.7-6.4zm-17.4-3.3c1.9-1.4 4.3-2.2 6.8-2.2 2.8 0 5.4 1 7.5 2.7.2-.1.5-.1.7-.2-2.2-1.9-5-3.1-8.2-3.1-2.8 0-5.4.9-7.5 2.5.1 0 .2.1.3.1.2.1.3.2.4.2z" style="fill:#c41230"/><path d="M31.1 13.8c-9.6 0-17.5 7.8-17.5 17.5 0 9.6 7.8 17.5 17.5 17.5 9.6 0 17.5-7.8 17.5-17.5s-7.8-17.5-17.5-17.5zm0 33.9c-9 0-16.4-7.3-16.4-16.4 0-9 7.3-16.4 16.4-16.4 9 0 16.4 7.3 16.4 16.4 0 9-7.3 16.4-16.4 16.4z" style="fill:#c0c2c4"/><path class="st4" d="M26.9 27.8c-.2-.1-.5-.3-.7-.5-.7-.7-.9-1.4-.7-2.2.1-.5.3-.7.3-1.2 0-.3-.2-.5-.5-.7-.5-.5-1.1-.8-2-1.1-.5-.2-2.1-.7-2.8-1.3-.2.5.2 1.1.6 1.2-.4 0-.7.2-.8.4.3.3.8.6 1.2.6-.2.1-.5.4-.5.6.4.2 1 .4 1.5.3l-.5.5c.3.1.9.4 1.5.4-.2.1-.5.5-.7.7.3.1 1 .2 1.5.3-.3.2-.6.5-.8.8.3.2.9.3 1.4.3-.2.2-.4.5-.5.8.4.1.8.1 1.2 0-.3.3-.4.8-.4 1.1.4 0 .9-.1 1.2-.3-.1.3-.1.7.1.9.1 0 .3-.1.5-.2-.1-.4-.1-1-.1-1.4zm15-6.2c-.7.6-1.8.8-3 1.2-.9.3-1.4.5-2.2 1.1-.2.2-.4.4-.4.9s.1.7.1 1.4c0 .5-.2.9-.4 1.1-.2.3-.5.5-.8.6 0 .4 0 .9-.1 1.4.2.1.4.2.6.2.1-.3.1-.7.1-.9.3.2.8.3 1.2.3 0-.3-.1-.8-.4-1.1.5.1.8.1 1.2 0-.1-.3-.3-.6-.5-.8.5 0 1.1-.2 1.4-.3-.2-.3-.5-.6-.8-.8.4 0 1.2-.1 1.5-.3-.2-.2-.5-.6-.7-.7.6 0 1.2-.3 1.5-.4-.1-.2-.3-.4-.5-.5.5 0 1.1-.1 1.5-.3-.1-.2-.3-.5-.5-.6 1.2-.5 1.2-1.1 1.2-1.5z"/><path class="st4" d="M37 22.8c-1.7-1.2-3.7-1.8-5.9-1.8-2 0-3.9.6-5.4 1.5.4.3.7.7.7 1 .1.3.1.7-.1 1.2-.2.6-.3 1.2.1 1.8.4.6 1 .8 1.4.9.6-.1 1.2-.2 1.9-.2.1-.3.3-.5.6-.7.4-.3.3-.5.2-.7-.1-.2-.2-.3-.4-.4-.2-.1-.8-.1-.8.2-.1-.1-.2-.3-.1-.6s.6-.4.8-.4c-.1-.1 0-.2.2-.3.3-.1.6-.1.8-.1.6 0 .6.1.9.4.3.3.8.4 1 .2-.1.3-.5.4-.8.4.1.4.2.7.2 1.2 0 .2.1.5.1.8.7.1 1.5.2 2.1.3.3-.1.5-.2.8-.5.2-.3.5-.6.4-1.5 0-.2-.1-.9-.1-1.2.1-.7.6-1.1 1.4-1.5z"/><path class="st4" d="M30.1 24.6c.1.1.2.1.2.1v.2s.2-.1.3-.1c.1 0 .3-.1.3-.1-.4-.2-.5 0-.8-.1z"/><path class="st1" d="M31.1 36.5H31c-.1-.3-.3-.6-.7-.7-.3-.1-.7-.2-1.6-.5-1-.3-1.5-1.1-1.6-2.1-.1-1.4-.2-4-.3-5.6 1.1-.3 2.8-.5 4.2-.5 1.4 0 3.1.2 4.2.5-.1 1.6-.2 4.1-.3 5.6-.1 1-.6 1.8-1.6 2.1-.9.3-1.3.4-1.6.5-.4.1-.6.3-.7.7h.1"/><path class="st0" d="m30.8 32.8-.2-.1-.1-.3-.3-.1-.3-.3-.2.2-.3.1-.2.3-.2.3-.3.2-.2.4-.1.2-.4-.1-.1-.1-.1.1-.2.3c-.1-.2-.1-.4-.2-.8 0-.7-.1-1.5-.1-2.4 1.1-.2 2.5-.4 3.7-.4V33c-.1 0-.1-.1-.2-.2z"/><path d="M31 34.1h-3.3c0 .1.1.2.2.3.2.3.6.6 1 .7.6.2 1 .3 1.2.4l.3.1c.3.1.5.2.6.3v-1.8z" style="fill:#5e9732"/><path class="st4" d="M34.5 32.8c.1-.1.2-.2.3-.2 0-.3 0-.6.1-1l-.1.1c-.2.1-.4.3-.8.3-.3 0-.5-.1-.7-.2-.1-.1-.2-.2-.4-.2s-.3.1-.5.2-.4.2-.6.2c-.2 0-.4-.1-.6-.2v.9s.1 0 .1.1c.1.1.3.2.5.2.1 0 .3-.1.4-.2.2-.1.4-.3.7-.3.3 0 .5.1.6.2.1.1.3.2.5.2.2.1.3 0 .5-.1zm-2.7 2.1c-.2 0-.4-.1-.6-.2v1.1c.1-.1.3-.3.6-.3l.3-.1 1.2-.4c.2-.1.3-.1.5-.2-.2 0-.4-.1-.5-.2-.1-.1-.2-.2-.4-.2s-.3.1-.5.2c-.1.2-.3.3-.6.3z"/><path class="st0" d="M34.5 31.4c.1-.1.2-.2.4-.2v-.4c-1.1-.2-2.5-.4-3.7-.4v1s.1 0 .1.1c.1.1.3.2.5.2.1 0 .3-.1.4-.2.2-.1.4-.3.7-.3.3 0 .5.1.6.2.1.1.3.2.5.2s.3-.1.5-.2zm-3.3 1.9v1s.1 0 .1.1c.1.1.3.2.5.2.1 0 .3-.1.4-.2.2-.1.4-.3.7-.3.3 0 .5.1.6.2.1.1.3.2.5.2s.3-.1.4-.1c.2-.3.3-.7.4-1.2v-.1c-.2.1-.4.3-.7.3-.3 0-.5-.1-.7-.2-.1-.1-.2-.2-.4-.2s-.3.1-.5.2-.4.2-.6.2c-.3 0-.5 0-.7-.1z"/><path class="st4" d="M27.3 30.5c-.1-1-.1-1.9-.1-2.7 1.2-.3 2.7-.4 3.9-.4 1.2 0 2.8.2 3.9.4 0 .8-.1 1.7-.1 2.7-1.1-.2-2.6-.4-3.8-.4-1.2 0-2.7.2-3.8.4z"/><path class="st1" d="M28.1 28.4v-.2h-.2l.2-.1v-.2l.1.2h.2l-.1.1.1.2-.2-.1zm1.2-.1-.1-.1-.2.1.1-.2-.2-.1h.2v-.2l.1.2h.2l-.1.1zm1-.1-.2-.1-.1.1.1-.2-.2-.1h.2v-.2l.1.2h.2l-.2.1zm1 0-.2-.2-.1.2V28l-.1-.1h.2v-.2l.1.2h.2l-.2.1zm2.7.1-.2.1.2-.2-.2-.1h.2l.1-.2v.2l.2.1h-.2l.1.2zm-1-.2-.2-.1h.2l.1-.2v.2h.2l-.1.1v.2l-.1-.1-.2.1zm-1-.1-.2-.1h.2l.1-.2.1.2h.2l-.2.1v.2l-.1-.1-.2.1zm-3.8 2v-.2l-.1-.1h.2v-.2l.1.2.2-.1-.2.2.1.2-.2-.1zm1.3-.1-.2-.2-.2.2.1-.2-.2-.1h.2v-.2l.1.2.2-.1-.1.2zm.9-.1-.2-.1-.1.1v-.2l-.2-.1h.2l.1-.2.1.2h.2l-.2.1zm.9 0-.2-.2-.1.2.1-.2-.2-.1h.2v-.2l.1.2h.2l-.2.1zm2.7.1-.2.1.1-.2-.2-.2.2.1.1-.2v.2h.2l-.2.1.1.2zm-1.1-.2-.1-.2.2.1.1-.2v.2h.2l-.2.1.1.2-.2-.2-.2.2zm-.9-.1-.2-.1h.2l.1-.2v.2h.3l-.2.1v.2l-.1-.1-.2.1zm-3.3-.5v-.2l-.2-.1h.2l.1-.2v.2l.2-.1-.1.2.1.1-.2-.1zm-1 .1.1-.2-.2-.1h.2v-.2l.1.2h.2l-.1.1.1.2-.2-.1zm2.2-.2-.2-.2-.1.2v-.2l-.1-.1h.2v-.2l.1.2.2-.1-.2.2zm.9-.1-.1-.1-.2.1.1-.2-.2-.1h.2l.1-.2v.2h.2l-.1.1zm1 0-.2-.1-.2.1.1-.2-.2-.1h.3v-.2l.1.2h.2l-.2.1zm2.6.2-.2.1.1-.2-.1-.1h.2l.1-.2v.2h.2l-.2.1v.2zm-1-.2-.2-.2.2.1.1-.2v.2h.3l-.2.1v.2l-.1-.2-.2.2zm-.9-.1-.2-.2.2.1.1-.2v.2h.2l-.2.1.1.2-.2-.2-.1.2z"/><path class="st4" d="m42.2 32.7-.8.3.2.1-.3.2c0-.2.1-.3.1-.5l.5-.4v.2l.5-.7-.8.4.2.1-.4.3c0-.2 0-.4.1-.7l.5-.5v.2l.4-.8-.8.5h.2l-.4.4v-.4c0-1-.2-2-.4-3-.5 0-.9-.1-1.2-.2.6.4.8.7.9 1.2-.5.1-1.1 0-1.5-.3.3.3.6.8.6 1.3-.5 0-.9-.2-1.3-.5.3.1.5.7.5 1.1-.4 0-.9-.3-1.2-.6.2.5.3.9.3 1.3-.4-.1-.7-.2-1.1-.5.2.4.2.9.2 1.2-.5-.2-.8-.4-1.1-.8.1.4.2.9.1 1.2-.4-.1-.7-.4-.9-.8.2.4.2.9.1 1.2-.2 0-.4-.1-.5-.3v.2c0 .3-.1.6-.2.8l.1.1c.2.2.5.4.7.5-.1 0-.2.1-.4.1.2.2.5.2.6.4-.1 0-.2.1-.4.1.3.3.7.3.8.3h.4c.2 0 .4.1.5.1.1.1.1.2.1.3 0 .1 0 .1-.1.2-.1 0-.1 0 0 0 0 0 .1-.3 0-.3-.1-.1-.2-.1-.3-.1h-.5c-.1 0-.2.1-.2.2s-.1.3-.3.2c-.2-.1-.6-.1-1-.3.1.1 0 .2.1.4-.4-.1-.4-.3-.8-.4.1.1 0 .2.1.3-.3-.1-.6-.3-.9-.4-.1 0-.3.1-.4.1.3.3.5.7.6 1.2 0 0-.2 0-.5-.1.1.3.1.5.1.8 0 0-.2 0-.5-.2v.9s-.3-.1-.6-.4c0 .3-.1.6-.2.9l-.5-.5c-.1.3-.2.6-.4.8 0 0-.3-.3-.4-.8-.2.3-.5.5-.5.5.2-.2.1-.5.1-.8-.3.3-.6.4-.6.4-.1-.3-.1-.6 0-.9-.3.2-.5.2-.5.2 0-.3.1-.6.1-.8-.3.1-.5.1-.5.1.1-.5.4-1 .6-1.2-.1 0-.2-.1-.3-.1-.4.1-.7.4-.9.4.1-.1.1-.2.1-.3-.3.1-.4.3-.8.4.1-.1 0-.2.1-.4-.3.2-.8.3-1 .3-.2 0-.2-.3-.3-.4h-.8c-.2 0-.3 0-.4.1-.1.1-.1.3 0 .4.1 0 0 0 0 0-.1 0-.1-.1-.1-.2s0-.3.1-.3.3-.2.5-.1h.4c.1 0 .6-.1.9-.4-.2 0-.2-.1-.4-.1.2-.2.5-.2.6-.4-.1 0-.3-.1-.4-.1.3-.2.5-.3.7-.5l.1-.1c-.1-.3-.2-.5-.2-.8V33c-.1.1-.2.2-.5.3-.1-.3-.1-.8.1-1.2-.2.4-.4.7-.8.8-.1-.3 0-.8.1-1.2-.3.4-.6.7-1 .8 0-.4 0-.8.2-1.3-.4.4-.7.5-1.1.5 0-.4.1-.8.3-1.3-.3.3-.8.5-1.2.6 0-.4.3-.9.4-1.2-.4.3-.8.5-1.2.5.1-.4.2-.9.6-1.3-.4.3-1 .4-1.4.4.1-.5.4-.9.8-1.2-.2 0-.6.1-1.1.1-.3.9-.4 1.9-.4 2.9-.2-.2-.4-.2-.6-.4 0 .2.1.3.1.6 0 .5.2.8.5.9 0 .1 0 .3.1.4-.2-.1-.5-.2-.9-.2.2.8.6.9 1.1.9 0 .1 0 .1.1.2-.2-.1-.5-.1-.9 0 .2.4.6.6 1.1.7-.3 0-.7 0-.9.2.4.3.8.5 1.2.4 0 0 0 .1.1.1-.3.1-.6.2-.7.4.3.1.6.1.9.1-.2.1-.3.3-.4.7.2-.1.4-.1.7-.1 0 .1.1.2.1.2-.1.2-.2.5-.1.8.2 0 .3-.1.5-.2 0 .1.1.1.1.2 0 .4 0 .7.3 1 .1-.1.2-.2.2-.3.5-.7.2-1.2.2-1.7 0 .5.5 1.1 0 1.8 1.9 2.2 4.7 3.6 7.8 3.6 4.4 0 8.2-2.8 9.7-6.7l.5-.2v.2l.7-.6-1.3.3.2.1-.4.1c.1-.2.1-.4.2-.6l.5-.3v.2l.6-.6-.9.3.2.1-.3.2c.1-.2.1-.4.1-.6l.4-.2v.2l.6-.7z"/><path class="st1" d="M25.7 36.5c.8.6 1.3 1.5 1.4 2.2-.1-.1-.3-.2-.4-.1-.1-.7-.5-1.3-1.1-1.8 0-.2 0-.3.1-.3zm-.7.6c.2.1.3 0 .4 0 .1-.2.1-.4 0-.4v.2c0 .1 0 .2-.2.1-.1 0-.2 0-.2-.1v-.2s0-.1.1-.1c-.1 0-.1.1-.2.1h-.2c-.1-.1-.1-.1-.1-.2s.1-.2.2-.2c-.1 0-.2.1-.3 0-.1 0-.1-.2-.1-.3l.1-.1h.2v-.1c-.1 0-.3 0-.4.1-.1.1 0 .1 0 .3 0 .1.1.2.2.2h.1l-.1.1s0 .1.1.2.2.2.3.1l.1-.1v.1c-.2.2-.1.3 0 .3z"/><path class="st1" d="M24.9 36.2c.1-.1.2-.1.3 0-.1.1-.1.3 0 .4-.3-.1-.3-.3-.3-.4zm.3 0c.1 0 .2-.1.2-.1 0-.1.1-.1.1 0v.1c-.1.1-.2.1-.3 0z"/><path class="st1" d="M25.3 36.4c0 .1 0 .1-.1.2l-.1.1c.1 0 .1.1.2.1h.1c-.1-.2-.1-.3-.1-.4zm11.7-.3c.1.1.1.3 0 .4.2 0 .2-.2.2-.3 0-.1-.1-.1-.2-.1zm-.1.1c-.1 0-.2-.1-.2-.1 0-.1-.1-.1-.1 0v.1h.3zm0 .3c0-.1-.1-.1-.1-.2 0 0-.1.2-.1.3h.1c.1 0 .1 0 .2-.1 0 .1 0 .1-.1 0z"/><path class="st1" d="m40.4 33.4.2.1-3 2.4-.1.1v.1h.2c.1 0 .1.1.1.1 0 .1 0 .2-.1.3h-.3c.1 0 .2.1.2.2l-.1.1h-.2c-.1 0-.1-.1-.2-.1l.1.1v.2c-.1 0-.2.1-.2.1-.1 0-.1-.1-.1-.1v-.2c-.1 0-.1.2 0 .4 0 .1.1.1.3 0 .1 0 .2-.1.2-.2v-.1l.1.1c.1 0 .2 0 .3-.1.1-.1.1-.2.1-.2s0-.1-.1-.1h.1c.1 0 .1-.1.2-.2 0-.1.1-.2 0-.3 0 0-.1-.1-.2-.1l3-2.4v.2l.5-.7-1 .3zm-1.6.7 2.1-2.7.1.2.4-.8-.7.5h.2L39 33.7c-.2.2-.3.5-.5.7.1 0 .2-.2.3-.3z"/><path class="st1" d="M38.5 34.9c.2-.1.4-.3.5-.4l1.8-1.6v.2l.5-.8-.8.4h.2L39 34.4l-.5.5zm2-.4L38 35.8l-.1.1 2.6-1.3v.2l.7-.6-.9.2.2.1zm-3.8 2.7s0-.1 0 0l-.5.8-.2.1-.5 1 .3-.1.1.3.5-1-.1-.2.4-.9z"/><path class="st1" d="m38.5 35.4.6-.3 1.7-1.1v.2l.6-.7-.8.3.2.1-1.8 1.2c-.3.1-.4.2-.5.3zm-2 1.5v-.2l-.6.6h-.2l-.8.8h.2v.2l.7-.9h.1l.6-.5zm1.1-1.3c.1-.1.2-.1.3-.2l2.9-3.2v.2l.4-.8-.7.5h.2l-3.1 3.3c.1.1 0 .2 0 .2z"/><path class="st1" d="m35 37.8 1.1-.8.3-.3-1.4.9h-.2l-.1.1-.9.5.2.1v.2l.7-.6.3-.1zm-.9.1.4-.3.4-.3h.1s1-.6 1.2-.8l-1.3.6-.2-.1-1 .5.2.1.2.3zm4.9-6h.2l-1.9 3.8h.1l1.9-3.8.1.2.2-.9-.6.7zm.2.6h.2l-1.2 1.8c-.1.3-.3.5-.4.8l1.6-2.5.1.2.3-.8-.6.5zm-17.1 2.3c-.3-.2-.5-.2-1-.2.4 0 .7.1 1 .2zm.2 2.2c0-.3.2-.7.5-.9.2-.2.3-.2.1-.1-.2.3-.5.7-.6 1zm.6.8c-.1-.3 0-.7.1-1 .1-.2.3-.5.4-.5-.3.3-.5 1.2-.5 1.5zm-.9-3.9c0-.1-.1-.2-.2-.2s-.2.1-.2.2.1.2.2.2.2-.1.2-.2zm1.7.2v-.9c-.6.4-.8 1.2-.5 1.7h-.1c-.1 0-.2.1-.2.2s.1.2.2.2.2-.1.2-.2 0-.1-.1-.1c-.1-.5 0-1 .2-1.3-.1.3-.2.9-.1 1.5.1-.1.2-.2.2-.3 0 .1 0 .2.1.3 0-.4.2-.9.6-1.2-.3.4-.5.9-.6 1.3.2-.3.8-.4.8-1.6-.2-.1-.5.1-.7.4z"/><path class="st1" d="M24.1 35.4c0-.1-.1-.2-.3-.2-.1 0-.2.1-.2.3 0 .1.1.2.3.2.1-.1.2-.2.2-.3zm-.1.7c0-.1-.1-.2-.3-.2-.1 0-.2.1-.2.3 0 .1.1.2.3.2.1-.1.2-.2.2-.3zm-1.3-3.2c-.4.4-.6.8-.5 1.2h-.1c-.1 0-.1.1-.1.2s.1.1.2.1h.1c0 .1.1.2.2.3 0-.1-.1-.3-.1-.4v-.1c0-.3 0-.7.2-.9-.1.4-.1 1.1-.1 1.5.2-.4.8-.7.2-1.9zm1.8 2.8c0-.1-.1-.1-.2-.1s-.1.1-.1.2.1.1.2.1c0 0 .1-.1.1-.2zm-.9 0c0-.1-.1-.1-.2-.1s-.1.1-.1.2.1.1.2.1c0-.1.1-.2.1-.2zm-2.1-2.1c0-.1-.1-.1-.1-.1-.2-.3-.5-.6-1-.7.3.1.7.4 1 .7-.1 0-.1.1-.1.2s.1.1.2.1c-.1-.1 0-.2 0-.2zm0-1c0-.1-.1-.2-.2-.1-.1-.5-.2-.8-.7-1.2.3.3.6.8.7 1.2-.1 0-.1.1-.1.2s.1.2.2.1c0 0 .1-.1.1-.2z"/><path class="st1" d="M22 34.4c0-.1-.1-.1-.2-.1 0 0-.1 0-.1.1-.5-.4-.8-.4-1-.4.1.1.7.2 1 .4v.1c0 .1.1.1.2.1.1-.1.1-.1.1-.2zm.4.6c0-.1-.1-.2-.2-.2-.2 0-.2.1-.2.2s.1.2.2.2.2-.1.2-.2zm.3.3c0-.1-.1-.1-.2-.1 0 0-.1 0-.1.1-.4-.1-.8 0-1.2.2.4-.1.8-.2 1.2-.2v.1c0 .1.1.1.2.1 0 0 .1-.1.1-.2zm.4.2c0-.1-.1-.2-.2-.1-.1 0-.2.1-.1.2-.3 0-.8.1-1.1.4.3-.2.8-.4 1.1-.4 0 .1.1.2.2.1 0 0 .1-.1.1-.2z"/><path class="st4" d="M44 25c.5-.2 1-.1 1.2.2.1.3-.2.8-.6 1-.5.2-1 .1-1.2-.2-.1-.3.2-.8.6-1zm.8 1.7c.6-.3.9-.9.6-1.5-.3-.6-.9-.8-1.6-.6-.6.3-.9.9-.6 1.5.3.6 1 .8 1.6.6zm-.9 1.5-.2-.9h.1l.1.3 1.9-.5-.1-.3h.1l.4 1.4h.1v.2l-.5.1v-.2l.2-.1-.2-.7-.8.2.1.5.2-.1v.2l-.7.2v-.2l.2-.1-.1-.5-.7.3.1.2h-.2zm-27.1-2.4-.1.3 1.3.4c.4.1.6.3.6.6v.5c-.2.5-.6.8-1 .7l-1.3-.4-.1.3h-.1l.3-.9h.1l-.1.3 1.2.4c.3.1.5.1.6-.1.1-.1.1-.2.1-.3.1-.4 0-.7-.5-.8l-1.2-.4-.1.3h-.1l.2-.8.2-.1zm2.2.5c0 .1-.2.2-.3.1-.1 0-.2-.2-.1-.3 0-.1.2-.2.3-.1.1.1.1.2.1.3zm.4-1-.1.2-.5-.3.1-.2.2.1c.2-.1.3-.2.4-.3.1-.2.1-.4-.1-.5-.1-.1-.3 0-.6.1-.4.2-.4.2-.5.2-.1 0-.3 0-.4-.1-.3-.2-.4-.6-.2-.9.1-.1.1-.2.3-.3l-.1-.1.1-.2.5.3-.1.2-.2-.1c-.2.1-.2.1-.3.3-.1.2 0 .3.1.4.1.1.2 0 .6-.1.2-.1.3-.1.3-.2.1 0 .2-.1.3-.1.1 0 .2 0 .4.1.3.2.4.6.2.9-.1.2-.2.3-.4.4v.2zm.9-1.5c0 .1-.1.2-.2.2s-.2-.1-.2-.2.1-.2.2-.2c.1-.1.2 0 .2.2zm5.4-4.5-1.5.7-.1-.1.2-.1-.8-1.8-.2.1-.1-.1 1.3-.7v-.1l.2-.1.3.5-.2.1-.1-.2-.6.3.4.7.5-.3-.1-.2.2-.1.3.6-.4.2-.1-.2-.5.3.4.8.7-.3-.2-.3.2-.1.2.4zm1.4-.5-1 .3V19l.3-.1-.7-1.9h-.2v-.1l1-.3c.4-.1.8 0 .9.4.1.4-.1.8-.5.9h-.2l-.1-.2h.1c.2-.1.3-.3.2-.6-.1-.3-.3-.4-.5-.4l-.2.1.6 1.9.3-.1v.2zm1.2-1.3.2-.9.5.8-.7.1zm1.6.5h-.1l-1.2-2h-.2l-.5 2.3h-.2v.1l.7-.1v-.1h-.3l.1-.6.8-.1.3.5h-.2v.1l.8-.1zm1-2h.2c.2 0 .4.2.4.4 0 .3-.2.5-.4.5h-.2V16zm1.4 2h-.1c-.1 0-.1 0-.2-.2l-.5-.8c.3-.1.5-.3.5-.6 0-.2-.1-.3-.2-.4-.1-.1-.3-.2-.6-.2h-1v.2h.3v2h-.3v.1h1V18h-.3v-.9h.1l.5.8c.1.2.2.2.4.2h.4V18zm1.6.4-1.1-.2v-.1l.3.1.3-1.9-.6-.1v.3h-.2l.1-.6h.2v.1l1.6.3v-.1h.2l-.1.6h-.2v-.3l-.6-.1-.3 1.9.3.1h.1zm3.3 1.1-1-.4.1-.1.3.1.5-1.4-1.3 1.3-.2-1.8-.6 1.3.3.1-.1.1-.7-.3.1-.1.3.1.7-1.9-.3-.1.1-.1.6.2.2 1.8 1.3-1.2.6.2-.1.1-.3-.1-.7 2 .3.1-.1.1zm1.7 1.1-1.4-.9.1-.1.2.1 1.1-1.7-.2-.1.1-.1 1.2.8.1-.1.2.1-.3.5-.3-.1.1-.2-.6-.4-.4.7.5.3.1-.2.2.1-.4.6-.2-.2.1-.2-.5-.3-.5.7.6.4.1-.2.2.1-.1.4zm-15.5-1.4c-.4-.5-1.1-.6-1.6-.2l-.9.6.1.1.2-.2 1.2 1.6c.1 0 .1 0 .2.1l.6-.4c.3-.2.4-.4.5-.7 0-.3-.1-.6-.3-.9zm-.4 1.5-.2.2-1.1-1.5.2-.2c.3-.2.9-.1 1.2.3.3.4.2 1-.1 1.2zm18.8-.5-.1.1.2.2-1 1.1.2-1.9-.5-.5-.1.1.2.2v.2L39.5 21l-.2-.2-.1.1.6.5.1-.1-.2-.2 1-1.1-.2 1.8c.2-.1.4-.1.7-.2h.1l.9-1 .2.2.1-.1-.7-.5zm2.4 2.5-1.1-1.3.1-.1-.2-.1-.5.4.1.2.2-.2.4.5-1.5 1.2-.1-.1s-.1 0-.1.1l.6.7.1-.1-.2-.3 1.5-1.2.4.5-.2.1.1.2.5-.4-.1-.1zM34 46.6h-.2l-.1-.6h.2l.1.3c.2.1.3.1.5.1s.3-.2.3-.4-.2-.2-.5-.4c-.4-.1-.4-.2-.5-.2-.1-.1-.2-.2-.2-.4-.1-.4.1-.7.6-.8h.4v-.1h.2l.1.6h-.2l-.1-.2c-.2-.1-.3-.1-.4 0-.2 0-.3.2-.3.4 0 .1.1.2.5.3.2.1.3.1.3.1.1 0 .2.1.3.2.1.1.1.2.2.3.1.4-.1.7-.5.8H34zm3.5-1.1-1.5.6-.1-.1.2-.1-.6-1.9-.2.1-.1-.1 1.3-.5v-.1l.2-.1.2.5-.2.1-.1-.2-.7.3.3.8.5-.2-.1-.2.2-.1.3.6-.2.1-.1-.2-.5.2.3.8.7-.3-.1-.2.2-.1.1.3zm2.4-1.5c-.2.2-.3.4-.6.5-.6.4-1.3.2-1.7-.4-.4-.6-.2-1.3.4-1.7.2-.1.3-.2.6-.2l-.1-.1.2-.1.3.5-.2.1-.1-.2c-.2 0-.4 0-.5.1-.4.3-.5.8-.2 1.3s.8.7 1.2.4c.1-.1.2-.2.3-.4l-.1-.2.2-.1.3.5zm1-3.5-.2.2.9 1c.3.3.3.6.2.9-.1.2-.2.3-.3.4-.4.4-.9.4-1.2 0l-.9-1-.2.2-.2-.2.7-.7.1.1-.2.2.9 1c.2.3.4.3.6.3.1 0 .2-.1.3-.1.3-.3.3-.6 0-.9l-.9-1-.2.1-.1-.1.6-.5.1.1zm3.9-2.1-.5.9-.1-.1.1-.2-1.8-1-.1.2-.1-.1.5-.9.1.1-.1.2 1.8 1 .1-.2.1.1zm.9-2.1-.4 1-.1-.1.1-.3-1.8-.7-.2.6.3.1-.1.2-.6-.1.1-.2h.1l.6-1.5h-.1l.1-.2.6.2-.1.2-.3-.1-.2.6 1.8.7.1-.3.1-.1zm.6-2.5-.2 1H46l.1-.3-.9-.2-1.2.5v.2h-.1l.2-1h.1v.3l.8-.3-.7-.6-.1.3h-.1l.2-.8h.1v.2l.8.8 1 .2.1-.3zM44 39.7l-.1.1c0 .1-.1.1-.2.1l-.9-.1c.1-.3 0-.6-.2-.8-.1-.1-.3-.2-.5-.1-.2 0-.3.1-.5.4l-.6.8.1.1.2-.2 1.6 1.2-.2.2.1.1.6-.8-.1-.1-.2.2-.7-.5.1-.1 1 .1c.2 0 .3 0 .4-.2l.3-.4H44zm-2.4 0 .1-.2c.1-.2.4-.2.6-.1.2.2.3.4.1.6l-.1.2-.7-.5zm-25.2-3.8-.2-.9h.1l.1.3.9-.2-.3-1.2-.9.2.1.3h-.1l-.2-.9h.1l.1.3 1.9-.5-.1-.3h.1l.2.9h-.1l-.1-.3-.9.2.3 1.1.9-.2-.1-.3h.1l.2.9h-.1l-.1-.3-1.9.5.1.3-.1.1zm1.3.6c.5-.2 1-.1 1.2.2.1.3-.1.8-.6 1-.5.2-1 .1-1.2-.2-.1-.3.1-.8.6-1zm.8 1.6c.6-.3.9-1 .6-1.5-.3-.6-1-.8-1.6-.6-.6.3-.9 1-.6 1.5.3.6 1 .9 1.6.6zm.9 3.3-.6-.8.1-.1.2.2 1.2-.9-1.8.4.8-1.6-1.2.9.2.2-.1.1-.5-.7.1-.1.2.2 1.6-1.2-.2-.2.1-.1.4.5-.8 1.6 1.7-.4.4.6-.1.1-.2-.2-1.6 1.2.2.2-.1.1zm1.8 1.8L20 42.1l.1-.1.2.2 1.4-1.5-.2-.2.1-.1 1.1 1 .1-.1.1.1-.4.4-.1-.1.2-.2-.7-.5-.6.6.4.4.2-.2.1.1-.5.5-.1-.1.2-.2-.4-.4-.6.6.6.5.2-.2.1.1-.3.5zm2 1.4-1.4-.9.1-.1.2.1 1.1-1.7-.2-.1.1-.1.8.5-.1.1-.2-.1-1.1 1.6.6.4.1-.2.2.1-.2.4zm1.4-.3.7-.6-.1.9-.6-.3zm1.2 1.4-.1-.1.1-2.4-.2-.1-1.7 1.7-.2-.1-.1.1.7.3.1-.1-.4-.1.4-.4.8.3v.6l-.2-.1-.1.1.8.4.1-.1zm2.4.8-.2-.1-.8-1.9-.4 1.5.3.1v.1l-.8-.2v-.1l.3.1.4-1.8-.1-.2-.2-.1v-.1l.7.2.7 1.8.3-1.4-.3-.1v-.1l.8.2v.1l-.3-.1-.4 2.1zm2.2-2.1h-1.1v.1h.3l-.1 2h-.3v.1h1.1c.3 0 .6-.1.8-.3.2-.2.4-.5.4-.8.1-.6-.4-1.1-1.1-1.1zm.7 1.1c0 .5-.4.9-.8.9H30l.1-1.9h.3c.3.1.7.5.7 1z"/><path class="st1" d="M22.3 31.9c-.7.3-1 1.1-.6 1.7.3-.4.9-.5.6-1.7zm-.6 1.7c-.1-.3.1-1.2.4-1.4-.2.4-.2.8-.4 1.4zm0-2.9c-.2.1-.5.4-.6.8.1.1.1.1.1.2.1-.3.2-.6.4-.8-.1.2-.3.6-.3.9.1.2.1.4.1.5.3-.4.5-1 .3-1.6zm62.8-10.5h-3.8v24.5h-2.8L60.4 25.8v16.3h3.7v2.5H53.7v-2.5h3.6v-22h-3.6v-2.5h8.7v2.5l15.3 16.7V20.2h-3.8v-2.5h10.7v2.5zm26.4 5h-2.8v-3.7h-6.4v20.7h3.7v2.5H92.5v-2.5h3.7V21.5h-6.4v3.7H87v-8.9h2.8v1.3h18.3v-1.3h2.8v8.9zm24.7 19.5h-10.4v-2.5h2.5l-2.5-6.6h-8l-2.4 6.6h2.4v2.5h-7.5v-2.5h2.3l9-25.1h2.8l9.5 25.1h2.3v2.5zM124.3 33l-3.1-8.6h-.1l-3 8.6h6.2zm31.7 4.5c0 1.5-.3 2.8-1 4-.7 1.2-1.7 2.1-2.9 2.8s-2.7 1-4.2 1c-2.4 0-4.4-.7-6-2v2.1H139V36h2.8v3.2c.7 1.1 1.6 1.9 2.6 2.5s2.1.9 3.1.9 1.9-.4 2.6-1.1c.7-.8 1.1-1.6 1.1-2.7 0-1.3-.4-2.2-1.1-2.8-.7-.6-2.1-1.5-4.1-2.7-2-1.1-3.5-2.3-4.6-3.4-.9-.9-1.6-1.8-2-2.7-.4-.9-.6-1.9-.6-3.2 0-1.4.3-2.6 1-3.7s1.6-1.9 2.8-2.5 2.6-.9 4.2-.9c2.1 0 3.9.5 5.4 1.6v-1.9h2.8V25h-2.8v-3.1c-1.3-1.5-2.8-2.3-4.6-2.3-.8 0-1.4.2-2 .5s-1.1.7-1.4 1.2c-.4.5-.5 1.1-.5 1.7 0 1.2.4 2 1.2 2.6.8.6 2.3 1.5 4.5 2.8 2.2 1.3 3.9 2.5 5 3.8 1.1 1.5 1.6 3.2 1.6 5.3zM19.2 53.1h-.7v4.7h-.3l-3.3-4.1v3.7h.7v.3h-1.7v-.3h.7V53h-.7v-.3h1.2v.3l3.1 3.8V53h-.7v-.3h1.7v.4zm4.7 4.6h-1.5v-.3h.4l-.5-1.5h-1.8l-.5 1.5h.5v.3h-1.2v-.3h.4l1.7-4.8h.3l1.8 4.8h.4v.3zm-1.6-2.1-.8-2.2-.7 2.2h1.5zm5.3-1.8h-.3v-.6h-1.4v4.2h.7v.3h-1.9v-.3h.7v-4.2H24v.6h-.3v-1.3h.3v.2h3.4v-.2h.3v1.3zm2.4 3.9h-2v-.3h.7V53H28v-.3h2v.3h-.7v4.4h.7v.3zm5.8-2.5c0 .4-.1.8-.3 1.2-.2.4-.5.7-.9 1-.4.3-.9.4-1.4.4-.4 0-.8-.1-1.2-.2-.3-.2-.6-.4-.8-.6-.2-.3-.4-.5-.5-.8-.1-.3-.2-.6-.2-.9 0-.3.1-.6.2-.9s.3-.6.5-.8c.2-.3.5-.5.8-.6.3-.2.7-.2 1.1-.2.4 0 .8.1 1.1.2.3.2.6.4.8.6.2.3.4.5.5.8.2.2.3.5.3.8zm-.7 0c0-.4-.1-.8-.2-1.2-.2-.3-.4-.6-.7-.8-.3-.2-.6-.3-1-.3s-.7.1-1 .3c-.3.2-.5.4-.7.8-.2.3-.2.8-.2 1.2 0 .3 0 .6.1.9.1.3.2.5.4.7.2.2.4.4.6.5.2.1.5.2.8.2.2 0 .5 0 .7-.1.2-.1.4-.2.6-.4s.3-.4.4-.7.2-.7.2-1.1zm6.5-2.1H41v4.7h-.3l-3.3-4.1v3.7h.6v.3h-1.7v-.3h.7V53h-.7v-.3h1.2v.3l3.1 3.8V53h-.7v-.3h1.7v.4zm4.7 4.6h-1.5v-.3h.4l-.5-1.5H43l-.5 1.5h.5v.3h-1.2v-.3h.4l1.7-4.8h.3l1.8 4.8h.4v.3zm-1.6-2.1-.8-2.2-.7 2.2h1.5zm5.4 2.1h-3.4v-.3h.7V53h-.7v-.3h2v.3H48v4.4h1.8v-.7h.3v1zm5.6-3.9h-.3v-.6H54v4.2h.7v.3h-1.9v-.3h.7v-4.2H52v.6h-.3v-1.3h.3v.2h3.4v-.2h.3v1.3zm3.8 3.9H56v-.3h.7V53H56v-.3h3.3v1H59V53h-1.7v2h1.4v-.6h.3V56h-.3v-.7h-1.4v2.1h1.8v-.7h.3v1zm4.8 0h-.9l-.6-1.3c-.2-.4-.4-.6-.6-.8-.2-.2-.5-.2-.8-.2h-.3v2h.7v.3h-2v-.3h.7V53h-.7v-.3h1.9c.4 0 .6.1.9.2.2.1.4.3.5.5.1.2.2.4.2.6 0 .2 0 .4-.1.5-.1.2-.2.3-.4.5l-.6.3c.2.1.4.2.5.3.1.1.3.2.4.4s.2.3.3.6l.4.9h.5v.2zm-1.7-3.6c0-.2 0-.3-.1-.5s-.2-.3-.4-.4c-.2-.1-.4-.1-.6-.1H61v2h.2c.4 0 .7-.1 1-.3.3-.2.4-.4.4-.7zm6.4 3.6h-1l-.6-1.3c-.2-.4-.4-.6-.6-.8-.2-.2-.5-.2-.8-.2h-.3v2h.7v.3h-2v-.3h.7V53h-.7v-.3h1.9c.4 0 .6.1.9.2.2.1.4.3.5.5.1.2.2.4.2.6 0 .2 0 .4-.1.5-.1.2-.2.3-.4.5l-.6.3c.2.1.4.2.5.3.1.1.3.2.4.4s.2.3.3.6l.4.9h.6v.2zm-1.7-3.6c0-.2 0-.3-.1-.5s-.2-.3-.4-.4c-.2-.1-.4-.1-.6-.1h-.5v2h.3c.4 0 .7-.1 1-.3.2-.2.3-.4.3-.7zm6.9 1.1c0 .4-.1.8-.3 1.2-.2.4-.5.7-.9 1-.4.3-.9.4-1.4.4-.4 0-.8-.1-1.2-.2-.3-.2-.6-.4-.8-.6-.2-.3-.4-.5-.5-.8-.1-.4-.1-.7-.1-1 0-.3.1-.6.2-.9s.3-.6.5-.8c.2-.3.5-.5.8-.6.3-.2.7-.2 1.1-.2.4 0 .8.1 1.1.2.3.2.6.4.8.6.2.3.4.5.5.8.2.3.2.6.2.9zm-.7 0c0-.4-.1-.8-.2-1.2-.2-.3-.4-.6-.7-.8-.3-.2-.6-.2-1-.2s-.7.1-1 .3c-.3.2-.5.4-.7.8-.2.3-.2.8-.2 1.2 0 .3 0 .6.1.9.1.3.2.5.4.7.2.2.4.4.6.5.2.1.5.2.8.2.2 0 .5 0 .7-.1.2-.1.4-.2.6-.4s.3-.4.4-.7.2-.8.2-1.2zm5.6 2.5h-.9l-.6-1.3c-.2-.4-.4-.6-.6-.8-.2-.2-.5-.2-.8-.2h-.3v2h.7v.3h-2v-.3h.7V53h-.7v-.3h1.9c.4 0 .6.1.9.2.2.1.4.3.5.5.1.2.2.4.2.6 0 .2 0 .4-.1.5-.1.2-.2.3-.4.5l-.6.3c.2.1.4.2.5.3.1.1.3.2.4.4s.2.3.3.6l.4.9h.5v.2zm-1.6-3.6c0-.2 0-.3-.1-.5s-.2-.3-.4-.4c-.2-.1-.4-.1-.6-.1h-.5v2h.2c.4 0 .7-.1 1-.3.3-.2.4-.4.4-.7zm3.9 3.6h-2v-.3h.7V53h-.7v-.3h2v.3h-.7v4.4h.7v.3zm3.3-1.2c0 .2 0 .4-.1.5-.1.2-.2.3-.3.4-.1.1-.3.2-.5.3s-.4.1-.6.1c-.4 0-.7-.1-1-.4v.4h-.3v-1.5h.3v.7c.1.2.3.3.4.4.2.1.3.1.5.1.3 0 .5-.1.7-.3.2-.2.3-.4.3-.6 0-.3-.1-.5-.3-.6-.2-.2-.5-.3-.9-.6-.4-.2-.7-.4-.9-.7-.2-.2-.3-.5-.3-.8 0-.2 0-.4.1-.5s.2-.3.3-.4c.1-.1.3-.2.4-.3s.4-.1.6-.1c.4 0 .7.1.9.3v-.3h.3v1.3H84v-.5c0-.3-.3-.4-.7-.4-.3 0-.5.1-.7.2-.2.1-.2.3-.2.6s.1.5.3.6c.2.2.5.3.9.6.4.2.7.4.9.6.1.2.2.5.2.9zm6.8 1.2h-1.9v-.3h.7v-3.8l-1.9 4.1h-.1l-1.9-4.1v3.8h.7v.3h-1.7v-.3h.7V53h-.7v-.3h1.4v.3l1.8 3.8 1.8-3.8v-.3h1.4v.3h-.7v4.4h.7v.3zm6.4 0h-1.5v-.3h.4l-.5-1.5h-1.8l-.5 1.5h.5v.3h-1.2v-.3h.4l1.7-4.8h.3l1.8 4.8h.4v.3zm-1.7-2.1-.8-2.2-.7 2.2h1.5zm6.8-.3c0 .3 0 .6-.1.9s-.2.5-.5.8c-.2.2-.5.4-.8.5-.3.1-.7.2-1.2.2h-2.3v-.3h.7V53h-.7v-.3h2.3c.4 0 .7.1 1 .2.3.1.6.3.8.5.2.2.4.5.5.8.3.4.3.7.3 1.1zm-.6.2c0-.5-.1-1-.3-1.4-.2-.4-.5-.6-.8-.8s-.8-.2-1.3-.2h-.5v4.4h.7c.8 0 1.4-.2 1.7-.5.3-.4.5-.9.5-1.5zm5-2.4h-.6l-1.6 4.8h-.1l-1.7-4.8h-.6v-.3h1.8v.3h-.6l1.2 3.5 1.2-3.5h-.6v-.3h1.6v.3zm2.3 4.6h-2v-.3h.7V53h-.7v-.3h2v.3h-.7v4.4h.7v.3zm3.4-1.2c0 .2 0 .4-.1.5-.1.2-.2.3-.3.4-.1.1-.3.2-.5.3s-.4.1-.6.1c-.4 0-.7-.1-1-.4v.4h-.3v-1.5h.3v.7c.1.2.3.3.4.4.2.1.3.1.5.1.3 0 .5-.1.7-.3.2-.2.3-.4.3-.6 0-.3-.1-.5-.3-.6-.2-.2-.5-.3-.9-.6-.4-.2-.7-.4-.9-.7-.2-.2-.3-.5-.3-.8 0-.2 0-.4.1-.5.1-.2.2-.3.3-.4s.3-.2.4-.3.4-.1.6-.1c.4 0 .7.1.9.3v-.3h.3v1.3h-.3v-.5c-.2-.3-.5-.4-.9-.4-.3 0-.5.1-.7.2-.2.1-.2.3-.2.6s.1.5.3.6c.2.2.5.3.9.6s.7.4.9.6c.3.2.4.5.4.9zm5.8-1.3c0 .4-.1.8-.3 1.2-.2.4-.5.7-.9 1-.4.3-.9.4-1.4.4-.4 0-.8-.1-1.2-.2s-.6-.4-.8-.6-.4-.5-.5-.8c-.1-.3-.2-.6-.2-.9 0-.3.1-.6.2-.9.1-.3.3-.6.5-.8.2-.3.5-.5.8-.6s.7-.2 1.1-.2c.4 0 .8.1 1.1.2.3.2.6.4.8.6.2.3.4.5.5.8.2.2.3.5.3.8zm-.7 0c0-.4-.1-.8-.2-1.2-.2-.3-.4-.6-.7-.8s-.6-.3-1-.3-.7.1-1 .3-.5.4-.7.8c-.2.3-.2.8-.2 1.2 0 .3 0 .6.1.9.1.3.2.5.4.7.2.2.4.4.6.5.2.1.5.2.8.2.2 0 .5 0 .7-.1s.4-.2.6-.4c.2-.2.3-.4.4-.7s.2-.7.2-1.1zm5.6 2.5h-.9l-.6-1.3c-.2-.4-.4-.6-.6-.8-.2-.2-.5-.2-.8-.2h-.3v2h.7v.3h-2v-.3h.7V53h-.7v-.3h1.9c.4 0 .6.1.9.2.2.1.4.3.5.5.1.2.2.4.2.6 0 .2 0 .4-.1.5-.1.2-.2.3-.4.5l-.6.3c.2.1.4.2.5.3.1.1.3.2.4.4.1.2.2.3.3.6l.4.9h.5v.2zm-1.7-3.6c0-.2 0-.3-.1-.5s-.2-.3-.4-.4c-.2-.1-.4-.1-.6-.1h-.5v2h.2c.4 0 .7-.1 1-.3.3-.2.4-.4.4-.7zm5.7-1h-.5l-1.5 2v2.4h.7v.3h-1.9v-.3h.7V55l-1.5-2h-.6v-.3h1.8v.3h-.5l1.2 1.6 1.2-1.6h-.6v-.3h1.5v.4zm5.3 3.4c0 .2 0 .4-.1.5-.1.2-.2.3-.3.4-.1.1-.3.2-.5.3s-.4.1-.6.1c-.4 0-.7-.1-1-.4v.4h-.3v-1.5h.3v.7c.1.2.3.3.4.4.2.1.3.1.5.1.3 0 .5-.1.7-.3.2-.2.3-.4.3-.6 0-.3-.1-.5-.3-.6-.2-.2-.5-.3-.9-.6-.4-.2-.7-.4-.9-.7-.2-.2-.3-.5-.3-.8 0-.2 0-.4.1-.5.1-.2.2-.3.3-.4s.3-.2.4-.3.4-.1.6-.1c.4 0 .7.1.9.3v-.3h.3v1.3h-.3v-.5c-.2-.3-.5-.4-.9-.4-.3 0-.5.1-.7.2-.2.1-.2.3-.2.6s.1.5.3.6c.2.2.5.3.9.6s.7.4.9.6c.3.2.4.5.4.9zm5-3.4h-.5l-1.5 2v2.4h.7v.3h-1.9v-.3h.7V55l-1.5-2h-.6v-.3h1.8v.3h-.5l1.2 1.6 1.2-1.6h-.6v-.3h1.5v.4zm3 3.4c0 .2 0 .4-.1.5-.1.2-.2.3-.3.4-.1.1-.3.2-.5.3s-.4.1-.6.1c-.4 0-.7-.1-1-.4v.4h-.3v-1.5h.3v.7c.1.2.3.3.4.4.2.1.3.1.5.1.3 0 .5-.1.7-.3.2-.2.3-.4.3-.6 0-.3-.1-.5-.3-.6-.2-.2-.5-.3-.9-.6-.4-.2-.7-.4-.9-.7-.2-.2-.3-.5-.3-.8 0-.2 0-.4.1-.5.1-.2.2-.3.3-.4s.3-.2.4-.3.4-.1.6-.1c.4 0 .7.1.9.3v-.3h.3v1.3h-.3v-.5c-.2-.3-.5-.4-.9-.4-.3 0-.5.1-.7.2-.2.1-.2.3-.2.6s.1.5.3.6c.2.2.5.3.9.6s.7.4.9.6c.3.2.4.5.4.9zm4.5-2.7h-.3v-.6h-1.4v4.2h.7v.3h-1.9v-.3h.7v-4.2H142v.6h-.3v-1.3h.3v.2h3.4v-.2h.3v1.3zm3.8 3.9H146v-.3h.7V53h-.7v-.3h3.3v1h-.3V53h-1.7v2h1.4v-.6h.3V56h-.3v-.7h-1.4v2.1h1.8v-.7h.3v1zm6.7 0h-1.9v-.3h.7v-3.8l-1.9 4.1h-.1l-1.9-4.1v3.8h.7v.3H150v-.3h.7V53h-.7v-.3h1.4v.3l1.8 3.8L155 53v-.3h1.4v.3h-.7v4.4h.7v.3z"/><path class="st1" d="M162 7.9v56H8v-56h154m2-2H6v60h158v-60z"/><path class="st4" d="M0 71h170v50H0z"/></g><g id="Bulletin"><path class="st1" d="M46.6 92c0 .7-.2 1.3-.5 1.9-.4.6-.9 1.1-1.7 1.5s-1.7.6-2.8.6h-7.2v-1.4h1.9V82.8h-1.9v-1.4h6.2c1.6 0 2.8.3 3.6 1 .8.7 1.2 1.5 1.2 2.6 0 1.7-1 2.8-2.9 3.3 1.5.2 2.6.5 3.2 1.2.6.8.9 1.5.9 2.5zm-4.5-6.8c0-.7-.2-1.3-.6-1.7-.4-.4-.9-.6-1.6-.6h-.6V88h.4c.8 0 1.4-.2 1.8-.7.4-.5.6-1.2.6-2.1zm1.1 6.8c0-.6-.1-1.1-.4-1.5s-.6-.7-1.1-.9c-.5-.2-1.1-.3-1.8-.3h-.6v5.3h.7c2.1 0 3.2-.9 3.2-2.6zm19.9-9.2h-1.9v7.1c0 1-.1 1.9-.4 2.7-.3.8-.7 1.5-1.2 2s-1.2.9-2 1.2c-.8.3-1.7.4-2.7.4-1 0-1.9-.1-2.7-.4-.8-.3-1.4-.7-1.9-1.3s-.9-1.2-1.2-2c-.2-.8-.4-1.6-.4-2.6v-7.2h-2v-1.4h7v1.4h-2V90c0 .7.1 1.3.2 1.9.1.5.4 1 .7 1.4.3.4.7.7 1.1.9.4.2 1 .3 1.5.3 1.1 0 1.9-.4 2.5-1.2.6-.8.9-2 .9-3.6v-7.2h-2v-1.4H63v1.7zM74.7 96h-11v-1.4h1.9V82.8h-1.9v-1.4h6.9v1.4h-2v11.8h4.6v-2.2h1.5V96zm11.4 0h-11v-1.4H77V82.8h-1.9v-1.4H82v1.4h-2v11.8h4.6v-2.2h1.5V96zm11.1 0H86.5v-1.4h2V82.8h-2v-1.4H97v3.4h-1.5v-2h-4.2v5.1h3.1v-1.8H96v5.2h-1.5v-2.1h-3.1v5.4h4.3v-2.1h1.5V96zm13.1-10.5h-1.5v-2h-3.5v11.1h2V96h-6.9v-1.4h2V83.5H99v2h-1.5v-4.8H99v.7h9.8v-.7h1.5v4.8zm8 10.5h-6.9v-1.4h2V82.8h-2v-1.4h6.9v1.4h-1.9v11.8h1.9V96zm17.3-13.2h-2V96h-1.5l-9.4-10.2v8.8h2V96h-5.6v-1.4h1.9V82.8h-1.9v-1.4h4.7v1.4l8.2 9v-9h-2.1v-1.4h5.7v1.4zm-77.5 28h-2.3v-.1l-.8-1.6c-.6-1.2-1.1-1.8-1.7-1.8h-.4v2.8H54v.8h-3.8v-.8h1.1v-6.6h-1.1v-.8h3.5c.6 0 1 .1 1.4.3.4.2.7.4.9.8s.3.7.3 1.1c0 .5-.2.9-.5 1.3s-.8.6-1.4.7c.3.1.5.1.7.2s.4.2.5.4c.2.2.5.6.8 1 .3.4.6 1 .9 1.6h.8v.7zm-3.5-5.8c0-.3-.1-.6-.2-.8-.1-.2-.3-.4-.5-.5-.2-.1-.5-.2-.7-.2h-.3v3h.3c.4 0 .8-.1 1-.4.3-.3.4-.6.4-1.1zm9.7 5.8h-6v-.8h1.1v-6.6h-1.1v-.8h5.9v1.9h-.8v-1.1H61v2.9h1.8v-1h.8v2.9h-.8V107H61v3h2.4v-1.2h.8v2zm8.1 0h-3.1v-.8h.8l-.8-2h-2.4l-.7 2h.7v.8h-2.2v-.8h.7l2.7-7.5h.9l2.9 7.5h.7v.8zm-3.4-3.5-.9-2.6-.9 2.6H69zm12.3-.4c0 1.1-.3 2-1 2.8-.7.8-1.8 1.1-3.3 1.1h-4v-.8h1.1v-6.6H73v-.8h3.2c.7 0 1.3 0 1.8.1s.9.2 1.2.4l.9.6c.4.4.7.9.9 1.4.2.7.3 1.3.3 1.8zm-2 0c0-.6-.1-1.2-.3-1.7-.2-.5-.5-.9-1-1.3-.5-.3-1-.5-1.7-.5h-.5v6.6h1c.8 0 1.4-.3 1.9-.8s.6-1.2.6-2.3zm16.3 3.9h-3.9v-.8h1.1v-5.1l-2.8 5.9h-.3l-2.7-5.7v4.9h1.1v.8H85v-.8h1.1v-6.6H85v-.8h3v.8l2.3 4.8 2.3-4.8v-.8h3.1v.8h-1.1v6.6h1.1v.8zm9.6-4c0 .6-.1 1.2-.3 1.7-.2.5-.5 1-.9 1.3s-.9.7-1.4.9c-.6.2-1.2.3-1.8.3-.6 0-1.2-.1-1.8-.3-.6-.2-1-.5-1.4-.9-.4-.4-.7-.8-.9-1.4s-.3-1.1-.3-1.7c0-.6.1-1.2.3-1.7s.5-1 .9-1.3.9-.7 1.4-.9 1.2-.3 1.8-.3c.7 0 1.3.1 1.8.3s1 .5 1.4.9c.4.4.7.8.9 1.3.2.6.3 1.2.3 1.8zm-1.9-.1c0-.4-.1-.9-.2-1.3s-.3-.8-.5-1.1-.5-.6-.8-.8-.7-.3-1.1-.3c-.5 0-.9.1-1.3.4s-.7.7-.9 1.2c-.2.5-.3 1.1-.3 1.9 0 .7.1 1.4.3 1.9.2.5.5.9.9 1.2s.8.4 1.3.4c.3 0 .6-.1 1-.2.3-.1.6-.4.8-.7s.4-.7.6-1.1c.1-.4.2-.9.2-1.5zm10.5 4.1h-2.3v-.1l-.8-1.6c-.6-1.2-1.1-1.8-1.7-1.8h-.4v2.8h1.1v.8h-3.8v-.8h1.1v-6.6h-1.1v-.8h3.5c.6 0 1 .1 1.4.3.4.2.7.4.9.8s.3.7.3 1.1c0 .5-.2.9-.5 1.3s-.8.6-1.4.7c.3.1.5.1.7.2s.4.2.5.4c.2.2.5.6.8 1 .3.4.6 1 .9 1.6h.8v.7zm-3.4-5.8c0-.3-.1-.6-.2-.8-.1-.2-.3-.4-.5-.5-.2-.1-.5-.2-.7-.2h-.3v3h.3c.4 0 .8-.1 1-.4s.4-.6.4-1.1zm9.7 5.8h-6v-.8h1.1v-6.6h-1.1v-.8h5.9v1.9h-.8v-1.1h-2.3v2.9h1.8v-1h.8v2.9h-.8V107h-1.8v3h2.4v-1.2h.8v2z"/><path style="fill:none;stroke:#fff;stroke-miterlimit:10" d="M49.9 113.3H120"/></g></svg>