<svg xmlns="http://www.w3.org/2000/svg" width="31.802" height="22.261" viewBox="0 0 31.802 22.261">
  <path id="_5305164_play_video_youtube_youtube_logo_icon" data-name="5305164_play_video_youtube_youtube logo_icon" d="M31.137,80.276a3.982,3.982,0,0,0-2.812-2.812C25.846,76.8,15.9,76.8,15.9,76.8s-9.945,0-12.425.665A3.983,3.983,0,0,0,.664,80.276a44.424,44.424,0,0,0,0,15.309A3.983,3.983,0,0,0,3.476,98.4c2.48.664,12.425.664,12.425.664s9.945,0,12.425-.664a3.983,3.983,0,0,0,2.812-2.812,41.392,41.392,0,0,0,.664-7.654,41.4,41.4,0,0,0-.664-7.655ZM12.721,92.7V83.16l8.262,4.77L12.721,92.7Z" transform="translate(0 -76.8)" fill="#f6f9fc"/>
</svg>
