<svg width="21" height="21" viewBox="0 0 21 21" fill="none" xmlns="http://www.w3.org/2000/svg">
<path d="M7 13.125V14.875M10.5 9.625V14.875M14 6.125V14.875M6.825 18.375H14.175C15.6451 18.375 16.3802 18.375 16.9417 18.0889C17.4356 17.8372 17.8372 17.4356 18.0889 16.9417C18.375 16.3802 18.375 15.6451 18.375 14.175V6.825C18.375 5.35486 18.375 4.61979 18.0889 4.05827C17.8372 3.56435 17.4356 3.16278 16.9417 2.91111C16.3802 2.625 15.6451 2.625 14.175 2.625H6.825C5.35486 2.625 4.61979 2.625 4.05827 2.91111C3.56435 3.16278 3.16278 3.56435 2.91111 4.05827C2.625 4.61979 2.625 5.35486 2.625 6.825V14.175C2.625 15.6451 2.625 16.3802 2.91111 16.9417C3.16278 17.4356 3.56435 17.8372 4.05827 18.0889C4.61979 18.375 5.35486 18.375 6.825 18.375Z" stroke="black" stroke-opacity="0.9" stroke-linecap="round" stroke-linejoin="round"/>
</svg>
