<svg width="38" height="39" viewBox="0 0 38 39" fill="none" xmlns="http://www.w3.org/2000/svg">
<g clip-path="url(#clip0_214_3200)">
<path d="M18.9604 36.604C28.1422 36.604 35.5854 29.1607 35.5854 19.979C35.5854 10.7973 28.1422 3.354 18.9604 3.354C9.77872 3.354 2.33545 10.7973 2.33545 19.979C2.33545 29.1607 9.77872 36.604 18.9604 36.604Z" fill="#00AFAB"/>
<path d="M2.33545 19.979C2.33545 10.7957 9.77712 3.354 18.9604 3.354C28.1438 3.354 35.5854 10.7957 35.5854 19.979H2.33545Z" fill="#006072"/>
<path d="M25.4389 24.7818L26.1778 19.979H21.5729V16.8651C21.5729 15.5457 22.2195 14.2658 24.2778 14.2658H26.3757V10.1755C26.3757 10.1755 24.4757 9.84567 22.6549 9.84567C18.8549 9.84567 16.3743 12.1415 16.3743 16.311V19.979H12.1521V24.7818H16.3743V36.3929C17.2188 36.5248 18.0896 36.5908 18.9736 36.5908C19.8577 36.5908 20.7285 36.5248 21.5729 36.3929V24.7818H25.4389Z" fill="white"/>
</g>
<defs>
<clipPath id="clip0_214_3200">
<rect width="38" height="38" fill="white" transform="translate(0 0.979004)"/>
</clipPath>
</defs>
</svg>
