<svg width="38" height="39" viewBox="0 0 38 39" fill="none" xmlns="http://www.w3.org/2000/svg">
<g clip-path="url(#clip0_215_2765)">
<path d="M18.9604 36.604C28.1422 36.604 35.5854 29.1607 35.5854 19.979C35.5854 10.7973 28.1422 3.354 18.9604 3.354C9.77872 3.354 2.33545 10.7973 2.33545 19.979C2.33545 29.1607 9.77872 36.604 18.9604 36.604Z" fill="#00AFAB"/>
<path d="M2.33545 19.979C2.33545 10.7957 9.77712 3.354 18.9604 3.354C28.1438 3.354 35.5854 10.7957 35.5854 19.979H2.33545Z" fill="#006072"/>
<g clip-path="url(#clip1_215_2765)">
<path d="M24.0962 10.1202C22.8432 10.1803 21.6383 10.7272 20.7068 11.6586L17.0529 15.3125C17.6268 14.7356 19.7573 15.1322 20.2741 15.649L22.4856 13.4375C22.9754 12.9477 23.5884 12.6472 24.2164 12.6202C24.6431 12.5991 25.247 12.6893 25.7789 13.2211C26.2747 13.7169 26.3799 14.2939 26.3799 14.6875C26.3799 15.3455 26.0794 16.0006 25.5625 16.5144L21.7164 20.3846C20.7488 21.3522 19.2765 21.4303 18.4231 20.5769C17.9363 20.0901 17.1341 20.0871 16.6443 20.5769C16.1545 21.0667 16.1545 21.866 16.6443 22.3558C17.5217 23.2332 18.6755 23.6779 19.8654 23.6779C21.1515 23.6779 22.4646 23.152 23.4712 22.1394L27.3414 18.2933C28.324 17.3137 28.8799 16.0036 28.8799 14.6875C28.8799 13.4645 28.4171 12.3017 27.5577 11.4423C26.6383 10.5228 25.4033 10.0601 24.0962 10.1202ZM18.1347 16.3221C16.8486 16.3221 15.5145 16.851 14.5049 17.8606L10.6587 21.7067C9.67613 22.6863 9.12024 23.9964 9.12024 25.3125C9.12024 26.5354 9.58298 27.6983 10.4424 28.5577C11.3618 29.4772 12.5968 29.9399 13.9039 29.8798C15.1569 29.8197 16.3618 29.2728 17.2933 28.3413L20.9472 24.6875C20.3702 25.2644 18.2428 24.8678 17.726 24.351L15.5145 26.5625C15.0247 27.0523 14.4117 27.3498 13.7837 27.3798C13.357 27.4008 12.7531 27.3107 12.2212 26.7788C11.7254 26.283 11.6202 25.7031 11.6202 25.3125C11.6202 24.6544 11.9207 23.9994 12.4375 23.4856L16.2837 19.6154C17.2512 18.6478 18.7236 18.5727 19.577 19.4231C20.0668 19.9129 20.869 19.9129 21.3558 19.4231C21.8456 18.9333 21.8456 18.134 21.3558 17.6442C20.4784 16.7668 19.3216 16.3221 18.1347 16.3221Z" fill="white"/>
</g>
</g>
<defs>
<clipPath id="clip0_215_2765">
<rect width="38" height="38" fill="white" transform="translate(0 0.979004)"/>
</clipPath>
<clipPath id="clip1_215_2765">
<rect width="20" height="20" fill="white" transform="translate(9 10)"/>
</clipPath>
</defs>
</svg>
