<svg width="38" height="39" viewBox="0 0 38 39" fill="none" xmlns="http://www.w3.org/2000/svg">
<g clip-path="url(#clip0_214_3199)">
<path d="M18.9604 36.604C28.1422 36.604 35.5854 29.1607 35.5854 19.979C35.5854 10.7973 28.1422 3.354 18.9604 3.354C9.77872 3.354 2.33545 10.7973 2.33545 19.979C2.33545 29.1607 9.77872 36.604 18.9604 36.604Z" fill="#00AFAB"/>
<path d="M2.33545 19.979C2.33545 10.7957 9.77712 3.354 18.9604 3.354C28.1438 3.354 35.5854 10.7957 35.5854 19.979H2.33545Z" fill="#006072"/>
<path d="M28.8167 29.6374H24.8583V23.436C24.8583 21.9582 24.832 20.0582 22.8 20.0582C20.7417 20.0582 20.425 21.6679 20.425 23.3304V29.6374H16.4667V16.8783H20.2667V18.62H20.3195C21.0979 17.3005 22.5361 16.5089 24.0667 16.5617C28.0778 16.5617 28.8167 19.2005 28.8167 22.6443V29.6374Z" fill="white"/>
<path d="M11.9805 15.1367C10.7139 15.1367 9.68469 14.1075 9.68469 12.8408C9.68469 11.5741 10.7139 10.545 11.9805 10.545C13.2472 10.545 14.2764 11.5741 14.2764 12.8408C14.2764 14.1075 13.2604 15.1367 11.9805 15.1367Z" fill="white"/>
<path d="M13.9729 16.8783H10.0013V29.6374H13.9729V16.8783Z" fill="white"/>
</g>
<defs>
<clipPath id="clip0_214_3199">
<rect width="38" height="38" fill="white" transform="translate(0 0.979004)"/>
</clipPath>
</defs>
</svg>
