<svg width="343" height="298" viewBox="0 0 343 298" fill="none" xmlns="http://www.w3.org/2000/svg">
<g opacity="0.4" clip-path="url(#clip0_1230_6419)">
<path d="M-51.8676 -46.8999L315.481 298.299L-51.8676 298.299L-51.8676 -46.8999Z" stroke="#3CD5AF"/>
<path d="M-0.065992 292.989L-0.065786 292.988L2.23576 290.692L2.23597 290.692L8.06998 284.878L8.07025 284.878L26.615 266.369L26.6152 266.369L32.4493 260.541L32.4495 260.541L59.1446 233.907L64.9719 228.093L67.2734 225.797L73.0932 219.991L73.0937 219.99L75.3877 217.694L75.3884 217.694L81.2225 211.88L81.2227 211.88L91.6529 201.473L97.4872 195.653L111.119 182.052L-52.3858 182.052L-52.3858 345.195L-5.89328 298.81L-5.89308 298.809L-0.065992 292.989Z" stroke="#3CD5AF" stroke-linejoin="round"/>
<path d="M-53.0001 292L0.99988 291.999" stroke="#3CD5AF" stroke-linejoin="round"/>
<path d="M-53.0001 282L10.9999 281.999" stroke="#3CD5AF" stroke-linejoin="round"/>
<path d="M-53.0001 272L20.9999 271.999" stroke="#3CD5AF" stroke-linejoin="round"/>
<path d="M-53.0001 262L30.9999 261.999" stroke="#3CD5AF" stroke-linejoin="round"/>
<path d="M-53.0001 252L40.9999 251.999" stroke="#3CD5AF" stroke-linejoin="round"/>
<path d="M-53.0001 242L50.9999 241.999" stroke="#3CD5AF" stroke-linejoin="round"/>
<path d="M-53.0001 232L60.9999 231.999" stroke="#3CD5AF" stroke-linejoin="round"/>
<path d="M-53.0001 222L70.9999 221.999" stroke="#3CD5AF" stroke-linejoin="round"/>
<path d="M-53.0001 212L80.9999 211.999" stroke="#3CD5AF" stroke-linejoin="round"/>
<path d="M-53.0001 202L90.9999 201.999" stroke="#3CD5AF" stroke-linejoin="round"/>
<path d="M-53.0001 192L101 191.999" stroke="#3CD5AF" stroke-linejoin="round"/>
<path d="M-12 64L237 298L-12 298L-12 64Z" stroke="#3CD5AF"/>
</g>
<defs>
<clipPath id="clip0_1230_6419">
<rect width="343" height="300" fill="white" transform="matrix(-1 -8.74228e-08 -8.74228e-08 1 343 0)"/>
</clipPath>
</defs>
</svg>
