<svg version="1.1" id="Layer_1" xmlns="http://www.w3.org/2000/svg" xmlns:xlink="http://www.w3.org/1999/xlink" x="0px" y="0px"
	 viewBox="0 0 38 39" style="enable-background:new 0 0 38 39;" xml:space="preserve">
<style type="text/css">
	.st0{clip-path:url(#SVGID_00000041995376258689722260000018424468008915035819_);fill:#00AFAB;}
	.st1{clip-path:url(#SVGID_00000041995376258689722260000018424468008915035819_);fill:#006072;}
	.st2{fill:#FFFFFF;}
</style>
<g>
	<g>
		<defs>
			<rect id="SVGID_1_" y="1" width="38" height="38"/>
		</defs>
		<clipPath id="SVGID_00000168797204562932077190000015524559734761744026_">
			<use xlink:href="#SVGID_1_"  style="overflow:visible;"/>
		</clipPath>
		<path style="clip-path:url(#SVGID_00000168797204562932077190000015524559734761744026_);fill:#00AFAB;" d="M19,36.6
			c9.2,0,16.6-7.4,16.6-16.6S28.1,3.4,19,3.4C9.8,3.4,2.3,10.8,2.3,20S9.8,36.6,19,36.6z"/>
		<path style="clip-path:url(#SVGID_00000168797204562932077190000015524559734761744026_);fill:#006072;" d="M2.3,20
			C2.3,10.8,9.8,3.4,19,3.4c9.2,0,16.6,7.4,16.6,16.6H2.3z"/>
	</g>
	<path class="st2" d="M20.9,18l7.3-8.5h-1.7l-6.4,7.4L15,9.4H9.2l7.7,11.2l-7.7,8.9h1.7l6.7-7.8l5.4,7.8h5.9L20.9,18L20.9,18z
		 M18.5,20.7l-0.8-1.1l-6.2-8.9h2.7l5,7.2L20,19l6.5,9.3h-2.7L18.5,20.7L18.5,20.7z"/>
</g>
</svg>