<?xml version="1.0" encoding="UTF-8"?>
<svg width="303px" height="38px" viewBox="0 0 303 38" version="1.1" xmlns="http://www.w3.org/2000/svg" xmlns:xlink="http://www.w3.org/1999/xlink">
    <!-- Generator: Sketch 64 (93537) - https://sketch.com -->
    <title>Group 17</title>
    <desc>Created with Sketch.</desc>
    <defs>
        <polygon id="path-1" points="0 0.56656 28.85336 0.56656 28.85336 26.96096 0 26.96096"></polygon>
        <polygon id="path-3" points="0 37.67496 302.14 37.67496 302.14 -0.00024 0 -0.00024"></polygon>
    </defs>
    <g id="Page-1" stroke="none" stroke-width="1" fill="none" fill-rule="evenodd">
        <g id="blog-main" transform="translate(-86.000000, -100.000000)">
            <g id="Group-17" transform="translate(86.000000, 100.000000)">
                <g id="Group-3" transform="translate(0.000000, 4.074960)">
                    <mask id="mask-2" fill="white">
                        <use xlink:href="#path-1"></use>
                    </mask>
                    <g id="Clip-2"></g>
                    <path d="M21.61976,17.02096 L15.17416,17.02096 L15.17416,12.21296 L28.85336,12.21296 L28.85336,25.21776 C25.18136,26.35616 21.01336,26.96096 16.38376,26.96096 C5.48296,26.96096 -0.00024,22.58016 -0.00024,13.92176 C-0.00024,5.37456 5.55816,0.56656 15.63896,0.56656 C24.11416,0.56656 28.49416,3.38336 28.85336,9.07696 L21.01336,9.07696 C20.90696,6.72896 18.84456,5.26576 15.42296,5.26576 C10.36456,5.26576 7.55016,8.22896 7.55016,13.53376 C7.55016,19.16096 10.43736,22.01136 16.16776,22.01136 C17.87896,22.01136 19.69896,21.76176 21.61976,21.26176 L21.61976,17.02096 Z" id="Fill-1" fill="#121B1F" mask="url(#mask-2)"></path>
                </g>
                <mask id="mask-4" fill="white">
                    <use xlink:href="#path-3"></use>
                </mask>
                <g id="Clip-5"></g>
                <path d="M32.9104,30.60936 L39.752,30.60936 L39.752,12.72696 L32.9104,12.72696 L32.9104,30.60936 Z M32.6264,9.98536 L40.0008,9.98536 L40.0008,4.95816 L32.6264,4.95816 L32.6264,9.98536 Z" id="Fill-4" fill="#121B1F" mask="url(#mask-4)"></path>
                <path d="M54.85416,25.9748 C58.13336,25.9748 59.87576,24.2324 59.87576,21.0284 C59.87576,17.9596 58.06056,16.182 54.92376,16.182 C51.78936,16.182 49.97416,18.034 49.97416,21.274 C49.97416,24.0916 51.85896,25.9748 54.85416,25.9748 M60.20056,12.7268 L66.89176,12.7268 C66.71256,14.1148 66.64536,15.4732 66.64536,16.7884 L66.64536,25.9076 C66.64536,29.358 66.50216,31.8556 65.00536,33.8524 C63.00696,36.4492 59.44696,37.6236 54.07096,37.6236 C47.37256,37.6236 43.98696,35.5556 43.91976,31.3244 L50.68616,31.3244 C50.75896,32.9276 51.96616,33.742 54.28296,33.742 C58.06056,33.742 59.80376,32.0316 59.80376,28.402 L59.80376,26.906 C58.01976,28.9324 55.45576,29.9292 52.18456,29.9292 C46.55576,29.9292 42.95816,26.2612 42.95816,21.2388 C42.95816,15.718 46.52056,12.3036 52.50136,12.3036 C55.31496,12.3036 57.80856,13.3284 59.98216,15.3956 C59.98216,14.3668 60.05256,13.4764 60.20056,12.7268" id="Fill-6" fill="#121B1F" mask="url(#mask-4)"></path>
                <path d="M83.91512,22.62952 C78.71752,22.62952 76.33112,23.15992 76.33112,25.15832 C76.33112,26.47832 77.47192,27.15352 79.75672,27.15352 C82.77832,27.15352 84.45272,25.69592 84.45272,23.01832 L84.45272,22.62952 L83.91512,22.62952 Z M76.29512,31.03592 C71.70072,31.03592 69.21352,29.00792 69.21352,25.62472 C69.21352,23.44792 70.16872,21.70552 71.98952,20.59672 C73.76552,19.49352 76.79352,19.35352 81.13672,19.35352 L84.45272,19.35352 C84.45272,19.17432 84.48712,18.99512 84.48712,18.85752 C84.48712,16.89832 83.31352,15.86072 81.13672,15.86072 C78.75112,15.86072 77.54312,16.42952 77.29192,18.03432 L70.34792,18.03432 C70.81032,14.04872 74.33592,12.30392 81.24632,12.30392 C87.90872,12.30392 91.07432,14.40152 91.07432,19.13832 L91.07432,28.25912 C91.07432,29.11432 91.14712,29.86392 91.43272,30.60952 L85.05832,30.60952 C84.77512,29.96472 84.63032,29.22072 84.63032,28.29512 L84.63032,27.97192 C83.20712,29.89752 80.35912,31.03592 76.29512,31.03592 L76.29512,31.03592 Z" id="Fill-7" fill="#121B1F" mask="url(#mask-4)"></path>
                <path d="M94.35184,16.93104 C94.35184,15.50864 94.31824,14.11424 94.14384,12.72704 L100.87424,12.72704 C101.01184,13.69024 101.12464,14.65024 101.19424,15.61184 C103.18784,13.40304 105.67824,12.30384 108.60464,12.30384 C111.91584,12.30384 114.08944,13.57744 115.01344,16.00384 C116.72144,13.54544 119.21824,12.30384 122.31504,12.30384 C127.33504,12.30384 130.15504,14.93424 130.15504,19.88704 L130.15504,30.60944 L123.35184,30.60944 L123.35184,19.70944 C123.35184,17.53264 122.06624,16.32144 119.89344,16.32144 C116.93744,16.32144 115.58144,18.03424 115.58144,21.52064 L115.58144,30.60944 L108.85184,30.60944 L108.85184,19.70944 C108.85184,17.57264 107.56864,16.32144 105.46544,16.32144 C102.43744,16.32144 101.08704,18.03424 101.08704,21.52064 L101.08704,30.60944 L94.35184,30.60944 L94.35184,16.93104 Z" id="Fill-8" fill="#121B1F" mask="url(#mask-4)"></path>
                <path d="M149.91512,21.49048 C149.91512,17.99688 147.99672,15.86088 144.97432,15.86088 C141.83432,15.86088 140.02232,17.85768 140.02232,21.45688 C140.02232,25.08568 141.76472,27.04328 145.00232,27.04328 C148.03112,27.04328 149.91512,24.94088 149.91512,21.49048 M132.82392,21.63368 C132.82392,15.64888 136.98952,12.26328 144.93752,12.26328 C152.87512,12.26328 157.08552,15.64888 157.08552,21.70568 C157.08552,27.86408 152.91192,31.03608 144.64952,31.03608 C136.88552,31.03608 132.82392,27.65288 132.82392,21.63368" id="Fill-9" fill="#121B1F" mask="url(#mask-4)"></path>
                <path d="M159.3284,16.93104 C159.3284,15.50864 159.2924,14.11424 159.1052,12.72704 L165.9836,12.72704 C166.0868,13.57744 166.1636,14.54224 166.1636,15.57504 C168.154,13.47664 170.5076,12.30384 173.8508,12.30384 C178.7028,12.30384 181.618,15.00944 181.618,19.67584 L181.618,30.60944 L174.7452,30.60944 L174.7452,19.99504 C174.7452,17.57264 173.4284,16.32144 170.9724,16.32144 C167.6892,16.32144 166.1636,18.03424 166.1636,21.52064 L166.1636,30.60944 L159.3284,30.60944 L159.3284,16.93104 Z" id="Fill-10" fill="#121B1F" mask="url(#mask-4)"></path>
                <path d="M186.59792,9.37248 L187.65072,9.37248 C188.14912,9.37248 188.49072,9.29728 188.67952,9.14768 C188.86432,8.99568 188.95312,8.79968 188.95312,8.55088 C188.95312,8.39328 188.90912,8.25008 188.82512,8.12448 C188.73552,7.99888 188.60912,7.90528 188.45152,7.84448 C188.29552,7.78048 188.00672,7.75088 187.58352,7.75088 L186.59792,7.75088 L186.59792,9.37248 Z M185.72752,12.39648 L185.72752,7.02368 L187.57632,7.02368 C188.20592,7.02368 188.66192,7.07168 188.94512,7.17088 C189.23072,7.27008 189.45472,7.44448 189.61952,7.69088 C189.78752,7.93728 189.87872,8.20048 189.87872,8.47968 C189.87872,8.87248 189.73232,9.21488 189.45472,9.50608 C189.17472,9.79648 188.80192,9.95888 188.33712,9.99408 C188.52512,10.07408 188.67952,10.16928 188.79632,10.27888 C189.01072,10.49168 189.27552,10.84448 189.58912,11.34448 L190.24512,12.39648 L189.18912,12.39648 L188.71072,11.54928 C188.33152,10.88368 188.03232,10.46608 187.80272,10.29968 C187.64752,10.17568 187.41072,10.11488 187.10832,10.11488 L186.59792,10.11488 L186.59792,12.39648 L185.72752,12.39648 Z M187.92032,5.46688 C187.21952,5.46688 186.53712,5.64608 185.87232,6.00768 C185.20592,6.36528 184.69072,6.88048 184.31792,7.54848 C183.94032,8.21728 183.75232,8.91168 183.75232,9.63728 C183.75232,10.35728 183.93792,11.04608 184.30432,11.70608 C184.67392,12.36528 185.18272,12.88128 185.84992,13.24768 C186.51392,13.61728 187.19712,13.80208 187.92032,13.80208 C188.63712,13.80208 189.32832,13.61728 189.99232,13.24768 C190.65312,12.88128 191.16992,12.36528 191.53632,11.70608 C191.90032,11.04608 192.08432,10.35728 192.08432,9.63728 C192.08432,8.91168 191.89712,8.21728 191.52512,7.54848 C191.15552,6.88048 190.63072,6.36528 189.96992,6.00768 C189.29792,5.64608 188.61472,5.46688 187.92032,5.46688 L187.92032,5.46688 Z M187.92032,4.64128 C188.76032,4.64128 189.57872,4.85408 190.37952,5.28528 C191.17552,5.71648 191.79632,6.32928 192.24512,7.13168 C192.68992,7.93168 192.91152,8.76768 192.91152,9.63728 C192.91152,10.49888 192.69312,11.32288 192.25552,12.11888 C191.81392,12.91488 191.20032,13.53088 190.40752,13.97008 C189.61232,14.41008 188.78832,14.62848 187.92032,14.62848 C187.05472,14.62848 186.22592,14.41008 185.43632,13.97008 C184.64592,13.53088 184.02672,12.91488 183.58752,12.11888 C183.14512,11.32288 182.92272,10.49888 182.92272,9.63728 C182.92272,8.76768 183.14752,7.93168 183.59552,7.13168 C184.04352,6.32928 184.66832,5.71648 185.46672,5.28528 C186.26192,4.85408 187.08272,4.64128 187.92032,4.64128 L187.92032,4.64128 Z" id="Fill-11" fill="#121B1F" mask="url(#mask-4)"></path>
                <polygon id="Fill-12" fill="#848A8F" mask="url(#mask-4)" points="210.088 37.67496 211.4536 37.67496 211.4536 -0.00024 210.088 -0.00024"></polygon>
                <path d="M247.72528,27.99432 C248.77488,27.29512 249.29968,26.20232 249.29968,24.71432 C249.29968,21.85032 247.22208,20.41752 243.06768,20.41752 L234.96608,20.41752 L234.96608,29.04392 L243.06768,29.04392 C245.12288,29.04392 246.67568,28.69512 247.72528,27.99432 L247.72528,27.99432 Z M234.96608,10.08552 L234.96608,18.41672 L242.27968,18.41672 C244.13888,18.41672 245.57168,18.06232 246.57648,17.35112 C247.58208,16.64072 248.08608,15.60792 248.08608,14.25112 C248.08608,12.89592 247.58208,11.86312 246.57648,11.15192 C245.57168,10.44152 244.13888,10.08552 242.27968,10.08552 L234.96608,10.08552 Z M250.49648,21.15592 C251.31648,22.12952 251.72688,23.38072 251.72688,24.91112 C251.72688,26.87912 250.99968,28.39432 249.54528,29.45432 C248.09088,30.51512 245.94208,31.04472 243.10048,31.04472 L232.53888,31.04472 L232.53888,8.08472 L242.44368,8.08472 C245.00288,8.08472 246.98688,8.59912 248.39728,9.62632 C249.80848,10.65432 250.51248,12.10872 250.51248,13.98872 C250.51248,15.25752 250.20208,16.33432 249.57808,17.21992 C248.95488,18.10552 248.09648,18.76712 247.00368,19.20472 C248.51168,19.53272 249.67648,20.18312 250.49648,21.15592 L250.49648,21.15592 Z" id="Fill-13" fill="#121B1F" mask="url(#mask-4)"></path>
                <polygon id="Fill-14" fill="#121B1F" mask="url(#mask-4)" points="256.7776 31.04536 259.1064 31.04536 259.1064 6.70776 256.7776 6.70776"></polygon>
                <path d="M275.94872,28.30608 C276.92152,27.74928 277.68152,26.95648 278.22872,25.92768 C278.77512,24.90048 279.04872,23.73088 279.04872,22.41888 C279.04872,21.10688 278.77512,19.93728 278.22872,18.90928 C277.68152,17.88208 276.92152,17.08928 275.94872,16.53088 C274.97592,15.97328 273.87672,15.69408 272.65272,15.69408 C271.42792,15.69408 270.32952,15.97328 269.35672,16.53088 C268.38312,17.08928 267.61752,17.88208 267.06072,18.90928 C266.50232,19.93728 266.22392,21.10688 266.22392,22.41888 C266.22392,23.73088 266.50232,24.90048 267.06072,25.92768 C267.61752,26.95648 268.38312,27.74928 269.35672,28.30608 C270.32952,28.86368 271.42792,29.14288 272.65272,29.14288 C273.87672,29.14288 274.97592,28.86368 275.94872,28.30608 M268.15912,30.07728 C266.82552,29.32288 265.77512,28.27968 265.01032,26.94528 C264.24472,25.61168 263.86232,24.10288 263.86232,22.41888 C263.86232,20.73488 264.24472,19.22608 265.01032,17.89168 C265.77512,16.55888 266.82552,15.52048 268.15912,14.77648 C269.49272,14.03328 270.99112,13.66048 272.65272,13.66048 C274.31432,13.66048 275.81192,14.03328 277.14632,14.77648 C278.47992,15.52048 279.52472,16.55888 280.27832,17.89168 C281.03272,19.22608 281.41032,20.73488 281.41032,22.41888 C281.41032,24.10288 281.03272,25.61168 280.27832,26.94528 C279.52472,28.27968 278.47992,29.32288 277.14632,30.07728 C275.81192,30.83168 274.31432,31.20928 272.65272,31.20928 C270.99112,31.20928 269.49272,30.83168 268.15912,30.07728" id="Fill-15" fill="#121B1F" mask="url(#mask-4)"></path>
                <path d="M296.6948,27.51936 C297.7004,26.98336 298.482,26.23536 299.0404,25.27216 C299.598,24.31056 299.8772,23.21696 299.8772,21.99216 C299.8772,20.76816 299.598,19.68016 299.0404,18.72896 C298.482,17.77696 297.7068,17.03456 296.7116,16.49856 C295.7156,15.96336 294.5844,15.69456 293.3164,15.69456 C292.0708,15.69456 290.9492,15.95696 289.9548,16.48176 C288.9596,17.00656 288.1828,17.75056 287.626,18.71216 C287.0684,19.67456 286.7892,20.76816 286.7892,21.99216 C286.7892,23.21696 287.0684,24.31056 287.626,25.27216 C288.1828,26.23536 288.9596,26.98336 289.9548,27.51936 C290.9492,28.05536 292.0708,28.32256 293.3164,28.32256 C294.5628,28.32256 295.6892,28.05536 296.6948,27.51936 L296.6948,27.51936 Z M302.1404,13.79216 L302.1404,28.94576 C302.1404,31.87536 301.4236,34.04656 299.9916,35.45696 C298.5588,36.86736 296.3996,37.57216 293.5132,37.57216 C291.9164,37.57216 290.4028,37.33696 288.9708,36.86736 C287.5388,36.39696 286.374,35.74576 285.478,34.91536 L286.658,33.14416 C287.4892,33.88736 288.5004,34.46736 289.6924,34.88256 C290.8836,35.29776 292.1364,35.50576 293.4476,35.50576 C295.634,35.50576 297.242,34.99776 298.27,33.98096 C299.2972,32.96416 299.8116,31.38416 299.8116,29.24096 L299.8116,27.04336 C299.0892,28.13696 298.1436,28.96816 296.974,29.53616 C295.8036,30.10496 294.5084,30.38896 293.0868,30.38896 C291.4684,30.38896 289.998,30.03456 288.6756,29.32336 C287.3516,28.61296 286.3132,27.61776 285.5596,26.33776 C284.8052,25.05936 284.4276,23.61056 284.4276,21.99216 C284.4276,20.37376 284.8052,18.93136 285.5596,17.66336 C286.3132,16.39536 287.3468,15.41056 288.6588,14.71056 C289.9716,14.01136 291.4468,13.66096 293.0868,13.66096 C294.5516,13.66096 295.8756,13.95616 297.0556,14.54656 C298.2372,15.13696 299.1876,15.98976 299.91,17.10496 L299.91,13.79216 L302.1404,13.79216 Z" id="Fill-16" fill="#121B1F" mask="url(#mask-4)"></path>
            </g>
        </g>
    </g>
</svg>