<?xml version="1.0" encoding="UTF-8"?>
<!-- Generator: Adobe Illustrator 22.1.0, SVG Export Plug-In . SVG Version: 6.00 Build 0)  -->
<svg version="1.1" id="レイヤー_1" xmlns="http://www.w3.org/2000/svg" xmlns:xlink="http://www.w3.org/1999/xlink" x="0px" y="0px" viewBox="0 0 185.7 26" style="enable-background:new 0 0 185.7 26;" xml:space="preserve">
<style type="text/css">
	.st0{fill:#FFFFFF;}
	.st1{fill:#D20000;}
</style>
<title>アートボード 1</title>
<path class="st0" d="M8.2,19.8c0,0,0.1-12.5,0-14.1c0-0.8-0.7-1.4-1.5-1.4c-0.2,0-0.4,0-0.5,0.1c-0.4,0.1-0.6-0.7,0-0.7H17  c0.4,0,0.1,0.6-0.1,0.6c-1.6,0-1.9,0.9-2,2V17c-0.4,5.8-8.6,7.3-14.7,5.6l2.2-6.3C4.2,24.6,8.4,21.9,8.2,19.8z"/>
<path class="st0" d="M20.7,5.6c0,0-0.1,12,0,13.9c0.2,1-0.4,1.9-1.4,2.1c-0.2,0-0.3,0-0.5,0c-0.7,0.1-0.7,0.6-0.6,0.9H28  c0.4,0,0.4-0.7-0.1-0.7c-1.4-0.1-2.3-0.8-2.4-2.1v-5.9h5c2.1-0.1,6.3-1.4,6.5-5.1c0-3.7-3.7-5.1-6.5-5.1H18.8  C18.8,3.6,20.3,5.2,20.7,5.6z M25.6,13V5H28c2.2,0,3.9,1.8,3.9,3.9c-0.1,1.7-2,3.9-3.3,4S25.6,13,25.6,13z"/>
<path class="st0" d="M55.5,11L57,5.1c-10.7-5.8-19.5,0.2-19.2,8.7c0.3,8,11.9,12.4,19.9,7l-1.9-5.1c-2.6,9.3-12.8,8-12.7-2.5  S53.4,0.1,55.5,11z"/>
<path class="st0" d="M60.7,5.7V20c0,0-1.4,1.9-2.1,2.5h17.9c1.1-2.1,1.8-4.3,2-6.6c-1,1-4.3,4.5-7.5,5.1s-5-0.3-5.2-2.5v-5.1h3.9  c0.7,0.1,3-0.4,4,2.5V8.6c-0.1,0.8-2.6,3.1-3.9,3h-3.9V5.2c6.3-0.2,8.5,1.9,9.9,3.1s1.4,0.3,1.3,0c-0.3-1.6-0.6-3.1-1.1-4.7H58.8  C59.7,4.1,60.3,4.8,60.7,5.7z"/>
<path class="st0" d="M80.5,3.9c0.7,0.1,1,1.2,1.1,1.7v13.8c0,1.1-0.7,1.9-2.1,3.4h9c-1-0.8-1.6-1.9-1.9-3.2v-6c3,0,3.8,0.3,5,2.1  s2.5,7.1,2.5,7.1h7.4c-1.2-0.4-2.7-3.6-3.6-6s-1.7-3.1-4.7-3.8c9.9-1.1,5.5-9,1-9H80.7 M90,4.9c1.9,0.1,3.3,1.8,3.2,3.7l0,0  c0,1.8-1.4,3.3-3.2,3.5h-3.3V5L90,4.9z"/>
<path class="st0" d="M100.4,7.7c-0.5,1.3,0.7,0.7,0.8,0.6s3.5-2.9,4.9-3.4c1.1-0.3,2.3,0.4,2.6,1.5v13.1c0,0.7-1,2.2-2.2,2.1  c-0.7,0.4-0.3,0.8,0,1c0,0,8.2,0.1,8.9,0s0.2-0.9,0-0.9c-1.1,0-2-1-2-2.1v-0.1V6.3c0-1,0.7-1.3,1.5-1.3c2.7,0.2,5.1,2.9,5.6,3.7  c0.5,0.8,0.9,0.3,0.9,0.2l-1.3-5.1h-18.5C101.6,3.8,100.8,6.5,100.4,7.7z"/>
<path class="st1" d="M129.3,0.3L121,25.7h57.1V0.3H129.3z"/>
<path class="st0" d="M183,0.5c1.4,0,2.6,1.2,2.6,2.6s-1.2,2.6-2.6,2.6c-1.4,0-2.6-1.2-2.6-2.6l0,0c-0.1-1.4,1-2.6,2.4-2.6  C182.8,0.5,182.9,0.5,183,0.5z M183,5.3c1.2,0,2.1-0.9,2.2-2.1V3.1c0-1.2-0.9-2.2-2.1-2.2l0,0c-1.2,0-2.1,0.9-2.2,2.1v0.1  c-0.1,1.2,0.9,2.2,2,2.2H183L183,5.3z M182,1.5h1.2c0.7,0,1.1,0.3,1.1,0.8c0,0.6-0.4,0.8-0.8,0.8l0.8,1.4h-0.6l-0.8-1.3h-0.5v1.3  H182V1.5z M182.5,2.9h0.5c0.5,0,0.8,0,0.8-0.5S183.4,2,183.1,2h-0.7L182.5,2.9z"/>
<path class="st0" d="M132.3,14.2c-0.3-8.5,8.5-14.5,19.2-8.7l-1.6,5.9c-2.1-11-12.2-8.4-12.3,2.1s10.1,11.8,12.7,2.5l1.9,5.1  C144.2,26.5,132.6,22.1,132.3,14.2z"/>
<path class="st0" d="M154.7,14.2c-0.3-8.5,8.5-14.5,19.2-8.7l-1.6,5.9c-2.1-11-12.2-8.4-12.2,2.2s10.1,11.8,12.7,2.5l1.9,5.1  C166.5,26.5,154.9,22.1,154.7,14.2z"/>
</svg>