<?xml version="1.0" encoding="utf-8"?>
<!-- Generator: Adobe Illustrator 27.0.0, SVG Export Plug-In . SVG Version: 6.00 Build 0)  -->
<svg version="1.1" id="Layer_1" xmlns="http://www.w3.org/2000/svg" xmlns:xlink="http://www.w3.org/1999/xlink" x="0px" y="0px"
	 viewBox="0 0 276.7 55.1" style="enable-background:new 0 0 276.7 55.1;" xml:space="preserve">
<style type="text/css">
	.st0{clip-path:url(#SVGID_00000011016323564406222040000017548814746403624068_);}
	.st1{fill:#FFFFFF;}
	.st2{fill:none;}
	.st3{font-family:'SegoeUI';}
	.st4{font-size:16px;}
	.st5{fill:#D70169;}
</style>
<g id="Group_169570" transform="translate(293.847 40)">
	<g>
		<defs>
			<rect id="SVGID_1_" x="-141" y="-30.5" width="123.8" height="26.3"/>
		</defs>
		<clipPath id="SVGID_00000093890807083644093660000017452611530815087535_">
			<use xlink:href="#SVGID_1_"  style="overflow:visible;"/>
		</clipPath>
		
			<g id="Group_169569" transform="translate(0 0)" style="clip-path:url(#SVGID_00000093890807083644093660000017452611530815087535_);">
			<path id="Path_48964" class="st1" d="M-112.5-12.7L-112.5-12.7c0-2.5,2-4.6,4.5-4.6c0.1,0,0.1,0,0.2,0c1.3-0.1,2.6,0.4,3.5,1.4
				l-1.3,1.4c-0.6-0.6-1.4-1-2.3-1c-1.5,0-2.6,1.2-2.6,2.7c0,0,0,0.1,0,0.1v0c-0.1,1.5,1,2.7,2.5,2.8c0,0,0.1,0,0.1,0
				c0.9,0,1.7-0.4,2.4-1l1.2,1.3c-0.9,1.1-2.3,1.7-3.7,1.6c-2.5,0-4.5-2-4.6-4.5C-112.5-12.6-112.5-12.7-112.5-12.7"/>
			<path id="Path_48965" class="st1" d="M-102.7-17.2l2,0l0,3.5l3.6,0l0-3.5l2,0l0,9l-2,0l0-3.6l-3.6,0l0,3.6l-2,0L-102.7-17.2z"/>
			<path id="Path_48966" class="st1" d="M-92.7-17.2l6.8,0v1.8l-4.8,0v1.8l4.2,0v1.8l-4.2,0l0,1.9l4.9,0v1.8l-6.8,0L-92.7-17.2z"/>
			<path id="Path_48967" class="st1" d="M-84.6-12.7L-84.6-12.7c0-2.5,2-4.6,4.5-4.6c0.1,0,0.1,0,0.2,0c1.3-0.1,2.6,0.4,3.5,1.4
				l-1.3,1.4c-0.6-0.6-1.4-1-2.3-1c-1.5,0-2.6,1.2-2.6,2.7c0,0,0,0.1,0,0.1v0c-0.1,1.5,1,2.7,2.5,2.8c0,0,0.1,0,0.1,0
				c0.9,0,1.7-0.4,2.4-1l1.2,1.3C-77.2-8.6-78.6-8-80-8c-2.5,0-4.5-2-4.6-4.5C-84.6-12.6-84.6-12.6-84.6-12.7"/>
			<path id="Path_48968" class="st1" d="M-74.8-17.1l2,0l0,3.9l3.6-3.9l2.4,0l-3.7,3.8l3.8,5.2l-2.4,0l-2.8-3.8l-1,1.1l0,2.7l-2,0
				L-74.8-17.1z"/>
			<path id="Path_48969" class="st1" d="M-62.3-17.1l3.7,0c2.1,0,3.4,1.3,3.4,3.1v0c0,2.1-1.6,3.1-3.6,3.1h-1.5l0,2.7l-2,0
				L-62.3-17.1z M-58.8-12.6c0.8,0.1,1.5-0.4,1.6-1.2c0-0.1,0-0.1,0-0.2v0c0-0.9-0.6-1.4-1.6-1.4h-1.5l0,2.7H-58.8z"/>
			<path id="Path_48970" class="st1" d="M-54-12.6L-54-12.6c0.1-2.7,2.3-4.7,4.9-4.6c2.5,0.1,4.5,2.1,4.6,4.6v0
				c-0.1,2.6-2.3,4.7-4.9,4.6C-51.9-8-53.9-10.1-54-12.6 M-46.5-12.6L-46.5-12.6c0.1-1.5-1.1-2.8-2.6-2.8c0,0-0.1,0-0.1,0
				c-1.5,0-2.7,1.2-2.7,2.7c0,0,0,0.1,0,0.1v0c-0.1,1.5,1.1,2.8,2.6,2.8c0,0,0.1,0,0.1,0c1.5,0,2.7-1.2,2.7-2.7
				C-46.5-12.5-46.5-12.5-46.5-12.6"/>
			
				<rect id="Rectangle_4412" x="-46.1" y="-13.6" transform="matrix(2.548243e-03 -1 1 2.548243e-03 -28.9106 -54.1245)" class="st1" width="8.9" height="2"/>
			<path id="Path_48971" class="st1" d="M-38.1-17h1.8l4.2,5.5l0-5.5l1.9,0l0,9h-1.7l-4.3-5.7l0,5.7l-1.9,0L-38.1-17z"/>
			<path id="Path_48972" class="st1" d="M-25.7-15.2l-2.7,0V-17l7.4,0v1.8l-2.7,0l0,7.1l-2,0L-25.7-15.2z"/>
			<path id="Path_48973" class="st1" d="M-124-24L-124-24L-124-24L-124-24"/>
			<line id="Line_15" class="st2" x1="-119.6" y1="-17.6" x2="-119.6" y2="-17.6"/>
			<path id="Path_48974" class="st1" d="M-114.1-23.9c-1.4,1.7-4,2-5.7,0.6c-1.7-1.4-2-4-0.6-5.7c1.4-1.7,4-2,5.7-0.6c0,0,0,0,0,0
				C-113-28.2-112.7-25.7-114.1-23.9"/>
			<path id="Path_48975" class="st1" d="M-119.6-17.6c-1.2,0.5-2.5,0.5-3.6-0.1l-3.2,4.2c1,1.1,0.9,2.8-0.2,3.8
				c-1,0.9-2.6,0.9-3.6-0.1c0,0-0.1-0.1-0.1-0.1c-0.1-0.1-0.1-0.2-0.2-0.2c0,0-0.1-0.1-0.1-0.1c-0.1-0.1-0.1-0.2-0.2-0.4
				c0,0,0-0.1,0-0.1c0-0.1-0.1-0.2-0.1-0.3c0,0,0-0.1,0-0.1c0-0.1-0.1-0.3-0.1-0.4c0,0,0-0.1,0-0.1c0-0.1,0-0.2,0-0.4c0,0,0,0,0-0.1
				c0-0.1,0-0.3,0.1-0.4c0,0,0-0.1,0-0.1c0-0.1,0.1-0.3,0.2-0.4l-2.6-1.9l-0.8,1.1l-2.9-2.2l2.2-2.9l2.9,2.2l-0.8,1.1l2.6,2
				c0.8-0.7,2-0.8,2.9-0.3l3.2-4.2c-1.6-1.5-1.6-4-0.1-5.6c0,0,0.1-0.1,0.1-0.1c-5-3.4-11.7-2.1-15.1,2.9c-3.4,5-2.1,11.7,2.9,15.1
				s11.7,2.1,15.1-2.9C-119.5-11.5-118.9-14.6-119.6-17.6"/>
			<path id="Path_48976" class="st1" d="M-19.1-15.7h-0.2v-1h-0.4V-17h1v0.2h-0.4L-19.1-15.7z"/>
			<path id="Path_48977" class="st1" d="M-17.8-16L-17.8-16l-0.4-0.6v0.9h-0.2V-17h0.2l0.4,0.6l0.4-0.6h0.2v1.2h-0.2v-0.9L-17.8-16z
				"/>
		</g>
	</g>
</g>
<text transform="matrix(1 0 0 1 119.5 31.1497)" class="st1 st3 st4">BY</text>
<g>
	<rect x="58.3" y="0.2" class="st5" width="22.7" height="42.5"/>
	<path class="st1" d="M9.1,12c1.3,0,2.5,0.2,3.5,0.6c1,0.4,1.9,1.2,3,2.3l-1.9,1.8c-0.7-0.8-1.4-1.4-2.1-1.7
		c-0.7-0.3-1.5-0.5-2.4-0.5c-1,0-1.8,0.2-2.6,0.6c-0.8,0.4-1.4,0.9-1.9,1.7c-0.4,0.6-0.8,1.4-1,2.2c-0.2,0.8-0.3,1.8-0.3,3.1
		c0,1.2,0.1,2.3,0.3,3.1c0.2,0.8,0.5,1.5,1,2.2c0.5,0.7,1.2,1.3,1.9,1.7c0.8,0.4,1.6,0.6,2.6,0.6c0.9,0,1.7-0.2,2.4-0.5
		c0.7-0.3,1.4-0.9,2.1-1.7l1.9,1.9c-1,1.1-2,1.8-3,2.3c-1,0.4-2.1,0.6-3.5,0.6c-1.2,0-2.4-0.2-3.4-0.6c-1-0.4-2-1-2.7-1.9
		c-0.8-0.8-1.4-1.9-1.8-3.1c-0.4-1.3-0.7-2.7-0.7-4.4c0-1.7,0.2-3.1,0.7-4.4c0.4-1.2,1-2.3,1.8-3.1c0.8-0.8,1.7-1.5,2.7-1.9
		C6.7,12.2,7.9,12,9.1,12z"/>
	<path class="st1" d="M29.3,12c1,0,1.9,0.2,2.7,0.5c0.8,0.3,1.5,0.7,2,1.2c0.5,0.5,0.9,1,1.2,1.7s0.6,1.3,0.7,2
		c0.2,0.7,0.3,1.5,0.4,2.2c0.1,0.8,0.1,1.6,0.1,2.4c0,1.6-0.2,3.1-0.5,4.6c-0.3,1.5-0.9,2.7-1.9,3.7c-0.5,0.5-1.2,0.9-2,1.2
		c-0.8,0.3-1.7,0.5-2.7,0.5c-1.1,0-2.1-0.2-3-0.5c-0.9-0.3-1.7-1-2.6-2v11H21V12.3h2.9v2.3c0.8-1,1.7-1.7,2.5-2
		C27.2,12.2,28.2,12,29.3,12z M28.8,14.6c-1.1,0-1.9,0.2-2.6,0.6c-0.6,0.4-1.1,1-1.5,1.7c-0.4,0.7-0.6,1.5-0.7,2.4
		c-0.1,0.9-0.2,1.8-0.2,2.8c0,1,0.1,1.9,0.2,2.8c0.1,0.9,0.3,1.7,0.7,2.4c0.4,0.7,0.9,1.2,1.5,1.7c0.6,0.4,1.5,0.6,2.6,0.6
		c1.1,0,1.9-0.2,2.6-0.6c0.6-0.4,1.1-1,1.5-1.7c0.3-0.7,0.6-1.5,0.7-2.4c0.1-0.9,0.2-1.8,0.2-2.8c0-1-0.1-1.9-0.2-2.8
		c-0.1-0.9-0.3-1.7-0.7-2.4c-0.3-0.7-0.8-1.2-1.5-1.7C30.7,14.8,29.8,14.6,28.8,14.6z"/>
	<path class="st1" d="M55.4,30.1l-1.9,2l-12-10l12-10l1.9,2l-9.7,8L55.4,30.1z"/>
	<path class="st1" d="M72.9,12c0.9,0,1.8,0.1,2.5,0.4c0.8,0.3,1.5,0.7,2.2,1.4L75.4,16c-0.5-0.5-1-0.9-1.5-1.1
		c-0.5-0.2-1.1-0.3-1.9-0.3c-0.7,0-1.4,0.1-1.9,0.4c-0.6,0.3-1.1,0.6-1.5,1.1c-0.4,0.5-0.7,1-0.9,1.7c-0.2,0.6-0.3,1.3-0.3,2.1v12
		h-2.9V12.3h2.9v2.4c0.5-0.8,1.3-1.5,2.3-1.9C70.7,12.3,71.7,12,72.9,12z"/>
	<path class="st1" d="M83.4,14l1.9-2l12,10l-12,10l-1.9-2l9.7-8L83.4,14z"/>
	<g>
		<path class="st1" d="M3.1,48.2c0.3,0,0.5,0,0.7,0.1c0.2,0.1,0.4,0.2,0.5,0.3c0.2,0.2,0.3,0.4,0.4,0.6c0.1,0.2,0.1,0.5,0.2,0.8H3.8
			c0-0.1,0-0.2,0-0.4c0-0.1-0.1-0.2-0.1-0.3c-0.1-0.1-0.1-0.1-0.2-0.2c-0.1,0-0.2-0.1-0.3-0.1c-0.1,0-0.2,0-0.3,0.1
			c-0.1,0-0.1,0.1-0.2,0.2c-0.1,0.2-0.2,0.4-0.2,0.8c0,0.4,0,0.8,0,1.5c0,0.6,0,1.1,0,1.5c0,0.4,0.1,0.6,0.2,0.8
			c0.1,0.1,0.1,0.1,0.2,0.2c0.1,0,0.2,0.1,0.3,0.1c0.1,0,0.2,0,0.3-0.1c0.1,0,0.1-0.1,0.2-0.2c0.1-0.1,0.1-0.2,0.1-0.3
			c0-0.1,0-0.2,0-0.4h1.1c0,0.3-0.1,0.6-0.2,0.8c-0.1,0.3-0.2,0.5-0.4,0.6C4.2,54.8,4,54.9,3.8,55c-0.2,0.1-0.4,0.1-0.7,0.1
			c-0.3,0-0.6-0.1-0.8-0.2c-0.2-0.1-0.4-0.2-0.5-0.4c-0.1-0.1-0.2-0.3-0.3-0.4c-0.1-0.2-0.1-0.4-0.1-0.6c0-0.2-0.1-0.5-0.1-0.8
			c0-0.3,0-0.7,0-1.1c0-0.4,0-0.8,0-1.1c0-0.3,0-0.6,0.1-0.8c0-0.2,0.1-0.4,0.1-0.6c0.1-0.2,0.2-0.3,0.3-0.4
			c0.1-0.2,0.3-0.3,0.5-0.4C2.6,48.2,2.8,48.2,3.1,48.2z"/>
		<path class="st1" d="M10.1,55H9v-3H7.7v3H6.6v-6.8h1.1v2.9H9v-2.9h1.1V55z"/>
		<path class="st1" d="M14.8,49.2h-1.8v1.9h1.5v1h-1.5v2h1.8v1H12v-6.8h2.8V49.2z"/>
		<path class="st1" d="M18.2,48.2c0.3,0,0.5,0,0.7,0.1c0.2,0.1,0.4,0.2,0.5,0.3c0.2,0.2,0.3,0.4,0.4,0.6c0.1,0.2,0.1,0.5,0.2,0.8
			h-1.1c0-0.1,0-0.2,0-0.4c0-0.1-0.1-0.2-0.1-0.3c-0.1-0.1-0.1-0.1-0.2-0.2c-0.1,0-0.2-0.1-0.3-0.1c-0.1,0-0.2,0-0.3,0.1
			c-0.1,0-0.1,0.1-0.2,0.2c-0.1,0.2-0.2,0.4-0.2,0.8c0,0.4,0,0.8,0,1.5c0,0.6,0,1.1,0,1.5c0,0.4,0.1,0.6,0.2,0.8
			c0.1,0.1,0.1,0.1,0.2,0.2c0.1,0,0.2,0.1,0.3,0.1c0.1,0,0.2,0,0.3-0.1c0.1,0,0.1-0.1,0.2-0.2c0.1-0.1,0.1-0.2,0.1-0.3
			c0-0.1,0-0.2,0-0.4h1.1c0,0.3-0.1,0.6-0.2,0.8c-0.1,0.3-0.2,0.5-0.4,0.6c-0.2,0.1-0.3,0.3-0.5,0.3c-0.2,0.1-0.4,0.1-0.7,0.1
			c-0.3,0-0.6-0.1-0.8-0.2c-0.2-0.1-0.4-0.2-0.5-0.4c-0.1-0.1-0.2-0.3-0.3-0.4c-0.1-0.2-0.1-0.4-0.1-0.6c0-0.2-0.1-0.5-0.1-0.8
			c0-0.3,0-0.7,0-1.1c0-0.4,0-0.8,0-1.1c0-0.3,0-0.6,0.1-0.8c0-0.2,0.1-0.4,0.1-0.6c0.1-0.2,0.2-0.3,0.3-0.4
			c0.1-0.2,0.3-0.3,0.5-0.4C17.6,48.2,17.9,48.2,18.2,48.2z"/>
		<path class="st1" d="M23.9,51l1.6,4h-1.2l-1.1-2.8l-0.5,1V55h-1.1v-6.8h1.1v3.2l1.5-3.2h1.1L23.9,51z"/>
		<path class="st1" d="M31.5,48.2c0.6,0,1.1,0.2,1.3,0.5c0.3,0.3,0.4,0.9,0.4,1.6c0,0.7-0.1,1.2-0.4,1.6c-0.3,0.3-0.7,0.5-1.3,0.5
			h-0.6V55h-1.1v-6.8H31.5z M30.8,49.2v2.2h0.6c0.3,0,0.5-0.1,0.6-0.3c0.1-0.2,0.1-0.5,0.1-0.8s0-0.6-0.1-0.8
			c-0.1-0.2-0.3-0.3-0.6-0.3H30.8z"/>
		<path class="st1" d="M36.6,55.1c-0.3,0-0.6-0.1-0.8-0.2c-0.2-0.1-0.4-0.2-0.5-0.4c-0.1-0.1-0.2-0.3-0.3-0.5
			c-0.1-0.2-0.1-0.4-0.1-0.6c0-0.2-0.1-0.5-0.1-0.8c0-0.3,0-0.7,0-1.1c0-0.4,0-0.8,0-1.1c0-0.3,0-0.6,0.1-0.8c0-0.2,0.1-0.4,0.1-0.6
			c0.1-0.2,0.2-0.3,0.3-0.5c0.1-0.2,0.3-0.3,0.5-0.4c0.2-0.1,0.5-0.2,0.8-0.2c0.3,0,0.6,0.1,0.8,0.2c0.2,0.1,0.4,0.2,0.5,0.4
			c0.1,0.1,0.2,0.3,0.3,0.4c0.1,0.2,0.1,0.4,0.1,0.6c0,0.2,0.1,0.5,0.1,0.8c0,0.3,0,0.7,0,1.1c0,0.4,0,0.8,0,1.1
			c0,0.3,0,0.6-0.1,0.8c0,0.2-0.1,0.4-0.1,0.6c-0.1,0.2-0.2,0.3-0.3,0.4c-0.1,0.2-0.3,0.3-0.5,0.4C37.2,55,37,55.1,36.6,55.1z
			 M36.6,54.1c0.1,0,0.2,0,0.3-0.1c0.1,0,0.1-0.1,0.2-0.2c0.1-0.2,0.2-0.4,0.2-0.8c0-0.4,0-0.8,0-1.5c0-0.6,0-1.1,0-1.5
			c0-0.4-0.1-0.6-0.2-0.8c-0.1-0.1-0.1-0.1-0.2-0.2c-0.1,0-0.2-0.1-0.3-0.1c-0.1,0-0.2,0-0.3,0.1c-0.1,0-0.1,0.1-0.2,0.2
			c-0.1,0.2-0.2,0.4-0.2,0.8c0,0.4,0,0.8,0,1.5c0,0.6,0,1.1,0,1.5c0,0.4,0.1,0.6,0.2,0.8c0.1,0.1,0.1,0.1,0.2,0.2
			C36.4,54.1,36.5,54.1,36.6,54.1z"/>
		<path class="st1" d="M41.3,55h-1.1v-6.8h1.1V55z"/>
		<path class="st1" d="M46.9,55h-0.9l-1.6-4v4h-1.1v-6.8h1l1.6,4v-4h1.1V55z"/>
		<path class="st1" d="M51.9,49.2h-1.1V55h-1.1v-5.8h-1.1v-1h3.3V49.2z"/>
		<path class="st1" d="M58,48.2c0.6,0,1.1,0.2,1.3,0.5c0.3,0.3,0.4,0.8,0.4,1.5c0,0.4-0.1,0.8-0.2,1.1c-0.1,0.3-0.3,0.5-0.6,0.7l1,3
			h-1.1l-0.9-2.8h-0.6V55h-1.1v-6.8H58z M57.3,49.2v2.1H58c0.1,0,0.3,0,0.3-0.1c0.1-0.1,0.2-0.1,0.2-0.2c0-0.1,0.1-0.2,0.1-0.3
			c0-0.1,0-0.3,0-0.4c0-0.1,0-0.3,0-0.4c0-0.1,0-0.2-0.1-0.3c0-0.1-0.1-0.2-0.2-0.2c-0.1-0.1-0.2-0.1-0.3-0.1H57.3z"/>
		<path class="st1" d="M64.5,49.2h-1.8v1.9h1.5v1h-1.5v2h1.8v1h-2.8v-6.8h2.8V49.2z"/>
		<path class="st1" d="M67.8,48.2c0.5,0,0.9,0.1,1.2,0.4c0.2,0.2,0.3,0.4,0.4,0.6c0.1,0.2,0.1,0.5,0.1,0.9h-1.1c0-0.2,0-0.3,0-0.4
			c0-0.1-0.1-0.2-0.1-0.3c-0.1-0.1-0.3-0.2-0.5-0.2c-0.1,0-0.2,0-0.3,0.1c-0.1,0-0.1,0.1-0.2,0.1c-0.1,0.1-0.2,0.4-0.2,0.7
			c0,0.1,0,0.3,0,0.4c0,0.1,0,0.2,0.1,0.2s0.1,0.1,0.2,0.2c0.1,0.1,0.2,0.1,0.3,0.1l0.8,0.3c0.2,0.1,0.4,0.2,0.5,0.3
			c0.1,0.1,0.2,0.2,0.3,0.4c0.1,0.1,0.1,0.3,0.2,0.5c0,0.2,0,0.4,0,0.7c0,0.3,0,0.6-0.1,0.9c-0.1,0.2-0.2,0.4-0.3,0.6
			c-0.1,0.1-0.3,0.2-0.5,0.3c-0.2,0.1-0.5,0.1-0.8,0.1c-0.6,0-1-0.1-1.3-0.4c-0.2-0.2-0.3-0.4-0.3-0.6c-0.1-0.2-0.1-0.5-0.1-0.9h1.1
			c0,0.2,0,0.3,0,0.5c0,0.1,0.1,0.2,0.2,0.3c0.1,0.1,0.1,0.1,0.2,0.1c0.1,0,0.2,0.1,0.3,0.1c0.2,0,0.4-0.1,0.5-0.2
			c0.1-0.1,0.1-0.2,0.1-0.3c0-0.1,0-0.3,0-0.5c0-0.2,0-0.3,0-0.4c0-0.1,0-0.2-0.1-0.3c0-0.1-0.1-0.1-0.2-0.2
			c-0.1-0.1-0.2-0.1-0.3-0.2l-0.8-0.3c-0.2-0.1-0.3-0.1-0.4-0.2c-0.1-0.1-0.2-0.2-0.3-0.3c-0.1-0.1-0.1-0.3-0.2-0.5
			c0-0.2-0.1-0.4-0.1-0.7c0-0.3,0-0.6,0.1-0.8c0.1-0.2,0.2-0.4,0.4-0.6c0.1-0.1,0.3-0.2,0.5-0.3C67.4,48.2,67.6,48.2,67.8,48.2z"/>
		<path class="st1" d="M74.2,49.2h-1.8v1.9h1.5v1h-1.5v2h1.8v1h-2.8v-6.8h2.8V49.2z"/>
		<path class="st1" d="M80,55h-1.1l-0.3-1.3H77L76.8,55h-1.1l1.7-6.8h1L80,55z M77.3,52.7h1.2l-0.6-2.8L77.3,52.7z"/>
		<path class="st1" d="M83.3,48.2c0.6,0,1.1,0.2,1.3,0.5c0.3,0.3,0.4,0.8,0.4,1.5c0,0.4-0.1,0.8-0.2,1.1c-0.1,0.3-0.3,0.5-0.6,0.7
			l1,3h-1.1l-0.9-2.8h-0.6V55h-1.1v-6.8H83.3z M82.6,49.2v2.1h0.7c0.1,0,0.3,0,0.3-0.1c0.1-0.1,0.2-0.1,0.2-0.2
			c0-0.1,0.1-0.2,0.1-0.3c0-0.1,0-0.3,0-0.4c0-0.1,0-0.3,0-0.4c0-0.1,0-0.2-0.1-0.3c0-0.1-0.1-0.2-0.2-0.2c-0.1-0.1-0.2-0.1-0.3-0.1
			H82.6z"/>
		<path class="st1" d="M88.6,48.2c0.3,0,0.5,0,0.7,0.1c0.2,0.1,0.4,0.2,0.5,0.3c0.2,0.2,0.3,0.4,0.4,0.6c0.1,0.2,0.1,0.5,0.2,0.8
			h-1.1c0-0.1,0-0.2,0-0.4c0-0.1-0.1-0.2-0.1-0.3c-0.1-0.1-0.1-0.1-0.2-0.2c-0.1,0-0.2-0.1-0.3-0.1c-0.1,0-0.2,0-0.3,0.1
			c-0.1,0-0.1,0.1-0.2,0.2c-0.1,0.2-0.2,0.4-0.2,0.8c0,0.4,0,0.8,0,1.5c0,0.6,0,1.1,0,1.5c0,0.4,0.1,0.6,0.2,0.8
			c0.1,0.1,0.1,0.1,0.2,0.2c0.1,0,0.2,0.1,0.3,0.1c0.1,0,0.2,0,0.3-0.1c0.1,0,0.1-0.1,0.2-0.2c0.1-0.1,0.1-0.2,0.1-0.3
			c0-0.1,0-0.2,0-0.4h1.1c0,0.3-0.1,0.6-0.2,0.8c-0.1,0.3-0.2,0.5-0.4,0.6c-0.2,0.1-0.3,0.3-0.5,0.3c-0.2,0.1-0.4,0.1-0.7,0.1
			c-0.3,0-0.6-0.1-0.8-0.2c-0.2-0.1-0.4-0.2-0.5-0.4c-0.1-0.1-0.2-0.3-0.3-0.4c-0.1-0.2-0.1-0.4-0.1-0.6c0-0.2-0.1-0.5-0.1-0.8
			c0-0.3,0-0.7,0-1.1c0-0.4,0-0.8,0-1.1c0-0.3,0-0.6,0.1-0.8c0-0.2,0.1-0.4,0.1-0.6c0.1-0.2,0.2-0.3,0.3-0.4
			c0.1-0.2,0.3-0.3,0.5-0.4S88.2,48.2,88.6,48.2z"/>
		<path class="st1" d="M95.5,55h-1.1v-3h-1.3v3H92v-6.8h1.1v2.9h1.3v-2.9h1.1V55z"/>
	</g>
</g>
</svg>
