<?xml version="1.0" encoding="UTF-8"?>
<svg version="1.1" xmlns="http://www.w3.org/2000/svg" viewBox="0 0 22 22" fill="#ffffff">
    <path d="M21.77 10.999c0-2.619-.944-5.121-2.663-7.087l.006-.006-.222-.238C16.86 1.484 13.984.231 11.004.23h-.007c-.558 0-1.113.044-1.659.13-2.368.373-4.577 1.533-6.23 3.31l-.22.237.005.006C1.174 5.878.229 8.38.229 11c0 2.62.945 5.123 2.664 7.089l-.006.005.222.239c2.034 2.185 4.91 3.439 7.89 3.439h.002c.558 0 1.113-.044 1.66-.13 2.369-.373 4.578-1.533 6.23-3.309l.222-.238-.006-.006c1.719-1.966 2.664-4.47 2.664-7.09zm-3.675 7.178c-.058.057-.117.113-.176.168-.065.061-.13.122-.197.181l-.185.16-.205.17-.192.15c-.07.054-.141.107-.213.159l-.198.14c-.073.05-.147.099-.22.147-.069.044-.137.088-.206.13l-.227.136-.21.12c-.078.042-.156.083-.235.123l-.215.11-.241.112c-.073.033-.146.066-.22.097-.081.035-.164.068-.247.1-.074.03-.148.06-.222.087-.085.031-.17.06-.256.089-.074.025-.148.051-.223.075-.087.027-.175.051-.263.076-.075.022-.15.044-.224.063-.09.023-.18.044-.271.064-.075.017-.149.036-.223.051-.06.013-.121.022-.182.033.98-.955 1.777-2.657 2.268-4.816 1.131.484 2.156 1.156 3.052 2.004-.023.024-.046.048-.07.07zm-9.341 2.658c-.092-.02-.184-.041-.275-.065l-.221-.062c-.089-.025-.178-.05-.266-.078-.074-.023-.147-.048-.22-.073-.087-.03-.174-.058-.26-.09-.073-.027-.146-.056-.219-.085-.083-.033-.167-.067-.25-.102-.073-.031-.145-.064-.217-.097-.081-.037-.163-.074-.243-.113-.072-.035-.143-.071-.214-.108-.079-.04-.157-.082-.235-.125l-.21-.119c-.076-.044-.152-.09-.228-.136-.068-.042-.136-.086-.204-.13-.074-.048-.148-.097-.22-.147l-.2-.14c-.07-.052-.142-.105-.212-.159l-.192-.15c-.07-.056-.137-.112-.205-.17-.062-.052-.124-.105-.184-.16-.067-.059-.132-.12-.198-.18-.059-.056-.118-.112-.176-.17l-.069-.07c.9-.85 1.925-1.522 3.052-2.004.491 2.16 1.289 3.862 2.268 4.817-.061-.012-.123-.021-.184-.034-.073-.015-.145-.033-.218-.05zM3.907 3.822c.056-.056.114-.11.172-.165.066-.062.133-.124.201-.185l.18-.156c.07-.059.14-.117.21-.173.062-.05.125-.099.188-.147.071-.055.144-.11.217-.162.064-.047.129-.092.194-.137.074-.051.15-.101.225-.15.066-.044.133-.086.2-.128.077-.047.155-.093.232-.138.069-.04.137-.08.206-.117.08-.044.159-.085.239-.127.07-.036.14-.072.211-.106.081-.04.163-.077.245-.115.072-.032.143-.065.215-.096.084-.035.168-.069.253-.102.072-.029.144-.058.217-.085.086-.031.173-.06.26-.09.073-.025.146-.05.22-.073.088-.028.177-.053.266-.078.074-.02.147-.043.22-.062.092-.023.184-.044.276-.065.073-.017.145-.035.218-.05l.184-.034c-.98.956-1.777 2.658-2.268 4.817-1.12-.483-2.165-1.167-3.052-2.004l.07-.072zm9.342-2.656c.09.02.18.04.27.064.076.02.15.042.225.063l.263.076c.075.024.15.05.224.075.085.03.17.058.254.089.075.027.15.057.224.087.082.032.165.065.246.1.074.031.148.065.221.098.08.037.16.073.24.112.072.035.144.072.217.11.077.04.155.08.231.122.072.04.143.08.214.122.075.043.15.087.224.133.07.043.14.088.208.133.073.047.145.095.217.144.068.047.135.094.202.143.07.05.14.103.209.155.066.05.131.102.196.154.068.054.134.11.2.166l.19.163.192.177c.06.057.121.114.18.173l.068.069c-.896.848-1.92 1.52-3.052 2.004-.491-2.159-1.288-3.861-2.267-4.816.06.011.12.02.18.033.075.015.15.034.224.05zm2.396 9.495c-.018-1.461-.156-2.84-.394-4.088 1.254-.52 2.386-1.253 3.372-2.186 1.52 1.753 2.386 3.956 2.462 6.274h-5.44zM14.6 15.18c-1.156-.396-2.365-.598-3.601-.598-1.234 0-2.443.202-3.6.599-.218-1.183-.348-2.483-.367-3.841h7.936c-.019 1.358-.149 2.657-.368 3.84zm-.135.671c-.687 3.097-1.998 5.243-3.464 5.243H11c-1.467 0-2.777-2.145-3.465-5.242 1.112-.392 2.275-.593 3.464-.593 1.19 0 2.354.2 3.466.592zm-7.433-5.189c.019-1.358.149-2.657.367-3.84 1.157.396 2.365.599 3.6.599 1.236 0 2.445-.203 3.601-.6.22 1.184.35 2.483.368 3.841H7.032zm.503-4.51C8.222 3.053 9.532.908 10.998.906h.005c1.466.003 2.775 2.148 3.462 5.243-1.111.391-2.275.592-3.466.592-1.19 0-2.353-.2-3.464-.592zm-.787.421c-.237 1.249-.375 2.628-.394 4.09H.914c.077-2.319.943-4.523 2.463-6.275.977.921 2.13 1.67 3.371 2.185zm-.394 4.767c.02 1.461.157 2.84.395 4.089-1.25.516-2.381 1.25-3.372 2.185C1.857 15.861.992 13.657.915 11.34h5.44zm8.897 4.088c.237-1.248.376-2.627.394-4.088h5.44c-.077 2.318-.942 4.522-2.462 6.274-.986-.933-2.118-1.667-3.372-2.186z"></path>
</svg>