<svg width="160" height="25" viewBox="0 0 160 25" fill="none" xmlns="http://www.w3.org/2000/svg">
<path fill-rule="evenodd" clip-rule="evenodd" d="M104.621 6.47313L104.534 6.50622V0.237668C104.534 0.0885875 104.413 -0.0274082 104.257 0.00567647L102.436 0.271151C102.315 0.271151 102.245 0.387147 102.245 0.503142V18.7599C102.245 18.8759 102.332 18.9923 102.436 18.9923C104.013 19.3403 105.99 19.4898 107.221 19.4898C112.441 19.4898 113.151 17.1017 113.151 14.4988V9.68952C113.151 6.93711 111.764 5.52803 109.076 5.52803C107.135 5.52803 105.522 6.02549 104.621 6.47313ZM110.827 9.62352V14.5818C110.827 16.439 110.238 17.5662 107.394 17.5662C106.441 17.5662 105.504 17.4833 104.586 17.3841H104.551V8.51259H104.586C105.418 8.13112 107.152 7.48417 108.504 7.48417C110.1 7.46783 110.827 8.14746 110.827 9.62352Z" fill="white"/>
<path fill-rule="evenodd" clip-rule="evenodd" d="M116.203 5.79297H114.469C114.313 5.79297 114.192 5.94245 114.227 6.09153L118.613 19.0256C118.648 19.1416 118.735 19.1747 118.856 19.1747H119.376C119.532 19.1747 119.654 19.3238 119.619 19.4733L117.885 24.3152C117.85 24.4643 117.972 24.6138 118.127 24.6138H119.74C119.861 24.6138 119.931 24.5309 119.983 24.4643L121.925 19.2078L126.468 6.09153C126.502 5.94245 126.381 5.79297 126.225 5.79297H124.491C124.37 5.79297 124.3 5.87588 124.248 5.94245L120.572 16.87C120.486 17.1019 120.174 17.1019 120.104 16.87L116.498 5.94245C116.394 5.87588 116.307 5.79297 116.203 5.79297Z" fill="white"/>
<path fill-rule="evenodd" clip-rule="evenodd" d="M137.858 10.5184V14.5647C137.858 17.931 139.592 19.4732 143.389 19.4732C145.002 19.4732 146.788 19.2078 148.088 18.7932C148.21 18.7601 148.279 18.6441 148.245 18.5281L148.002 17.2346C147.967 17.0856 147.846 17.0026 147.689 17.0521C146.146 17.4335 144.759 17.6161 143.546 17.6161C140.615 17.6161 140.112 16.6375 140.112 14.548V13.6029C140.112 13.4534 140.234 13.3705 140.355 13.3705H148.261C148.417 13.3705 148.505 13.2545 148.505 13.1385V10.6344C148.505 7.23549 146.805 5.61036 143.251 5.61036C139.713 5.52745 137.858 7.20241 137.858 10.5184ZM140.147 10.3694C140.147 8.29699 141.136 7.38497 143.303 7.38497C145.435 7.38497 146.302 8.24716 146.302 10.3694V11.3145C146.302 11.4636 146.181 11.5465 146.06 11.5465H140.373C140.217 11.5465 140.13 11.4305 140.13 11.3145V10.3694H140.147Z" fill="white"/>
<path fill-rule="evenodd" clip-rule="evenodd" d="M155.37 11.5468C152.995 10.9835 152.926 10.7181 152.926 9.15948C152.926 7.86599 153.29 7.41835 155.37 7.41835C156.359 7.41835 157.78 7.53435 158.977 7.76634C159.133 7.79982 159.254 7.68343 159.254 7.53435L159.376 6.20737C159.376 6.09138 159.289 5.97538 159.185 5.9423C158.075 5.67682 156.74 5.52734 155.475 5.52734C151.954 5.52734 150.654 6.50593 150.654 9.1264C150.654 11.8784 150.966 12.5748 154.451 13.4039C157.26 14.0508 157.451 14.1999 157.451 15.7421C157.451 17.1851 157.087 17.6327 154.763 17.6327C153.654 17.6327 152.232 17.4506 151.053 17.1851C150.897 17.152 150.775 17.2182 150.741 17.3677L150.498 18.6113C150.463 18.7273 150.533 18.8433 150.654 18.8764C151.799 19.2579 153.533 19.5234 154.885 19.5234C158.959 19.5234 159.705 18.2299 159.705 15.6592C159.722 12.7904 159.168 12.4588 155.37 11.5468Z" fill="white"/>
<path fill-rule="evenodd" clip-rule="evenodd" d="M48.2709 19.0759L45.7394 6.02584C45.7046 5.87676 45.826 5.72728 45.9825 5.72728H48.7914C48.9123 5.72728 49.0341 5.81019 49.0341 5.90984L50.5421 13.7692C50.5768 14.0351 50.9409 14.0351 51.0103 13.8027L53.4552 5.8931C53.4895 5.77711 53.5766 5.71094 53.6979 5.71094H57.0273C57.1483 5.71094 57.2173 5.79385 57.2696 5.8931L59.7145 13.8027C59.8011 14.0351 60.148 14.0351 60.1827 13.7692L61.6908 5.90984C61.7255 5.79385 61.8125 5.72728 61.9339 5.72728H64.7428C64.8985 5.72728 65.0198 5.87676 64.9851 6.02584L62.4364 19.0759C62.4017 19.1919 62.3155 19.2585 62.1937 19.2585H58.5182C58.3965 19.2585 58.327 19.1756 58.2751 19.0759L55.5879 10.3041C55.5009 10.0721 55.1888 10.0721 55.1197 10.3041L52.4326 19.0759C52.3978 19.1919 52.3108 19.2585 52.1895 19.2585H48.5136C48.3922 19.2585 48.3056 19.1919 48.2709 19.0759Z" fill="white"/>
<path fill-rule="evenodd" clip-rule="evenodd" d="M44.1961 16.7705C42.9303 16.7705 42.5311 16.24 42.5311 14.7308V4.93101V1.06688C42.5311 0.917798 42.4098 0.801404 42.2541 0.834887L39.2025 1.24944C39.0812 1.24944 39.0117 1.36584 39.0117 1.48183V1.59783V4.93101V15.0956C39.0117 18.1637 40.9537 19.5233 43.5542 19.5233C43.832 19.5233 44.7337 19.4899 45.2534 19.44C45.3748 19.44 45.4961 19.324 45.4961 19.208V17.0524C45.4961 16.9033 45.3748 16.8204 45.2191 16.8204C44.8722 16.7705 44.404 16.7705 44.1961 16.7705Z" fill="white"/>
<path fill-rule="evenodd" clip-rule="evenodd" d="M87.0915 8.67861C85.8258 9.20916 84.8031 9.77279 83.6583 10.4859C83.5721 10.519 83.5374 10.6019 83.5374 10.6685V19.0257C83.5374 19.1752 83.4156 19.2581 83.2943 19.2581H80.2427C80.0866 19.2581 80 19.1417 80 19.0257V6.44001C80 6.32401 80.0866 6.20802 80.1908 6.20802L82.7223 5.79307C82.8784 5.75998 82.9997 5.87598 82.9997 5.97563L83.1211 6.83782C83.1558 7.02039 83.3638 7.1033 83.5198 6.9873C84.3174 6.48984 85.5835 5.85963 86.6062 5.51125C86.7622 5.47816 86.9179 5.54473 86.9179 5.69381L87.1957 8.34696C87.2476 8.51278 87.1786 8.5957 87.0915 8.67861Z" fill="white"/>
<path fill-rule="evenodd" clip-rule="evenodd" d="M134.218 17.633C132.795 17.633 132.709 17.0363 132.709 16.0908V7.88259C132.709 7.73351 132.83 7.6506 132.952 7.6506H136.281C136.402 7.6506 136.523 7.56769 136.523 7.41861L136.68 6.09203C136.68 5.94255 136.558 5.82656 136.437 5.82656H132.952C132.795 5.82656 132.709 5.71056 132.709 5.59417V2.47743C132.709 2.32795 132.588 2.21156 132.431 2.24504L130.611 2.51052C130.49 2.51052 130.42 2.62611 130.42 2.74211V5.61091C130.42 5.76039 130.299 5.8433 130.178 5.8433H128.201C128.045 5.8433 127.958 5.9593 127.958 6.07529V7.40187C127.958 7.55095 128.08 7.63386 128.201 7.63386H130.178C130.334 7.63386 130.42 7.75025 130.42 7.86625V16.4224C130.42 18.5781 131.409 19.4403 133.853 19.4403C134.409 19.4403 134.963 19.4072 135.518 19.2912C135.64 19.2581 135.709 19.1752 135.709 19.0592V17.7327C135.709 17.5832 135.553 17.4672 135.431 17.5003C134.98 17.5999 134.582 17.633 134.218 17.633Z" fill="white"/>
<path fill-rule="evenodd" clip-rule="evenodd" d="M97.3387 5.87637C96.593 5.57781 95.6394 5.37891 94.4084 5.37891C93.0213 5.37891 91.9631 5.6109 91.1313 5.97602C89.1893 6.88805 88.5654 8.66226 88.5654 10.6186V14.2173C88.5654 17.401 90.0216 19.3574 94.2523 19.4403H95.2403C96.3847 19.4403 97.581 19.3243 98.6739 19.1748C98.7948 19.1417 98.9162 19.0261 98.8639 18.9101V18.7937L98.5868 16.9366C97.5119 17.0526 96.5755 17.0861 95.5009 17.0861C92.9 17.0861 92.1024 16.373 92.1024 14.8475V14.3995V13.7697H99.7312C99.8873 13.7697 99.9739 13.6533 99.9739 13.5373V12.5093V10.8506C99.9396 8.679 99.4015 6.73857 97.3387 5.87637ZM96.8178 11.2491C96.8178 11.3982 96.6969 11.4811 96.5751 11.4811H92.0674V10.3032C92.0674 9.01014 92.6565 8.14795 94.4081 8.14795C94.5989 8.14795 94.8064 8.14795 94.9976 8.18143C96.2981 8.3636 96.8178 9.20905 96.8178 10.3032V11.2491Z" fill="white"/>
<path fill-rule="evenodd" clip-rule="evenodd" d="M10.6808 21.5631H10.7675C10.9231 21.5631 11.0445 21.4411 11.0445 21.2843C11.0445 21.1619 10.9579 21.0052 10.8022 21.0052H10.7152L10.5244 20.9704C7.31668 20.3425 4.94165 17.4656 4.94165 14.1C4.94165 12.6707 5.37514 11.3106 6.12038 10.2125C6.24213 10.0553 6.43253 9.93337 6.64089 10.1253L11.7039 15.2857C11.7378 15.3205 11.8248 15.3729 11.8943 15.3729C11.9809 15.3729 12.0504 15.3381 12.0851 15.2857L17.1824 10.1601C17.3732 9.96815 17.5469 10.0034 17.651 10.1949C18.3963 11.3106 18.8298 12.6535 18.8298 14.0828C18.8298 15.8784 18.1536 17.5004 17.0435 18.7385C17.0092 18.7733 16.9573 18.8257 16.9226 18.8605C16.9226 18.8953 16.8878 18.9477 16.8878 18.9825C16.8878 19.1396 17.0092 19.2616 17.1653 19.2616H17.2C17.2347 19.2616 17.2866 19.2268 17.3213 19.2268C24.0832 16.3671 23.7714 9.60225 23.7714 9.60225C23.7714 5.74874 21.9504 2.27916 19.1419 0.0996672C19.0206 0.0124875 18.8298 0.0124875 18.7428 0.134455L12.1027 6.89968C11.9809 7.02165 11.7901 7.02165 11.6692 6.89968L4.97598 0.134455C4.85463 0.0124875 4.69896 0.0124875 4.57761 0.0996672C1.82059 2.27916 0 5.69635 0 9.60225C0 15.8088 4.66423 20.9352 10.6808 21.5631Z" fill="white"/>
<path fill-rule="evenodd" clip-rule="evenodd" d="M29.9263 5.46094C28.6953 5.46094 27.3948 5.54385 26.1638 5.72601C26.0424 5.7595 25.9211 5.87549 25.973 5.99149L26.2504 8.03118C26.2851 8.14717 26.3721 8.26317 26.5274 8.26317C27.6722 8.14717 28.4178 8.11409 29.5794 8.11409C32.18 8.11409 32.9779 8.8268 32.9779 10.3527V11.2651C32.9779 11.4142 32.8565 11.4971 32.7348 11.4971H29.4577C26.5797 11.4971 24.8633 12.8894 24.8633 15.4266C24.8633 17.7648 26.7533 19.4394 29.6145 19.4394C31.4 19.4394 32.1113 19.1743 32.7005 18.6438C32.8565 18.4943 33.134 18.6103 33.134 18.7929V18.9754C33.134 19.1245 33.2553 19.2074 33.3767 19.2074H36.2546C36.4107 19.2074 36.4977 19.0914 36.4977 18.9754V10.4519C36.532 7.08607 34.0876 5.46094 29.9263 5.46094ZM33.0122 14.2328C33.0122 15.9408 31.8331 17.0685 29.9263 17.0685C28.4701 17.0685 27.7069 16.5379 27.7069 15.4433C27.7069 14.2328 28.5045 13.7353 29.9263 13.7353H32.7348C32.8913 13.7353 32.9779 13.8513 32.9779 13.9677V14.2328H33.0122Z" fill="white"/>
<path fill-rule="evenodd" clip-rule="evenodd" d="M70.88 5.46094C69.6494 5.46094 68.3489 5.54385 67.1179 5.72601C66.9965 5.7595 66.8752 5.87549 66.9271 5.99149L67.2045 8.03118C67.2392 8.14717 67.3258 8.26317 67.4815 8.26317C68.6263 8.14717 69.3719 8.11409 70.5335 8.11409C73.1341 8.11409 73.932 8.8268 73.932 10.3527V11.2651C73.932 11.4142 73.8102 11.4971 73.6889 11.4971H70.4122C67.5338 11.4971 65.8174 12.8894 65.8174 15.4266C65.8174 17.7648 67.7074 19.4394 70.5682 19.4394C72.3537 19.4394 73.065 19.1743 73.6542 18.6438C73.8102 18.4943 74.0881 18.6103 74.0881 18.7929V18.9754C74.0881 19.1245 74.2094 19.2074 74.3308 19.2074H77.2087C77.3648 19.2074 77.4518 19.0914 77.4518 18.9754V10.4519C77.538 7.08607 75.0417 5.46094 70.88 5.46094ZM73.9658 14.2328C73.9658 15.9409 72.7867 17.0685 70.8795 17.0685C69.4234 17.0685 68.6602 16.538 68.6602 15.4434C68.6602 14.2328 69.4577 13.7354 70.8795 13.7354H73.6884C73.8449 13.7354 73.9315 13.8513 73.9315 13.9677V14.2328H73.9658Z" fill="white"/>
</svg>
