<?xml version="1.0" encoding="UTF-8"?>
<svg version="1.1" xmlns="http://www.w3.org/2000/svg" fill="#ffffff" viewBox="0 0 18 18">
    <path d="M18,10.5421995 L18,17.1964659 L14.1413625,17.1964659 L14.1413625,10.9900023 C14.1413625,9.42897001 13.5847477,8.3659614 12.1869333,8.3659614 C11.1197396,8.3659614 10.4877935,9.08160893 10.2073936,9.77633109 C10.1069519,10.0232504 10.0776564,10.3706115 10.0776564,10.7179726 L10.0776564,17.200651 L6.21901883,17.200651 C6.21901883,17.200651 6.26923971,6.68356196 6.21901883,5.59544292 L10.0776564,5.59544292 L10.0776564,7.2401767 C10.0692862,7.25273192 10.0609161,7.26528714 10.0525459,7.27784236 L10.0776564,7.27784236 L10.0776564,7.2401767 C10.5924204,6.44919786 11.5047663,5.32340527 13.5554522,5.32340527 C16.0957917,5.31922809 18,6.98070216 18,10.5421995 Z M2.18460823,0 C0.862125087,0 0,0.86631016 0,2.00465008 C0,3.11787956 0.837014648,4.00930016 2.13438735,4.00930016 L2.15949779,4.00930016 C3.50709137,4.00930016 4.34410602,3.11787956 4.34410602,2.00465008 C4.31481051,0.86631016 3.5029063,0 2.18460823,0 Z M0.230179028,17.200651 L4.08881655,17.200651 L4.08881655,5.59125785 L0.230179028,5.59125785 L0.230179028,17.200651 Z" fill-rule="nonzero"></path>
</svg>