<svg width="37" height="37" viewBox="0 0 37 37" fill="none" xmlns="http://www.w3.org/2000/svg">
<rect width="37" height="37" rx="4" fill="#00C689"/>
<g clip-path="url(#clip0)">
<path d="M20.5889 5C21.836 5 22.4596 5.61086 22.9584 6.46606C23.2079 6.89366 23.3949 7.38235 23.7691 7.74887C24.5173 8.54299 25.2656 8.66516 26.388 8.23756C27.1363 7.99321 27.8222 8.17647 28.1963 8.72624C28.6328 9.39819 28.4457 10.1923 27.7598 10.6199C27.1363 10.9864 26.2633 10.8032 25.8892 10.1923C25.5774 9.82579 25.328 9.52036 24.9538 9.21493C24.2679 8.78733 23.582 8.84842 22.8961 9.09276C22.6467 9.15385 22.4596 9.27602 22.2725 9.3371C21.836 9.52036 21.649 9.82579 21.7113 10.2534C21.7737 10.8032 21.8984 11.2919 22.2102 11.7195C22.3349 11.8416 22.3972 11.9027 22.5843 11.9027C23.2702 11.9027 23.7691 12.2081 24.2056 12.7579C24.455 13.0633 24.642 13.3688 24.9538 13.552C25.7021 14.1018 26.4504 14.0407 27.261 13.6131C27.5104 13.491 27.6975 13.3688 27.8845 13.2466C28.6328 12.8801 29.3811 12.819 30.1293 13.1244C30.8153 13.4299 31.2517 13.9186 31.5012 14.6516C31.9377 15.8122 31.1894 17.1561 30.1293 17.5837C29.8799 17.7059 29.8176 17.8281 29.8176 18.0724C29.8176 18.7443 30.0046 19.3552 30.3788 19.905C30.5035 20.0882 30.6282 20.1493 30.8776 20.2104C31.6259 20.3937 32 20.8824 32 21.5543C32 22.2262 31.3765 22.8371 30.6905 22.8982C30.1917 22.9593 29.7552 22.7149 29.4434 22.2873C29.194 21.9208 28.8822 21.5543 28.5081 21.31C27.6975 20.8213 26.8868 20.9434 26.1386 21.371C25.8268 21.5543 25.515 21.7986 25.1409 21.9208C24.455 22.1652 23.8314 21.9819 23.3326 21.5543C22.709 21.0656 22.522 20.3937 22.7714 19.6606C23.0832 18.6222 23.9561 18.1335 25.0785 18.3778C25.4527 18.4389 25.8268 18.6833 26.0762 18.9887C26.388 19.3552 26.6374 19.7828 26.9492 20.0882C27.6975 20.8213 28.4457 20.9434 29.4434 20.5769C30.067 20.3326 30.067 20.3326 30.0046 19.6606C30.0046 19.0498 29.7552 18.5611 29.4434 18.0724C29.3187 17.8281 29.0693 17.767 28.7575 17.7059C27.8845 17.5226 27.3233 17.0339 26.8868 16.3009C26.5127 15.629 26.0139 15.0181 25.1409 14.8959C24.5797 14.8348 24.0808 15.0181 23.6444 15.2624C22.7714 15.69 21.7737 15.5679 21.2125 14.8348C20.4642 14.1018 20.5889 12.9412 21.5243 12.3303C21.7113 12.2081 21.836 12.0249 21.836 11.7805C21.836 11.2308 21.7113 10.8032 21.4619 10.3145C21.2125 10.009 21.0254 9.82579 20.6513 9.88688C19.2171 9.94796 18.1571 8.66516 18.2194 7.32127C18.2818 5.97737 19.4665 4.93891 20.5889 5Z" fill="white"/>
<path d="M13.48 20.8823C13.48 20.2104 13.2305 19.5995 12.8564 18.9887C12.6693 18.6832 12.4199 18.5611 12.1081 18.5C11.6093 18.4389 11.2975 18.1946 10.9857 17.828C10.7363 17.5226 10.4869 17.1561 10.2375 16.8507C9.73862 16.3009 9.17742 15.9955 8.42915 16.0566C7.99266 16.1176 7.55617 16.2398 7.18204 16.4842C6.37142 16.9728 5.62315 16.6063 5.24901 16.1176C4.75017 15.4457 4.99959 14.5905 5.56079 14.224C6.18435 13.7964 7.05733 13.9185 7.49382 14.5294C7.68088 14.8348 7.93031 15.1403 8.24208 15.3235C8.928 15.8733 9.67627 15.9344 10.4869 15.5679C10.9234 15.3846 11.2975 15.0792 11.7964 14.8959C12.607 14.5905 13.48 14.8348 14.0412 15.5679C14.54 16.2398 14.54 17.2172 13.9164 17.767C13.1682 18.4389 13.3552 19.1719 13.5423 19.905C13.6047 20.1493 13.7294 20.3937 13.8541 20.638C14.0412 21.0045 14.2906 21.1878 14.7271 21.2489C15.6624 21.371 16.3483 22.2262 16.3483 23.1425C16.3483 23.8756 15.7871 24.6086 15.1636 24.8529C14.4153 25.0973 13.5423 24.914 13.0435 24.3032C12.8564 24.0588 12.6693 23.8145 12.4199 23.5701C11.6716 22.8371 10.7363 22.7149 9.80098 23.2036C9.61391 23.3258 9.36449 23.3869 9.17742 23.509C7.86795 24.2421 6.2467 23.7534 5.62315 22.4706C5.06195 21.3099 5.49844 19.9661 6.74555 19.2941C7.99266 18.6222 9.42684 19.1109 10.1128 20.3326C10.2998 20.6991 10.5492 21.0656 10.9234 21.371C11.6716 22.043 12.6693 21.9208 13.4176 21.5543C13.6047 21.4321 13.48 21.1267 13.48 20.8823Z" fill="#DEFFF5"/>
<path d="M9.73916 8.1767C10.1756 8.1767 10.5498 8.23779 10.9239 8.29887C11.6098 8.42104 12.2334 8.23779 12.7946 7.87127C13.1687 7.56584 13.3558 7.13824 13.5429 6.71064C13.6052 6.46629 13.6676 6.16086 13.8546 5.97761C14.1664 5.55 14.79 5.24457 15.2888 5.36675C15.9747 5.55 16.4112 6.03869 16.4112 6.64955C16.4112 7.07715 16.3489 7.38258 16.0371 7.68801C15.85 7.81018 15.85 8.05453 15.7877 8.23779C15.7253 8.90973 15.9124 9.52059 16.2865 10.0093C16.4112 10.1925 16.5359 10.3147 16.7853 10.3147C17.596 10.3758 18.2195 10.8645 18.4689 11.5975C18.7184 12.2695 18.4689 13.0025 17.9077 13.4912C16.9724 14.2853 15.5382 14.041 14.977 12.9414C14.6029 12.1473 14.7276 11.231 15.4759 10.7423C15.9747 10.4369 15.9124 10.0093 15.85 9.58168C15.7253 9.21516 15.6006 8.90973 15.4759 8.66539C15.1017 7.93236 14.8523 7.93236 14.1664 8.05453C13.3558 8.1767 12.7322 8.6043 12.4828 9.39842C12.3581 9.76494 12.2334 10.1315 12.2334 10.5591C12.2334 11.5364 11.7345 12.3305 10.7992 12.7581C9.55209 13.369 7.93084 12.7581 7.432 11.4753C6.93315 10.3147 7.49435 8.72647 8.92853 8.23779C9.24031 8.11561 9.48973 8.1767 9.73916 8.1767Z" fill="white"/>
<path d="M27.136 28.8236C26.7619 28.8236 26.3878 28.7625 26.0136 28.7014C25.3901 28.5793 24.8289 28.7625 24.33 29.0679C23.8935 29.3123 23.6441 29.801 23.457 30.2897C23.3323 30.7173 23.2076 31.206 22.7711 31.5114C22.4594 31.6946 22.2099 31.8168 21.8358 31.7557C21.3993 31.6946 21.0252 31.5725 20.7758 31.206C20.464 30.7173 20.4016 29.9842 20.8381 29.6177C21.4617 29.0069 21.2746 28.3349 21.0252 27.6019C21.0252 27.5408 20.9628 27.4186 20.9005 27.3575C20.7758 26.991 20.464 26.8078 20.0898 26.7467C19.2792 26.6856 18.6557 26.0747 18.4686 25.2195C18.3439 24.5476 18.7804 23.6924 19.4039 23.3259C20.1522 22.9593 21.0252 23.0204 21.5864 23.5702C22.5217 24.4254 22.397 25.7082 21.3993 26.5023C21.2746 26.6245 21.1499 26.7467 21.1499 26.9299C21.0875 27.6019 21.2746 28.2127 21.6487 28.7014C21.8358 28.9458 22.0852 29.0679 22.397 29.0679C23.5194 28.9458 24.2053 28.5793 24.5171 27.4797C24.6418 27.1743 24.7042 26.8078 24.7042 26.4412C24.7665 25.0974 25.9513 23.9978 27.2607 24.0589C28.3831 24.12 29.3808 24.853 29.6303 26.0747C29.8797 27.1132 29.2561 28.2738 28.2584 28.7014C27.8843 28.8236 27.8843 28.8236 27.136 28.8236Z" fill="#DEFFF5"/>
<path d="M16.2862 32.0002C15.1638 32.0002 14.5402 31.3893 14.0413 30.5341C13.7919 30.1065 13.6049 29.6178 13.2307 29.2513C12.4825 28.5183 11.7965 28.335 10.6118 28.7626C10.0506 28.9459 9.48939 29.007 8.99054 28.5183C8.55405 28.0907 8.42934 27.602 8.61641 27.0522C8.80347 26.5635 9.17761 26.2581 9.73881 26.197C10.3 26.1359 10.7365 26.3192 11.0483 26.8079C11.173 26.9911 11.2977 27.2355 11.4848 27.4187C12.233 28.2128 13.0437 28.335 14.0413 27.9685C14.4155 27.8463 14.7273 27.6631 15.039 27.4798C16.4732 26.7468 18.2192 27.5409 18.5933 29.007C18.9674 30.3508 18.0321 31.6947 16.785 32.0002C16.6603 32.0002 16.4732 32.0002 16.2862 32.0002Z" fill="white"/>
<path d="M30.3789 11.5974C30.6199 11.5974 30.8154 11.4059 30.8154 11.1698C30.8154 10.9336 30.6199 10.7422 30.3789 10.7422C30.1378 10.7422 29.9424 10.9336 29.9424 11.1698C29.9424 11.4059 30.1378 11.5974 30.3789 11.5974Z" fill="white"/>
<path d="M27.8222 23.1427C28.0633 23.1427 28.2587 22.9512 28.2587 22.7151C28.2587 22.4789 28.0633 22.2875 27.8222 22.2875C27.5812 22.2875 27.3857 22.4789 27.3857 22.7151C27.3857 22.9512 27.5812 23.1427 27.8222 23.1427Z" fill="white"/>
<path d="M31.6256 19.2332C31.8322 19.2332 31.9997 19.0691 31.9997 18.8666C31.9997 18.6642 31.8322 18.5001 31.6256 18.5001C31.419 18.5001 31.2515 18.6642 31.2515 18.8666C31.2515 19.0691 31.419 19.2332 31.6256 19.2332Z" fill="white"/>
<path d="M8.11779 18.2557C8.32441 18.2557 8.49192 18.0916 8.49192 17.8892C8.49192 17.6868 8.32441 17.5227 8.11779 17.5227C7.91116 17.5227 7.74365 17.6868 7.74365 17.8892C7.74365 18.0916 7.91116 18.2557 8.11779 18.2557Z" fill="white"/>
<path d="M11.7345 7.26025C11.9411 7.26025 12.1086 7.09616 12.1086 6.89374C12.1086 6.69132 11.9411 6.52722 11.7345 6.52722C11.5279 6.52722 11.3604 6.69132 11.3604 6.89374C11.3604 7.09616 11.5279 7.26025 11.7345 7.26025Z" fill="white"/>
<path d="M13.1061 13.2467C13.3127 13.2467 13.4802 13.0826 13.4802 12.8802C13.4802 12.6778 13.3127 12.5137 13.1061 12.5137C12.8994 12.5137 12.7319 12.6778 12.7319 12.8802C12.7319 13.0826 12.8994 13.2467 13.1061 13.2467Z" fill="white"/>
</g>
<defs>
<clipPath id="clip0">
<rect width="27" height="27" fill="white" transform="translate(5 5)"/>
</clipPath>
</defs>
</svg>
