<svg width="288" height="117" viewBox="0 0 288 117" fill="none" xmlns="http://www.w3.org/2000/svg">
<g filter="url(#filter0_d_171_6)">
<rect x="4" width="280" height="109" rx="6" fill="#FCFCFF"/>
<rect x="4.5" y="0.5" width="279" height="108" rx="5.5" stroke="#E3EDFF"/>
</g>
<path d="M128.885 65.3622H126.229C126.153 64.9266 126.013 64.5407 125.81 64.2045C125.606 63.8636 125.353 63.5748 125.05 63.3381C124.747 63.1013 124.401 62.9238 124.013 62.8054C123.629 62.6823 123.215 62.6207 122.77 62.6207C121.979 62.6207 121.278 62.8196 120.668 63.2173C120.057 63.6103 119.579 64.188 119.233 64.9503C118.887 65.7079 118.714 66.6335 118.714 67.7273C118.714 68.84 118.887 69.7775 119.233 70.5398C119.583 71.2973 120.062 71.8703 120.668 72.2585C121.278 72.642 121.977 72.8338 122.763 72.8338C123.198 72.8338 123.606 72.777 123.984 72.6634C124.368 72.545 124.711 72.3722 125.014 72.1449C125.322 71.9176 125.58 71.6383 125.788 71.3068C126.001 70.9754 126.148 70.5966 126.229 70.1705L128.885 70.1847C128.786 70.8759 128.57 71.5246 128.239 72.1307C127.912 72.7367 127.483 73.2718 126.953 73.7358C126.423 74.1951 125.803 74.5549 125.092 74.8153C124.382 75.071 123.594 75.1989 122.727 75.1989C121.449 75.1989 120.308 74.9029 119.304 74.3111C118.3 73.7192 117.509 72.8646 116.932 71.7472C116.354 70.6297 116.065 69.2898 116.065 67.7273C116.065 66.16 116.357 64.8201 116.939 63.7074C117.521 62.59 118.314 61.7353 119.318 61.1435C120.322 60.5516 121.458 60.2557 122.727 60.2557C123.537 60.2557 124.29 60.3693 124.986 60.5966C125.682 60.8239 126.302 61.1577 126.847 61.598C127.391 62.0336 127.839 62.5687 128.189 63.2031C128.544 63.8329 128.776 64.5526 128.885 65.3622ZM135.943 75.2131C134.877 75.2131 133.954 74.9787 133.173 74.5099C132.392 74.0412 131.786 73.3854 131.355 72.5426C130.929 71.6998 130.716 70.715 130.716 69.5881C130.716 68.4612 130.929 67.474 131.355 66.6264C131.786 65.7789 132.392 65.1207 133.173 64.652C133.954 64.1832 134.877 63.9489 135.943 63.9489C137.008 63.9489 137.931 64.1832 138.713 64.652C139.494 65.1207 140.098 65.7789 140.524 66.6264C140.955 67.474 141.17 68.4612 141.17 69.5881C141.17 70.715 140.955 71.6998 140.524 72.5426C140.098 73.3854 139.494 74.0412 138.713 74.5099C137.931 74.9787 137.008 75.2131 135.943 75.2131ZM135.957 73.1534C136.535 73.1534 137.018 72.9948 137.406 72.6776C137.794 72.3556 138.083 71.9247 138.272 71.3849C138.467 70.8452 138.564 70.2438 138.564 69.581C138.564 68.9134 138.467 68.3097 138.272 67.7699C138.083 67.2254 137.794 66.7921 137.406 66.4702C137.018 66.1482 136.535 65.9872 135.957 65.9872C135.365 65.9872 134.873 66.1482 134.48 66.4702C134.092 66.7921 133.8 67.2254 133.606 67.7699C133.417 68.3097 133.322 68.9134 133.322 69.581C133.322 70.2438 133.417 70.8452 133.606 71.3849C133.8 71.9247 134.092 72.3556 134.48 72.6776C134.873 72.9948 135.365 73.1534 135.957 73.1534ZM145.923 60.4545V75H143.352V60.4545H145.923ZM151.138 60.4545V75H148.567V60.4545H151.138ZM156.921 75.2202C156.23 75.2202 155.607 75.0971 155.053 74.8509C154.504 74.5999 154.068 74.2306 153.746 73.7429C153.429 73.2552 153.271 72.6539 153.271 71.9389C153.271 71.3234 153.384 70.8144 153.612 70.4119C153.839 70.0095 154.149 69.6875 154.542 69.446C154.935 69.2045 155.378 69.0223 155.87 68.8991C156.367 68.7713 156.881 68.679 157.411 68.6222C158.05 68.5559 158.569 68.4967 158.967 68.4446C159.364 68.3878 159.653 68.3026 159.833 68.1889C160.018 68.0705 160.11 67.8883 160.11 67.642V67.5994C160.11 67.0644 159.951 66.6501 159.634 66.3565C159.317 66.063 158.86 65.9162 158.263 65.9162C157.634 65.9162 157.134 66.0535 156.765 66.3281C156.4 66.6027 156.154 66.9271 156.026 67.3011L153.626 66.9602C153.815 66.2973 154.128 65.7434 154.563 65.2983C154.999 64.8485 155.531 64.5123 156.161 64.2898C156.791 64.0625 157.487 63.9489 158.249 63.9489C158.775 63.9489 159.298 64.0104 159.819 64.1335C160.34 64.2566 160.816 64.4602 161.246 64.7443C161.677 65.0237 162.023 65.4048 162.283 65.8878C162.549 66.3707 162.681 66.9744 162.681 67.6989V75H160.21V73.5014H160.124C159.968 73.8045 159.748 74.0885 159.464 74.3537C159.184 74.6141 158.832 74.8248 158.406 74.9858C157.984 75.142 157.489 75.2202 156.921 75.2202ZM157.589 73.331C158.105 73.331 158.552 73.2292 158.931 73.0256C159.31 72.8172 159.601 72.5426 159.805 72.2017C160.013 71.8608 160.117 71.4891 160.117 71.0866V69.8011C160.037 69.8674 159.899 69.929 159.705 69.9858C159.516 70.0426 159.303 70.0923 159.066 70.1349C158.829 70.1776 158.595 70.2154 158.363 70.2486C158.131 70.2817 157.93 70.3101 157.759 70.3338C157.376 70.3859 157.032 70.4711 156.729 70.5895C156.426 70.7079 156.187 70.8736 156.012 71.0866C155.837 71.295 155.749 71.5649 155.749 71.8963C155.749 72.3698 155.922 72.7273 156.268 72.9688C156.613 73.2102 157.054 73.331 157.589 73.331ZM165.38 75V60.4545H167.951V65.8949H168.058C168.19 65.6297 168.377 65.348 168.619 65.0497C168.86 64.7467 169.187 64.4886 169.599 64.2756C170.011 64.0578 170.536 63.9489 171.175 63.9489C172.018 63.9489 172.778 64.1643 173.455 64.5952C174.137 65.0213 174.677 65.6534 175.075 66.4915C175.477 67.3248 175.678 68.3475 175.678 69.5597C175.678 70.7576 175.482 71.7756 175.089 72.6136C174.696 73.4517 174.161 74.0909 173.484 74.5312C172.807 74.9716 172.04 75.1918 171.183 75.1918C170.558 75.1918 170.039 75.0876 169.627 74.8793C169.215 74.6709 168.884 74.42 168.633 74.1264C168.387 73.8281 168.195 73.5464 168.058 73.2812H167.908V75H165.38ZM167.901 69.5455C167.901 70.2509 168.001 70.8688 168.2 71.3991C168.403 71.9295 168.694 72.3437 169.073 72.642C169.457 72.9356 169.921 73.0824 170.465 73.0824C171.033 73.0824 171.509 72.9309 171.893 72.6278C172.276 72.3201 172.565 71.901 172.759 71.3707C172.958 70.8357 173.058 70.2273 173.058 69.5455C173.058 68.8684 172.96 68.267 172.766 67.7415C172.572 67.2159 172.283 66.804 171.9 66.5057C171.516 66.2074 171.038 66.0582 170.465 66.0582C169.916 66.0582 169.45 66.2027 169.066 66.4915C168.683 66.7803 168.391 67.1851 168.192 67.706C167.998 68.2268 167.901 68.84 167.901 69.5455ZM182.623 75.2131C181.557 75.2131 180.634 74.9787 179.853 74.5099C179.071 74.0412 178.465 73.3854 178.034 72.5426C177.608 71.6998 177.395 70.715 177.395 69.5881C177.395 68.4612 177.608 67.474 178.034 66.6264C178.465 65.7789 179.071 65.1207 179.853 64.652C180.634 64.1832 181.557 63.9489 182.623 63.9489C183.688 63.9489 184.611 64.1832 185.392 64.652C186.174 65.1207 186.777 65.7789 187.203 66.6264C187.634 67.474 187.85 68.4612 187.85 69.5881C187.85 70.715 187.634 71.6998 187.203 72.5426C186.777 73.3854 186.174 74.0412 185.392 74.5099C184.611 74.9787 183.688 75.2131 182.623 75.2131ZM182.637 73.1534C183.214 73.1534 183.697 72.9948 184.086 72.6776C184.474 72.3556 184.763 71.9247 184.952 71.3849C185.146 70.8452 185.243 70.2438 185.243 69.581C185.243 68.9134 185.146 68.3097 184.952 67.7699C184.763 67.2254 184.474 66.7921 184.086 66.4702C183.697 66.1482 183.214 65.9872 182.637 65.9872C182.045 65.9872 181.552 66.1482 181.159 66.4702C180.771 66.7921 180.48 67.2254 180.286 67.7699C180.096 68.3097 180.002 68.9134 180.002 69.581C180.002 70.2438 180.096 70.8452 180.286 71.3849C180.48 71.9247 180.771 72.3556 181.159 72.6776C181.552 72.9948 182.045 73.1534 182.637 73.1534ZM190.032 75V64.0909H192.525V65.9091H192.638C192.837 65.2794 193.178 64.794 193.661 64.4531C194.149 64.1075 194.705 63.9347 195.33 63.9347C195.472 63.9347 195.631 63.9418 195.806 63.956C195.986 63.9654 196.135 63.982 196.254 64.0057V66.3707C196.145 66.3329 195.972 66.2997 195.735 66.2713C195.503 66.2382 195.278 66.2216 195.06 66.2216C194.592 66.2216 194.17 66.3234 193.796 66.527C193.427 66.7259 193.136 67.0028 192.923 67.358C192.71 67.7131 192.603 68.1226 192.603 68.5866V75H190.032ZM200.906 75.2202C200.214 75.2202 199.592 75.0971 199.038 74.8509C198.488 74.5999 198.053 74.2306 197.731 73.7429C197.414 73.2552 197.255 72.6539 197.255 71.9389C197.255 71.3234 197.369 70.8144 197.596 70.4119C197.823 70.0095 198.133 69.6875 198.526 69.446C198.919 69.2045 199.362 69.0223 199.854 68.8991C200.352 68.7713 200.865 68.679 201.396 68.6222C202.035 68.5559 202.553 68.4967 202.951 68.4446C203.349 68.3878 203.638 68.3026 203.817 68.1889C204.002 68.0705 204.094 67.8883 204.094 67.642V67.5994C204.094 67.0644 203.936 66.6501 203.619 66.3565C203.301 66.063 202.844 65.9162 202.248 65.9162C201.618 65.9162 201.119 66.0535 200.749 66.3281C200.385 66.6027 200.138 66.9271 200.011 67.3011L197.61 66.9602C197.799 66.2973 198.112 65.7434 198.548 65.2983C198.983 64.8485 199.516 64.5123 200.146 64.2898C200.775 64.0625 201.471 63.9489 202.234 63.9489C202.759 63.9489 203.282 64.0104 203.803 64.1335C204.324 64.2566 204.8 64.4602 205.231 64.7443C205.662 65.0237 206.007 65.4048 206.268 65.8878C206.533 66.3707 206.665 66.9744 206.665 67.6989V75H204.194V73.5014H204.109C203.952 73.8045 203.732 74.0885 203.448 74.3537C203.169 74.6141 202.816 74.8248 202.39 74.9858C201.969 75.142 201.474 75.2202 200.906 75.2202ZM201.573 73.331C202.089 73.331 202.537 73.2292 202.915 73.0256C203.294 72.8172 203.585 72.5426 203.789 72.2017C203.997 71.8608 204.102 71.4891 204.102 71.0866V69.8011C204.021 69.8674 203.884 69.929 203.69 69.9858C203.5 70.0426 203.287 70.0923 203.05 70.1349C202.814 70.1776 202.579 70.2154 202.347 70.2486C202.115 70.2817 201.914 70.3101 201.744 70.3338C201.36 70.3859 201.017 70.4711 200.714 70.5895C200.411 70.7079 200.172 70.8736 199.996 71.0866C199.821 71.295 199.734 71.5649 199.734 71.8963C199.734 72.3698 199.906 72.7273 200.252 72.9688C200.598 73.2102 201.038 73.331 201.573 73.331ZM214.698 64.0909V66.0795H208.427V64.0909H214.698ZM209.975 61.4773H212.546V71.7188C212.546 72.0644 212.598 72.3295 212.702 72.5142C212.811 72.6941 212.953 72.8172 213.129 72.8835C213.304 72.9498 213.498 72.983 213.711 72.983C213.872 72.983 214.019 72.9711 214.151 72.9474C214.289 72.9238 214.393 72.9025 214.464 72.8835L214.897 74.8935C214.76 74.9408 214.563 74.9929 214.308 75.0497C214.057 75.1065 213.749 75.1397 213.384 75.1491C212.74 75.1681 212.16 75.071 211.644 74.858C211.128 74.6402 210.719 74.304 210.415 73.8494C210.117 73.3949 209.97 72.8267 209.975 72.1449V61.4773ZM221.561 75.2131C220.467 75.2131 219.522 74.9858 218.727 74.5312C217.936 74.072 217.328 73.4233 216.902 72.5852C216.475 71.7424 216.262 70.7505 216.262 69.6094C216.262 68.4872 216.475 67.5024 216.902 66.6548C217.333 65.8026 217.934 65.1397 218.706 64.6662C219.477 64.188 220.384 63.9489 221.426 63.9489C222.098 63.9489 222.733 64.0578 223.329 64.2756C223.931 64.4886 224.461 64.8201 224.92 65.2699C225.384 65.7197 225.749 66.2926 226.014 66.9886C226.279 67.6799 226.412 68.5038 226.412 69.4602V70.2486H217.47V68.5156H223.947C223.942 68.0232 223.836 67.5852 223.627 67.2017C223.419 66.8134 223.128 66.508 222.754 66.2855C222.385 66.063 221.954 65.9517 221.461 65.9517C220.936 65.9517 220.474 66.0795 220.076 66.3352C219.679 66.5862 219.368 66.9176 219.146 67.3295C218.928 67.7367 218.817 68.1842 218.812 68.6719V70.1847C218.812 70.8191 218.928 71.3636 219.16 71.8182C219.392 72.268 219.717 72.6136 220.133 72.8551C220.55 73.0919 221.038 73.2102 221.596 73.2102C221.97 73.2102 222.309 73.1581 222.612 73.054C222.915 72.9451 223.178 72.7865 223.4 72.5781C223.623 72.3698 223.791 72.1117 223.904 71.804L226.305 72.0739C226.154 72.7083 225.865 73.2623 225.439 73.7358C225.017 74.2045 224.477 74.5691 223.819 74.8295C223.161 75.0852 222.408 75.2131 221.561 75.2131Z" fill="#1B2C7E"/>
<path d="M120.64 35.8877C120.088 35.8877 119.591 35.9834 119.149 36.1748C118.712 36.3617 118.338 36.6351 118.028 36.9951C117.723 37.3506 117.488 37.7812 117.324 38.2871C117.16 38.793 117.078 39.3626 117.078 39.9961C117.078 40.8346 117.208 41.5638 117.468 42.1836C117.732 42.7988 118.124 43.2751 118.644 43.6123C119.168 43.9495 119.822 44.1182 120.605 44.1182C121.052 44.1182 121.471 44.0817 121.863 44.0088C122.26 43.9313 122.645 43.8356 123.019 43.7217V44.7334C122.654 44.8701 122.271 44.9704 121.87 45.0342C121.469 45.1025 120.993 45.1367 120.441 45.1367C119.425 45.1367 118.575 44.9271 117.892 44.5078C117.213 44.084 116.702 43.487 116.36 42.7168C116.023 41.9466 115.854 41.0374 115.854 39.9893C115.854 39.2327 115.959 38.5423 116.169 37.918C116.383 37.2891 116.693 36.7467 117.099 36.291C117.509 35.8353 118.01 35.4844 118.603 35.2383C119.2 34.9876 119.883 34.8623 120.653 34.8623C121.159 34.8623 121.647 34.9124 122.116 35.0127C122.586 35.113 123.009 35.2565 123.388 35.4434L122.923 36.4277C122.604 36.2819 122.253 36.1566 121.87 36.0518C121.492 35.9424 121.082 35.8877 120.64 35.8877ZM130.825 42.3408C130.825 42.9333 130.677 43.4391 130.381 43.8584C130.089 44.2731 129.679 44.5898 129.15 44.8086C128.622 45.0273 128 45.1367 127.284 45.1367C126.906 45.1367 126.548 45.1185 126.211 45.082C125.874 45.0456 125.564 44.9932 125.281 44.9248C124.999 44.8564 124.75 44.7721 124.536 44.6719V43.5576C124.878 43.6989 125.295 43.8311 125.787 43.9541C126.279 44.0726 126.794 44.1318 127.332 44.1318C127.833 44.1318 128.257 44.0658 128.604 43.9336C128.95 43.7969 129.212 43.6032 129.39 43.3525C129.572 43.0973 129.663 42.792 129.663 42.4365C129.663 42.0947 129.588 41.8099 129.438 41.582C129.287 41.3496 129.036 41.14 128.686 40.9531C128.339 40.7617 127.865 40.5589 127.264 40.3447C126.84 40.1943 126.466 40.0303 126.143 39.8525C125.819 39.6702 125.548 39.4652 125.329 39.2373C125.11 39.0094 124.944 38.7451 124.83 38.4443C124.721 38.1436 124.666 37.7995 124.666 37.4121C124.666 36.8789 124.8 36.4232 125.069 36.0449C125.343 35.6621 125.719 35.3704 126.197 35.1699C126.68 34.9648 127.234 34.8623 127.858 34.8623C128.392 34.8623 128.884 34.9124 129.335 35.0127C129.791 35.113 130.208 35.2474 130.586 35.416L130.224 36.4141C129.864 36.2637 129.481 36.1383 129.075 36.0381C128.674 35.9378 128.259 35.8877 127.831 35.8877C127.403 35.8877 127.04 35.9515 126.744 36.0791C126.452 36.2021 126.229 36.3776 126.074 36.6055C125.919 36.8333 125.842 37.1045 125.842 37.4189C125.842 37.7699 125.915 38.0615 126.061 38.2939C126.211 38.5264 126.448 38.7337 126.771 38.916C127.1 39.0938 127.533 39.2806 128.07 39.4766C128.658 39.6908 129.157 39.9186 129.567 40.1602C129.978 40.3971 130.29 40.6888 130.504 41.0352C130.718 41.377 130.825 41.8122 130.825 42.3408ZM139.138 45L137.907 41.8281H133.901L132.678 45H131.502L135.412 34.9648H136.458L140.341 45H139.138ZM137.559 40.7959L136.39 37.6445C136.362 37.5625 136.317 37.4281 136.253 37.2412C136.194 37.0544 136.132 36.8607 136.068 36.6602C136.005 36.4596 135.952 36.2979 135.911 36.1748C135.866 36.3617 135.815 36.5485 135.761 36.7354C135.711 36.9176 135.66 37.0885 135.61 37.248C135.56 37.403 135.517 37.5352 135.48 37.6445L134.291 40.7959H137.559ZM144.34 35.0059C145.63 35.0059 146.571 35.2588 147.163 35.7646C147.76 36.266 148.059 36.986 148.059 37.9248C148.059 38.3486 147.988 38.752 147.847 39.1348C147.71 39.513 147.487 39.848 147.177 40.1396C146.867 40.4268 146.459 40.6546 145.953 40.8232C145.452 40.9873 144.837 41.0693 144.107 41.0693H142.891V45H141.729V35.0059H144.34ZM144.23 35.9971H142.891V40.0713H143.978C144.616 40.0713 145.146 40.0029 145.57 39.8662C145.999 39.7295 146.32 39.5085 146.534 39.2031C146.748 38.8932 146.855 38.4831 146.855 37.9727C146.855 37.3073 146.644 36.8128 146.22 36.4893C145.796 36.1611 145.133 35.9971 144.23 35.9971Z" fill="#1B2C7E"/>
<g clip-path="url(#clip0_171_6)">
<path opacity="0.1" d="M66.5839 93C87.8932 93 105.168 75.763 105.168 54.5C105.168 33.237 87.8932 16 66.5839 16C45.2746 16 28 33.237 28 54.5C28 75.763 45.2746 93 66.5839 93Z" fill="#3B5DFF"/>
<path opacity="0.2" d="M66.5839 85.3639C83.6313 85.3639 97.451 71.5458 97.451 54.5002C97.451 37.4547 83.6313 23.6366 66.5839 23.6366C49.5365 23.6366 35.7168 37.4547 35.7168 54.5002C35.7168 71.5458 49.5365 85.3639 66.5839 85.3639Z" fill="#3B5DFF"/>
<path opacity="0.3" d="M66.5838 76.4544C78.7208 76.4544 88.5598 66.625 88.5598 54.4998C88.5598 42.3747 78.7208 32.5453 66.5838 32.5453C54.4467 32.5453 44.6077 42.3747 44.6077 54.4998C44.6077 66.625 54.4467 76.4544 66.5838 76.4544Z" fill="#3B5DFF"/>
<path d="M77.488 87.1134H55.8475C52.3246 87.1134 49.6405 84.4088 49.6405 81.227V27.1361C49.6405 23.7952 52.4924 21.2498 55.8475 21.2498H77.488C81.0109 21.2498 83.695 23.9543 83.695 27.1361V81.227C83.695 84.5679 81.0109 87.1134 77.488 87.1134Z" fill="white"/>
<path d="M66.5838 22.046H61.0479L61.2156 22.8415C61.3834 23.3187 61.5511 23.6369 61.8866 23.6369H66.5838H71.1132C71.4487 23.6369 71.6165 23.3187 71.7842 22.8415L71.952 22.046H66.5838Z" fill="url(#paint0_linear_171_6)"/>
<path d="M66.2485 42.8866C64.7387 42.8866 63.5644 41.6139 63.5644 40.1821C63.5644 38.5912 64.7387 37.4775 66.2485 37.4775C67.7583 37.4775 68.9326 38.7503 68.9326 40.1821C69.1003 41.6139 67.7583 42.8866 66.2485 42.8866ZM66.2485 38.273C65.2419 38.273 64.4032 39.0684 64.4032 40.023C64.4032 40.9775 65.2419 41.773 66.2485 41.773C67.255 41.773 68.0938 40.9775 68.0938 40.023C68.0938 39.0684 67.255 38.273 66.2485 38.273Z" fill="#3B5DFF"/>
<path d="M74.9719 46.0683C73.4621 46.0683 72.2878 44.7955 72.2878 43.3637C72.2878 41.7728 73.4621 40.6592 74.9719 40.6592C76.4817 40.6592 77.656 41.9319 77.656 43.3637C77.656 44.9546 76.4817 46.0683 74.9719 46.0683ZM74.9719 41.6137C73.9654 41.6137 73.1266 42.4092 73.1266 43.3637C73.1266 44.3183 73.9654 45.1137 74.9719 45.1137C75.9785 45.1137 76.8173 44.3183 76.8173 43.3637C76.8173 42.4092 75.9785 41.6137 74.9719 41.6137Z" fill="#3B5DFF"/>
<path d="M78.1589 54.818C76.6491 54.818 75.4748 53.5453 75.4748 52.1135C75.4748 50.6817 76.6491 49.4089 78.1589 49.4089C79.6687 49.4089 80.843 50.6817 80.843 52.1135C80.843 53.5453 79.6687 54.818 78.1589 54.818ZM78.1589 50.2044C77.1524 50.2044 76.3136 50.9998 76.3136 51.9544C76.3136 52.9089 77.1524 53.7044 78.1589 53.7044C79.1654 53.7044 80.0042 52.9089 80.0042 51.9544C80.0042 50.9998 79.1654 50.2044 78.1589 50.2044Z" fill="#3B5DFF"/>
<path d="M74.9719 63.4096C73.4621 63.4096 72.2878 62.1369 72.2878 60.705C72.2878 59.1141 73.4621 58.0005 74.9719 58.0005C76.4817 58.0005 77.656 59.2732 77.656 60.705C77.656 62.2959 76.4817 63.4096 74.9719 63.4096ZM74.9719 58.955C73.9654 58.955 73.1266 59.7505 73.1266 60.705C73.1266 61.6596 73.9654 62.455 74.9719 62.455C75.9785 62.455 76.8173 61.6596 76.8173 60.705C76.8173 59.7505 75.9785 58.955 74.9719 58.955Z" fill="#3B5DFF"/>
<path d="M57.5253 46.0683C56.0155 46.0683 54.8412 44.7955 54.8412 43.3637C54.8412 41.7728 56.0155 40.6592 57.5253 40.6592C59.0351 40.6592 60.2094 41.9319 60.2094 43.3637C60.3772 44.9546 59.0351 46.0683 57.5253 46.0683ZM57.5253 41.6137C56.5188 41.6137 55.68 42.4092 55.68 43.3637C55.68 44.3183 56.5188 45.1137 57.5253 45.1137C58.5319 45.1137 59.3707 44.3183 59.3707 43.3637C59.3707 42.4092 58.5319 41.6137 57.5253 41.6137Z" fill="#3B5DFF"/>
<path d="M54.3378 54.818C52.828 54.818 51.6537 53.5453 51.6537 52.1135C51.6537 50.6817 52.828 49.4089 54.3378 49.4089C55.8476 49.4089 57.0219 50.6817 57.0219 52.1135C57.0219 53.5453 55.8476 54.818 54.3378 54.818ZM54.3378 50.2044C53.3312 50.2044 52.4925 50.9998 52.4925 51.9544C52.4925 52.9089 53.3312 53.7044 54.3378 53.7044C55.3443 53.7044 56.1831 52.9089 56.1831 51.9544C56.1831 50.9998 55.3443 50.2044 54.3378 50.2044Z" fill="#3B5DFF"/>
<path d="M57.5253 63.4096C56.0155 63.4096 54.8412 62.1369 54.8412 60.705C54.8412 59.1141 56.0155 58.0005 57.5253 58.0005C59.0351 58.0005 60.2094 59.2732 60.2094 60.705C60.3772 62.2959 59.0351 63.4096 57.5253 63.4096ZM57.5253 58.955C56.5188 58.955 55.68 59.7505 55.68 60.705C55.68 61.6596 56.5188 62.455 57.5253 62.455C58.5319 62.455 59.3707 61.6596 59.3707 60.705C59.3707 59.7505 58.5319 58.955 57.5253 58.955Z" fill="#3B5DFF"/>
<path d="M66.2485 66.7504C64.7387 66.7504 63.5644 65.4777 63.5644 64.0459C63.5644 62.4549 64.7387 61.3413 66.2485 61.3413C67.7583 61.3413 68.9326 62.614 68.9326 64.0459C69.1003 65.4777 67.7583 66.7504 66.2485 66.7504ZM66.2485 62.1368C65.2419 62.1368 64.4032 62.9322 64.4032 63.8868C64.4032 64.8413 65.2419 65.6368 66.2485 65.6368C67.255 65.6368 68.0938 64.8413 68.0938 63.8868C68.0938 62.9322 67.255 62.1368 66.2485 62.1368Z" fill="#3B5DFF"/>
<path d="M66.2482 64.3641C66.0804 64.3641 65.9127 64.205 65.7449 64.0459L63.3964 58.6368L57.5249 61.0232C57.3571 61.0232 57.1894 61.0232 57.0216 60.8641C56.8539 60.705 56.8539 60.5459 56.8539 60.3868L59.3702 54.6595L54.002 52.4323C53.8343 52.4323 53.6665 52.2732 53.6665 51.955C53.6665 51.6368 53.8343 51.6368 54.002 51.4777L59.3702 49.2504L56.8539 43.5232C56.8539 43.3641 56.8539 43.205 57.0216 43.0459C57.1894 42.8868 57.3571 42.8868 57.5249 42.8868L63.3964 45.2732L65.7449 39.8641C65.7449 39.705 65.9127 39.5459 66.2482 39.5459C66.416 39.5459 66.5837 39.705 66.7515 39.8641L69.1001 45.2732L74.9715 42.8868C75.1393 42.8868 75.307 42.8868 75.4748 43.0459C75.6425 43.205 75.6425 43.3641 75.6425 43.5232L72.9584 49.4095L78.3266 51.6368C78.4944 51.6368 78.6621 51.7959 78.6621 52.1141C78.6621 52.4323 78.4944 52.4323 78.3266 52.5914L72.9584 54.8186L75.307 60.5459C75.307 60.5459 75.307 60.705 75.307 60.8641C75.307 61.1823 75.1393 61.3414 74.8038 61.3414H74.636L68.7645 58.955L66.416 64.3641C66.5837 64.205 66.416 64.3641 66.2482 64.3641ZM64.4029 58.3186L66.2482 62.7732L68.0935 58.3186L66.2482 57.5232L64.4029 58.3186ZM69.2678 57.8414L73.965 59.9095L71.9519 55.1368L69.9388 55.9323L69.2678 57.8414ZM60.5445 55.1368L58.5314 59.9095L63.2286 57.8414L62.3898 55.9323L60.5445 55.1368ZM67.4225 57.0459L68.429 57.5232L68.9323 56.4095L67.4225 57.0459ZM63.5641 56.4095L64.0674 57.5232L65.0739 57.0459L63.5641 56.4095ZM63.0608 55.2959L66.2482 56.5686L69.4356 55.2959L70.7776 52.1141L69.4356 48.9323L66.2482 47.6595L63.0608 48.9323L61.7188 52.1141L63.0608 55.2959ZM71.2809 53.2277L70.6099 54.6595L71.6164 54.1823L71.2809 53.2277ZM60.88 54.3414L61.8865 54.8186L61.2155 53.3868L60.88 54.3414ZM71.7842 52.1141L72.6229 54.0232L76.9846 52.1141L72.6229 50.205L71.7842 52.1141ZM55.5118 52.1141L59.8735 54.0232L60.7123 52.1141L59.8735 50.205L55.5118 52.1141ZM70.6099 49.4095L71.2809 50.8414L71.7842 49.7277L70.6099 49.4095ZM60.88 49.8868L61.3833 51.0004L62.0543 49.5686L60.88 49.8868ZM70.1066 48.1368L72.1197 48.9323L74.1327 44.1595L69.2678 46.2277L70.1066 48.1368ZM58.5314 44.1595L60.5445 48.9323L62.5576 48.1368L63.2286 46.2277L58.5314 44.1595ZM67.4225 47.0232L68.9323 47.6595L68.429 46.5459L67.4225 47.0232ZM64.0674 46.5459L63.5641 47.6595L65.0739 47.0232L64.0674 46.5459ZM64.4029 45.7504L66.2482 46.5459L68.0935 45.7504L66.2482 41.2959L64.4029 45.7504Z" fill="url(#paint1_linear_171_6)"/>
<path d="M65.7451 49.7274H64.9064V50.682H65.7451V49.7274Z" fill="#3B5DFF"/>
<path d="M67.5904 49.7274H66.7516V50.682H67.5904V49.7274Z" fill="#3B5DFF"/>
<path d="M68.4292 51.6366H67.5905V52.5911H68.4292V51.6366Z" fill="#3B5DFF"/>
<path d="M66.7518 51.6366H65.913V52.5911H66.7518V51.6366Z" fill="#3B5DFF"/>
<path d="M64.9063 51.6366H64.0675V52.5911H64.9063V51.6366Z" fill="#3B5DFF"/>
<path d="M67.5904 53.3866H66.7516V54.3411H67.5904V53.3866Z" fill="#3B5DFF"/>
<path d="M65.7451 53.3866H64.9064V54.3411H65.7451V53.3866Z" fill="#3B5DFF"/>
<path d="M84.366 29.8413H83.6949V79.0004H84.366V29.8413Z" fill="#2B71F4"/>
<path fill-rule="evenodd" clip-rule="evenodd" d="M50.6475 85.3636C51.9895 86.7954 54.0026 87.5909 56.5189 87.5909H78.1595C78.3249 87.5909 84.6906 86.8172 84.866 79.3182H84.8693V79.1002C84.8696 79.0669 84.8697 79.0335 84.8697 78.9999V78.5227H84.8693V29.9999H84.8697V29.5227C84.8697 29.4896 84.8696 29.4566 84.8693 29.4237V29.3637H84.8688C84.7782 21.7164 78.1595 20.9318 78.1595 20.9318H56.5189C54.1704 20.9318 52.1573 21.7272 50.8152 23.159C48.2603 25.7334 48.4414 29.7493 48.4647 30.2671C48.4659 30.2932 48.4667 30.3105 48.4667 30.3181V78.2045C48.4667 78.2124 48.4658 78.2307 48.4645 78.2585C48.4403 78.7885 48.2568 82.794 50.6475 85.3636ZM83.3595 29.5879C83.3377 26.7729 82.3331 24.736 80.508 23.4772C79.166 22.5227 77.8239 22.3636 77.8239 22.3636H56.8545C54.8414 22.3636 53.1638 22.9999 51.9895 24.2727C49.6409 26.8181 49.9765 30.7954 49.9765 30.7954V77.8863C49.9765 77.8863 49.4732 81.8636 51.654 84.25C52.8283 85.6818 54.6736 86.3181 57.0222 86.3181H77.6562C77.9915 86.3181 83.1848 85.5238 83.3595 78.855V29.5879Z" fill="url(#paint2_linear_171_6)"/>
</g>
<defs>
<filter id="filter0_d_171_6" x="0" y="0" width="288" height="117" filterUnits="userSpaceOnUse" color-interpolation-filters="sRGB">
<feFlood flood-opacity="0" result="BackgroundImageFix"/>
<feColorMatrix in="SourceAlpha" type="matrix" values="0 0 0 0 0 0 0 0 0 0 0 0 0 0 0 0 0 0 127 0" result="hardAlpha"/>
<feOffset dy="4"/>
<feGaussianBlur stdDeviation="2"/>
<feComposite in2="hardAlpha" operator="out"/>
<feColorMatrix type="matrix" values="0 0 0 0 0.866667 0 0 0 0 0.866667 0 0 0 0 0.866667 0 0 0 0.25 0"/>
<feBlend mode="normal" in2="BackgroundImageFix" result="effect1_dropShadow_171_6"/>
<feBlend mode="normal" in="SourceGraphic" in2="effect1_dropShadow_171_6" result="shape"/>
</filter>
<linearGradient id="paint0_linear_171_6" x1="61.0479" y1="22.8419" x2="71.952" y2="22.8419" gradientUnits="userSpaceOnUse">
<stop stop-color="#5B77FC"/>
<stop offset="1" stop-color="#3B5DFF"/>
</linearGradient>
<linearGradient id="paint1_linear_171_6" x1="53.6665" y1="51.9618" x2="78.6621" y2="51.9618" gradientUnits="userSpaceOnUse">
<stop stop-color="#5B77FC"/>
<stop offset="1" stop-color="#3B5DFF"/>
</linearGradient>
<linearGradient id="paint2_linear_171_6" x1="48.4518" y1="54.2795" x2="84.8697" y2="54.2795" gradientUnits="userSpaceOnUse">
<stop stop-color="#5B77FC"/>
<stop offset="1" stop-color="#3B5DFF"/>
</linearGradient>
<clipPath id="clip0_171_6">
<rect width="77" height="77" fill="white" transform="translate(28 16)"/>
</clipPath>
</defs>
</svg>
