<svg width="37" height="37" viewBox="0 0 37 37" fill="none" xmlns="http://www.w3.org/2000/svg">
<rect width="37" height="37" rx="4" fill="#1968FC"/>
<g clip-path="url(#clip0)">
<path opacity="0.1" d="M18.0806 33.6305C25.8571 33.6305 32.1612 26.9975 32.1612 18.8152C32.1612 10.633 25.8571 4 18.0806 4C10.3041 4 4 10.633 4 18.8152C4 26.9975 10.3041 33.6305 18.0806 33.6305Z" fill="white"/>
<path opacity="0.2" d="M18.0809 30.692C24.3021 30.692 29.3454 25.3746 29.3454 18.8153C29.3454 12.256 24.3021 6.9386 18.0809 6.9386C11.8597 6.9386 6.81641 12.256 6.81641 18.8153C6.81641 25.3746 11.8597 30.692 18.0809 30.692Z" fill="white"/>
<path opacity="0.3" d="M18.0804 27.2637C22.5096 27.2637 26.1002 23.4812 26.1002 18.8153C26.1002 14.1494 22.5096 10.3669 18.0804 10.3669C13.6511 10.3669 10.0605 14.1494 10.0605 18.8153C10.0605 23.4812 13.6511 27.2637 18.0804 27.2637Z" fill="white"/>
<path d="M22.06 31.3655H14.1626C12.877 31.3655 11.8975 30.3247 11.8975 29.1003V8.28553C11.8975 6.99991 12.9382 6.02039 14.1626 6.02039H22.06C23.3456 6.02039 24.3251 7.06113 24.3251 8.28553V29.1003C24.3251 30.386 23.3456 31.3655 22.06 31.3655Z" fill="white"/>
<path d="M18.0808 6.32642H16.0605L16.1218 6.63252C16.183 6.81618 16.2442 6.93862 16.3666 6.93862H18.0808H19.7337C19.8562 6.93862 19.9174 6.81618 19.9786 6.63252L20.0398 6.32642H18.0808Z" fill="#2B71F4"/>
<path d="M22.1221 31.1816H14.5308C11.4086 31.1816 11.8371 27.7533 11.8371 27.7533V17.1622V16.7336V9.63212C11.8371 9.63212 11.5922 6.2038 14.5308 6.2038H22.1221C22.1221 6.2038 24.2648 6.44868 24.326 9.20358H24.5709C24.5709 6.26502 22.2445 6.02014 22.2445 6.02014H14.4083C11.4086 6.02014 11.5922 9.50968 11.5922 9.50968V16.7336V17.1622V27.9369C11.5922 27.9369 11.2861 31.4265 14.4083 31.4265H22.3057C22.3057 31.4265 24.6321 31.1816 24.6321 28.243V28.1818H24.3872C24.2648 30.9367 22.1221 31.1816 22.1221 31.1816Z" fill="#2B71F4"/>
<path d="M14.4079 31.549C13.4896 31.549 12.7549 31.2429 12.2652 30.6919C11.3469 29.6512 11.4693 27.9983 11.4693 27.937V9.50981C11.4693 9.44859 11.3469 7.79565 12.3264 6.75491C12.8161 6.20393 13.5508 5.89783 14.4079 5.89783H22.3052C22.3052 5.89783 24.754 6.20393 24.754 9.20371V9.38737H24.2031V9.26493C24.2031 8.16297 23.8357 7.36711 23.1623 6.87735C22.6726 6.51003 22.1828 6.44881 22.1828 6.44881H14.5303C13.7957 6.44881 13.1835 6.69369 12.7549 7.18345C11.8978 8.16297 12.0203 9.69347 12.0203 9.69347V27.8146C12.0203 27.8146 11.8366 29.3451 12.6325 30.2634C13.061 30.8144 13.7344 31.0593 14.5915 31.0593H22.1216C22.244 31.0593 24.1418 30.7532 24.2031 28.1819V28.0595H24.754V28.2431C24.754 31.2429 22.3665 31.549 22.3052 31.549H14.4079ZM24.3255 29.3451C24.1418 29.9573 23.8357 30.3858 23.4684 30.6919C23.8357 30.3858 24.1418 29.9573 24.3255 29.3451ZM12.8774 6.63247C12.7549 6.69369 12.6325 6.81613 12.5713 6.93857C12.1427 7.36711 11.9591 7.97931 11.8978 8.46907C11.9591 7.91809 12.1427 7.36711 12.5713 6.87735C12.6325 6.81613 12.7549 6.69369 12.8774 6.63247ZM23.4684 6.69369C23.8357 6.99979 24.1418 7.42833 24.3255 8.04053C24.1418 7.42833 23.8357 6.99979 23.4684 6.69369Z" fill="#2B71F4"/>
<path d="M17.958 14.3461C17.4071 14.3461 16.9785 13.8564 16.9785 13.3054C16.9785 12.6932 17.4071 12.2646 17.958 12.2646C18.509 12.2646 18.9376 12.7544 18.9376 13.3054C18.9988 13.8564 18.509 14.3461 17.958 14.3461ZM17.958 12.5707C17.5907 12.5707 17.2846 12.8768 17.2846 13.2442C17.2846 13.6115 17.5907 13.9176 17.958 13.9176C18.3254 13.9176 18.6315 13.6115 18.6315 13.2442C18.6315 12.8768 18.3254 12.5707 17.958 12.5707Z" fill="#2B71F4"/>
<path d="M21.1416 15.5705C20.5906 15.5705 20.1621 15.0807 20.1621 14.5298C20.1621 13.9176 20.5906 13.489 21.1416 13.489C21.6926 13.489 22.1212 13.9788 22.1212 14.5298C22.1212 15.142 21.6926 15.5705 21.1416 15.5705ZM21.1416 13.8563C20.7743 13.8563 20.4682 14.1624 20.4682 14.5298C20.4682 14.8971 20.7743 15.2032 21.1416 15.2032C21.509 15.2032 21.8151 14.8971 21.8151 14.5298C21.8151 14.1624 21.509 13.8563 21.1416 13.8563Z" fill="#2B71F4"/>
<path d="M22.3047 18.9377C21.7537 18.9377 21.3252 18.4479 21.3252 17.8969C21.3252 17.346 21.7537 16.8562 22.3047 16.8562C22.8557 16.8562 23.2842 17.346 23.2842 17.8969C23.2842 18.4479 22.8557 18.9377 22.3047 18.9377ZM22.3047 17.1623C21.9374 17.1623 21.6313 17.4684 21.6313 17.8357C21.6313 18.203 21.9374 18.5091 22.3047 18.5091C22.672 18.5091 22.9781 18.203 22.9781 17.8357C22.9781 17.4684 22.672 17.1623 22.3047 17.1623Z" fill="#2B71F4"/>
<path d="M21.1416 22.2436C20.5906 22.2436 20.1621 21.7538 20.1621 21.2029C20.1621 20.5907 20.5906 20.1621 21.1416 20.1621C21.6926 20.1621 22.1212 20.6519 22.1212 21.2029C22.1212 21.8151 21.6926 22.2436 21.1416 22.2436ZM21.1416 20.5294C20.7743 20.5294 20.4682 20.8355 20.4682 21.2029C20.4682 21.5702 20.7743 21.8763 21.1416 21.8763C21.509 21.8763 21.8151 21.5702 21.8151 21.2029C21.8151 20.8355 21.509 20.5294 21.1416 20.5294Z" fill="#2B71F4"/>
<path d="M14.7744 15.5705C14.2235 15.5705 13.7949 15.0807 13.7949 14.5298C13.7949 13.9176 14.2235 13.489 14.7744 13.489C15.3254 13.489 15.754 13.9788 15.754 14.5298C15.8152 15.142 15.3254 15.5705 14.7744 15.5705ZM14.7744 13.8563C14.4071 13.8563 14.101 14.1624 14.101 14.5298C14.101 14.8971 14.4071 15.2032 14.7744 15.2032C15.1418 15.2032 15.4479 14.8971 15.4479 14.5298C15.4479 14.1624 15.1418 13.8563 14.7744 13.8563Z" fill="#2B71F4"/>
<path d="M13.6114 18.9377C13.0604 18.9377 12.6318 18.4479 12.6318 17.8969C12.6318 17.346 13.0604 16.8562 13.6114 16.8562C14.1623 16.8562 14.5909 17.346 14.5909 17.8969C14.5909 18.4479 14.1623 18.9377 13.6114 18.9377ZM13.6114 17.1623C13.244 17.1623 12.9379 17.4684 12.9379 17.8357C12.9379 18.203 13.244 18.5091 13.6114 18.5091C13.9787 18.5091 14.2848 18.203 14.2848 17.8357C14.2848 17.4684 13.9787 17.1623 13.6114 17.1623Z" fill="#2B71F4"/>
<path d="M14.7744 22.2436C14.2235 22.2436 13.7949 21.7538 13.7949 21.2029C13.7949 20.5907 14.2235 20.1621 14.7744 20.1621C15.3254 20.1621 15.754 20.6519 15.754 21.2029C15.8152 21.8151 15.3254 22.2436 14.7744 22.2436ZM14.7744 20.5294C14.4071 20.5294 14.101 20.8355 14.101 21.2029C14.101 21.5702 14.4071 21.8763 14.7744 21.8763C15.1418 21.8763 15.4479 21.5702 15.4479 21.2029C15.4479 20.8355 15.1418 20.5294 14.7744 20.5294Z" fill="#2B71F4"/>
<path d="M17.958 23.5291C17.4071 23.5291 16.9785 23.0394 16.9785 22.4884C16.9785 21.8762 17.4071 21.4476 17.958 21.4476C18.509 21.4476 18.9376 21.9374 18.9376 22.4884C18.9988 23.0394 18.509 23.5291 17.958 23.5291ZM17.958 21.7537C17.5907 21.7537 17.2846 22.0598 17.2846 22.4272C17.2846 22.7945 17.5907 23.1006 17.958 23.1006C18.3254 23.1006 18.6315 22.7945 18.6315 22.4272C18.6315 22.0598 18.3254 21.7537 17.958 21.7537Z" fill="#2B71F4"/>
<path d="M17.9577 22.6109C17.8965 22.6109 17.8353 22.5497 17.7741 22.4884L16.917 20.407L14.7743 21.3253C14.7131 21.3253 14.6518 21.3253 14.5906 21.264C14.5294 21.2028 14.5294 21.1416 14.5294 21.0804L15.4477 18.8765L13.4887 18.0194C13.4274 18.0194 13.3662 17.9581 13.3662 17.8357C13.3662 17.7133 13.4274 17.7133 13.4887 17.652L15.4477 16.795L14.5294 14.591C14.5294 14.5298 14.5294 14.4686 14.5906 14.4074C14.6518 14.3462 14.7131 14.3462 14.7743 14.3462L16.917 15.2645L17.7741 13.183C17.7741 13.1218 17.8353 13.0605 17.9577 13.0605C18.0189 13.0605 18.0802 13.1218 18.1414 13.183L18.9985 15.2645L21.1412 14.3462C21.2024 14.3462 21.2636 14.3462 21.3248 14.4074C21.386 14.4686 21.386 14.5298 21.386 14.591L20.4065 16.8562L22.3656 17.7133C22.4268 17.7133 22.488 17.7745 22.488 17.8969C22.488 18.0194 22.4268 18.0194 22.3656 18.0806L20.4065 18.9377L21.2636 21.1416C21.2636 21.1416 21.2636 21.2028 21.2636 21.264C21.2636 21.3865 21.2024 21.4477 21.0799 21.4477H21.0187L18.876 20.5294L18.0189 22.6109C18.0802 22.5497 18.0189 22.6109 17.9577 22.6109ZM17.2843 20.2845L17.9577 21.9987L18.6311 20.2845L17.9577 19.9784L17.2843 20.2845ZM19.0597 20.1009L20.7738 20.8967L20.0392 19.0601L19.3046 19.3662L19.0597 20.1009ZM15.8762 19.0601L15.1416 20.8967L16.8558 20.1009L16.5497 19.3662L15.8762 19.0601ZM18.3863 19.7948L18.7536 19.9784L18.9372 19.5499L18.3863 19.7948ZM16.9782 19.5499L17.1619 19.9784L17.5292 19.7948L16.9782 19.5499ZM16.7945 19.1213L17.9577 19.6111L19.1209 19.1213L19.6107 17.8969L19.1209 16.6725L17.9577 16.1828L16.7945 16.6725L16.3048 17.8969L16.7945 19.1213ZM19.7943 18.3255L19.5494 18.8765L19.9168 18.6928L19.7943 18.3255ZM15.9987 18.754L16.366 18.9377L16.1211 18.3867L15.9987 18.754ZM19.978 17.8969L20.2841 18.6316L21.8758 17.8969L20.2841 17.1623L19.978 17.8969ZM14.0396 17.8969L15.6314 18.6316L15.9375 17.8969L15.6314 17.1623L14.0396 17.8969ZM19.5494 16.8562L19.7943 17.4072L19.978 16.9786L19.5494 16.8562ZM15.9987 17.0398L16.1823 17.4684L16.4272 16.9174L15.9987 17.0398ZM19.3658 16.3664L20.1004 16.6725L20.8351 14.8359L19.0597 15.6318L19.3658 16.3664ZM15.1416 14.8359L15.8762 16.6725L16.6109 16.3664L16.8558 15.6318L15.1416 14.8359ZM18.3863 15.9379L18.9372 16.1828L18.7536 15.7542L18.3863 15.9379ZM17.1619 15.7542L16.9782 16.1828L17.5292 15.9379L17.1619 15.7542ZM17.2843 15.4481L17.9577 15.7542L18.6311 15.4481L17.9577 13.734L17.2843 15.4481Z" fill="#86BCF8"/>
<path d="M17.7739 16.9785H17.4678V17.3458H17.7739V16.9785Z" fill="#2B71F4"/>
<path d="M18.4477 16.9785H18.1416V17.3458H18.4477V16.9785Z" fill="#2B71F4"/>
<path d="M18.7534 17.7133H18.4473V18.0806H18.7534V17.7133Z" fill="#2B71F4"/>
<path d="M18.142 17.7133H17.8359V18.0806H18.142V17.7133Z" fill="#2B71F4"/>
<path d="M17.4682 17.7133H17.1621V18.0806H17.4682V17.7133Z" fill="#2B71F4"/>
<path d="M18.4477 18.3866H18.1416V18.7539H18.4477V18.3866Z" fill="#2B71F4"/>
<path d="M17.7739 18.3866H17.4678V18.7539H17.7739V18.3866Z" fill="#2B71F4"/>
<path d="M24.5691 9.32629H24.3242V28.2433H24.5691V9.32629Z" fill="#2B71F4"/>
<path d="M24.7531 9.14258H24.2021V28.3657H24.7531V9.14258Z" fill="#2B71F4"/>
</g>
<defs>
<clipPath id="clip0">
<rect width="28.1" height="29.6305" fill="white" transform="translate(4 4)"/>
</clipPath>
</defs>
</svg>
