<svg width="37" height="37" viewBox="0 0 37 37" fill="none" xmlns="http://www.w3.org/2000/svg">
<rect width="37" height="37" rx="4" fill="#3B5DFF"/>
<path d="M29.2271 13.1146C29.0325 13.1146 28.8865 13.0163 28.7892 12.8687C26.5514 8.29495 22.0271 7.26216 21.9784 7.21298C21.7352 7.1638 21.5406 6.9179 21.6379 6.62282C21.6865 6.37691 21.9298 6.18019 22.2217 6.27855C22.4163 6.32773 27.2325 7.45888 29.6649 12.4261C29.7622 12.672 29.6649 12.9671 29.4703 13.0655C29.373 13.1146 29.3244 13.1146 29.2271 13.1146Z" fill="white"/>
<path d="M29.8594 15.4262C29.081 15.4262 28.3999 14.7868 28.3999 13.9508C28.3999 13.1639 29.0323 12.4753 29.8594 12.4753C30.6377 12.4753 31.3188 13.1147 31.3188 13.9508C31.3188 14.7868 30.6864 15.4262 29.8594 15.4262ZM29.8594 13.4098C29.5675 13.4098 29.3242 13.6557 29.3242 13.9508C29.3242 14.2458 29.5675 14.4917 29.8594 14.4917C30.1513 14.4917 30.3945 14.2458 30.3945 13.9508C30.4431 13.6557 30.1999 13.4098 29.8594 13.4098Z" fill="white"/>
<path d="M6.45946 22.6068C5.68108 22.6068 5 21.9675 5 21.1314C5 20.2954 5.63243 19.656 6.45946 19.656C7.28649 19.656 7.91892 20.2954 7.91892 21.1314C7.91892 21.9675 7.23784 22.6068 6.45946 22.6068ZM6.45946 20.5904C6.16757 20.5904 5.92432 20.8363 5.92432 21.1314C5.92432 21.4265 6.16757 21.6724 6.45946 21.6724C6.75135 21.6724 6.99459 21.4265 6.99459 21.1314C6.99459 20.8363 6.75135 20.5904 6.45946 20.5904Z" fill="white"/>
<path d="M14.9244 30.9185C14.8757 30.9185 14.8757 30.9185 14.8271 30.9185C14.5838 30.8693 9.08653 29.7873 6.41085 22.7545C6.31356 22.5086 6.4595 22.2627 6.6541 22.1644C6.89734 22.066 7.14058 22.2135 7.23788 22.4103C8.55139 25.8529 10.5946 27.7218 12.0541 28.7054C13.6595 29.7873 14.973 30.0332 14.973 30.0332C15.2163 30.0824 15.3622 30.3283 15.3136 30.525C15.3136 30.771 15.119 30.9185 14.9244 30.9185Z" fill="white"/>
<path d="M30.5405 22.6068C29.7621 22.6068 29.0811 21.9675 29.0811 21.1314C29.0811 20.2954 29.7135 19.656 30.5405 19.656C31.3675 19.656 32 20.2954 32 21.1314C32 21.9675 31.3189 22.6068 30.5405 22.6068ZM30.5405 20.5904C30.2486 20.5904 30.0054 20.8363 30.0054 21.1314C30.0054 21.4265 30.2486 21.6724 30.5405 21.6724C30.8324 21.6724 31.0757 21.4265 31.0757 21.1314C31.0757 20.8363 30.8324 20.5904 30.5405 20.5904Z" fill="white"/>
<path d="M22.1241 30.9679C21.9295 30.9679 21.7349 30.8203 21.6862 30.6236C21.5889 30.3777 21.7349 30.0826 21.9781 30.0334C22.0268 30.0334 28.2052 28.017 29.5673 22.4596C29.616 22.2137 29.9079 22.0662 30.1511 22.1154C30.3943 22.1646 30.5403 22.4596 30.4916 22.7055C28.9835 28.8039 22.5133 30.8695 22.2214 30.9679C22.2214 30.9679 22.1727 30.9679 22.1241 30.9679Z" fill="white"/>
<path d="M7.09178 15.4264C6.31341 15.4264 5.63232 14.7871 5.63232 13.951C5.63232 13.1641 6.26476 12.4756 7.09178 12.4756C7.87016 12.4756 8.55124 13.1149 8.55124 13.951C8.50259 14.7871 7.87016 15.4264 7.09178 15.4264ZM7.09178 13.41C6.79989 13.41 6.55665 13.6559 6.55665 13.951C6.55665 14.2461 6.79989 14.492 7.09178 14.492C7.38368 14.492 7.62692 14.2461 7.62692 13.951C7.62692 13.6559 7.38368 13.41 7.09178 13.41Z" fill="white"/>
<path d="M7.72408 13.1149C7.62678 13.1149 7.57813 13.1149 7.48083 13.0657C7.23759 12.9182 7.18894 12.6723 7.28624 12.4264C9.91327 7.50833 14.6322 6.27882 14.8268 6.22964C15.07 6.18046 15.3133 6.328 15.4106 6.5739C15.4592 6.8198 15.3133 7.06571 15.07 7.16407C15.0214 7.16407 10.5943 8.3444 8.16192 12.9182C8.01597 13.0165 7.87002 13.1149 7.72408 13.1149Z" fill="white"/>
<path d="M23.2918 20.0491C23.1945 20.0491 23.0972 19.9999 23.0485 19.9507C22.8539 19.8032 22.8053 19.5081 22.9512 19.3114C23.4377 18.672 22.9512 17.2458 22.7566 16.754C22.708 16.6064 22.708 16.4097 22.8539 16.2622L30.9783 7.99984C31.1729 7.80311 31.4161 7.80311 31.6107 7.99984C31.8053 8.19656 31.8053 8.44246 31.6107 8.63918L23.681 16.7048C23.9242 17.3441 24.362 18.8687 23.681 19.8523C23.5837 19.9507 23.4377 20.0491 23.2918 20.0491Z" fill="white"/>
<path d="M22.9512 22.4589C22.1728 22.4589 21.4917 21.8195 21.4917 20.9835C21.4917 20.1474 22.1241 19.5081 22.9512 19.5081C23.7782 19.5081 24.4106 20.1474 24.4106 20.9835C24.4106 21.8195 23.7295 22.4589 22.9512 22.4589ZM22.9512 20.3933C22.6593 20.3933 22.416 20.6392 22.416 20.9343C22.416 21.2294 22.6593 21.4753 22.9512 21.4753C23.2431 21.4753 23.4863 21.2294 23.4863 20.9343C23.4863 20.6884 23.2431 20.3933 22.9512 20.3933Z" fill="white"/>
<path d="M14.0488 17.6884C13.2704 17.6884 12.5894 17.049 12.5894 16.213C12.5894 15.3769 13.2218 14.7375 14.0488 14.7375C14.8758 14.7375 15.5083 15.3769 15.5083 16.213C15.5083 17.049 14.8272 17.6884 14.0488 17.6884ZM14.0488 15.672C13.7569 15.672 13.5137 15.9179 13.5137 16.213C13.5137 16.508 13.7569 16.754 14.0488 16.754C14.3407 16.754 14.584 16.508 14.584 16.213C14.584 15.9179 14.3407 15.672 14.0488 15.672Z" fill="white"/>
<path d="M5.58381 29.3936C5.48652 29.3936 5.34057 29.3444 5.29192 29.246C5.09733 29.0493 5.14598 28.8034 5.29192 28.6067L13.2703 20.5903C13.1244 20.0493 12.8811 18.8198 13.0757 17.5903C13.1244 17.3444 13.3189 17.1968 13.5622 17.246C13.8054 17.2952 13.9514 17.4919 13.9027 17.7378C13.6595 19.164 14.146 20.5903 14.146 20.5903C14.1946 20.7378 14.146 20.9345 14.0487 21.0329L5.92435 29.246C5.82706 29.3444 5.68111 29.3936 5.58381 29.3936Z" fill="white"/>
<path d="M16.1406 24.5736C15.3622 24.5736 14.6812 23.9343 14.6812 23.0982C14.6812 22.2621 15.3136 21.6228 16.1406 21.6228C16.9676 21.6228 17.6001 22.2621 17.6001 23.0982C17.6001 23.9343 16.919 24.5736 16.1406 24.5736ZM16.1406 22.5572C15.8487 22.5572 15.6055 22.8031 15.6055 23.0982C15.6055 23.3933 15.8487 23.6392 16.1406 23.6392C16.4325 23.6392 16.6757 23.3933 16.6757 23.0982C16.7244 22.8031 16.4325 22.5572 16.1406 22.5572Z" fill="white"/>
<path d="M28.5948 31.9997C28.4975 31.9997 28.3516 31.9505 28.3029 31.8521L20.4218 23.8849C19.8867 24.0816 18.6218 24.3767 17.4056 24.0324C17.1624 23.9832 17.0651 23.7373 17.1137 23.4914C17.1624 23.2455 17.4056 23.1472 17.6489 23.1964C18.9137 23.5898 20.3732 22.9996 20.3732 22.9996C20.5191 22.9504 20.7137 22.9504 20.8597 23.098L28.8867 31.262C29.0813 31.4587 29.0326 31.7046 28.8867 31.9013C28.8381 31.9505 28.6921 31.9997 28.5948 31.9997Z" fill="white"/>
<path d="M20.811 15.5739C20.0326 15.5739 19.3516 14.9345 19.3516 14.0985C19.3516 13.2624 19.984 12.623 20.811 12.623C21.638 12.623 22.2705 13.2624 22.2705 14.0985C22.2705 14.9345 21.5894 15.5739 20.811 15.5739ZM20.811 13.5575C20.5191 13.5575 20.2759 13.8034 20.2759 14.0985C20.2759 14.3935 20.5191 14.6394 20.811 14.6394C21.1029 14.6394 21.3462 14.3935 21.3462 14.0985C21.3948 13.8034 21.1516 13.5575 20.811 13.5575Z" fill="white"/>
<path d="M16.4811 14.2951C16.3838 14.2951 16.2378 14.2459 16.1892 14.1476L7.9189 5.78689C7.7243 5.59017 7.7243 5.34426 7.9189 5.14754C8.11349 4.95082 8.35673 4.95082 8.55133 5.14754L16.627 13.3607C17.1621 13.2131 18.427 12.9181 19.5459 13.164C19.7892 13.2131 19.9351 13.459 19.8865 13.7049C19.8378 13.9509 19.5946 14.0984 19.3513 14.0492C18.1351 13.7541 16.6757 14.2951 16.627 14.2951C16.5784 14.2951 16.5297 14.2951 16.4811 14.2951Z" fill="white"/>
<path d="M18.427 27.6722C13.5621 27.6722 9.62158 23.6886 9.62158 18.7705C9.62158 13.8525 13.5621 9.86885 18.427 9.86885C23.2919 9.81967 27.281 13.8525 27.281 18.7705C27.281 23.6886 23.2919 27.6722 18.427 27.6722ZM18.427 10.8033C14.0973 10.8033 10.5459 14.3935 10.5459 18.7705C10.5459 23.1476 14.0973 26.7378 18.427 26.7378C22.7567 26.6886 26.3081 23.1476 26.3081 18.7705C26.3081 14.3443 22.7567 10.8033 18.427 10.8033Z" fill="white"/>
<path d="M18.4758 21.2295C17.065 21.2295 15.8975 20.0492 15.8975 18.6229C15.8975 17.1967 17.065 16.0164 18.4758 16.0164C19.8867 16.0164 21.0542 17.1967 21.0542 18.6229C21.0542 20.0492 19.8867 21.2295 18.4758 21.2295ZM18.4758 17.3934C17.7948 17.3934 17.2596 17.9344 17.2596 18.6229C17.2596 19.3115 17.7948 19.8524 18.4758 19.8524C19.1569 19.8524 19.6921 19.3115 19.6921 18.6229C19.6921 17.9344 19.1569 17.3934 18.4758 17.3934Z" fill="white"/>
</svg>
