<svg width="328" height="92" viewBox="0 0 328 92" fill="none" xmlns="http://www.w3.org/2000/svg">
<g filter="url(#filter0_d_2548_3084)">
<path d="M317.143 1H10.8571C7.07005 1 4 3.03493 4 5.54514V79.0249C4 81.5353 7.07005 83.57 10.8571 83.57H317.143C320.93 83.57 324 81.5353 324 79.0249V5.54514C324 3.03493 320.93 1 317.143 1Z" fill="#FCFCFF"/>
<path d="M317.143 1H10.857C7.3855 1 4.57129 2.86535 4.57129 5.16638V78.6461C4.57129 80.9474 7.3855 82.8125 10.857 82.8125H317.143C320.615 82.8125 323.428 80.9474 323.428 78.6461V5.16638C323.428 2.86535 320.615 1 317.143 1Z" stroke="#E3EDFF"/>
</g>
<mask id="mask0_2548_3084" style="mask-type:luminance" maskUnits="userSpaceOnUse" x="33" y="20" width="40" height="45">
<path d="M73 20H33V64.7619H73V20Z" fill="white"/>
</mask>
<g mask="url(#mask0_2548_3084)">
<path d="M57.388 41.4564L66.9029 36.4623C66.4411 35.9998 66.164 35.3524 65.9792 34.7051L56.5565 39.6992C56.9261 40.2541 57.2032 40.809 57.388 41.4564Z" fill="#3B5DFF"/>
<path d="M49.3509 39.607L40.2054 34.7979C40.0206 35.4452 39.6511 36.0926 39.1892 36.555L48.5194 41.4567C48.7042 40.8092 48.9814 40.1619 49.3509 39.607Z" fill="#3B5DFF"/>
<path d="M53.0462 47.3748C52.6766 47.3748 52.3071 47.3748 51.9376 47.2822V58.1952C52.3071 58.1028 52.6766 58.1028 53.0462 58.1028C53.4157 58.1028 53.6928 58.1028 53.97 58.1952V47.2822C53.6928 47.2822 53.4157 47.3748 53.0462 47.3748Z" fill="#3B5DFF"/>
<path d="M70.044 47.8376C70.5059 47.8376 70.8754 47.9301 71.2449 48.0226V37.4795C70.783 37.6645 70.3211 37.6645 69.8592 37.6645C69.6744 37.6645 69.4897 37.6645 69.3049 37.6645V47.9301C69.4897 47.8376 69.7668 47.8376 70.044 47.8376Z" fill="#3B5DFF"/>
<path d="M67.0877 54.9582C66.7182 54.5882 66.4411 54.2183 66.2563 53.7559L56.2794 59.4899C56.6489 60.0448 56.9261 60.6921 57.0184 61.3395L67.5496 55.2356L67.0877 54.9582Z" fill="#3B5DFF"/>
<path d="M39.0968 54.5894L38.5425 55.4217L49.0736 61.5256C49.166 60.8783 49.4432 60.2309 49.8127 59.676L39.5586 53.6646C39.4663 54.0345 39.2815 54.312 39.0968 54.5894Z" fill="#3B5DFF"/>
<path d="M36.3256 37.6632C35.7713 37.6632 35.217 37.5707 34.7551 37.3857V48.2988C35.0323 48.2988 35.217 48.2063 35.4942 48.2063C35.9561 48.2063 36.3256 48.2988 36.7875 48.3913V37.6632C36.6027 37.6632 36.5104 37.6632 36.3256 37.6632Z" fill="#3B5DFF"/>
<path d="M50.0898 25.5497C49.7203 25.1797 49.3508 24.7173 49.2584 24.1624C49.166 24.0699 49.166 23.9775 49.0736 23.7925L38.6349 29.8964C39.1892 30.2663 39.6511 30.8212 39.9282 31.4686L50.0898 25.5497C50.0898 25.6421 50.0898 25.6421 50.0898 25.5497Z" fill="#3B5DFF"/>
<path d="M57.0182 23.8838C56.9258 24.1612 56.8335 24.4387 56.6487 24.7162L56.0021 25.5485L66.2561 31.4674C66.5333 30.8201 66.9952 30.2652 67.5495 29.8952L57.0182 23.8838Z" fill="#3B5DFF"/>
<path d="M69.9514 36.3698C71.482 36.3698 72.7228 35.1276 72.7228 33.5953C72.7228 32.063 71.482 30.8208 69.9514 30.8208C68.4208 30.8208 67.1801 32.063 67.1801 33.5953C67.1801 35.1276 68.4208 36.3698 69.9514 36.3698Z" fill="url(#paint0_linear_2548_3084)"/>
<path d="M52.9536 25.549C54.4842 25.549 55.725 24.3068 55.725 22.7745C55.725 21.2422 54.4842 20 52.9536 20C51.4231 20 50.1823 21.2422 50.1823 22.7745C50.1823 24.3068 51.4231 25.549 52.9536 25.549Z" fill="url(#paint1_linear_2548_3084)"/>
<path d="M52.9536 64.7619C54.4842 64.7619 55.725 63.5198 55.725 61.9874C55.725 60.4551 54.4842 59.2129 52.9536 59.2129C51.4231 59.2129 50.1823 60.4551 50.1823 61.9874C50.1823 63.5198 51.4231 64.7619 52.9536 64.7619Z" fill="#3B5DFF"/>
<path d="M70.2287 54.7731C71.7592 54.7731 73 53.5309 73 51.9986C73 50.4663 71.7592 49.2241 70.2287 49.2241C68.6981 49.2241 67.4573 50.4663 67.4573 51.9986C67.4573 53.5309 68.6981 54.7731 70.2287 54.7731Z" fill="url(#paint2_linear_2548_3084)"/>
<path d="M35.7714 54.7731C37.302 54.7731 38.5427 53.5309 38.5427 51.9986C38.5427 50.4663 37.302 49.2241 35.7714 49.2241C34.2408 49.2241 33 50.4663 33 51.9986C33 53.5309 34.2408 54.7731 35.7714 54.7731Z" fill="url(#paint3_linear_2548_3084)"/>
<path d="M36.3256 36.3698C37.8562 36.3698 39.097 35.1276 39.097 33.5953C39.097 32.063 37.8562 30.8208 36.3256 30.8208C34.7951 30.8208 33.5543 32.063 33.5543 33.5953C33.5543 35.1276 34.7951 36.3698 36.3256 36.3698Z" fill="#3B5DFF"/>
<path d="M52.954 46.6352C55.1478 46.6352 56.9262 44.8547 56.9262 42.6585C56.9262 40.4621 55.1478 38.6816 52.954 38.6816C50.7601 38.6816 48.9817 40.4621 48.9817 42.6585C48.9817 44.8547 50.7601 46.6352 52.954 46.6352Z" fill="url(#paint4_linear_2548_3084)"/>
</g>
<path d="M92.9055 35.9091V49H90.1378V35.9091H92.9055ZM97.8546 43.3239V49H95.1316V39.1818H97.7267V40.9141H97.8418C98.0591 40.343 98.4235 39.8913 98.9348 39.5589C99.4462 39.2223 100.066 39.054 100.795 39.054C101.477 39.054 102.071 39.2031 102.578 39.5014C103.085 39.7997 103.48 40.2259 103.761 40.7798C104.042 41.3295 104.183 41.9858 104.183 42.7486V49H101.46V43.2344C101.464 42.6335 101.311 42.1648 100.999 41.8281C100.688 41.4872 100.26 41.3168 99.7147 41.3168C99.3482 41.3168 99.0243 41.3956 98.7431 41.5533C98.4661 41.7109 98.2488 41.9411 98.0911 42.2436C97.9377 42.5419 97.8588 42.902 97.8546 43.3239ZM111.551 39.1818V41.2273H105.638V39.1818H111.551ZM106.981 36.8295H109.704V45.983C109.704 46.2344 109.742 46.4304 109.819 46.571C109.896 46.7074 110.002 46.8033 110.138 46.8587C110.279 46.9141 110.441 46.9418 110.624 46.9418C110.752 46.9418 110.88 46.9311 111.008 46.9098C111.136 46.8842 111.234 46.8651 111.302 46.8523L111.73 48.8786C111.594 48.9212 111.402 48.9702 111.155 49.0256C110.908 49.0852 110.607 49.1214 110.254 49.1342C109.597 49.1598 109.022 49.0724 108.528 48.8722C108.038 48.6719 107.656 48.3608 107.384 47.9389C107.111 47.517 106.977 46.9844 106.981 46.3409V36.8295ZM117.694 49.1918C116.684 49.1918 115.815 48.9872 115.086 48.5781C114.362 48.1648 113.803 47.581 113.411 46.8267C113.019 46.0682 112.823 45.1712 112.823 44.1357C112.823 43.1257 113.019 42.2393 113.411 41.4766C113.803 40.7138 114.355 40.1193 115.067 39.6932C115.783 39.267 116.622 39.054 117.585 39.054C118.233 39.054 118.836 39.1584 119.394 39.3672C119.957 39.5717 120.447 39.8807 120.864 40.294C121.286 40.7074 121.614 41.2273 121.849 41.8537C122.083 42.4759 122.2 43.2045 122.2 44.0398V44.7876H113.91V43.1001H119.637C119.637 42.7081 119.552 42.3608 119.381 42.0582C119.211 41.7557 118.974 41.5192 118.672 41.3487C118.374 41.174 118.026 41.0866 117.63 41.0866C117.217 41.0866 116.85 41.1825 116.531 41.3743C116.215 41.5618 115.968 41.8153 115.789 42.1349C115.61 42.4503 115.518 42.8018 115.514 43.1896V44.794C115.514 45.2798 115.604 45.6996 115.783 46.0533C115.966 46.407 116.224 46.6797 116.556 46.8714C116.888 47.0632 117.283 47.1591 117.739 47.1591C118.041 47.1591 118.318 47.1165 118.57 47.0312C118.821 46.946 119.036 46.8182 119.215 46.6477C119.394 46.4773 119.531 46.2685 119.624 46.0213L122.143 46.1875C122.015 46.7926 121.753 47.321 121.357 47.7727C120.964 48.2202 120.457 48.5696 119.835 48.821C119.217 49.0682 118.504 49.1918 117.694 49.1918ZM126.7 35.9091V49H123.977V35.9091H126.7ZM133.099 49V35.9091H141.92V38.1911H135.866V41.3104H141.466V43.5923H135.866V46.718H141.945V49H133.099ZM146.345 39.1818L148.147 42.6143L149.994 39.1818H152.788L149.943 44.0909L152.865 49H150.084L148.147 45.6058L146.242 49H143.43L146.345 44.0909L143.532 39.1818H146.345ZM158.49 49.1918C157.484 49.1918 156.619 48.9787 155.894 48.5526C155.174 48.1222 154.62 47.5256 154.232 46.7628C153.849 46 153.657 45.1222 153.657 44.1293C153.657 43.1236 153.851 42.2415 154.239 41.483C154.631 40.7202 155.187 40.1257 155.907 39.6996C156.627 39.2692 157.484 39.054 158.477 39.054C159.333 39.054 160.083 39.2095 160.727 39.5206C161.37 39.8317 161.879 40.2685 162.254 40.831C162.629 41.3935 162.836 42.054 162.874 42.8125H160.305C160.232 42.3224 160.041 41.9283 159.73 41.63C159.423 41.3274 159.02 41.1761 158.521 41.1761C158.1 41.1761 157.731 41.2912 157.416 41.5213C157.105 41.7472 156.862 42.0774 156.687 42.5121C156.512 42.9467 156.425 43.473 156.425 44.0909C156.425 44.7173 156.51 45.25 156.681 45.6889C156.855 46.1278 157.1 46.4624 157.416 46.6925C157.731 46.9226 158.1 47.0376 158.521 47.0376C158.833 47.0376 159.112 46.9737 159.359 46.8459C159.61 46.718 159.817 46.5327 159.979 46.2898C160.145 46.0426 160.254 45.7464 160.305 45.4013H162.874C162.832 46.1513 162.627 46.8118 162.261 47.3828C161.899 47.9496 161.398 48.3928 160.759 48.7124C160.119 49.032 159.363 49.1918 158.49 49.1918ZM167.341 43.3239V49H164.618V35.9091H167.264V40.9141H167.379C167.601 40.3345 167.959 39.8807 168.453 39.5526C168.947 39.2202 169.567 39.054 170.313 39.054C170.995 39.054 171.589 39.2031 172.097 39.5014C172.608 39.7955 173.004 40.2195 173.286 40.7734C173.571 41.3232 173.712 41.9815 173.707 42.7486V49H170.984V43.2344C170.989 42.6293 170.835 42.1584 170.524 41.8217C170.217 41.4851 169.787 41.3168 169.233 41.3168C168.862 41.3168 168.534 41.3956 168.249 41.5533C167.967 41.7109 167.746 41.9411 167.584 42.2436C167.426 42.5419 167.345 42.902 167.341 43.3239ZM178.65 49.1854C178.024 49.1854 177.465 49.0767 176.975 48.8594C176.485 48.6378 176.097 48.3118 175.812 47.8814C175.531 47.4467 175.39 46.9055 175.39 46.2578C175.39 45.7124 175.49 45.2543 175.691 44.8835C175.891 44.5128 176.164 44.2145 176.509 43.9886C176.854 43.7628 177.246 43.5923 177.685 43.4773C178.128 43.3622 178.593 43.2812 179.078 43.2344C179.649 43.1747 180.11 43.1193 180.459 43.0682C180.808 43.0128 181.062 42.9318 181.22 42.8253C181.377 42.7187 181.456 42.5611 181.456 42.3523V42.3139C181.456 41.9091 181.328 41.5959 181.073 41.3743C180.821 41.1527 180.463 41.0419 179.999 41.0419C179.509 41.0419 179.119 41.1506 178.829 41.3679C178.539 41.581 178.347 41.8494 178.254 42.1733L175.735 41.9688C175.863 41.3722 176.115 40.8565 176.49 40.4219C176.865 39.983 177.348 39.6463 177.941 39.4119C178.537 39.1733 179.227 39.054 180.012 39.054C180.557 39.054 181.079 39.1179 181.578 39.2457C182.08 39.3736 182.526 39.5717 182.914 39.8402C183.306 40.1087 183.615 40.4538 183.84 40.8757C184.066 41.2933 184.179 41.794 184.179 42.3778V49H181.597V47.6385H181.52C181.362 47.9453 181.151 48.2159 180.887 48.4503C180.623 48.6804 180.306 48.8615 179.935 48.9936C179.564 49.1214 179.136 49.1854 178.65 49.1854ZM179.43 47.3061C179.83 47.3061 180.184 47.2273 180.491 47.0696C180.798 46.9077 181.039 46.6903 181.213 46.4176C181.388 46.1449 181.475 45.8359 181.475 45.4908V44.4489C181.39 44.5043 181.273 44.5554 181.124 44.6023C180.979 44.6449 180.815 44.6854 180.632 44.7237C180.448 44.7578 180.265 44.7898 180.082 44.8196C179.899 44.8452 179.732 44.8686 179.583 44.8899C179.264 44.9368 178.985 45.0114 178.746 45.1136C178.507 45.2159 178.322 45.3544 178.19 45.5291C178.058 45.6996 177.992 45.9126 177.992 46.1683C177.992 46.5391 178.126 46.8224 178.394 47.0185C178.667 47.2102 179.012 47.3061 179.43 47.3061ZM189.015 43.3239V49H186.292V39.1818H188.887V40.9141H189.002C189.219 40.343 189.584 39.8913 190.095 39.5589C190.606 39.2223 191.226 39.054 191.955 39.054C192.637 39.054 193.231 39.2031 193.738 39.5014C194.246 39.7997 194.64 40.2259 194.921 40.7798C195.202 41.3295 195.343 41.9858 195.343 42.7486V49H192.62V43.2344C192.624 42.6335 192.471 42.1648 192.16 41.8281C191.849 41.4872 191.42 41.3168 190.875 41.3168C190.508 41.3168 190.184 41.3956 189.903 41.5533C189.626 41.7109 189.409 41.9411 189.251 42.2436C189.098 42.5419 189.019 42.902 189.015 43.3239ZM201.912 52.8864C201.03 52.8864 200.274 52.7649 199.643 52.522C199.017 52.2834 198.518 51.9574 198.147 51.544C197.777 51.1307 197.536 50.6662 197.425 50.1506L199.944 49.8118C200.02 50.0078 200.142 50.1911 200.308 50.3615C200.474 50.532 200.694 50.6683 200.966 50.7706C201.243 50.8771 201.58 50.9304 201.976 50.9304C202.569 50.9304 203.056 50.7855 203.44 50.4957C203.828 50.2102 204.022 49.7308 204.022 49.0575V47.2614H203.907C203.787 47.5341 203.608 47.7919 203.37 48.0348C203.131 48.2777 202.824 48.4759 202.449 48.6293C202.074 48.7827 201.627 48.8594 201.107 48.8594C200.37 48.8594 199.699 48.6889 199.093 48.348C198.493 48.0028 198.013 47.4766 197.655 46.7692C197.301 46.0575 197.125 45.1584 197.125 44.0717C197.125 42.9595 197.306 42.0305 197.668 41.2848C198.03 40.5391 198.512 39.9808 199.113 39.6101C199.718 39.2393 200.38 39.054 201.1 39.054C201.65 39.054 202.11 39.1477 202.481 39.3352C202.852 39.5185 203.15 39.7486 203.376 40.0256C203.606 40.2983 203.783 40.5668 203.907 40.831H204.009V39.1818H206.713V49.0959C206.713 49.9311 206.508 50.63 206.099 51.1925C205.69 51.755 205.123 52.1768 204.399 52.4581C203.679 52.7436 202.85 52.8864 201.912 52.8864ZM201.97 46.8139C202.409 46.8139 202.779 46.7053 203.082 46.4879C203.389 46.2663 203.623 45.951 203.785 45.5419C203.951 45.1286 204.034 44.6342 204.034 44.0589C204.034 43.4837 203.953 42.9851 203.792 42.5632C203.63 42.1371 203.395 41.8068 203.088 41.5724C202.782 41.3381 202.409 41.2209 201.97 41.2209C201.522 41.2209 201.145 41.3423 200.838 41.5852C200.532 41.8239 200.299 42.1562 200.142 42.5824C199.984 43.0085 199.905 43.5007 199.905 44.0589C199.905 44.6257 199.984 45.1158 200.142 45.5291C200.304 45.9382 200.536 46.2557 200.838 46.4815C201.145 46.7031 201.522 46.8139 201.97 46.8139ZM213.354 49.1918C212.344 49.1918 211.475 48.9872 210.746 48.5781C210.022 48.1648 209.463 47.581 209.071 46.8267C208.679 46.0682 208.483 45.1712 208.483 44.1357C208.483 43.1257 208.679 42.2393 209.071 41.4766C209.463 40.7138 210.015 40.1193 210.727 39.6932C211.443 39.267 212.282 39.054 213.245 39.054C213.893 39.054 214.496 39.1584 215.054 39.3672C215.617 39.5717 216.107 39.8807 216.525 40.294C216.946 40.7074 217.275 41.2273 217.509 41.8537C217.743 42.4759 217.86 43.2045 217.86 44.0398V44.7876H209.57V43.1001H215.297C215.297 42.7081 215.212 42.3608 215.042 42.0582C214.871 41.7557 214.635 41.5192 214.332 41.3487C214.034 41.174 213.686 41.0866 213.29 41.0866C212.877 41.0866 212.51 41.1825 212.191 41.3743C211.875 41.5618 211.628 41.8153 211.449 42.1349C211.27 42.4503 211.179 42.8018 211.174 43.1896V44.794C211.174 45.2798 211.264 45.6996 211.443 46.0533C211.626 46.407 211.884 46.6797 212.216 46.8714C212.549 47.0632 212.943 47.1591 213.399 47.1591C213.701 47.1591 213.978 47.1165 214.23 47.0312C214.481 46.946 214.696 46.8182 214.875 46.6477C215.054 46.4773 215.191 46.2685 215.284 46.0213L217.803 46.1875C217.675 46.7926 217.413 47.321 217.017 47.7727C216.625 48.2202 216.118 48.5696 215.495 48.821C214.877 49.0682 214.164 49.1918 213.354 49.1918ZM223.855 49V35.9091H226.622V46.718H232.235V49H223.855ZM234.016 49V39.1818H236.739V49H234.016ZM235.384 37.9162C234.979 37.9162 234.632 37.782 234.342 37.5135C234.057 37.2408 233.914 36.9148 233.914 36.5355C233.914 36.1605 234.057 35.8388 234.342 35.5703C234.632 35.2976 234.979 35.1612 235.384 35.1612C235.789 35.1612 236.134 35.2976 236.42 35.5703C236.71 35.8388 236.854 36.1605 236.854 36.5355C236.854 36.9148 236.71 37.2408 236.42 37.5135C236.134 37.782 235.789 37.9162 235.384 37.9162ZM244.143 39.1818V41.2273H238.23V39.1818H244.143ZM239.573 36.8295H242.296V45.983C242.296 46.2344 242.334 46.4304 242.411 46.571C242.487 46.7074 242.594 46.8033 242.73 46.8587C242.871 46.9141 243.033 46.9418 243.216 46.9418C243.344 46.9418 243.472 46.9311 243.6 46.9098C243.727 46.8842 243.825 46.8651 243.894 46.8523L244.322 48.8786C244.186 48.9212 243.994 48.9702 243.747 49.0256C243.499 49.0852 243.199 49.1214 242.845 49.1342C242.189 49.1598 241.614 49.0724 241.119 48.8722C240.629 48.6719 240.248 48.3608 239.975 47.9389C239.703 47.517 239.568 46.9844 239.573 46.3409V36.8295ZM250.286 49.1918C249.276 49.1918 248.406 48.9872 247.678 48.5781C246.953 48.1648 246.395 47.581 246.003 46.8267C245.611 46.0682 245.415 45.1712 245.415 44.1357C245.415 43.1257 245.611 42.2393 246.003 41.4766C246.395 40.7138 246.947 40.1193 247.659 39.6932C248.374 39.267 249.214 39.054 250.177 39.054C250.825 39.054 251.428 39.1584 251.986 39.3672C252.548 39.5717 253.039 39.8807 253.456 40.294C253.878 40.7074 254.206 41.2273 254.441 41.8537C254.675 42.4759 254.792 43.2045 254.792 44.0398V44.7876H246.502V43.1001H252.229C252.229 42.7081 252.144 42.3608 251.973 42.0582C251.803 41.7557 251.566 41.5192 251.264 41.3487C250.965 41.174 250.618 41.0866 250.222 41.0866C249.808 41.0866 249.442 41.1825 249.122 41.3743C248.807 41.5618 248.56 41.8153 248.381 42.1349C248.202 42.4503 248.11 42.8018 248.106 43.1896V44.794C248.106 45.2798 248.195 45.6996 248.374 46.0533C248.558 46.407 248.816 46.6797 249.148 46.8714C249.48 47.0632 249.874 47.1591 250.33 47.1591C250.633 47.1591 250.91 47.1165 251.161 47.0312C251.413 46.946 251.628 46.8182 251.807 46.6477C251.986 46.4773 252.122 46.2685 252.216 46.0213L254.735 46.1875C254.607 46.7926 254.345 47.321 253.948 47.7727C253.556 48.2202 253.049 48.5696 252.427 48.821C251.809 49.0682 251.095 49.1918 250.286 49.1918Z" fill="#1B2C7E"/>
<defs>
<filter id="filter0_d_2548_3084" x="0" y="0.5" width="328" height="91.0698" filterUnits="userSpaceOnUse" color-interpolation-filters="sRGB">
<feFlood flood-opacity="0" result="BackgroundImageFix"/>
<feColorMatrix in="SourceAlpha" type="matrix" values="0 0 0 0 0 0 0 0 0 0 0 0 0 0 0 0 0 0 127 0" result="hardAlpha"/>
<feOffset dy="4"/>
<feGaussianBlur stdDeviation="2"/>
<feComposite in2="hardAlpha" operator="out"/>
<feColorMatrix type="matrix" values="0 0 0 0 0.866667 0 0 0 0 0.866667 0 0 0 0 0.866667 0 0 0 0.25 0"/>
<feBlend mode="normal" in2="BackgroundImageFix" result="effect1_dropShadow_2548_3084"/>
<feBlend mode="normal" in="SourceGraphic" in2="effect1_dropShadow_2548_3084" result="shape"/>
</filter>
<linearGradient id="paint0_linear_2548_3084" x1="67.1801" y1="33.5968" x2="72.7228" y2="33.5968" gradientUnits="userSpaceOnUse">
<stop stop-color="#5B77FC"/>
<stop offset="1" stop-color="#3B5DFF"/>
</linearGradient>
<linearGradient id="paint1_linear_2548_3084" x1="50.1823" y1="22.776" x2="55.725" y2="22.776" gradientUnits="userSpaceOnUse">
<stop stop-color="#5B77FC"/>
<stop offset="1" stop-color="#3B5DFF"/>
</linearGradient>
<linearGradient id="paint2_linear_2548_3084" x1="67.4573" y1="52.0001" x2="73" y2="52.0001" gradientUnits="userSpaceOnUse">
<stop stop-color="#5B77FC"/>
<stop offset="1" stop-color="#3B5DFF"/>
</linearGradient>
<linearGradient id="paint3_linear_2548_3084" x1="33" y1="52.0001" x2="38.5427" y2="52.0001" gradientUnits="userSpaceOnUse">
<stop stop-color="#5B77FC"/>
<stop offset="1" stop-color="#3B5DFF"/>
</linearGradient>
<linearGradient id="paint4_linear_2548_3084" x1="48.9817" y1="42.6606" x2="56.9262" y2="42.6606" gradientUnits="userSpaceOnUse">
<stop stop-color="#5B77FC"/>
<stop offset="1" stop-color="#3B5DFF"/>
</linearGradient>
</defs>
</svg>
