<svg width="37" height="37" viewBox="0 0 37 37" fill="none" xmlns="http://www.w3.org/2000/svg">
<rect width="37" height="37" rx="4" fill="#6236FF"/>
<g opacity="0.9">
<g clip-path="url(#clip0)">
<path d="M21.491 17.6133L27.5348 14.4447C27.2414 14.1513 27.0654 13.7406 26.948 13.3298L20.9629 16.4984C21.1976 16.8505 21.3736 17.2026 21.491 17.6133Z" fill="white"/>
<path d="M16.3862 16.4397L10.5771 13.3884C10.4597 13.7992 10.225 14.2099 9.93164 14.5033L15.8581 17.6132C15.9754 17.2025 16.1515 16.7917 16.3862 16.4397Z" fill="white"/>
<path d="M18.7334 21.3685C18.4987 21.3685 18.264 21.3685 18.0293 21.3098V28.2338C18.264 28.1751 18.4987 28.1751 18.7334 28.1751C18.9681 28.1751 19.1442 28.1751 19.3202 28.2338V21.3098C19.1442 21.3098 18.9681 21.3685 18.7334 21.3685Z" fill="white"/>
<path d="M29.53 21.662C29.8234 21.662 30.0581 21.7207 30.2928 21.7793V15.0901C29.9994 15.2074 29.706 15.2074 29.4126 15.2074C29.2953 15.2074 29.1779 15.2074 29.0605 15.2074V21.7207C29.1779 21.662 29.3539 21.662 29.53 21.662Z" fill="white"/>
<path d="M27.6524 26.1803C27.4177 25.9456 27.2417 25.7109 27.1243 25.4175L20.7871 29.0555C21.0218 29.4076 21.1979 29.8183 21.2565 30.229L27.9458 26.3563L27.6524 26.1803Z" fill="white"/>
<path d="M9.87257 25.9454L9.52051 26.4735L16.2098 30.3462C16.2684 29.9355 16.4445 29.5248 16.6792 29.1727L10.166 25.3586C10.1073 25.5934 9.98993 25.7694 9.87257 25.9454Z" fill="white"/>
<path d="M8.11276 15.2073C7.76069 15.2073 7.40862 15.1486 7.11523 15.0312V21.9552C7.29127 21.9552 7.40862 21.8965 7.58466 21.8965C7.87804 21.8965 8.11276 21.9552 8.40614 22.0139V15.2073C8.28879 15.2073 8.23011 15.2073 8.11276 15.2073Z" fill="white"/>
<path d="M16.8561 7.52064C16.6214 7.28593 16.3867 6.99254 16.328 6.64047C16.2693 6.58179 16.2693 6.52312 16.2107 6.40576L9.58008 10.2785C9.93214 10.5132 10.2255 10.8653 10.4016 11.276L16.8561 7.52064C16.8561 7.57932 16.8561 7.57932 16.8561 7.52064Z" fill="white"/>
<path d="M21.2568 6.46436C21.1981 6.64039 21.1394 6.81642 21.0221 6.99245L20.6113 7.52055L27.1246 11.2759C27.3006 10.8652 27.594 10.5131 27.946 10.2784L21.2568 6.46436Z" fill="white"/>
<path d="M29.4713 14.3859C30.4435 14.3859 31.2316 13.5978 31.2316 12.6256C31.2316 11.6534 30.4435 10.8652 29.4713 10.8652C28.4991 10.8652 27.7109 11.6534 27.7109 12.6256C27.7109 13.5978 28.4991 14.3859 29.4713 14.3859Z" fill="white"/>
<path d="M18.6744 7.52066C19.6466 7.52066 20.4347 6.73253 20.4347 5.76033C20.4347 4.78813 19.6466 4 18.6744 4C17.7022 4 16.9141 4.78813 16.9141 5.76033C16.9141 6.73253 17.7022 7.52066 18.6744 7.52066Z" fill="white"/>
<path d="M18.6744 32.4001C19.6466 32.4001 20.4347 31.6119 20.4347 30.6397C20.4347 29.6675 19.6466 28.8794 18.6744 28.8794C17.7022 28.8794 16.9141 29.6675 16.9141 30.6397C16.9141 31.6119 17.7022 32.4001 18.6744 32.4001Z" fill="white"/>
<path d="M29.647 26.0627C30.6193 26.0627 31.4074 25.2745 31.4074 24.3023C31.4074 23.3301 30.6193 22.542 29.647 22.542C28.6748 22.542 27.8867 23.3301 27.8867 24.3023C27.8867 25.2745 28.6748 26.0627 29.647 26.0627Z" fill="white"/>
<path d="M7.76033 26.0627C8.73253 26.0627 9.52066 25.2745 9.52066 24.3023C9.52066 23.3301 8.73253 22.542 7.76033 22.542C6.78813 22.542 6 23.3301 6 24.3023C6 25.2745 6.78813 26.0627 7.76033 26.0627Z" fill="white"/>
<path d="M8.11189 14.3859C9.0841 14.3859 9.87222 13.5978 9.87222 12.6256C9.87222 11.6534 9.0841 10.8652 8.11189 10.8652C7.13969 10.8652 6.35156 11.6534 6.35156 12.6256C6.35156 13.5978 7.13969 14.3859 8.11189 14.3859Z" fill="white"/>
<path d="M18.6745 20.8991C20.068 20.8991 21.1976 19.7694 21.1976 18.3759C21.1976 16.9824 20.068 15.8528 18.6745 15.8528C17.281 15.8528 16.1514 16.9824 16.1514 18.3759C16.1514 19.7694 17.281 20.8991 18.6745 20.8991Z" fill="white"/>
</g>
</g>
<defs>
<clipPath id="clip0">
<rect width="25.4074" height="28.4" fill="white" transform="translate(6 4)"/>
</clipPath>
</defs>
</svg>
