<svg width="288" height="117" viewBox="0 0 288 117" fill="none" xmlns="http://www.w3.org/2000/svg">
<g filter="url(#filter0_d_171_58)">
<rect x="4" width="280" height="109" rx="6" fill="#FCFCFF"/>
<rect x="4.5" y="0.5" width="279" height="108" rx="5.5" stroke="#E3EDFF"/>
</g>
<path d="M105.07 60.4545V75H102.435V60.4545H105.07ZM110.38 68.608V75H107.809V64.0909H110.267V65.9446H110.395C110.645 65.3338 111.046 64.8485 111.595 64.4886C112.149 64.1288 112.833 63.9489 113.647 63.9489C114.4 63.9489 115.056 64.1098 115.615 64.4318C116.178 64.7538 116.614 65.2202 116.922 65.831C117.234 66.4418 117.388 67.1828 117.383 68.054V75H114.812V68.4517C114.812 67.7225 114.623 67.152 114.244 66.7401C113.87 66.3281 113.351 66.1222 112.689 66.1222C112.239 66.1222 111.839 66.2216 111.488 66.4205C111.143 66.6146 110.87 66.8963 110.672 67.2656C110.477 67.6349 110.38 68.0824 110.38 68.608ZM125.444 64.0909V66.0795H119.173V64.0909H125.444ZM120.721 61.4773H123.292V71.7188C123.292 72.0644 123.344 72.3295 123.449 72.5142C123.557 72.6941 123.699 72.8172 123.875 72.8835C124.05 72.9498 124.244 72.983 124.457 72.983C124.618 72.983 124.765 72.9711 124.897 72.9474C125.035 72.9238 125.139 72.9025 125.21 72.8835L125.643 74.8935C125.506 74.9408 125.309 74.9929 125.054 75.0497C124.803 75.1065 124.495 75.1397 124.13 75.1491C123.486 75.1681 122.906 75.071 122.39 74.858C121.874 74.6402 121.465 74.304 121.162 73.8494C120.863 73.3949 120.717 72.8267 120.721 72.1449V61.4773ZM132.307 75.2131C131.213 75.2131 130.268 74.9858 129.473 74.5312C128.682 74.072 128.074 73.4233 127.648 72.5852C127.222 71.7424 127.009 70.7505 127.009 69.6094C127.009 68.4872 127.222 67.5024 127.648 66.6548C128.079 65.8026 128.68 65.1397 129.452 64.6662C130.223 64.188 131.13 63.9489 132.172 63.9489C132.844 63.9489 133.479 64.0578 134.075 64.2756C134.677 64.4886 135.207 64.8201 135.666 65.2699C136.13 65.7197 136.495 66.2926 136.76 66.9886C137.025 67.6799 137.158 68.5038 137.158 69.4602V70.2486H128.216V68.5156H134.693C134.688 68.0232 134.582 67.5852 134.374 67.2017C134.165 66.8134 133.874 66.508 133.5 66.2855C133.131 66.063 132.7 65.9517 132.207 65.9517C131.682 65.9517 131.22 66.0795 130.822 66.3352C130.425 66.5862 130.115 66.9176 129.892 67.3295C129.674 67.7367 129.563 68.1842 129.558 68.6719V70.1847C129.558 70.8191 129.674 71.3636 129.906 71.8182C130.138 72.268 130.463 72.6136 130.879 72.8551C131.296 73.0919 131.784 73.2102 132.342 73.2102C132.716 73.2102 133.055 73.1581 133.358 73.054C133.661 72.9451 133.924 72.7865 134.146 72.5781C134.369 72.3698 134.537 72.1117 134.651 71.804L137.051 72.0739C136.9 72.7083 136.611 73.2623 136.185 73.7358C135.763 74.2045 135.223 74.5691 134.565 74.8295C133.907 75.0852 133.154 75.2131 132.307 75.2131ZM141.904 60.4545V75H139.333V60.4545H141.904ZM149.622 75V60.4545H159.082V62.6634H152.257V66.6122H158.592V68.821H152.257V72.7912H159.139V75H149.622ZM163.759 64.0909L165.961 68.1179L168.198 64.0909H170.918L167.63 69.5455L170.975 75H168.269L165.961 71.0724L163.674 75H160.947L164.271 69.5455L161.032 64.0909H163.759ZM177.255 75.2131C176.166 75.2131 175.231 74.974 174.45 74.4957C173.673 74.0175 173.074 73.357 172.653 72.5142C172.236 71.6667 172.028 70.6913 172.028 69.5881C172.028 68.4801 172.241 67.5024 172.667 66.6548C173.093 65.8026 173.695 65.1397 174.471 64.6662C175.252 64.188 176.176 63.9489 177.241 63.9489C178.127 63.9489 178.91 64.1122 179.592 64.4389C180.279 64.7609 180.825 65.2178 181.233 65.8097C181.64 66.3968 181.872 67.0833 181.929 67.8693H179.471C179.372 67.3437 179.135 66.9058 178.761 66.5554C178.392 66.2003 177.897 66.0227 177.277 66.0227C176.751 66.0227 176.289 66.1648 175.892 66.4489C175.494 66.7282 175.184 67.1307 174.961 67.6562C174.743 68.1818 174.635 68.8116 174.635 69.5455C174.635 70.2888 174.743 70.928 174.961 71.4631C175.179 71.9934 175.484 72.4029 175.877 72.6918C176.275 72.9759 176.742 73.1179 177.277 73.1179C177.655 73.1179 177.994 73.0469 178.292 72.9048C178.595 72.758 178.849 72.5473 179.052 72.2727C179.256 71.9981 179.395 71.6643 179.471 71.2713H181.929C181.867 72.0431 181.64 72.7273 181.247 73.3239C180.854 73.9157 180.319 74.3797 179.642 74.7159C178.965 75.0473 178.169 75.2131 177.255 75.2131ZM186.611 68.608V75H184.04V60.4545H186.554V65.9446H186.682C186.938 65.3291 187.333 64.8437 187.868 64.4886C188.408 64.1288 189.094 63.9489 189.928 63.9489C190.685 63.9489 191.346 64.1075 191.909 64.4247C192.473 64.742 192.908 65.206 193.216 65.8168C193.528 66.4276 193.685 67.1733 193.685 68.054V75H191.114V68.4517C191.114 67.7178 190.924 67.1473 190.545 66.7401C190.171 66.3281 189.646 66.1222 188.969 66.1222C188.514 66.1222 188.107 66.2216 187.747 66.4205C187.392 66.6146 187.113 66.8963 186.909 67.2656C186.71 67.6349 186.611 68.0824 186.611 68.608ZM199.445 75.2202C198.753 75.2202 198.131 75.0971 197.577 74.8509C197.027 74.5999 196.592 74.2306 196.27 73.7429C195.953 73.2552 195.794 72.6539 195.794 71.9389C195.794 71.3234 195.908 70.8144 196.135 70.4119C196.362 70.0095 196.672 69.6875 197.065 69.446C197.458 69.2045 197.901 69.0223 198.393 68.8991C198.891 68.7713 199.404 68.679 199.935 68.6222C200.574 68.5559 201.092 68.4967 201.49 68.4446C201.888 68.3878 202.177 68.3026 202.357 68.1889C202.541 68.0705 202.634 67.8883 202.634 67.642V67.5994C202.634 67.0644 202.475 66.6501 202.158 66.3565C201.84 66.063 201.384 65.9162 200.787 65.9162C200.157 65.9162 199.658 66.0535 199.288 66.3281C198.924 66.6027 198.678 66.9271 198.55 67.3011L196.149 66.9602C196.339 66.2973 196.651 65.7434 197.087 65.2983C197.522 64.8485 198.055 64.5123 198.685 64.2898C199.314 64.0625 200.01 63.9489 200.773 63.9489C201.298 63.9489 201.821 64.0104 202.342 64.1335C202.863 64.2566 203.339 64.4602 203.77 64.7443C204.201 65.0237 204.546 65.4048 204.807 65.8878C205.072 66.3707 205.205 66.9744 205.205 67.6989V75H202.733V73.5014H202.648C202.491 73.8045 202.271 74.0885 201.987 74.3537C201.708 74.6141 201.355 74.8248 200.929 74.9858C200.508 75.142 200.013 75.2202 199.445 75.2202ZM200.112 73.331C200.628 73.331 201.076 73.2292 201.455 73.0256C201.833 72.8172 202.125 72.5426 202.328 72.2017C202.536 71.8608 202.641 71.4891 202.641 71.0866V69.8011C202.56 69.8674 202.423 69.929 202.229 69.9858C202.039 70.0426 201.826 70.0923 201.589 70.1349C201.353 70.1776 201.118 70.2154 200.886 70.2486C200.654 70.2817 200.453 70.3101 200.283 70.3338C199.899 70.3859 199.556 70.4711 199.253 70.5895C198.95 70.7079 198.711 70.8736 198.536 71.0866C198.36 71.295 198.273 71.5649 198.273 71.8963C198.273 72.3698 198.446 72.7273 198.791 72.9688C199.137 73.2102 199.577 73.331 200.112 73.331ZM210.361 68.608V75H207.79V64.0909H210.247V65.9446H210.375C210.626 65.3338 211.026 64.8485 211.575 64.4886C212.129 64.1288 212.813 63.9489 213.628 63.9489C214.381 63.9489 215.036 64.1098 215.595 64.4318C216.159 64.7538 216.594 65.2202 216.902 65.831C217.214 66.4418 217.368 67.1828 217.364 68.054V75H214.793V68.4517C214.793 67.7225 214.603 67.152 214.224 66.7401C213.85 66.3281 213.332 66.1222 212.669 66.1222C212.219 66.1222 211.819 66.2216 211.469 66.4205C211.123 66.6146 210.851 66.8963 210.652 67.2656C210.458 67.6349 210.361 68.0824 210.361 68.608ZM224.722 79.3182C223.798 79.3182 223.005 79.1927 222.342 78.9418C221.679 78.6955 221.147 78.3641 220.744 77.9474C220.342 77.5308 220.062 77.0691 219.906 76.5625L222.222 76.0014C222.326 76.2145 222.477 76.4252 222.676 76.6335C222.875 76.8466 223.143 77.0218 223.479 77.1591C223.82 77.3011 224.248 77.3722 224.764 77.3722C225.493 77.3722 226.097 77.1946 226.575 76.8395C227.054 76.4891 227.293 75.9115 227.293 75.1065V73.0398H227.165C227.032 73.3049 226.838 73.5772 226.582 73.8565C226.331 74.1359 225.998 74.3703 225.581 74.5597C225.169 74.7491 224.651 74.8438 224.026 74.8438C223.188 74.8438 222.428 74.6473 221.746 74.2543C221.069 73.8565 220.529 73.2647 220.126 72.4787C219.729 71.688 219.53 70.6984 219.53 69.5099C219.53 68.312 219.729 67.3011 220.126 66.4773C220.529 65.6487 221.071 65.0213 221.753 64.5952C222.435 64.1643 223.195 63.9489 224.033 63.9489C224.672 63.9489 225.197 64.0578 225.609 64.2756C226.026 64.4886 226.357 64.7467 226.604 65.0497C226.85 65.348 227.037 65.6297 227.165 65.8949H227.307V64.0909H229.842V75.1776C229.842 76.1103 229.62 76.8821 229.175 77.4929C228.73 78.1037 228.121 78.5606 227.349 78.8636C226.578 79.1667 225.702 79.3182 224.722 79.3182ZM224.743 72.8267C225.287 72.8267 225.751 72.6941 226.135 72.429C226.518 72.1638 226.81 71.7827 227.009 71.2855C227.207 70.7884 227.307 70.1918 227.307 69.4957C227.307 68.8092 227.207 68.2079 227.009 67.6918C226.814 67.1757 226.526 66.7756 226.142 66.4915C225.763 66.2027 225.297 66.0582 224.743 66.0582C224.17 66.0582 223.692 66.2074 223.308 66.5057C222.925 66.804 222.636 67.2135 222.442 67.7344C222.248 68.2505 222.151 68.8376 222.151 69.4957C222.151 70.1634 222.248 70.7481 222.442 71.25C222.641 71.7472 222.932 72.1354 223.315 72.4148C223.704 72.6894 224.179 72.8267 224.743 72.8267ZM237.307 75.2131C236.213 75.2131 235.268 74.9858 234.473 74.5312C233.682 74.072 233.074 73.4233 232.648 72.5852C232.222 71.7424 232.009 70.7505 232.009 69.6094C232.009 68.4872 232.222 67.5024 232.648 66.6548C233.079 65.8026 233.68 65.1397 234.452 64.6662C235.223 64.188 236.13 63.9489 237.172 63.9489C237.844 63.9489 238.479 64.0578 239.075 64.2756C239.677 64.4886 240.207 64.8201 240.666 65.2699C241.13 65.7197 241.495 66.2926 241.76 66.9886C242.025 67.6799 242.158 68.5038 242.158 69.4602V70.2486H233.216V68.5156H239.693C239.688 68.0232 239.582 67.5852 239.374 67.2017C239.165 66.8134 238.874 66.508 238.5 66.2855C238.131 66.063 237.7 65.9517 237.207 65.9517C236.682 65.9517 236.22 66.0795 235.822 66.3352C235.425 66.5862 235.115 66.9176 234.892 67.3295C234.674 67.7367 234.563 68.1842 234.558 68.6719V70.1847C234.558 70.8191 234.674 71.3636 234.906 71.8182C235.138 72.268 235.463 72.6136 235.879 72.8551C236.296 73.0919 236.784 73.2102 237.342 73.2102C237.716 73.2102 238.055 73.1581 238.358 73.054C238.661 72.9451 238.924 72.7865 239.146 72.5781C239.369 72.3698 239.537 72.1117 239.651 71.804L242.051 72.0739C241.9 72.7083 241.611 73.2623 241.185 73.7358C240.763 74.2045 240.223 74.5691 239.565 74.8295C238.907 75.0852 238.154 75.2131 237.307 75.2131Z" fill="#1B2C7E"/>
<path d="M106.64 35.8877C106.088 35.8877 105.591 35.9834 105.149 36.1748C104.712 36.3617 104.338 36.6351 104.028 36.9951C103.723 37.3506 103.488 37.7812 103.324 38.2871C103.16 38.793 103.078 39.3626 103.078 39.9961C103.078 40.8346 103.208 41.5638 103.468 42.1836C103.732 42.7988 104.124 43.2751 104.644 43.6123C105.168 43.9495 105.822 44.1182 106.605 44.1182C107.052 44.1182 107.471 44.0817 107.863 44.0088C108.26 43.9313 108.645 43.8356 109.019 43.7217V44.7334C108.654 44.8701 108.271 44.9704 107.87 45.0342C107.469 45.1025 106.993 45.1367 106.441 45.1367C105.425 45.1367 104.575 44.9271 103.892 44.5078C103.213 44.084 102.702 43.487 102.36 42.7168C102.023 41.9466 101.854 41.0374 101.854 39.9893C101.854 39.2327 101.959 38.5423 102.169 37.918C102.383 37.2891 102.693 36.7467 103.099 36.291C103.509 35.8353 104.01 35.4844 104.603 35.2383C105.2 34.9876 105.883 34.8623 106.653 34.8623C107.159 34.8623 107.647 34.9124 108.116 35.0127C108.586 35.113 109.009 35.2565 109.388 35.4434L108.923 36.4277C108.604 36.2819 108.253 36.1566 107.87 36.0518C107.492 35.9424 107.082 35.8877 106.64 35.8877ZM114.255 45H113.086V36.0312H109.941V35.0059H117.386V36.0312H114.255V45ZM118.896 45V35.0059H120.059V45H118.896ZM129.479 45H128.159L125.459 40.5977L122.718 45H121.48L124.81 39.791L121.713 35.0059H123.005L125.5 38.9912L128.009 35.0059H129.239L126.149 39.7705L129.479 45Z" fill="#1B2C7E"/>
<g clip-path="url(#clip0_171_58)">
<path d="M62.8698 51.6778L76.4742 44.5373C75.8138 43.8761 75.4176 42.9505 75.1534 42.0249L61.681 49.1654C62.2094 49.9588 62.6056 50.7522 62.8698 51.6778Z" fill="#3B5DFF"/>
<path d="M51.3784 49.0331L38.3023 42.1571C38.0381 43.0827 37.5098 44.0083 36.8494 44.6695L50.1896 51.6778C50.4538 50.7521 50.8501 49.8265 51.3784 49.0331Z" fill="#3B5DFF"/>
<path d="M56.6618 60.1407C56.1334 60.1407 55.6051 60.1407 55.0768 60.0084V75.6117C55.6051 75.4795 56.1334 75.4795 56.6618 75.4795C57.1901 75.4795 57.5863 75.4795 57.9826 75.6117V60.0084C57.5863 60.0084 57.1901 60.1407 56.6618 60.1407Z" fill="#3B5DFF"/>
<path d="M80.9649 60.8017C81.6253 60.8017 82.1536 60.934 82.6819 61.0662V45.9918C82.0215 46.2563 81.3611 46.2563 80.7007 46.2563C80.4365 46.2563 80.1724 46.2563 79.9082 46.2563V60.934C80.1724 60.8017 80.5686 60.8017 80.9649 60.8017Z" fill="#3B5DFF"/>
<path d="M76.7384 70.9837C76.21 70.4547 75.8138 69.9258 75.5496 69.2646L61.2848 77.463C61.8131 78.2564 62.2094 79.182 62.3414 80.1076L77.3988 71.3803L76.7384 70.9837Z" fill="#3B5DFF"/>
<path d="M36.7173 70.4548L35.9248 71.6448L50.9821 80.3721C51.1142 79.4465 51.5105 78.5209 52.0388 77.7275L37.3777 69.1324C37.2456 69.6614 36.9815 70.0581 36.7173 70.4548Z" fill="#3B5DFF"/>
<path d="M32.7549 46.2558C31.9624 46.2558 31.1699 46.1236 30.5095 45.8591V61.4624C30.9058 61.4624 31.1699 61.3302 31.5662 61.3302C32.2266 61.3302 32.7549 61.4624 33.4153 61.5947V46.2558C33.1512 46.2558 33.0191 46.2558 32.7549 46.2558Z" fill="#3B5DFF"/>
<path d="M52.435 28.9339C51.9067 28.405 51.3784 27.7438 51.2463 26.9504C51.1142 26.8182 51.1142 26.686 50.9821 26.4215L36.0569 35.1488C36.8494 35.6777 37.5098 36.4711 37.906 37.3967L52.435 28.9339C52.435 29.0661 52.435 29.0661 52.435 28.9339Z" fill="#3B5DFF"/>
<path d="M62.3412 26.5537C62.2091 26.9504 62.077 27.3471 61.8129 27.7438L60.8883 28.9339L75.5494 37.3967C75.9457 36.4711 76.6061 35.6777 77.3986 35.1488L62.3412 26.5537Z" fill="#3B5DFF"/>
<path d="M80.8328 44.4047C83.0212 44.4047 84.7953 42.6286 84.7953 40.4378C84.7953 38.2469 83.0212 36.4708 80.8328 36.4708C78.6444 36.4708 76.8704 38.2469 76.8704 40.4378C76.8704 42.6286 78.6444 44.4047 80.8328 44.4047Z" fill="url(#paint0_linear_171_58)"/>
<path d="M56.5295 28.9339C58.7179 28.9339 60.4919 27.1578 60.4919 24.9669C60.4919 22.7761 58.7179 21 56.5295 21C54.3411 21 52.567 22.7761 52.567 24.9669C52.567 27.1578 54.3411 28.9339 56.5295 28.9339Z" fill="url(#paint1_linear_171_58)"/>
<path d="M56.5295 84.9999C58.7179 84.9999 60.4919 83.2239 60.4919 81.033C60.4919 78.8421 58.7179 77.066 56.5295 77.066C54.3411 77.066 52.567 78.8421 52.567 81.033C52.567 83.2239 54.3411 84.9999 56.5295 84.9999Z" fill="#3B5DFF"/>
<path d="M81.2291 70.719C83.4175 70.719 85.1915 68.943 85.1915 66.7521C85.1915 64.5612 83.4175 62.7852 81.2291 62.7852C79.0407 62.7852 77.2666 64.5612 77.2666 66.7521C77.2666 68.943 79.0407 70.719 81.2291 70.719Z" fill="url(#paint2_linear_171_58)"/>
<path d="M31.9625 70.719C34.1509 70.719 35.9249 68.943 35.9249 66.7521C35.9249 64.5612 34.1509 62.7852 31.9625 62.7852C29.7741 62.7852 28 64.5612 28 66.7521C28 68.943 29.7741 70.719 31.9625 70.719Z" fill="url(#paint3_linear_171_58)"/>
<path d="M32.7549 44.4047C34.9433 44.4047 36.7174 42.6286 36.7174 40.4378C36.7174 38.2469 34.9433 36.4708 32.7549 36.4708C30.5665 36.4708 28.7925 38.2469 28.7925 40.4378C28.7925 42.6286 30.5665 44.4047 32.7549 44.4047Z" fill="#3B5DFF"/>
<path d="M56.53 59.0827C59.6667 59.0827 62.2095 56.537 62.2095 53.3968C62.2095 50.2565 59.6667 47.7108 56.53 47.7108C53.3933 47.7108 50.8505 50.2565 50.8505 53.3968C50.8505 56.537 53.3933 59.0827 56.53 59.0827Z" fill="url(#paint4_linear_171_58)"/>
</g>
<defs>
<filter id="filter0_d_171_58" x="0" y="0" width="288" height="117" filterUnits="userSpaceOnUse" color-interpolation-filters="sRGB">
<feFlood flood-opacity="0" result="BackgroundImageFix"/>
<feColorMatrix in="SourceAlpha" type="matrix" values="0 0 0 0 0 0 0 0 0 0 0 0 0 0 0 0 0 0 127 0" result="hardAlpha"/>
<feOffset dy="4"/>
<feGaussianBlur stdDeviation="2"/>
<feComposite in2="hardAlpha" operator="out"/>
<feColorMatrix type="matrix" values="0 0 0 0 0.866667 0 0 0 0 0.866667 0 0 0 0 0.866667 0 0 0 0.25 0"/>
<feBlend mode="normal" in2="BackgroundImageFix" result="effect1_dropShadow_171_58"/>
<feBlend mode="normal" in="SourceGraphic" in2="effect1_dropShadow_171_58" result="shape"/>
</filter>
<linearGradient id="paint0_linear_171_58" x1="76.8704" y1="40.4399" x2="84.7953" y2="40.4399" gradientUnits="userSpaceOnUse">
<stop stop-color="#5B77FC"/>
<stop offset="1" stop-color="#3B5DFF"/>
</linearGradient>
<linearGradient id="paint1_linear_171_58" x1="52.567" y1="24.9691" x2="60.4919" y2="24.9691" gradientUnits="userSpaceOnUse">
<stop stop-color="#5B77FC"/>
<stop offset="1" stop-color="#3B5DFF"/>
</linearGradient>
<linearGradient id="paint2_linear_171_58" x1="77.2666" y1="66.7543" x2="85.1915" y2="66.7543" gradientUnits="userSpaceOnUse">
<stop stop-color="#5B77FC"/>
<stop offset="1" stop-color="#3B5DFF"/>
</linearGradient>
<linearGradient id="paint3_linear_171_58" x1="28" y1="66.7543" x2="35.9249" y2="66.7543" gradientUnits="userSpaceOnUse">
<stop stop-color="#5B77FC"/>
<stop offset="1" stop-color="#3B5DFF"/>
</linearGradient>
<linearGradient id="paint4_linear_171_58" x1="50.8505" y1="53.3999" x2="62.2095" y2="53.3999" gradientUnits="userSpaceOnUse">
<stop stop-color="#5B77FC"/>
<stop offset="1" stop-color="#3B5DFF"/>
</linearGradient>
<clipPath id="clip0_171_58">
<rect width="57.1915" height="64" fill="white" transform="translate(28 21)"/>
</clipPath>
</defs>
</svg>
