<svg xmlns="http://www.w3.org/2000/svg" viewBox="0 0 84.21 70.4"><defs><style>.cls-1{fill:#a600ce;}.cls-1,.cls-2,.cls-3{fill-rule:evenodd;}.cls-2{fill:#004efc;}.cls-3{fill:#00c689;}.cls-4{fill:#0d1521;}</style></defs><g id="Layer_2" data-name="Layer 2"><g id="Layer_1-2" data-name="Layer 1"><path class="cls-1" d="M52.21,41.77,70.93,69.12a.82.82,0,0,1-.22,1.14.76.76,0,0,1-.46.14H32.9a.85.85,0,0,1-.8-.9.72.72,0,0,1,.12-.4L50.89,41.82a.81.81,0,0,1,.66-.33A.74.74,0,0,1,52.21,41.77Z"/><path class="cls-2" d="M23.35,69.38,45.12,37.6a.87.87,0,0,0,0-1L23.29,4.7a.79.79,0,0,0-1.11-.19h0l-.2.2L.15,36.58a.81.81,0,0,0,0,.94L22,69.38a.81.81,0,0,0,1.13.22l0,0A.55.55,0,0,0,23.35,69.38Z"/><path class="cls-3" d="M52.23,32.38,70.94,5.09A.86.86,0,0,0,70.7,3.9a.89.89,0,0,0-.45-.15H32.9a.85.85,0,0,0-.8.9.68.68,0,0,0,.12.41L50.89,32.34a.78.78,0,0,0,.66.33A.73.73,0,0,0,52.23,32.38Z"/><path class="cls-4" d="M77,.6V5.06h-.64V.6H75V0h3.5V.6Zm6.54,4.46V.87L81.84,5.06h-.18L79.93.87V5.06h-.64V0h1l1.47,3.68L83.22,0h1V5.06Z"/></g></g></svg>