<svg xmlns="http://www.w3.org/2000/svg" xmlns:xlink="http://www.w3.org/1999/xlink" viewBox="0 0 155 60"><defs><style>.cls-1,.cls-2{fill:#fff;}.cls-1{fill-opacity:0;}.cls-3{fill:#a6a6a6;}.cls-4{fill:url(#linear-gradient);}</style><linearGradient id="linear-gradient" x1="-42.2" y1="-29.5" x2="-42.2" y2="-27.56" gradientTransform="matrix(74.17, 0, 0, -74.13, 3239, -2136.97)" gradientUnits="userSpaceOnUse"><stop offset="0" stop-color="#1a1a1a" stop-opacity="0.1"/><stop offset="0.12" stop-color="#212121" stop-opacity="0.15"/><stop offset="0.31" stop-color="#353535" stop-opacity="0.23"/><stop offset="0.53" stop-color="#575757" stop-opacity="0.32"/><stop offset="0.78" stop-color="#858585" stop-opacity="0.42"/><stop offset="1" stop-color="#b3b3b3" stop-opacity="0.51"/></linearGradient></defs><title>social-app-store-icon</title><g id="Layer_2" data-name="Layer 2"><g id="artwork"><rect class="cls-1" width="155" height="60"/><path class="cls-2" d="M144.11,45.19A3.83,3.83,0,0,1,140.28,49H14.87A3.82,3.82,0,0,1,11,45.19V14.67a3.83,3.83,0,0,1,3.83-3.83h125.4a3.82,3.82,0,0,1,3.83,3.83h0V45.19Z"/><path class="cls-3" d="M140.27,49.9H14.87a4.72,4.72,0,0,1-4.72-4.71V14.67A4.72,4.72,0,0,1,14.87,10h125.4A4.73,4.73,0,0,1,145,14.67V45.19a4.72,4.72,0,0,1-4.73,4.71Z"/><path d="M144.11,45.19A3.83,3.83,0,0,1,140.28,49H14.87A3.82,3.82,0,0,1,11,45.19V14.67a3.83,3.83,0,0,1,3.83-3.83h125.4a3.82,3.82,0,0,1,3.83,3.83h0V45.19Z"/><path class="cls-2" d="M40.26,29.71A5.81,5.81,0,0,1,43,24.85a5.92,5.92,0,0,0-4.68-2.52c-2-.21-3.87,1.17-4.87,1.17s-2.56-1.15-4.23-1.12A6.23,6.23,0,0,0,24,25.58c-2.27,3.92-.58,9.68,1.59,12.84,1.09,1.56,2.36,3.29,4,3.23s2.23-1,4.19-1,2.51,1,4.2,1,2.84-1.56,3.89-3.13a12.88,12.88,0,0,0,1.78-3.62,5.59,5.59,0,0,1-3.42-5.15Zm-3.2-9.47a5.73,5.73,0,0,0,1.31-4.08,5.77,5.77,0,0,0-3.76,1.94A5.4,5.4,0,0,0,33.27,22a4.81,4.81,0,0,0,3.79-1.8Z"/><path class="cls-4" d="M140.27,10H73.11l26.3,40h40.86A4.72,4.72,0,0,0,145,45.18V14.67A4.72,4.72,0,0,0,140.27,10Z"/><path class="cls-2" d="M63.78,41.43H61.51l-1.24-3.91H56l-1.19,3.91H52.55l4.29-13.3h2.64l4.3,13.3ZM59.9,35.88l-1.13-3.47c-.12-.36-.34-1.19-.67-2.51h0c-.13.57-.34,1.4-.63,2.51l-1.11,3.47Zm14.87.63a5.47,5.47,0,0,1-1.32,3.87,3.92,3.92,0,0,1-3,1.26,3,3,0,0,1-2.74-1.36v5H65.62V35c0-1,0-2.08-.08-3.15h1.87l.12,1.52h0A3.79,3.79,0,0,1,73.64,33a5.27,5.27,0,0,1,1.13,3.53Zm-2.17.08A4,4,0,0,0,72,34.28a2.26,2.26,0,0,0-3.28-.42,2.39,2.39,0,0,0-.84,1.37,2.84,2.84,0,0,0-.1.65v1.6a2.59,2.59,0,0,0,.64,1.77,2.16,2.16,0,0,0,1.67.72A2.19,2.19,0,0,0,71.93,39,4.08,4.08,0,0,0,72.6,36.59Zm13.21-.08a5.48,5.48,0,0,1-1.33,3.87,3.92,3.92,0,0,1-3,1.26,3,3,0,0,1-2.74-1.36v5H76.65V35c0-1,0-2.08-.08-3.15h1.87l.12,1.52h0A3.79,3.79,0,0,1,84.67,33a5.27,5.27,0,0,1,1.14,3.53Zm-2.18.08A4,4,0,0,0,83,34.28a2.26,2.26,0,0,0-3.28-.42,2.39,2.39,0,0,0-.84,1.37,2.57,2.57,0,0,0-.1.65v1.6a2.59,2.59,0,0,0,.64,1.77,2.16,2.16,0,0,0,1.67.72A2.19,2.19,0,0,0,83,39,4.08,4.08,0,0,0,83.63,36.59ZM98.14,37.7A3.57,3.57,0,0,1,97,40.46a5.29,5.29,0,0,1-3.63,1.16,6.26,6.26,0,0,1-3.44-.83L90.38,39a6,6,0,0,0,3.08.83,2.89,2.89,0,0,0,1.87-.54A1.79,1.79,0,0,0,96,37.86a1.87,1.87,0,0,0-.56-1.37,5.22,5.22,0,0,0-1.83-1q-3.5-1.3-3.5-3.81A3.37,3.37,0,0,1,91.36,29a4.86,4.86,0,0,1,3.26-1.05,6.47,6.47,0,0,1,3,.63l-.53,1.74a5.29,5.29,0,0,0-2.56-.61,2.58,2.58,0,0,0-1.76.55,1.6,1.6,0,0,0-.53,1.21,1.62,1.62,0,0,0,.61,1.3,7.08,7.08,0,0,0,1.93,1,6.5,6.5,0,0,1,2.53,1.62,3.39,3.39,0,0,1,.81,2.31Zm7.06-4.26h-2.35v4.65c0,1.19.42,1.78,1.25,1.78a4,4,0,0,0,.94-.1l.06,1.61a4.72,4.72,0,0,1-1.65.24,2.58,2.58,0,0,1-2-.77,3.78,3.78,0,0,1-.71-2.59V33.43h-1.4v-1.6h1.4V30.08l2.09-.63v2.38h2.35v1.61Zm10.58,3.11a5.2,5.2,0,0,1-1.27,3.63A4.48,4.48,0,0,1,111,41.64a4.25,4.25,0,0,1-3.36-1.4,5.07,5.07,0,0,1-1.26-3.53,5.24,5.24,0,0,1,1.3-3.65,4.49,4.49,0,0,1,3.48-1.42,4.37,4.37,0,0,1,3.39,1.4,5,5,0,0,1,1.23,3.51Zm-2.21.05a4.29,4.29,0,0,0-.57-2.26,2.12,2.12,0,0,0-1.92-1.14,2.14,2.14,0,0,0-2,1.14,4.38,4.38,0,0,0-.57,2.3,4.26,4.26,0,0,0,.57,2.26,2.18,2.18,0,0,0,3.85,0,4.36,4.36,0,0,0,.59-2.29Zm9.14-2.89a3.79,3.79,0,0,0-.67-.06,2,2,0,0,0-1.74.85,3.15,3.15,0,0,0-.53,1.89v5h-2.13V34.86c0-1,0-2-.07-3h1.86l.08,1.83h.06a3.28,3.28,0,0,1,1.06-1.52,2.61,2.61,0,0,1,1.54-.51,3,3,0,0,1,.54,0v2Zm9.53,2.47a5.11,5.11,0,0,1-.08,1h-6.39a2.79,2.79,0,0,0,.92,2.18,3.22,3.22,0,0,0,2.1.67,6.89,6.89,0,0,0,2.58-.46l.34,1.48a8,8,0,0,1-3.22.59,4.62,4.62,0,0,1-3.5-1.31,4.83,4.83,0,0,1-1.28-3.52,5.51,5.51,0,0,1,1.19-3.61,4.11,4.11,0,0,1,3.35-1.54,3.59,3.59,0,0,1,3.14,1.54,5.2,5.2,0,0,1,.85,3Zm-2-.55a2.91,2.91,0,0,0-.42-1.64,1.86,1.86,0,0,0-1.7-.89,2,2,0,0,0-1.69.87,3.08,3.08,0,0,0-.63,1.65Z"/><path class="cls-2" d="M55.33,23.43a13.36,13.36,0,0,1-1.53-.08V16.92a12.16,12.16,0,0,1,1.81-.14c2.44,0,3.56,1.21,3.56,3.17C59.17,22.21,57.85,23.43,55.33,23.43Zm.36-5.82a4.06,4.06,0,0,0-.84.07v4.88a5.45,5.45,0,0,0,.71,0A2.31,2.31,0,0,0,58.07,20,2.13,2.13,0,0,0,55.69,17.61Zm7,5.87a2.24,2.24,0,0,1-2.27-2.43,2.3,2.3,0,0,1,2.35-2.49A2.23,2.23,0,0,1,65,21a2.31,2.31,0,0,1-2.35,2.5Zm0-4.15c-.76,0-1.24.7-1.24,1.69S62,22.7,62.71,22.7s1.23-.76,1.23-1.7-.48-1.67-1.22-1.67Zm10.16-.67-1.47,4.71h-1l-.61-2.05c-.15-.5-.28-1-.38-1.52h0a9.94,9.94,0,0,1-.38,1.52l-.65,2.05h-1l-1.39-4.71h1.08l.53,2.24c.13.53.24,1,.32,1.51h0c.08-.4.21-.89.39-1.5l.67-2.25h.85l.65,2.2c.15.53.28,1.06.37,1.55h0a15.33,15.33,0,0,1,.32-1.55l.57-2.2Zm5.43,4.71h-1V20.66c0-.83-.32-1.25-1-1.25a1.1,1.1,0,0,0-1,1.16v2.8h-1V20c0-.41,0-.86,0-1.34h.92l.05.72h0a1.69,1.69,0,0,1,1.49-.82c1,0,1.64.76,1.64,2v2.82Zm2.89,0h-1V16.49h1Zm3.82.11a2.24,2.24,0,0,1-2.27-2.43,2.29,2.29,0,0,1,2.34-2.49A2.23,2.23,0,0,1,87.36,21,2.31,2.31,0,0,1,85,23.48Zm0-4.15c-.76,0-1.25.7-1.25,1.69s.5,1.68,1.24,1.68,1.23-.76,1.23-1.7-.49-1.67-1.22-1.67Zm6.43,4-.07-.54h0a1.63,1.63,0,0,1-1.38.65,1.37,1.37,0,0,1-1.44-1.39c0-1.16,1-1.77,2.75-1.77v-.08c0-.62-.33-.93-1-.93a2.16,2.16,0,0,0-1.23.35L88.9,19a3,3,0,0,1,1.62-.41c1.23,0,1.85.65,1.85,2v1.73a6.76,6.76,0,0,0,.07,1.13ZM91.35,21c-1.16,0-1.75.28-1.75.95a.67.67,0,0,0,.72.74,1,1,0,0,0,1-1Zm6.11,2.35,0-.76h0a1.59,1.59,0,0,1-1.51.87,2.15,2.15,0,0,1-2-2.41A2.23,2.23,0,0,1,96,18.56a1.41,1.41,0,0,1,1.33.64h0V16.49h1V22.1c0,.45,0,.88,0,1.27ZM97.3,20.6a1.15,1.15,0,0,0-1.1-1.23c-.78,0-1.25.69-1.25,1.66s.49,1.6,1.23,1.6a1.17,1.17,0,0,0,1.12-1.25V20.6Zm7.7,2.88a2.24,2.24,0,0,1-2.27-2.43,2.3,2.3,0,0,1,2.35-2.49A2.22,2.22,0,0,1,107.34,21a2.3,2.3,0,0,1-2.34,2.5Zm0-4.15c-.76,0-1.24.7-1.24,1.69s.49,1.68,1.23,1.68,1.23-.76,1.23-1.7-.49-1.67-1.22-1.67Zm7.94,4h-1V20.66c0-.83-.32-1.25-1-1.25a1.1,1.1,0,0,0-1,1.16v2.8h-1.05V20c0-.41,0-.86,0-1.34h.92l0,.72h0a1.72,1.72,0,0,1,1.5-.82c1,0,1.64.76,1.64,2Zm7-3.93h-1.15v2.29c0,.58.2.87.61.87a2,2,0,0,0,.47-.05l0,.8a2.33,2.33,0,0,1-.82.12c-.82,0-1.32-.46-1.32-1.65V19.44h-.68v-.78h.68v-.87l1-.31v1.18H120v.78Zm5.55,3.93h-1V20.68c0-.84-.32-1.27-1-1.27a1,1,0,0,0-1,1.12v2.84h-1V16.49h1v2.84h0a1.57,1.57,0,0,1,1.41-.77c1,0,1.61.77,1.61,2v2.8Zm5.68-2.11h-3.14a1.35,1.35,0,0,0,1.48,1.4,3.59,3.59,0,0,0,1.27-.22l.17.73a4,4,0,0,1-1.59.29,2.19,2.19,0,0,1-2.34-2.38,2.3,2.3,0,0,1,2.23-2.53,2,2,0,0,1,2,2.24,2.42,2.42,0,0,1,0,.47Zm-1-.74c0-.73-.37-1.24-1-1.24a1.24,1.24,0,0,0-1.14,1.24Z"/></g></g></svg>