<svg width="18" height="18" viewBox="0 0 18 18" fill="none" xmlns="http://www.w3.org/2000/svg">
<path d="M9.5 1.625H13.175C14.6451 1.625 15.3802 1.625 15.9417 1.91111C16.4357 2.16278 16.8372 2.56435 17.0889 3.05828C17.375 3.61979 17.375 4.35486 17.375 5.825V13.175C17.375 14.6451 17.375 15.3802 17.0889 15.9417C16.8372 16.4357 16.4357 16.8372 15.9417 17.0889C15.3802 17.375 14.6451 17.375 13.175 17.375H5.825C4.35486 17.375 3.61979 17.375 3.05828 17.0889C2.56435 16.8372 2.16278 16.4357 1.91111 15.9417C1.625 15.3802 1.625 14.6451 1.625 13.175V9.5M6 10.375V13.875M13 8.625V13.875M9.5 5.125V13.875M3.375 6V0.75M0.75 3.375H6" stroke="black" stroke-opacity="0.9" stroke-linecap="round" stroke-linejoin="round"/>
</svg>
