<svg width="21" height="21" viewBox="0 0 21 21" fill="none" xmlns="http://www.w3.org/2000/svg">
<path d="M14.875 12.6875V10.0576C14.875 9.90058 14.875 9.82205 14.8511 9.75273C14.8299 9.69143 14.7954 9.63559 14.7501 9.58926C14.6987 9.53687 14.6285 9.50175 14.488 9.43152L10.5 7.4375M3.5 8.3125V14.2683C3.5 14.5937 3.5 14.7564 3.55077 14.8989C3.59564 15.0248 3.66879 15.1388 3.76458 15.2321C3.87294 15.3376 4.02086 15.4054 4.31668 15.541L9.91668 18.1076C10.1313 18.206 10.2386 18.2552 10.3503 18.2746C10.4494 18.2918 10.5506 18.2918 10.6497 18.2746C10.7614 18.2552 10.8687 18.206 11.0833 18.1076L16.6833 15.541C16.9791 15.4054 17.1271 15.3376 17.2354 15.2321C17.3312 15.1388 17.4044 15.0248 17.4492 14.8989C17.5 14.7564 17.5 14.5937 17.5 14.2683V8.3125M1.75 7.4375L10.187 3.21902C10.3017 3.16163 10.3591 3.13293 10.4193 3.12164C10.4726 3.11163 10.5274 3.11163 10.5807 3.12164C10.6409 3.13293 10.6983 3.16163 10.813 3.21902L19.25 7.4375L10.813 11.656C10.6983 11.7134 10.6409 11.7421 10.5807 11.7534C10.5274 11.7634 10.4726 11.7634 10.4193 11.7534C10.3591 11.7421 10.3017 11.7134 10.187 11.656L1.75 7.4375Z" stroke="black" stroke-opacity="0.9" stroke-linecap="round" stroke-linejoin="round"/>
</svg>
