<svg xmlns="http://www.w3.org/2000/svg" width="54" height="54" viewBox="0 0 54 54">
  <g id="Layer_4" data-name="Layer 4">
    <g>
      <g>
        <path d="M31.65389,36.968H5.23225c-1.26758,0-2.29633-.74607-2.29633-1.6653V19.167c0-.91924,1.02875-1.66531,2.29633-1.66531H44.26977" style="fill: none;stroke: #77e5dd;stroke-linecap: round;stroke-miterlimit: 10;stroke-width: 2px"/>
        <g>
          <path d="M12.49269,26.05542a1.87609,1.87609,0,0,1,.48544,1.40322v2.4287H11.74784V27.64826a1.11036,1.11036,0,0,0-.22-.75395.81115.81115,0,0,0-.63865-.24727.98034.98034,0,0,0-.74181.28672,1.19628,1.19628,0,0,0-.2761.85558v2.098H8.641v-5.851H9.87132v2.051a1.61047,1.61047,0,0,1,.59163-.37469,2.14377,2.14377,0,0,1,.757-.13047A1.7447,1.7447,0,0,1,12.49269,26.05542Z" style="fill: #77e5dd"/>
          <path d="M16.82674,29.68255a1.25628,1.25628,0,0,1-.446.20024,2.20927,2.20927,0,0,1-.55522.06827,1.65009,1.65009,0,0,1-1.17112-.38684,1.47864,1.47864,0,0,1-.41414-1.13623v-1.7415h-.65382v-.94661h.65382V24.70681h1.23029v1.03307h1.05582v.94661H15.47055v1.72633a.57646.57646,0,0,0,.138.41414.50916.50916,0,0,0,.38987.14564.79913.79913,0,0,0,.49757-.15777Z" style="fill: #77e5dd"/>
          <path d="M20.16109,29.68255a1.2562,1.2562,0,0,1-.446.20024,2.20925,2.20925,0,0,1-.55521.06827,1.65007,1.65007,0,0,1-1.17112-.38684,1.4786,1.4786,0,0,1-.41414-1.13623v-1.7415h-.65383v-.94661h.65383V24.70681H18.8049v1.03307h1.05583v.94661H18.8049v1.72633a.57642.57642,0,0,0,.138.41414.50914.50914,0,0,0,.38986.14564.79918.79918,0,0,0,.49758-.15777Z" style="fill: #77e5dd"/>
          <path d="M24.439,25.85366a1.95286,1.95286,0,0,1,.76.76608,2.52,2.52,0,0,1,0,2.29369,1.93921,1.93921,0,0,1-.76.76457,2.15738,2.15738,0,0,1-1.07706.27306,1.64056,1.64056,0,0,1-1.27731-.51275v1.97816H20.85436V25.64583H22.03v.48847a1.62758,1.62758,0,0,1,1.33192-.55219A2.17214,2.17214,0,0,1,24.439,25.85366Zm-.51274,2.76851a1.35807,1.35807,0,0,0,0-1.71117,1.1024,1.1024,0,0,0-1.5534,0,1.35807,1.35807,0,0,0,0,1.71117,1.10611,1.10611,0,0,0,1.5534,0Z" style="fill: #77e5dd"/>
          <path d="M26.21693,26.89886a.74769.74769,0,0,1-.22-.55218.71889.71889,0,0,1,.22-.54764.81306.81306,0,0,1,1.0892,0,.71889.71889,0,0,1,.22.54764.76912.76912,0,0,1-1.30917.55218Zm0,2.83072a.74773.74773,0,0,1-.22-.55219.71889.71889,0,0,1,.22-.54764.81306.81306,0,0,1,1.0892,0,.71889.71889,0,0,1,.22.54764.76913.76913,0,0,1-1.30917.55219Z" style="fill: #77e5dd"/>
          <path d="M30.554,23.249h1.09376l-2.60013,7.4272H27.95085Z" style="fill: #77e5dd"/>
          <path d="M33.06767,23.249h1.09527l-2.60164,7.4272H30.466Z" style="fill: #77e5dd"/>
        </g>
        <polygon points="51.187 34.18 44.49 29.396 37.792 24.612 37.902 32.842 38.011 41.072 42.357 37.473 47.983 48.192 51.236 46.581 45.445 35.849 51.187 34.18" style="fill: none;stroke: #77e5dd;stroke-linecap: round;stroke-linejoin: round;stroke-width: 2px"/>
      </g>
      <rect x="-0.06832" y="-0.02908" width="54" height="54" style="fill: none"/>
    </g>
  </g>
</svg>
