<svg xmlns="http://www.w3.org/2000/svg" xmlns:xlink="http://www.w3.org/1999/xlink" width="190" height="39.921" viewBox="0 0 190 39.921">
  <defs>
    <clipPath id="clip-path">
      <rect id="Rectangle_80" data-name="Rectangle 80" width="190" height="39.921" fill="none"/>
    </clipPath>
    <clipPath id="clip-path-2">
      <path id="Path_581" data-name="Path 581" d="M1.67,34.267H31.7L28.41,29.922H5.976V4.474L1.67,3.564Z" transform="translate(-1.67 -3.564)" fill="none"/>
    </clipPath>
    <linearGradient id="linear-gradient" x1="0.016" y1="0.872" x2="0.081" y2="0.872" gradientUnits="objectBoundingBox">
      <stop offset="0" stop-color="#ec6616"/>
      <stop offset="1" stop-color="#dc003f"/>
    </linearGradient>
    <clipPath id="clip-path-3">
      <path id="Path_582" data-name="Path 582" d="M.765,30.872V3.974L29.206,9.894l.026,23.561-2.706-2.706v-17.8L3.479,8.208V36.29ZM0,3.026V31.144l4.319,8.745V9.211l21.328,4.418V31.154l4.3,4.3,4.394,4.459V4.851L8.595,0Z" transform="translate(0 -0.004)" fill="none"/>
    </clipPath>
    <linearGradient id="linear-gradient-2" x1="0.125" y1="0.975" x2="0.182" y2="0.975" xlink:href="#linear-gradient"/>
  </defs>
  <g id="Group_495" data-name="Group 495" transform="translate(0 0)">
    <path id="Path_571" data-name="Path 571" d="M36.591,21.631H32.528l.1-12.19h-.072l-4.48,12.19H25.153L20.8,9.441h-.072l.1,12.19H16.9V4.4h5.912l3.921,11.048h.1L30.582,4.4h6.01V21.631Z" transform="translate(26.792 6.974)" fill="#040506"/>
    <g id="Group_112" data-name="Group 112" transform="translate(0 0)">
      <g id="Group_111" data-name="Group 111" clip-path="url(#clip-path)">
        <path id="Path_572" data-name="Path 572" d="M44.352,13.227a8.726,8.726,0,0,1-2.655,6.6,9.347,9.347,0,0,1-6.741,2.544,9.291,9.291,0,0,1-6.718-2.544,8.735,8.735,0,0,1-2.655-6.6,8.548,8.548,0,0,1,2.639-6.547,9.5,9.5,0,0,1,6.728-2.458A9.534,9.534,0,0,1,41.7,6.679a8.522,8.522,0,0,1,2.639,6.547Zm-4.454,0A5.3,5.3,0,0,0,38.51,9.455a4.652,4.652,0,0,0-3.552-1.486,4.6,4.6,0,0,0-3.541,1.486,5.342,5.342,0,0,0-1.373,3.771,5.546,5.546,0,0,0,1.373,3.844,4.926,4.926,0,0,0,7.093,0A5.463,5.463,0,0,0,39.9,13.227" transform="translate(40.545 6.689)" fill="#040506"/>
        <path id="Path_573" data-name="Path 573" d="M48,21.633H43.132l-3.725-6.84H38v6.84H33.907V4.4h6.571a10.434,10.434,0,0,1,2.432.269A7.339,7.339,0,0,1,45,5.519a4.054,4.054,0,0,1,1.52,1.628,5.258,5.258,0,0,1,.548,2.461,4.606,4.606,0,0,1-.949,2.921A5.1,5.1,0,0,1,43.5,14.256L48,21.628ZM42.962,9.683q0-1.919-2.774-1.921H37.976v4.014h1.972q3.017,0,3.017-2.091Z" transform="translate(53.738 6.973)" fill="#040506"/>
        <path id="Path_574" data-name="Path 574" d="M53.22,9.7a4.987,4.987,0,0,1-.985,3.164,5.166,5.166,0,0,1-2.458,1.763,10.632,10.632,0,0,1-3.4.5H44.31v6.5H40.148V4.4h6.328a8.547,8.547,0,0,1,4.9,1.256,4.544,4.544,0,0,1,1.84,4.053Zm-4.162.026q0-1.97-2.921-1.972H44.312v4.063h1.753q3,0,2.993-2.091" transform="translate(63.629 6.973)" fill="#040506"/>
        <path id="Path_575" data-name="Path 575" d="M61.213,21.631H57.052v-7.2H50.336v7.2H46.175V4.4h4.162v6.522h6.715V4.4h4.162V21.631Z" transform="translate(73.18 6.974)" fill="#040506"/>
        <path id="Path_576" data-name="Path 576" d="M57.552,21.631H53.367V4.4h4.185V21.631Z" transform="translate(84.579 6.974)" fill="#040506"/>
        <path id="Path_577" data-name="Path 577" d="M68.985,6.348l-2.655,2.8a3.827,3.827,0,0,0-1.373-1.07,3.926,3.926,0,0,0-1.691-.414,3.41,3.41,0,0,0-1.693.4,1.4,1.4,0,0,0-.716,1.326,1.307,1.307,0,0,0,.742,1.251,6.39,6.39,0,0,0,.791.39c.258.1.631.23,1.117.377.631.212,1.13.383,1.486.512a11.041,11.041,0,0,1,1.373.646,5.122,5.122,0,0,1,1.3.938,4.5,4.5,0,0,1,.825,1.3,4.34,4.34,0,0,1,.364,1.789,5.081,5.081,0,0,1-1.91,4.273,7.447,7.447,0,0,1-4.684,1.471,10.075,10.075,0,0,1-3.6-.657,7.58,7.58,0,0,1-2.851-1.825l2.727-2.771A4.774,4.774,0,0,0,60.2,18.393a4.609,4.609,0,0,0,2.058.512,3.067,3.067,0,0,0,1.716-.45,1.592,1.592,0,0,0,.669-1.424,1.321,1.321,0,0,0-.184-.693,2.569,2.569,0,0,0-.4-.512,2.958,2.958,0,0,0-.778-.45c-.375-.163-.69-.29-.949-.38s-.682-.23-1.267-.424a12.271,12.271,0,0,1-1.628-.657,7.272,7.272,0,0,1-1.365-.9,3.621,3.621,0,0,1-1.044-1.409,4.972,4.972,0,0,1-.364-1.972,5.051,5.051,0,0,1,.584-2.445,4.507,4.507,0,0,1,1.559-1.7,7.7,7.7,0,0,1,2.13-.938,9.116,9.116,0,0,1,2.4-.318,8.893,8.893,0,0,1,3.027.548,7.48,7.48,0,0,1,2.616,1.569Z" transform="translate(88.456 6.705)" fill="#040506"/>
        <path id="Path_578" data-name="Path 578" d="M73.947,21.631H61.925V4.4H73.511V7.929H65.942v3.239H73.1V14.5H65.942V18.08H73.95v3.552Z" transform="translate(98.143 6.974)" fill="#040506"/>
        <path id="Path_579" data-name="Path 579" d="M83.292,19.527A8.383,8.383,0,0,1,76.6,22.375a9.162,9.162,0,0,1-6.641-2.541,8.729,8.729,0,0,1-2.629-6.56,8.606,8.606,0,0,1,2.665-6.558,9.393,9.393,0,0,1,6.679-2.494,10.164,10.164,0,0,1,3.639.669,6.938,6.938,0,0,1,2.81,1.861L80.3,9.575A3.482,3.482,0,0,0,78.8,8.4,5,5,0,0,0,76.819,8a4.668,4.668,0,0,0-3.565,1.5,5.314,5.314,0,0,0-1.4,3.782,5.433,5.433,0,0,0,1.365,3.807,4.581,4.581,0,0,0,3.528,1.471A4.184,4.184,0,0,0,80.4,16.8Z" transform="translate(106.709 6.691)" fill="#040506"/>
        <path id="Path_580" data-name="Path 580" d="M3.247,16.682V12.019H20.532l4.661,4.663Z" transform="translate(5.146 19.048)" fill="#ec6616"/>
      </g>
    </g>
    <g id="Group_114" data-name="Group 114" transform="translate(4.317 9.213)">
      <g id="Group_113" data-name="Group 113" clip-path="url(#clip-path-2)">
        <rect id="Rectangle_81" data-name="Rectangle 81" width="39.924" height="39.562" transform="translate(-10.946 26.115) rotate(-67.26)" fill="url(#linear-gradient)"/>
      </g>
    </g>
    <g id="Group_116" data-name="Group 116" transform="translate(0 0.01)">
      <g id="Group_115" data-name="Group 115" clip-path="url(#clip-path-3)">
        <rect id="Rectangle_82" data-name="Rectangle 82" width="45.842" height="41.469" transform="translate(-7.634 38.393) rotate(-78.755)" fill="url(#linear-gradient-2)"/>
      </g>
    </g>
    <g id="Group_118" data-name="Group 118" transform="translate(0 0)">
      <g id="Group_117" data-name="Group 117" clip-path="url(#clip-path)">
        <path id="Path_583" data-name="Path 583" d="M34.3,4.859,30.049,9.2.028,2.975,8.558,0Z" transform="translate(0.045 -0.001)" fill="#ec6616"/>
      </g>
    </g>
  </g>
</svg>
