<?xml version="1.0" encoding="UTF-8"?>
<svg id="Symantec_A_Division_of_Broadcom" data-name="Symantec, A Division of Broadcom" xmlns="http://www.w3.org/2000/svg" viewBox="0 0 738 276.3936">
  <defs>
    <style>
      .cls-1 {
        fill: #f3ba16;
      }
    </style>
  </defs>
  <g>
    <path d="m220.13707,163.40752c-16.66977,0-27.28963-6.34992-32.12956-10.12986l-.50999-.38999.33999-.52999,6.9499-10.86984.39999-.63.6.44999c6.98973,5.13178,15.41862,7.93092,24.08966,7.99989,9.91986,0,15.59979-4.30994,15.59979-11.80983,0-8.24989-6.68991-10.60985-18.81975-14.87979l-1.42997-.49999c-12.17982-4.23994-23.44967-10.42986-23.44967-26.92963,0-14.84979,11.42985-24.42966,29.1096-24.42966,10.47985,0,18.62975,1.90998,25.61964,5.99992l.55999.33-.27999.57999-5.55992,11.48984-.30999.64999-.63999-.33c-5.91717-3.04052-12.47712-4.61793-19.12974-4.59993-6.30991,0-13.82981,1.71998-13.82981,9.90987,0,7.99989,5.91992,9.99986,17.70975,13.85981,12.80982,4.17994,26.48964,10.17986,26.48964,28.57961,0,16.40978-11.72983,26.20964-31.37957,26.20964l.00002-.03001Z"/>
    <path d="m264.07646,185.75722c-3.15752-.01529-6.30234-.40125-9.36987-1.14998l-.63999-.14.1-.64998,1.64996-10.76987.1-.66999.67.08,1.06999.14c1.5832.23039,3.18013.354,4.77993.36999,6.16993,0,10.11985-2.33996,12.75983-7.55989l-23.13968-67.99906-.32-.91999h17.16973l.14999.51,13.42984,48.04933,11.99983-48.05933.13-.52999h16.25978l-.26999.89999-20.59975,67.31907c-4.35992,14.3898-12.59983,21.07971-25.92963,21.07971Z"/>
    <path d="m405.1245,162.26754h-16.54976v-43.99939c0-5.48992-1.12999-9.14987-6.6199-9.14987-3.78996,0-8.21989,2.25997-12.81983,6.54991v46.61936h-16.54979v-43.99939c0-5.48992-1.12999-9.14987-6.62991-9.14987-3.99994,0-8.68988,2.46997-12.81983,6.78991v46.37936h-16.54976v-65.8391h10.41987l.16.48,2.91997,8.99988c6.84988-7.3299,13.78979-10.89985,21.16969-10.89985,9.37987,0,13.20981,5.10993,15.37979,9.92986,4.62994-4.69993,11.75985-9.92986,20.61971-9.92986,14.76978,0,17.86975,12.66982,17.86975,23.29968v43.91939Z"/>
    <path d="m433.72411,163.40752c-12.15984,0-20.64971-7.8199-20.64971-18.99974,0-7.1999,2.50997-12.23984,7.8799-15.86978,5.36992-3.62994,14.5998-6.43991,28.6196-8.47988v-1.66998c0-7.2199-2.61996-9.90987-9.65987-9.90987-5.99992,0-12.09984,2.51996-17.75976,5.23993l-.6.29-.30999-.59999-5.30992-9.99986-.30999-.57999.55999-.34999c8.3299-5.10994,16.06978-7.4299,25.11965-7.4299,16.23977,0,24.81966,8.39989,24.81966,24.30966v42.87941h-10.37986l-.17999-.42999-2.75997-6.38991c-4.12995,3.77995-10.59986,7.99989-19.07972,7.99989v-.01001Zm15.84979-32.29956c-10.82984,2.09998-16.16979,4.07995-18.32973,6.7799-1.33998,1.54998-1.74998,2.83996-1.74998,5.49992,0,4.90994,2.63998,7.50989,7.63991,7.50989,4.54815-.1596,8.9183-1.8072,12.43983-4.68994v-15.0998l-.00003.00002Z"/>
    <path d="m534.31271,162.26754h-16.54976v-43.99939c0-6.40991-2.24997-9.14987-7.4999-9.14987-4.41995,0-9.59987,2.64996-13.5798,6.9099v46.25935h-16.54979v-65.81908h10.41987l.16.48,2.90996,9.06987c6.81991-7.3599,13.99981-10.93985,21.92972-10.93985,12.44984,0,18.75975,7.83989,18.75975,23.29968v43.88939h-.00006Z"/>
    <path d="m568.85221,163.40752c-12.99982,0-19.25974-6.41991-19.25974-19.64972v-35.41951h-9.58983v-11.86984h9.99986l2.93996-17.85975.06-.55999h13.1698v18.41974h13.82983v11.86984h-13.85979v34.53952c0,5.63992.99999,7.63989,6.37992,7.63989,2.29153-.11413,4.5578-.53109,6.7399-1.23999l.73998-.22999.14001.76999,1.9,10.47985.09997.57-.53002.21c-4.07331,1.56774-8.40534,2.35476-12.76984,2.31998l.01001.00998Z"/>
    <path d="m614.5716,163.40752c-18.41973,0-29.86958-12.89982-29.86958-33.65954,0-21.06971,11.29983-34.69952,28.73959-34.69952,17.68976,0,27.83964,12.67982,27.83964,34.78953v4.61993h-39.47949c.90996,10.63985,5.20995,15.39978,13.90978,15.39978,7.10989,0,11.81984-2.63996,16.79975-5.81993l.59002-.38.36999.58999,6.05991,9.46987.34997.53999-.49999.38999c-6.1699,4.76994-12.28981,8.72987-24.80965,8.72987l.00006.03003Zm-12.62983-39.78945h22.3897c-.38-10.86985-3.93995-16.15977-10.88986-16.15977s-10.57987,5.28993-11.49984,16.15977Z"/>
    <path d="m678.00072,163.40752c-21.9397,0-29.74959-17.38976-29.74959-33.65954-.03003-15.98978,7.74989-34.69952,29.74959-34.69952,9.05987,0,15.37979,2.15997,21.16969,7.2399l.46996.41-.35998.51999-6.93991,9.99986-.41998.57999-.58001-.42999c-3.71937-3.04309-8.40552-4.65362-13.20984-4.53994-8.50989,0-12.81983,6.9999-12.81983,20.77971,0,13.54982,4.31995,20.13972,13.18982,20.13972,5.8599,0,9.66985-2.19997,13.55981-5.51993l.55999-.46999.45001.57999,7.19991,9.21987.36999.47999-.41998.44c-5.93992,6.07992-12.99982,8.91987-22.21966,8.91987v.01001Z"/>
    <path class="cls-1" d="m91.20885,198.86703c-45.39717.00552-82.20333-36.79168-82.20885-82.18886-.00552-45.39717,36.79169-82.20333,82.18886-82.20885,45.39718-.00552,82.20333,36.79168,82.20885,82.18886v.00999c-.06058,45.36816-36.82072,82.13276-82.18886,82.19886Zm0-138.38808c-31.01588.01533-56.14678,25.17111-56.13145,56.18698.01533,31.01588,25.17111,56.14679,56.18698,56.13145,31.01588-.01533,56.14678-25.17111,56.13145-56.18699-.00735-14.88418-5.92312-29.15668-16.44753-39.68168-10.52249-10.56376-24.82924-16.4859-39.73945-16.44977Z"/>
    <rect class="cls-1" x="180.74762" y="21.81948" width="6.40991" height="6.39991"/>
    <rect class="cls-1" x="180.74762" y="9.04966" width="6.40991" height="6.41991"/>
    <rect class="cls-1" x="162.70786" y="28.17939" width="5.98992" height="6.25991"/>
    <rect x="150.84802" y="40.46922" width="6.03991" height="5.97992"/>
    <rect x="168.69778" y="34.43931" width="6.70991" height="6.02992"/>
    <rect x="144.83811" y="34.7393" width="6.00991" height="5.72992"/>
    <rect x="162.70786" y="40.46922" width="5.98992" height="5.97992"/>
    <rect x="174.40769" y="15.46957" width="6.33991" height="6.34991"/>
    <rect x="162.70786" y="21.81948" width="11.68984" height="6.35991"/>
    <rect x="156.88795" y="28.17939" width="5.82992" height="12.28983"/>
    <path d="m156.88795,46.44914v5.99992h-5.99992v-5.99992h-9.99986v4.34994h-5.36992v5.35993h5.99992v5.99992h-5.99992v-5.99992h-6.36991v9.36987h-5.99992v5.99992h-3.99994v5.99992h-4.39994c-4.93993,7.3399-17.30976,30.21958-20.99971,39.54945-13.47982-18.76974-23.99967-26.20964-32.18955-28.8996-4.54995-1.34998-9.92988,3.49995-2.54998,11.11985,16.99976,18.64974,22.30969,34.09953,27.45962,46.42935,2.72997,6.48992,14.99979,7.4999,17.41976.88999,5.21993-13.99981,12.78982-29.69959,21.7497-42.60941v-6.6899h4.77994v-5.99992h4.99993v-6.9999h5.99992v-6.7399h-6.07992v-6.12991h6.07992v6.12991h5.94991v-6.06992h4.77993v-7.3099h5.35993v-4.99993h5.15993v-12.74982h-5.77992Z"/>
    <g>
      <path d="m337.77358,215.74019c-4.78369,0-8.83044,2.26256-12.04974,6.72302v-18.96668h-3.50374v43.58331h3.55547v-5.75337c4.3694,6.64691,13.2999,8.49319,19.94681,4.12379.90845-.59718,1.74638-1.2953,2.49775-2.08102,3.05844-3.08132,4.69369-7.29831,4.51219-11.636v-.11636c.17408-4.30209-1.46249-8.48029-4.51219-11.51965-2.75023-2.80448-6.51862-4.37621-10.44655-4.35703Zm-.29736,3.38736c3.07381-.03312,6.01834,1.23485,8.10642,3.4908,2.28266,2.48323,3.48693,5.7706,3.34858,9.14074v.11636c.17003,3.35854-1.00206,6.64693-3.25809,9.14074-2.13326,2.23322-5.10947,3.46314-8.19691,3.38736-3.15073.00101-6.16438-1.28855-8.33913-3.56837-2.39838-2.38878-3.69567-5.66712-3.58131-9.05022v-.11636c-.09014-3.35978,1.20482-6.60889,3.58131-8.98558,2.17518-2.27761,5.18971-3.56288,8.33913-3.55547Z"/>
      <path d="m371.60849,242.81328l-12.2178-26.18101-.07757-.181h-4.04675l14.57087,30.15017c-.73102,1.91755-1.82892,3.67419-3.23222,5.17156-1.04574.98995-2.43898,1.52866-3.87867,1.49976-1.7246.02361-3.43171-.34788-4.99055-1.08602l-.29736-.14222-1.29289,3.12879.28444.11636c1.90876.8497,3.97433,1.29013,6.06365,1.29289,2.14188.04318,4.2285-.6814,5.88265-2.04277,1.96662-1.85725,3.47574-4.14525,4.40876-6.68424l13.18747-31.49478h-3.87867l-10.48535,26.45252Z"/>
      <path d="m437.59755,225.38514c3.54617-1.82235,5.70342-5.54578,5.52062-9.52859.02734-2.62987-.99658-5.16177-2.84437-7.03332-2.58578-2.58578-6.37393-3.87867-11.18348-3.87867h-18.10045v42.38091h18.86329c3.98646.19389,7.92968-.89843,11.24815-3.11587,2.83455-2.03318,4.45326-5.35816,4.3053-8.84336,0-4.65441-2.62456-8.02885-7.80906-9.98111Zm-9.27003-2.04277h-11.54549v-12.92889h11.8946c2.24405-.1378,4.47327.4467,6.36103,1.66782,1.40116,1.02124,2.1973,2.67665,2.12036,4.40876v.11636c.10693,1.93342-.76813,3.79044-2.32718,4.93885-1.92122,1.27594-4.19948,1.90552-6.50327,1.79712h-.00004Zm1.64196,18.63054h-13.18749v-13.26504h12.42473c2.69527-.1579,5.38126.43751,7.75734,1.71955,1.63.99555,2.59059,2.79791,2.50821,4.70612v.11636c.07031,1.93521-.8509,3.77271-2.44358,4.8742-2.0998,1.34393-4.57017,1.99092-7.05916,1.84882h-.00004Z"/>
      <path d="m462.30468,217.52437c-1.59366,1.16766-2.9496,2.62894-3.99502,4.30532v-6.06365h-5.83094v31.62408h5.77922v-12.72203c0-4.2536,1.08602-7.56341,3.23222-9.86475,2.09771-2.28248,5.08554-3.53805,8.18397-3.43909h.98261v-6.10244h-.59472c-2.76972-.16652-5.51143.63315-7.75734,2.26256Z"/>
      <path d="m489.2097,215.11959c-4.42576-.09911-8.6898,1.66466-11.75236,4.86126-6.25699,6.48557-6.28551,16.75179-.06463,23.27201,3.05467,3.17087,7.29902,4.91551,11.70063,4.80955,4.43559.09095,8.70846-1.67068,11.79114-4.86126,6.25699-6.48557,6.28551-16.75179.06463-23.27201-3.07026-3.17154-7.32648-4.91527-11.73942-4.80955Zm0,27.68076c-2.86457.06427-5.61555-1.12009-7.53753-3.24514-4.0374-4.54561-4.07062-11.38256-.07757-15.96719,1.89877-2.13308,4.64423-3.31646,7.49874-3.23222,2.88071-.06216,5.64605,1.13173,7.57631,3.27101,2.05458,2.18629,3.16483,5.0942,3.09002,8.09348.06155,2.91228-1.00908,5.73485-2.98657,7.87369-1.92466,2.13223-4.69272,3.30571-7.56341,3.20638Z"/>
      <path d="m524.13066,215.35232c-3.91363.03289-7.77347.91514-11.31278,2.58578l-.53009.23271,1.78419,4.88712.6206-.28444c2.79509-1.3614,5.8515-2.10235,8.95971-2.17204,2.26524-.16062,4.50807.53622,6.28342,1.95226,1.52367,1.48946,2.30951,3.57719,2.1462,5.70165v.24565c-2.84654-.73325-5.7746-1.1025-8.71406-1.09896-3.48044-.1737-6.92596.76353-9.83887,2.67629-2.52506,1.80376-3.94993,4.77546-3.77525,7.87369-.10203,2.9253,1.25426,5.71054,3.62007,7.43411,2.4119,1.77792,5.34339,2.70963,8.33915,2.65043,3.87989.12943,7.63475-1.3819,10.34311-4.1631v3.51666h5.59819v-19.18647c.20884-3.42552-.98083-6.78921-3.29685-9.32174-2.31428-2.34013-5.76631-3.52958-10.22676-3.52958Zm5.27497,25.66386c-1.95531,1.48449-4.35956,2.25549-6.81351,2.18499-1.80538.06384-3.58164-.46767-5.0552-1.51268-1.29786-.9222-2.03426-2.4438-1.95228-4.03381-.05224-1.62195.72804-3.15813,2.06863-4.07259,1.84089-1.16819,4.0039-1.72477,6.18001-1.59025,2.8102.00848,5.60644.39551,8.31327,1.15067v2.45648c.02805,2.14549-.99571,4.16889-2.74092,5.41717v.00002Z"/>
      <path d="m569.9765,220.3558c-2.66773-3.35087-6.73255-5.2831-11.0154-5.23621-4.00536-.01148-7.83917,1.62489-10.60171,4.52511-3.10182,3.21336-4.74322,7.56238-4.53805,12.02387-.19594,4.42545,1.44645,8.73499,4.53805,11.90752,2.7797,2.86753,6.60807,4.47824,10.60171,4.46046,4.33075-.00101,8.40966-2.03567,11.0154-5.49478v4.84833h5.77922v-44.15218h-5.77922v17.11786Zm-2.93484,3.19344c4.15194,4.5474,4.15194,11.51028,0,16.05768-1.87265,2.01292-4.50385,3.14795-7.25309,3.12879-2.69531.04062-5.279-1.07474-7.09795-3.06414-3.93095-4.7016-3.96894-11.53243-.09051-16.27747,1.86015-1.97431,4.47717-3.0569,7.18846-2.97365,2.74924-.01916,5.3804,1.11587,7.25305,3.12879h.00004Z"/>
      <path d="m607.3022,238.46917c-2.19347,2.63397-5.4049,4.20913-8.83042,4.33119-2.85866.07238-5.60494-1.11406-7.51168-3.24514-4.01889-4.57358-4.01889-11.41945,0-15.99303,1.8315-2.08688,4.48996-3.26,7.26603-3.20636,3.06414,0,6.01193,1.47389,8.77873,4.39582l.45252.47836,3.87867-4.08553-.40079-.42666c-3.2104-3.58703-7.8048-5.62532-12.61861-5.59821-4.35873-.08369-8.54902,1.68259-11.53259,4.86126-3.0703,3.12684-4.7525,7.35806-4.66731,11.73944-.05918,4.31937,1.62306,8.4807,4.66731,11.54551,2.99565,3.1583,7.18025,4.91285,11.53259,4.83541,4.97834-.02448,9.68965-2.25467,12.86426-6.08952l.40079-.45252-3.77525-3.54252-.50425.45252Z"/>
      <path d="m630.57421,215.11959c-4.42994-.10116-8.69875,1.66265-11.7653,4.86126-3.10024,3.11204-4.80742,7.34733-4.73198,11.73944-.08475,4.3533,1.60479,8.55383,4.68025,11.636,3.05467,3.17087,7.29902,4.91551,11.70063,4.80955,4.435.08779,8.70664-1.67332,11.79114-4.86126,3.11804-3.10752,4.83591-7.35092,4.75782-11.75236.07927-8.9609-7.12068-16.28939-16.08157-16.36867-.11703-.00105-.23405-.00081-.35104.00069l.00004-.06465Zm0,27.68076c-2.86524.06775-5.61761-1.11723-7.53753-3.24514-4.05464-4.53902-4.0879-11.38899-.07757-15.96719,1.89771-2.13456,4.64387-3.31826,7.49874-3.23222,2.87692-.06185,5.63816,1.13232,7.56341,3.27101,4.07733,4.5247,4.12732,11.38355.11636,15.96719-1.92466,2.13223-4.69272,3.30569-7.56341,3.20636Z"/>
      <path d="m688.71544,215.11959c-4.24573-.06512-8.23953,2.00953-10.62755,5.52064-1.95902-3.553-5.77401-5.67634-9.82597-5.46892-3.59557-.01754-6.99402,1.64107-9.19242,4.48633v-3.87867h-5.77922v31.62408h5.77922v-17.97117c-.09181-2.36135.71167-4.67025,2.24961-6.46445,1.38944-1.63253,3.44225-2.54964,5.58529-2.49527,1.99753-.1087,3.93533.7007,5.26207,2.19791,1.3748,1.77583,2.05924,3.98985,1.92639,6.23174v18.48832h5.77922v-18.10045c-.13593-2.3609.65761-4.68124,2.21083-6.46445,1.40648-1.54635,3.4183-2.40113,5.50772-2.34013,2.01284-.11991,3.97163.67882,5.3267,2.17204,1.39516,1.82004,2.07995,4.08581,1.92639,6.37393v18.37196h5.77922v-19.39334c.17459-3.41023-.9688-6.75701-3.19344-9.34758-2.25376-2.3883-5.43315-3.68084-8.71406-3.54254Z"/>
    </g>
  </g>
  <g>
    <polygon points="709.88025 152.92764 712.45027 152.92764 712.45027 161.2175 712.50023 161.2175 714.50019 161.2175 714.50019 152.92764 717.00019 152.92764 717.00019 151.30766 709.88025 151.30766 709.88025 152.92764"/>
    <polygon points="725.96008 151.30766 724.09008 158.53757 722.09011 151.30766 719.02014 151.30766 719.00016 161.2175 721.00013 161.2175 721.00013 153.63765 723.0001 161.21757 724.88009 161.21757 727.00003 153.63765 727.00003 161.21757 729 161.21757 729 151.30766 725.96008 151.30766"/>
  </g>
</svg>