<?xml version="1.0" encoding="UTF-8"?>
<svg width="131px" height="103px" viewBox="0 0 131 103" version="1.1" xmlns="http://www.w3.org/2000/svg" xmlns:xlink="http://www.w3.org/1999/xlink">
    <!-- Generator: Sketch 64 (93537) - https://sketch.com -->
    <title>red-falcon</title>
    <desc>Created with Sketch.</desc>
    <defs>
        <polygon id="path-1" points="0.003 0.0850909091 56.818 0.0850909091 56.818 52.6874182 0.003 52.6874182"></polygon>
    </defs>
    <g id="Page-1" stroke="none" stroke-width="1" fill="none" fill-rule="evenodd">
        <g id="Sunburst-Phase-2" transform="translate(-548.000000, -6318.000000)">
            <g id="red-falcon" transform="translate(548.000000, 6318.000000)">
                <path d="M124,82.9077775 C121.197898,82.6272878 116.229172,81.9410896 110.009507,85.0765646 C103.789842,88.2170484 101.338004,88.3522845 98.2857143,88.0217073 C99.1863898,89.6695848 101.002752,91.9235205 106.722042,92.3242202 C112.436327,92.7299286 115.168376,92.9052347 112.166125,100.037689 C112.231173,97.8789196 111.730798,93.7166516 106.051539,94.4529373 C100.382287,95.1792054 99.061296,100.293135 105.140856,102.842587 C103.164373,103.243287 98.9662247,103.478698 95.9689767,95.6350013 C93.8924193,96.5365756 90.6950213,98.344733 84.890668,93.8619052 C86.9121841,94.5931821 89.4140605,94.6382609 89.4140605,94.6382609 C84.2651989,92.1789665 79.3415061,87.6009726 76.1891419,83.273416 C78.6860145,85.1366696 81.4480861,86.9949143 84.2401801,87.3455266 C80.9477108,83.3184947 73.3219915,75.2694398 64,67 C69.9894921,70.9168394 77.2249187,77.1176671 89.0637978,75.7202269 C100.907681,74.3277955 108.863648,71.6130551 124,82.9077775" id="Fill-1" fill="#FC0000"></path>
                <path d="M73,80 C65.5367471,76.7241618 63.9374786,76.0730636 54.3418676,73.6060116 C44.7512859,71.1389595 35.3065493,66.006474 29,58 C33.4558235,61.296185 42.5334324,67.9292486 51.8624986,67.2069364 C50.4442793,65.1112139 47.8291233,63.4732948 44.7009944,61.8252023 C48.2364842,62.6848555 58.9083324,65.4418497 73,80" id="Fill-3" fill="#FC0000"></path>
                <g id="Group-7">
                    <mask id="mask-2" fill="white">
                        <use xlink:href="#path-1"></use>
                    </mask>
                    <g id="Clip-6"></g>
                    <path d="M56.818,52.6874182 C54.903,47.0976 51.453,39.9448727 35.083,29.3150545 C27.113,23.9594182 15.418,17.2343273 0.003,0.0830545455 C1.103,4.7056 5.973,16.7303273 30.503,32.3390545 C38.568,37.9390545 48.963,41.3906909 56.818,52.6874182" id="Fill-5" fill="#FC0000" mask="url(#mask-2)"></path>
                </g>
                <path d="M58,60 C55.9882919,55.2973364 51.9298461,49.2633482 36.0613729,40.6578281 C28.745161,36.5018681 16.239543,30.1287212 5,18 C6.02587102,22.373629 11.2352941,31.9966253 33.7043716,44.0089189 C39.9196488,47.4713752 50.4285714,50.7262866 58,60" id="Fill-8" fill="#FC0000"></path>
                <path d="M73.9338024,36.1500272 C42.8946379,27.1802863 30.546263,15.8514224 21,4 C25.3588408,17.6473999 35.7638155,22.5229208 46.8668073,31.6854503 C57.9848643,40.8530531 58.6125775,45.7691611 61.8917515,51.187534 C69.1782468,63.2418916 70.3332392,65.2357311 77.5745392,70.5019025 C86.0963742,76.2145316 96.4159799,72.3536873 107.724862,74.139518 C119.043787,75.9354956 128.394203,84.6464939 130.427994,88 C132.798239,83.7231382 127.133755,77.5640515 125.602135,76.0166697 C126.420673,70.4207284 113.319042,67.9601377 108.352575,66.042399 C107.373342,65.6618953 104.967945,65.0987498 107.056975,60.0761007 C109.874152,53.1407864 112.816871,47.1085342 73.9338024,36.1500272 M118.727419,72.9472731 C124.61788,73.8452618 124.3216,75.1034608 124.386882,77.2748686 C121.886072,74.5149484 118.727419,72.9472731 118.727419,72.9472731" id="Fill-10" fill="#FC0000"></path>
            </g>
        </g>
    </g>
</svg>