<svg width="21" height="20" viewBox="0 0 21 20" fill="none" xmlns="http://www.w3.org/2000/svg">
<path d="M14.9 3.89999V16.7H5.39999V3.89999H14.9ZM15.4 3.39999H4.89999V17.1H15.4V3.39999Z" fill="black"/>
<path d="M17 10.3H19.9" stroke="black" stroke-width="0.5" stroke-miterlimit="10" stroke-linecap="round" stroke-linejoin="round"/>
<path d="M17 8.60001H19" stroke="black" stroke-width="0.5" stroke-miterlimit="10" stroke-linecap="round" stroke-linejoin="round"/>
<path d="M17 12H19" stroke="black" stroke-width="0.5" stroke-miterlimit="10" stroke-linecap="round" stroke-linejoin="round"/>
<path d="M1.6 7.59999C2.09705 7.59999 2.5 7.19704 2.5 6.69999C2.5 6.20293 2.09705 5.79999 1.6 5.79999C1.10294 5.79999 0.699997 6.20293 0.699997 6.69999C0.699997 7.19704 1.10294 7.59999 1.6 7.59999Z" fill="black"/>
<path d="M3.3 10.4H0.800003" stroke="black" stroke-width="0.5" stroke-miterlimit="10" stroke-linecap="round" stroke-linejoin="round"/>
<path d="M0.9 11.3C1.39706 11.3 1.8 10.8971 1.8 10.4C1.8 9.90294 1.39706 9.5 0.9 9.5C0.402944 9.5 0 9.90294 0 10.4C0 10.8971 0.402944 11.3 0.9 11.3Z" fill="black"/>
<path d="M3.3 8.59999C2.6 8.19999 2.2 7.69999 1.8 6.89999" stroke="black" stroke-width="0.5" stroke-miterlimit="10" stroke-linecap="round" stroke-linejoin="round"/>
<path d="M1.6 14.8C2.09705 14.8 2.5 14.3971 2.5 13.9C2.5 13.4029 2.09705 13 1.6 13C1.10294 13 0.699997 13.4029 0.699997 13.9C0.699997 14.3971 1.10294 14.8 1.6 14.8Z" fill="black"/>
<path d="M3.3 12.2C2.7 12.5 2.2 13.1 1.8 13.9" stroke="black" stroke-width="0.5" stroke-miterlimit="10" stroke-linecap="round" stroke-linejoin="round"/>
<path d="M17.9 15V19.5H2.39999V15.7" stroke="black" stroke-width="0.5" stroke-miterlimit="10" stroke-linecap="round" stroke-linejoin="round"/>
<path d="M17.9 5.5V1H2.39999V4.8" stroke="black" stroke-width="0.5" stroke-miterlimit="10" stroke-linecap="round" stroke-linejoin="round"/>
</svg>
