<svg width="21" height="21" viewBox="0 0 21 21" fill="none" xmlns="http://www.w3.org/2000/svg">
<path d="M14.979 15.75C17.0295 14.3632 18.375 12.0557 18.375 9.43684C18.375 5.19163 14.8491 1.75 10.5 1.75C6.15088 1.75 2.625 5.19163 2.625 9.43684C2.625 12.0557 3.9705 14.3632 6.02099 15.75M7.31471 12.25C6.5789 11.5063 6.125 10.5076 6.125 9.40672C6.125 7.11122 8.08396 5.25 10.5 5.25C12.916 5.25 14.875 7.11122 14.875 9.40672C14.875 10.5083 14.4211 11.5063 13.6853 12.25M10.5 19.25C9.5335 19.25 8.75 18.4665 8.75 17.5V15.75C8.75 14.7835 9.5335 14 10.5 14C11.4665 14 12.25 14.7835 12.25 15.75V17.5C12.25 18.4665 11.4665 19.25 10.5 19.25ZM11.375 9.625C11.375 10.1082 10.9832 10.5 10.5 10.5C10.0168 10.5 9.625 10.1082 9.625 9.625C9.625 9.14175 10.0168 8.75 10.5 8.75C10.9832 8.75 11.375 9.14175 11.375 9.625Z" stroke="black" stroke-opacity="0.9" stroke-linecap="round" stroke-linejoin="round"/>
</svg>
