<svg width="32" height="32" viewBox="0 0 32 32" fill="none" xmlns="http://www.w3.org/2000/svg">
<g id="Copy--link">
<rect width="32" height="32" fill="white" fill-opacity="0.01" style="mix-blend-mode:multiply"/>
<g id="Vector">
<path d="M13.4606 18.7479C12.7265 18.748 12.009 18.5305 11.3986 18.1228C10.7883 17.7151 10.3125 17.1355 10.0316 16.4574C9.75067 15.7792 9.67717 15.033 9.8204 14.3131C9.96362 13.5932 10.3171 12.932 10.8362 12.413L14.6652 8.58478C15.3612 7.88878 16.3051 7.49775 17.2894 7.49771C18.2736 7.49768 19.2176 7.88864 19.9136 8.58459C20.6096 9.28055 21.0006 10.2245 21.0007 11.2088C21.0007 12.193 20.6097 13.137 19.9138 13.833L19.4995 14.2474L18.4377 13.1878L18.856 12.7693C19.269 12.3542 19.5006 11.7923 19.5001 11.2067C19.4995 10.6212 19.2668 10.0597 18.8531 9.64536C18.4317 9.24327 17.8717 9.01893 17.2893 9.01893C16.7069 9.01893 16.1469 9.24327 15.7255 9.64536L11.897 13.4734C11.6917 13.6786 11.5287 13.9224 11.4176 14.1906C11.3064 14.4589 11.2492 14.7464 11.2492 15.0368C11.2492 15.3272 11.3064 15.6147 11.4176 15.883C11.5287 16.1512 11.6917 16.395 11.897 16.6003C12.3184 17.0023 12.8784 17.2267 13.4608 17.2267C14.0432 17.2267 14.6032 17.0023 15.0245 16.6003L16.0852 17.6611C15.7413 18.0068 15.3323 18.2808 14.8817 18.4674C14.4312 18.6539 13.9482 18.7492 13.4606 18.7479Z" fill="#161616"/>
<path d="M19.4605 17.2479C18.7265 17.248 18.009 17.0305 17.3986 16.6228C16.7882 16.2151 16.3125 15.6355 16.0316 14.9574C15.7507 14.2792 15.6772 13.533 15.8204 12.8131C15.9636 12.0932 16.3171 11.432 16.8362 10.913L17.2507 10.4986L18.3114 11.5595L17.8969 11.9737C17.6916 12.179 17.5288 12.4227 17.4176 12.691C17.3065 12.9592 17.2493 13.2467 17.2493 13.5371C17.2493 13.8274 17.3065 14.1149 17.4176 14.3832C17.5288 14.6514 17.6916 14.8951 17.8969 15.1004C18.3183 15.5025 18.8783 15.7268 19.4607 15.7268C20.0431 15.7268 20.6031 15.5025 21.0245 15.1004C21.2194 14.9054 24.5714 11.5534 24.8534 11.272C25.2674 10.8571 25.4999 10.2949 25.4999 9.70877C25.4999 9.12263 25.2674 8.56043 24.8534 8.14551C24.4321 7.74342 23.8721 7.51908 23.2897 7.51908C22.7073 7.51908 22.1473 7.74342 21.7259 8.14551L20.6652 7.08463C21.3614 6.38969 22.305 5.99957 23.2887 6C24.2724 6.00043 25.2157 6.39138 25.9112 7.08694C26.6068 7.78249 26.9978 8.72575 26.9983 9.70944C26.9988 10.6931 26.6087 11.6368 25.9138 12.333C25.6314 12.615 22.2808 15.9651 22.0859 16.1606C21.7419 16.5064 21.3328 16.7805 20.8821 16.9671C20.4315 17.1538 19.9483 17.2492 19.4605 17.2479Z" fill="#161616"/>
<path d="M22.5 26.9979H7.5C7.1023 26.9975 6.72101 26.8393 6.4398 26.5581C6.15859 26.2769 6.00042 25.8956 6 25.4979V10.4979C6.00042 10.1002 6.15859 9.7189 6.4398 9.43768C6.72101 9.15647 7.1023 8.9983 7.5 8.99788H10.5V10.4979H7.5V25.4979H22.5V17.9979H24V25.4979C23.9996 25.8956 23.8414 26.2769 23.5602 26.5581C23.279 26.8393 22.8977 26.9975 22.5 26.9979Z" fill="#161616"/>
</g>
</g>
</svg>
