<svg id="Layer_1" data-name="Layer 1" xmlns="http://www.w3.org/2000/svg" viewBox="0 0 1356.31 150.18"><defs><style>.cls-1{fill:#fff;}</style></defs><title>Artboard 1 copy</title><path class="cls-1" d="M45.38,117.14q-13.79,0-23.37-4.72A53.4,53.4,0,0,1,5.69,100.19l15-15.14q10.62,11.88,26.2,11.87,8.39,0,12.43-3.41a11.24,11.24,0,0,0,4.05-9.05,10.9,10.9,0,0,0-2.4-7.2q-2.4-2.9-9.73-3.93L40.88,72q-16.62-2.1-24.33-10T8.84,40.8a30.39,30.39,0,0,1,2.69-12.89,28.63,28.63,0,0,1,7.71-10,36.2,36.2,0,0,1,12.28-6.52A54.24,54.24,0,0,1,48.07,9a53.72,53.72,0,0,1,20.82,3.75,42.23,42.23,0,0,1,15.42,11L69.19,39a30.34,30.34,0,0,0-9.06-7q-5.33-2.75-13.41-2.75-7.63,0-11.38,2.67a8.61,8.61,0,0,0-3.74,7.41q0,5.34,2.92,7.71c1.95,1.58,5.11,2.72,9.51,3.41l10.33,1.65q16.17,2.55,24,10t7.79,21.06a34.62,34.62,0,0,1-2.7,13.79,29.53,29.53,0,0,1-7.86,10.8,36.17,36.17,0,0,1-12.8,7A56.6,56.6,0,0,1,45.38,117.14Z"/><path class="cls-1" d="M133.58,117.14a41.41,41.41,0,0,1-16-2.92A33,33,0,0,1,105.65,106a34.77,34.77,0,0,1-7.34-13A55.49,55.49,0,0,1,95.84,76a55.54,55.54,0,0,1,2.4-16.85,35.74,35.74,0,0,1,7.11-13A31.52,31.52,0,0,1,117,37.84a40.06,40.06,0,0,1,15.72-2.92,38.71,38.71,0,0,1,16.7,3.3,31.65,31.65,0,0,1,11.38,8.83,35.81,35.81,0,0,1,6.44,12.81,56.33,56.33,0,0,1,2,15.2v6.59H118.75v1.19q0,7.71,4.2,12.25t13.18,4.53q6.88,0,11.23-2.75a44.13,44.13,0,0,0,8.08-6.61l11.09,13.82a35.15,35.15,0,0,1-13.71,9.61A50.58,50.58,0,0,1,133.58,117.14Zm-.45-65.89q-6.74,0-10.56,4.42t-3.82,11.75v1.2h27.56V67.27q0-7.19-3.22-11.6T133.13,51.25Z"/><path class="cls-1" d="M216.69,117.14A39.88,39.88,0,0,1,201,114.22,31.2,31.2,0,0,1,189.44,106a35.39,35.39,0,0,1-7-13A56.78,56.78,0,0,1,180,76a56.08,56.08,0,0,1,2.4-17,36.22,36.22,0,0,1,7-13A30.1,30.1,0,0,1,201,37.77a41,41,0,0,1,15.72-2.85q12,0,20,5.4a29.55,29.55,0,0,1,11.45,15.12l-18,7.79a15.12,15.12,0,0,0-4.34-7.64q-3.3-3.15-9.14-3.14-6.74,0-10.18,4.41t-3.44,11.91V83.45q0,7.49,3.44,11.83t10.18,4.34c4,0,7.17-1.07,9.51-3.22a18.87,18.87,0,0,0,5.17-8.46l17.22,7.49q-3.9,11.22-12.06,16.47T216.69,117.14Z"/><path class="cls-1" d="M308.79,102.16H308a27.29,27.29,0,0,1-2.77,5.7,19.21,19.21,0,0,1-4.42,4.79,20.69,20.69,0,0,1-6.36,3.29,27.25,27.25,0,0,1-8.46,1.2q-12.13,0-18.35-8t-6.21-23V36.72h22.16V84.19q0,7.2,2.55,11.09t8.68,3.89a18,18,0,0,0,5.1-.75,14.52,14.52,0,0,0,4.49-2.17,11.27,11.27,0,0,0,3.14-3.52,9.77,9.77,0,0,0,1.2-4.94V36.72H331v78.62H308.79Z"/><path class="cls-1" d="M345.63,115.34V36.72h22.16V53.79h.75a24.48,24.48,0,0,1,2.1-6.36,19.41,19.41,0,0,1,4-5.47,18.59,18.59,0,0,1,5.91-3.82,21.26,21.26,0,0,1,8.09-1.42h3.89V57.39H387q-9.73,0-14.45,2.54t-4.72,9.44v46Z"/><path class="cls-1" d="M417.21,28.34q-6.73,0-9.81-3.07a10.65,10.65,0,0,1-3.07-7.87V14.11a10.62,10.62,0,0,1,3.07-7.86q3.08-3.07,9.81-3.07T427,6.25a10.62,10.62,0,0,1,3.07,7.86V17.4A10.65,10.65,0,0,1,427,25.27Q423.95,28.33,417.21,28.34Zm-11.08,8.38h22.16v78.62H406.13Z"/><path class="cls-1" d="M476.51,115.34q-11.53,0-17.44-5.84t-5.92-17.07V53.94H442.07V36.72h5.54c3,0,5-.72,6.14-2.17a10.11,10.11,0,0,0,1.65-6.21V15.46h19.92V36.72h15.57V53.94H475.32V98.12h14.37v17.22Z"/><path class="cls-1" d="M560.37,36.72H581l-30.25,90.75q-3,9.14-8.46,13.48t-15.65,4.34H512.9V128.07h14.83l2.69-8.68L502.87,36.72h22l11.53,36.69,5.7,22.76H543l5.84-22.76Z"/><path class="cls-1" d="M603.35,115.34v-7.48h15.28V18.3H603.35V10.81h39.54V18.3H627.61v89.56h15.28v7.48Z"/><path class="cls-1" d="M660.26,115.34V38.67h8.54V50.8h.44a23.81,23.81,0,0,1,7.94-10q5.4-4,14.68-4,12.27,0,19.09,7.56t6.82,21.64v49.27h-8.54V67.57q0-11.68-5-17.37t-14.6-5.69a28.77,28.77,0,0,0-7.79,1.05,21.3,21.3,0,0,0-6.66,3.14A15.26,15.26,0,0,0,670.52,54a15.47,15.47,0,0,0-1.72,7.41v53.91Z"/><path class="cls-1" d="M757.75,115.34c-3.1,0-5.44-.85-7-2.55a9.66,9.66,0,0,1-2.4-6.9V46H735V38.67h8.68c2.1,0,3.52-.42,4.27-1.27s1.12-2.37,1.12-4.57V17.25h7.79V38.67h17.37V46H756.85v62H773v7.34Z"/><path class="cls-1" d="M821.54,117.14a34.39,34.39,0,0,1-13.85-2.7,28.83,28.83,0,0,1-10.63-7.86,35,35,0,0,1-6.74-12.65A57,57,0,0,1,788,77a56.26,56.26,0,0,1,2.32-16.85,35.12,35.12,0,0,1,6.74-12.58,29.87,29.87,0,0,1,10.55-7.94,33.28,33.28,0,0,1,13.78-2.77,31.33,31.33,0,0,1,13.33,2.78,29.34,29.34,0,0,1,10.18,7.74,35.71,35.71,0,0,1,6.52,12,48.85,48.85,0,0,1,2.32,15.41v4H797v3.75a33.88,33.88,0,0,0,1.72,11,24.67,24.67,0,0,0,4.95,8.61,22.29,22.29,0,0,0,7.86,5.62,26,26,0,0,0,10.48,2q16.77,0,23.21-15.42l6.29,4.16a29.64,29.64,0,0,1-11.3,13.54Q832.46,117.14,821.54,117.14Zm-.15-72.93a24.13,24.13,0,0,0-10,2,22.65,22.65,0,0,0-7.71,5.62,24.67,24.67,0,0,0-4.95,8.61,33.88,33.88,0,0,0-1.72,11v.75h47.47V71a35.32,35.32,0,0,0-1.64-11,23.78,23.78,0,0,0-4.72-8.46,21.84,21.84,0,0,0-7.34-5.39A22.25,22.25,0,0,0,821.39,44.21Z"/><path class="cls-1" d="M881.89,115.34c-3.09,0-5.44-.84-7-2.54a9.44,9.44,0,0,1-2.4-6.74V4.52H881V108h11.84v7.34Z"/><path class="cls-1" d="M920.38,115.34c-3.1,0-5.44-.84-7-2.54a9.43,9.43,0,0,1-2.39-6.74V4.52h8.53V108h11.83v7.34Z"/><path class="cls-1" d="M954.67,17.85a5.87,5.87,0,0,1-4.42-1.49,5.47,5.47,0,0,1-1.42-3.9V11a5.46,5.46,0,0,1,1.42-3.89,7.26,7.26,0,0,1,8.84,0A5.42,5.42,0,0,1,960.51,11v1.5a5.43,5.43,0,0,1-1.42,3.9A5.87,5.87,0,0,1,954.67,17.85Zm-4.19,20.82H959v76.67h-8.54Z"/><path class="cls-1" d="M1046.77,124.33q0,11.69-9.36,17.22t-27.48,5.54q-17.52,0-25.31-5.09t-7.78-14.08q0-6.58,3.44-10.48a19.92,19.92,0,0,1,9.73-5.69v-1.2q-7.18-2.83-7.18-10.48,0-5.7,3.74-8.69a25.27,25.27,0,0,1,9.28-4.49v-.6a23.15,23.15,0,0,1-10.48-9,26.57,26.57,0,0,1-3.74-14.38,28.14,28.14,0,0,1,1.94-10.63,23,23,0,0,1,5.62-8.24A25.32,25.32,0,0,1,998,38.74a33.58,33.58,0,0,1,11.45-1.87,30.69,30.69,0,0,1,15.43,3.75V36.87a8.74,8.74,0,0,1,1.64-5.51c1.1-1.41,2.9-2.13,5.4-2.13h13.17v7.34h-15.57v7.34a23.37,23.37,0,0,1,6,8.31,26.79,26.79,0,0,1,2.1,10.71,27,27,0,0,1-2,10.63,24.35,24.35,0,0,1-14.52,13.7,33.43,33.43,0,0,1-11.46,1.88,26.38,26.38,0,0,1-4-.3l-3.89-.6a25.22,25.22,0,0,0-8.17,3.67,7.3,7.3,0,0,0-3.22,6.21q0,6.88,12.28,6.89h17.82q13.94,0,20.15,5.17T1046.77,124.33Zm-8.24.6a10.67,10.67,0,0,0-4-8.76q-4-3.23-14.16-3.22H995.56a17.12,17.12,0,0,0-7.79,4.94,12.12,12.12,0,0,0-2.85,8.23,12.26,12.26,0,0,0,4.94,10q4.95,4,15,4h9.58q11.24,0,17.68-3.67T1038.53,124.93Zm-28.9-42.68q8.83,0,13.85-4.42t5-12.5v-4.8q0-7.94-5-12.35t-13.85-4.42q-9,0-13.93,4.42t-4.94,12.35v4.8q0,8.08,5,12.5T1009.63,82.25Z"/><path class="cls-1" d="M1089.6,117.14a34.39,34.39,0,0,1-13.85-2.7,28.75,28.75,0,0,1-10.63-7.86,35,35,0,0,1-6.74-12.65A57,57,0,0,1,1056.06,77a56.26,56.26,0,0,1,2.32-16.85,35.12,35.12,0,0,1,6.74-12.58,29.87,29.87,0,0,1,10.55-7.94,33.28,33.28,0,0,1,13.78-2.77,31.37,31.37,0,0,1,13.33,2.78A29.34,29.34,0,0,1,1113,47.39a35.71,35.71,0,0,1,6.52,12,48.85,48.85,0,0,1,2.32,15.41v4H1065v3.75a33.61,33.61,0,0,0,1.72,11,24.81,24.81,0,0,0,4.94,8.61,22.42,22.42,0,0,0,7.87,5.62,26,26,0,0,0,10.48,2q16.77,0,23.21-15.42l6.29,4.16a29.6,29.6,0,0,1-11.31,13.54Q1100.53,117.14,1089.6,117.14Zm-.15-72.93a24.13,24.13,0,0,0-10,2,22.78,22.78,0,0,0-7.72,5.62,24.81,24.81,0,0,0-4.94,8.61,33.61,33.61,0,0,0-1.72,11v.75h47.47V71a35.32,35.32,0,0,0-1.64-11,23.78,23.78,0,0,0-4.72-8.46,21.84,21.84,0,0,0-7.34-5.39A22.29,22.29,0,0,0,1089.45,44.21Z"/><path class="cls-1" d="M1137.52,115.34V38.67h8.54V50.8h.45a23.71,23.71,0,0,1,7.93-10q5.4-4,14.68-4,12.27,0,19.09,7.56T1195,66.07v49.27h-8.54V67.57q0-11.68-5-17.37t-14.6-5.69a28.65,28.65,0,0,0-7.78,1.05,21.25,21.25,0,0,0-6.67,3.14,15.14,15.14,0,0,0-6.36,12.73v53.91Z"/><path class="cls-1" d="M1242.8,117.14q-15.88,0-24.49-10.48T1209.7,77q0-19.17,8.61-29.66t24.49-10.48q10.62,0,17.22,4.64a29.66,29.66,0,0,1,10,12.28l-7.19,3.6a21.32,21.32,0,0,0-7.56-9.59q-4.86-3.28-12.5-3.29-11.68,0-17.82,7.49t-6.14,19.61V82.4q0,12.12,6.14,19.61t17.82,7.49q7.93,0,13.32-3.44a24.78,24.78,0,0,0,8.69-9.89l6.29,4.2a30.23,30.23,0,0,1-10.71,12.2Q1253.43,117.15,1242.8,117.14Z"/><path class="cls-1" d="M1316.32,117.14a34.39,34.39,0,0,1-13.85-2.7,28.83,28.83,0,0,1-10.63-7.86,35.18,35.18,0,0,1-6.74-12.65A57,57,0,0,1,1282.78,77a56.26,56.26,0,0,1,2.32-16.85,35.28,35.28,0,0,1,6.74-12.58,29.82,29.82,0,0,1,10.56-7.94,33.22,33.22,0,0,1,13.78-2.77,31.29,31.29,0,0,1,13.32,2.78,29.47,29.47,0,0,1,10.19,7.74,35.87,35.87,0,0,1,6.51,12,48.57,48.57,0,0,1,2.32,15.41v4h-56.75v3.75a33.61,33.61,0,0,0,1.72,11,24.5,24.5,0,0,0,4.94,8.61,22.38,22.38,0,0,0,7.86,5.62,26,26,0,0,0,10.48,2q16.77,0,23.22-15.42l6.29,4.16A29.72,29.72,0,0,1,1335,112.08Q1327.26,117.14,1316.32,117.14Zm-.14-72.93a24.17,24.17,0,0,0-10,2,22.74,22.74,0,0,0-7.71,5.62,24.5,24.5,0,0,0-4.94,8.61,33.61,33.61,0,0,0-1.72,11v.75h47.47V71a35,35,0,0,0-1.65-11,23.63,23.63,0,0,0-4.72-8.46,21.74,21.74,0,0,0-7.34-5.39A22.21,22.21,0,0,0,1316.18,44.21Z"/></svg>