<svg width="21" height="21" viewBox="0 0 21 21" fill="none" xmlns="http://www.w3.org/2000/svg">
<path d="M2.69149 6.54747L6.44352 9.22745C6.63876 9.3669 6.73638 9.43663 6.83854 9.45269C6.92844 9.46683 7.0205 9.45258 7.10192 9.41193C7.19445 9.36574 7.26643 9.26977 7.41039 9.07783L8.20322 8.0207C8.24393 7.96642 8.26429 7.93929 8.28821 7.91587C8.30945 7.89509 8.33276 7.87652 8.35777 7.86045C8.38593 7.84236 8.41693 7.82859 8.47893 7.80103L11.8639 6.29658C12.0043 6.23421 12.0744 6.20303 12.1273 6.15433C12.1741 6.11126 12.211 6.0585 12.2353 5.99973C12.2628 5.93329 12.2679 5.85669 12.2781 5.70347L12.526 1.98573M11.8125 11.8125L14.1015 12.7935C14.3671 12.9073 14.4999 12.9642 14.5702 13.0588C14.6319 13.1417 14.6623 13.2438 14.6559 13.347C14.6486 13.4646 14.5685 13.5848 14.4082 13.8252L13.3328 15.4383C13.2568 15.5523 13.2188 15.6093 13.1687 15.6505C13.1242 15.687 13.073 15.7144 13.018 15.7311C12.9558 15.75 12.8873 15.75 12.7504 15.75H11.0045C10.8231 15.75 10.7324 15.75 10.6552 15.7197C10.587 15.6929 10.5267 15.6494 10.4797 15.5932C10.4265 15.5296 10.3978 15.4435 10.3405 15.2714L9.71669 13.4001C9.68285 13.2986 9.66593 13.2478 9.66148 13.1962C9.65753 13.1505 9.6608 13.1044 9.67118 13.0597C9.68289 13.0092 9.70681 12.9614 9.75467 12.8657L10.2285 11.918C10.3248 11.7255 10.3729 11.6292 10.447 11.5694C10.5124 11.5168 10.5915 11.484 10.6749 11.475C10.7696 11.4649 10.8717 11.4989 11.076 11.567L11.8125 11.8125ZM19.25 10.5C19.25 15.3325 15.3325 19.25 10.5 19.25C5.66751 19.25 1.75 15.3325 1.75 10.5C1.75 5.66751 5.66751 1.75 10.5 1.75C15.3325 1.75 19.25 5.66751 19.25 10.5Z" stroke="black" stroke-opacity="0.9" stroke-linecap="round" stroke-linejoin="round"/>
</svg>
