<svg xmlns="http://www.w3.org/2000/svg" focusable="false" viewBox="0 0 548.72 79.12">
  <title>Trustwave</title>
  <path fill="#000000" d="M125.82 7.4V78h-10.61V7.4H92.78V0H148v7.4z"/>
  <path fill="#000000" d="M141.18 78V22.76h9.62V30c1.21-1.77 5.63-8.18 13.48-8.18a10.44 10.44 0 0 1 6.52 2.1v8.62a15.25 15.25 0 0 0-9.18-3.09c-9.61 0-10.82 7.51-10.82 10.49V78zM213.67 78v-6.39a26.54 26.54 0 0 1-18.23 7.51 16.29 16.29 0 0 1-10.61-3.2c-5.64-4.31-6.08-10.61-6.08-16.91V22.76h9.39v33.71c0 7.62.78 16.47 11.39 16.47 3.64 0 8.51-1.44 10.94-4 2.76-2.88 3.2-5.31 3.2-8.85V22.76h9.4V78zM260.86 38.57V37c0-3.76-1.88-9.62-10.39-9.62-7.4 0-10.61 4.2-10.61 8.29 0 5.31 5.64 7.52 10.72 9l5.75 1.66c9.28 2.65 14.59 7.3 14.59 16.14 0 8.28-5.2 16.68-20.89 16.68-15.47 0-20.44-7.62-20.44-16.8v-1.46h9.5v1.43c0 4.76 2.1 10.62 11.82 10.62 8.18 0 10.72-4.2 10.72-8.63 0-6.85-5.41-8.5-10.5-10.05l-7.07-2.1c-3.42-1-12.93-3.76-12.93-14.15 0-7.95 4.64-16.46 19.67-16.46 9.62 0 19 4 19 16.35v.67zM368.23 22.76l-12.48 45.42-12.6-45.42h-8.73l-14.14 45.42-11.94-45.42h-20V9.06l-9.62 1.66-.22 50.83c0 8.84.34 12.16 4.2 15a14.56 14.56 0 0 0 8.59 2.45 30.76 30.76 0 0 0 10.39-1.88v-6.4a17.91 17.91 0 0 1-6.3 1.33c-6.41 0-7.19-4.42-7.19-10.28l.12-33.37h11.61L314.3 78h10.06l13.37-42.44L350 78h10.17l16.35-55.26zM416.74 78c-3.64 0-4.52-1.22-4.52-4.53v-1.53a21.55 21.55 0 0 1-16.36 7.18c-10.61 0-17.35-5.41-17.35-16 0-7.52 4.42-11.49 7-12.93 3.75-2.1 8.94-3.87 26.74-5.53v-5.87c0-7.41-3.1-11-10.5-11-3.43 0-12.27.44-12.27 11.82v.77h-8.98v-1.71c0-13.14 11.16-17.12 21.88-17.12 8.84 0 14 2.65 16.58 6.3 2.1 3 2.54 7.73 2.54 11.93V70c0 4.2.55 6.41 2.54 6.74V78zm-4.52-28.18c-11.39 1.32-16.25 2.65-18.68 4.09a9.82 9.82 0 0 0-5 9c0 6.19 3.64 9.94 10.05 9.94a15.42 15.42 0 0 0 8.51-2.32c4.75-3.09 5.09-8.28 5.09-12.37zM454.54 78h-10.06l-18.23-55.24h10.39l13.81 45.31L466 22.76h8.62zM485.81 50.72c0 6.85.22 22.22 14.48 22.22 3.54 0 12.05-1.44 12.71-11.83h9.39c0 9.39-7.62 18-22.54 18-17.35 0-24.09-11.27-24.09-27.18 0-18 7.18-30.39 24.75-30.39 14.15 0 22.1 8.18 22.1 25.86v2.76h-36.8zm27.41-6.3c-.11-3.42-.44-16.68-12.6-16.68-7.95 0-13.81 5.63-14.48 16.68zM0 3.85V63s16.67-9.59 29.93-20.49 19.29-20 19.29-20A73.81 73.81 0 0 0 0 3.85z"/>
  <path fill="#ed1a3d" d="M24.71.05a81.89 81.89 0 0 1 53.22 53.22V.05z"/>
  <path fill="#000000" d="M74.13 78H15s9.59-16.66 20.49-29.92 20-19.29 20-19.29A73.8 73.8 0 0 1 74.13 78zM540.25 38.85a8.45 8.45 0 1 1 8.47-8.52 8.4 8.4 0 0 1-8.47 8.52zm0-16.09a7.64 7.64 0 1 0 7.59 7.69 7.6 7.6 0 0 0-7.56-7.69zm.71 2.61c2 0 3.06.74 3.06 2.59a2.46 2.46 0 0 1-1.92 2.61 2.08 2.08 0 0 1 1.57 1.78l.49 1.92a3.51 3.51 0 0 0 .57 1.18h-1.83a1.52 1.52 0 0 1-.4-.75l-.45-1.76c-.38-1.52-.71-1.8-2.68-1.8h-.76v4.31h-1.71V25.37zM538.64 30h1.07c1.78 0 2.61-.28 2.61-1.8 0-1.19-.52-1.69-2.18-1.69h-1.5z"/>
</svg>
