<?xml version="1.0" encoding="utf-8"?>
<!-- Generator: Adobe Illustrator 24.3.0, SVG Export Plug-In . SVG Version: 6.00 Build 0)  -->
<svg version="1.1" id="Layer_1" xmlns="http://www.w3.org/2000/svg" xmlns:xlink="http://www.w3.org/1999/xlink" x="0px" y="0px"
	 width="48.1px" height="47.5px" viewBox="0 0 48.1 47.5" enable-background="new 0 0 48.1 47.5" xml:space="preserve">
<g>
	<path fill="#ED1A3D" d="M28.5,19.4c-0.6,0-1-0.4-1-1v-3.9c0-0.6,0.4-1,1-1s1,0.4,1,1v3.9C29.5,18.9,29,19.4,28.5,19.4z"/>
	<path fill="#ED1A3D" d="M5.2,6.3C5,6.3,4.7,6.2,4.5,6S4.2,5.6,4.2,5.3c0-0.1,0-0.1,0-0.2c0-0.1,0-0.1,0.1-0.2
		c0-0.1,0.1-0.1,0.1-0.2c0-0.1,0.1-0.1,0.1-0.2c0.4-0.4,1-0.4,1.4,0c0,0,0.1,0.1,0.1,0.2c0,0.1,0.1,0.1,0.1,0.2c0,0.1,0,0.1,0.1,0.2
		c0,0.1,0,0.1,0,0.2c0,0.3-0.1,0.5-0.3,0.7S5.5,6.3,5.2,6.3L5.2,6.3z"/>
	<path fill="#ED1A3D" d="M18.1,6.3c-0.3,0-0.5-0.1-0.7-0.3c0,0-0.1-0.1-0.1-0.2c0-0.1-0.1-0.1-0.1-0.2c0-0.1,0-0.1-0.1-0.2
		c0-0.1,0-0.1,0-0.2c0-0.1,0-0.1,0-0.2c0-0.1,0-0.1,0.1-0.2c0-0.1,0.1-0.1,0.1-0.2c0-0.1,0.1-0.1,0.1-0.2c0.2-0.2,0.6-0.3,0.9-0.3
		c0.1,0,0.1,0,0.2,0.1c0.1,0,0.1,0.1,0.2,0.1c0.1,0,0.1,0.1,0.2,0.1c0,0,0.1,0.1,0.1,0.2C19,4.8,19,4.9,19,4.9c0,0.1,0,0.1,0.1,0.2
		c0,0.1,0,0.1,0,0.2c0,0.1,0,0.1,0,0.2c0,0.1,0,0.1-0.1,0.2c0,0.1-0.1,0.1-0.1,0.2c0,0.1-0.1,0.1-0.1,0.2c0,0-0.1,0.1-0.2,0.1
		c-0.1,0-0.1,0.1-0.2,0.1c-0.1,0-0.1,0-0.2,0.1C18.2,6.3,18.2,6.3,18.1,6.3L18.1,6.3z"/>
	<path d="M20.9,6.3c-0.1,0-0.1,0-0.2,0c-0.1,0-0.1,0-0.2-0.1c-0.1,0-0.1-0.1-0.2-0.1S20.2,6,20.2,6c0,0-0.1-0.1-0.1-0.2
		C20,5.8,20,5.7,20,5.7c0-0.1,0-0.1-0.1-0.2c0-0.1,0-0.1,0-0.2c0-0.3,0.1-0.5,0.3-0.7c0,0,0.1-0.1,0.2-0.1s0.1-0.1,0.2-0.1
		c0.1,0,0.1,0,0.2-0.1c0.1,0,0.3,0,0.4,0c0.1,0,0.1,0,0.2,0.1c0.1,0,0.1,0.1,0.2,0.1s0.1,0.1,0.2,0.1c0.2,0.2,0.3,0.4,0.3,0.7
		c0,0.3-0.1,0.5-0.3,0.7S21.2,6.3,20.9,6.3L20.9,6.3z"/>
	<path d="M23.7,6.3c-0.1,0-0.1,0-0.2,0s-0.1,0-0.2-0.1c-0.1,0-0.1-0.1-0.2-0.1S23,6.1,23,6c-0.2-0.2-0.3-0.4-0.3-0.7
		c0-0.3,0.1-0.5,0.3-0.7c0,0,0.1-0.1,0.2-0.1s0.1-0.1,0.2-0.1c0.1,0,0.1,0,0.2-0.1c0.1,0,0.3,0,0.4,0c0.1,0,0.1,0,0.2,0.1
		c0.1,0,0.1,0.1,0.2,0.1c0.1,0,0.1,0.1,0.2,0.1c0.2,0.2,0.3,0.4,0.3,0.7S24.6,5.8,24.4,6c0,0-0.1,0.1-0.2,0.1s-0.1,0.1-0.2,0.1
		c-0.1,0-0.1,0-0.2,0.1C23.8,6.3,23.8,6.3,23.7,6.3L23.7,6.3z"/>
	<path d="M26.5,6.3c-0.1,0-0.1,0-0.2,0s-0.1,0-0.2-0.1c-0.1,0-0.1-0.1-0.2-0.1S25.8,6.1,25.8,6c0,0-0.1-0.1-0.1-0.2
		c0-0.1-0.1-0.1-0.1-0.2c0-0.1,0-0.1-0.1-0.2c0-0.1,0-0.1,0-0.2c0-0.1,0-0.1,0-0.2c0-0.1,0-0.1,0.1-0.2c0-0.1,0.1-0.1,0.1-0.2
		s0.1-0.1,0.1-0.2c0,0,0.1-0.1,0.2-0.1s0.1-0.1,0.2-0.1c0.1,0,0.1,0,0.2-0.1c0.3-0.1,0.7,0,0.9,0.3c0,0,0.1,0.1,0.1,0.2
		s0.1,0.1,0.1,0.2c0,0.1,0,0.1,0.1,0.2c0,0.1,0,0.1,0,0.2c0,0.1,0,0.1,0,0.2c0,0.1,0,0.1-0.1,0.2c0,0.1-0.1,0.1-0.1,0.2
		c0,0.1-0.1,0.1-0.1,0.2C27,6.2,26.7,6.3,26.5,6.3L26.5,6.3z"/>
	<path d="M29.3,6.3c-0.3,0-0.5-0.1-0.7-0.3c0,0-0.1-0.1-0.1-0.2c0-0.1-0.1-0.1-0.1-0.2c0-0.1,0-0.1-0.1-0.2c0-0.1,0-0.1,0-0.2
		c0-0.1,0-0.1,0-0.2c0-0.1,0-0.1,0.1-0.2c0-0.1,0.1-0.1,0.1-0.2c0-0.1,0.1-0.1,0.1-0.2c0,0,0.1-0.1,0.2-0.1s0.1-0.1,0.2-0.1
		s0.1,0,0.2-0.1c0.3-0.1,0.7,0,0.9,0.3c0,0,0.1,0.1,0.1,0.2c0,0.1,0.1,0.1,0.1,0.2c0,0.1,0,0.1,0.1,0.2c0,0.1,0,0.1,0,0.2
		c0,0.1,0,0.1,0,0.2c0,0.1,0,0.1-0.1,0.2c0,0.1-0.1,0.1-0.1,0.2C30.1,5.9,30,6,30,6c0,0-0.1,0.1-0.2,0.1s-0.1,0.1-0.2,0.1
		c-0.1,0-0.1,0-0.2,0.1S29.3,6.3,29.3,6.3L29.3,6.3z"/>
	<path d="M32.1,6.3c-0.3,0-0.5-0.1-0.7-0.3c0,0-0.1-0.1-0.1-0.2c0-0.1-0.1-0.1-0.1-0.2c0-0.1,0-0.1-0.1-0.2c0-0.1,0-0.1,0-0.2
		c0-0.1,0-0.1,0-0.2c0-0.1,0-0.1,0.1-0.2c0-0.1,0.1-0.1,0.1-0.2s0.1-0.1,0.1-0.2c0,0,0.1-0.1,0.2-0.1s0.1-0.1,0.2-0.1
		c0.1,0,0.1,0,0.2-0.1c0.1,0,0.3,0,0.4,0c0.1,0,0.1,0,0.2,0.1c0.1,0,0.1,0.1,0.2,0.1s0.1,0.1,0.2,0.1C33,4.8,33.1,5,33.1,5.3
		S33,5.8,32.8,6S32.3,6.3,32.1,6.3z"/>
	<path d="M34.9,6.3c-0.3,0-0.5-0.1-0.7-0.3s-0.3-0.4-0.3-0.7c0-0.3,0.1-0.5,0.3-0.7c0,0,0.1-0.1,0.2-0.1c0.1,0,0.1-0.1,0.2-0.1
		c0.1,0,0.1,0,0.2-0.1c0.1,0,0.3,0,0.4,0c0.1,0,0.1,0,0.2,0.1c0.1,0,0.1,0.1,0.2,0.1c0.1,0,0.1,0.1,0.2,0.1c0.2,0.2,0.3,0.4,0.3,0.7
		S35.8,5.8,35.6,6C35.4,6.2,35.1,6.3,34.9,6.3z"/>
	<path fill="#ED1A3D" d="M11.8,6.3H8c-0.6,0-1-0.4-1-1s0.4-1,1-1h3.9c0.6,0,1,0.4,1,1S12.4,6.3,11.8,6.3z"/>
	<path fill="#ED1A3D" d="M31.5,19.4c-0.6,0-1-0.4-1-1V13c0-0.6,0.4-1,1-1c0.6,0,1,0.4,1,1v5.4C32.5,18.9,32.1,19.4,31.5,19.4z"/>
	<path fill="#ED1A3D" d="M34.5,19.4c-0.6,0-1-0.4-1-1v-2.6c0-0.6,0.4-1,1-1s1,0.4,1,1v2.6C35.5,18.9,35.1,19.4,34.5,19.4z"/>
	<path fill="#ED1A3D" d="M37.6,19.4c-0.6,0-1-0.4-1-1v-8.2c0-0.6,0.4-1,1-1s1,0.4,1,1v8.2C38.6,18.9,38.1,19.4,37.6,19.4z"/>
	<path fill="#ED1A3D" d="M40.6,19.4c-0.6,0-1-0.4-1-1v-3.9c0-0.6,0.4-1,1-1s1,0.4,1,1v3.9C41.6,18.9,41.2,19.4,40.6,19.4z"/>
	<path d="M5.4,19.9c-0.2,0-0.5-0.1-0.7-0.3c-0.4-0.4-0.4-1,0-1.4l3.1-3.3c0.3-0.3,0.8-0.4,1.2-0.2l2.3,1.3l2.7-4.2
		c0.2-0.3,0.5-0.4,0.8-0.5c0.3,0,0.6,0.1,0.8,0.4l3,3.6l1.9-1.8c0.4-0.4,1-0.4,1.4,0s0.4,1,0,1.4l-2.7,2.5c-0.2,0.2-0.5,0.3-0.7,0.3
		c-0.3,0-0.5-0.1-0.7-0.4L15,14l-2.5,3.9c-0.3,0.4-0.9,0.6-1.3,0.3l-2.4-1.4l-2.6,2.7C5.9,19.7,5.6,19.9,5.4,19.9L5.4,19.9z"/>
	<path d="M1.2,47.5c-0.5,0-0.9-0.4-0.9-0.9v-0.7c0-2.8,1.8-5.2,4.4-6.2L7,38.9c0.1,0,0.2-0.1,0.3-0.1c0.3,0,0.5,0.1,0.7,0.3
		c1.1,1.2,2.5,1.8,3.9,1.8s2.8-0.6,3.9-1.8c0.2-0.2,0.4-0.3,0.7-0.3c0.1,0,0.2,0,0.3,0.1l2.4,0.8c2.6,0.9,4.4,3.4,4.4,6.2v0.7
		c0,0.5-0.4,0.9-0.9,0.9L1.2,47.5L1.2,47.5z M21.6,45.6c-0.1-1.9-1.3-3.5-3.1-4.1l-1.8-0.6c-1.4,1.3-3.1,2-4.8,2s-3.4-0.7-4.8-2
		l-1.8,0.6c-1.8,0.6-3,2.2-3.1,4.1H21.6L21.6,45.6z"/>
	<path d="M11.9,39.7c-2.4,0-4.6-1.8-5.5-4.7c-0.9-0.3-1.4-1.4-1.4-2.7c0-1.6,0.8-2.8,1.8-2.8c0,0,0,0,0.1,0c0.5,0,0.9,0.3,0.9,0.8
		l0,0l0,0.1c0,0.2-0.1,0.5-0.3,0.7c-0.1,0.1-0.3,0.2-0.5,0.3c-0.1,0.1-0.2,0.4-0.2,0.9c0,0.4,0.1,0.7,0.1,0.8c0,0,0.1,0,0.1,0
		c0.1,0,0.2,0,0.3,0.1c0.3,0.1,0.5,0.3,0.6,0.6c0.6,2.4,2.2,4,3.9,4s3.3-1.6,3.9-4c0.1-0.3,0.3-0.5,0.6-0.6c0.1,0,0.2-0.1,0.4-0.1
		c0,0,0.1,0,0.1,0c0.1-0.2,0.1-0.4,0.1-0.8c0-0.5-0.1-0.8-0.2-0.9c-0.2,0-0.4-0.1-0.5-0.3c-0.2-0.2-0.3-0.5-0.3-0.8
		c0.1-0.5,0.5-0.8,0.9-0.8c0,0,0.1,0,0.1,0c0,0,0.1,0,0.2,0c1,0.2,1.6,1.3,1.6,2.8c0,1.4-0.6,2.5-1.4,2.7
		C16.4,37.9,14.3,39.7,11.9,39.7L11.9,39.7z"/>
	<path d="M6.1,31.8c-0.4,0-0.8-0.3-0.9-0.7c0-0.1-0.9-3.3,0.7-5.9c1.1-1.7,3-2.8,5.6-3.1c0.3,0,0.5-0.1,0.8-0.1c2,0,3.4,1.1,4.1,2.2
		c0.4,0.1,0.9,0.4,1.4,1c0.9,1.2,1.2,3,0.8,5.6c-0.1,0.5-0.5,0.8-0.9,0.8c-0.1,0-0.1,0-0.2,0c-0.5-0.1-0.9-0.6-0.8-1.1
		c0.4-2.6-0.1-3.6-0.4-4C16,26,15.7,26,15.7,26l-0.5,0l-0.2-0.5c0-0.1-0.8-1.5-2.6-1.5c-0.2,0-0.3,0-0.5,0c-2.1,0.3-3.5,1.1-4.3,2.3
		C6.3,28.1,7,30.6,7,30.6c0.1,0.2,0,0.5-0.1,0.7s-0.3,0.4-0.6,0.5C6.3,31.8,6.2,31.8,6.1,31.8z"/>
	<path d="M25.6,47.5c-0.5,0-0.9-0.4-0.9-0.9v-0.7c0-2.8,1.8-5.2,4.4-6.2l2.4-0.8c0.1,0,0.2-0.1,0.3-0.1c0.3,0,0.5,0.1,0.7,0.3
		c1.1,1.2,2.5,1.8,3.9,1.8s2.8-0.6,3.9-1.8c0.2-0.2,0.4-0.3,0.7-0.3c0.1,0,0.2,0,0.3,0.1l2.4,0.8c2.6,0.9,4.4,3.4,4.4,6.2v0.7
		c0,0.5-0.4,0.9-0.9,0.9L25.6,47.5L25.6,47.5z M46,45.6c-0.1-1.9-1.3-3.5-3.1-4.1l-1.8-0.6c-1.4,1.3-3.1,2-4.8,2s-3.4-0.7-4.8-2
		l-1.8,0.6c-1.8,0.6-3,2.2-3.1,4.1H46L46,45.6z"/>
	<path d="M36.3,39.7c-2.4,0-4.6-1.8-5.5-4.7c-0.9-0.3-1.4-1.4-1.4-2.7c0-1.6,0.8-2.8,1.8-2.8c0,0,0,0,0.1,0c0.5,0,0.9,0.3,0.9,0.8
		l0,0l0,0.1c0,0.2-0.1,0.5-0.3,0.7c-0.1,0.1-0.3,0.2-0.5,0.3c-0.1,0.1-0.2,0.4-0.2,0.9c0,0.4,0.1,0.7,0.1,0.8c0,0,0.1,0,0.1,0
		c0.1,0,0.2,0,0.3,0.1c0.3,0.1,0.5,0.3,0.6,0.6c0.6,2.4,2.2,4,3.9,4s3.3-1.6,3.9-4c0.1-0.3,0.3-0.5,0.6-0.6c0.1,0,0.2-0.1,0.4-0.1
		c0,0,0.1,0,0.1,0c0.1-0.2,0.1-0.4,0.1-0.8c0-0.5-0.1-0.8-0.2-0.9c-0.2,0-0.4-0.1-0.5-0.3c-0.2-0.2-0.3-0.5-0.3-0.8
		c0.1-0.5,0.5-0.8,0.9-0.8c0,0,0.1,0,0.1,0c0,0,0.1,0,0.2,0c1,0.2,1.6,1.3,1.6,2.8c0,1.4-0.6,2.5-1.4,2.7
		C40.9,37.9,38.7,39.7,36.3,39.7L36.3,39.7z"/>
	<path d="M30.6,31.8c-0.4,0-0.8-0.3-0.9-0.7c0-0.1-0.9-3.3,0.7-5.9c1.1-1.7,3-2.8,5.6-3.1c0.3,0,0.5-0.1,0.8-0.1
		c2,0,3.4,1.1,4.1,2.2c0.4,0.1,0.9,0.4,1.4,1c0.9,1.2,1.2,3,0.8,5.6c-0.1,0.5-0.5,0.8-0.9,0.8c-0.1,0-0.1,0-0.2,0
		c-0.5-0.1-0.9-0.6-0.8-1.1c0.4-2.6-0.1-3.6-0.4-4C40.4,26,40.1,26,40.1,26l-0.5,0l-0.2-0.5c0-0.1-0.8-1.5-2.6-1.5
		c-0.2,0-0.3,0-0.5,0c-2.1,0.3-3.5,1.1-4.3,2.3c-1.2,1.9-0.5,4.3-0.5,4.4c0.1,0.2,0,0.5-0.1,0.7s-0.3,0.4-0.6,0.5
		C30.7,31.8,30.7,31.8,30.6,31.8z"/>
	<path d="M31.8,24.9H15.9c0.3,0.5,0.6,1.3,1,2h13.8L31.8,24.9z"/>
	<path d="M48.1,3c0-1.7-1.4-3-3-3H3C1.4,0,0,1.4,0,3v20.8c0,1.7,1.4,3,3,3h3.3l1-2H3c-0.6,0-1-0.5-1-1V3c0-0.6,0.5-1,1-1h42
		c0.6,0,1,0.5,1,1l0,20.8c0,0.6-0.5,1-1,1h-4.2l0.8,2H45c1.7,0,3-1.4,3-3C48.1,23.9,48.1,3,48.1,3z"/>
</g>
</svg>
