<svg version="1.1" xmlns="http://www.w3.org/2000/svg" xmlns:xlink="http://www.w3.org/1999/xlink" x="0px" y="0px" viewBox="0 0 46 46" style="enable-background:new 0 0 46 46;" xml:space="preserve">
	<rect fill-rule="evenodd" clip-rule="evenodd" fill="#C84727" width="46" height="46"/>
	<g id="logo">
		<path fill="#ffffff" d="M30.6,14.2c-4.5-4.2-11.7-3.6-15.9,0.5c-3.8,3.8-4.1,10.3-1.5,14.7l-6.2,9.2l7.6-7.6l4.1-4.1
			c-0.5-0.5-0.9-1.2-1.2-1.9c-0.3-0.7-0.4-1.4-0.4-2.2c0-0.7,0.2-1.5,0.4-2.2c0.3-0.7,0.7-1.3,1.2-1.8c1.8-1.8,5.4-2.3,7.6-0.5
			L30.6,14.2z"/>
		<path fill="#ffffff" d="M28.9,21.6c0.4,1.2,0.4,2.5,0,3.7c-0.4,1.2-1.2,2.2-2.3,2.9c-1.1,0.7-2.3,1-3.6,0.9c-1.3-0.1-2.4-0.7-3.4-1.5
			L38.9,7.3L28.9,21.6z"/>
	</g>
</svg>
