<?xml version="1.0" encoding="utf-8"?>
<!-- Generator: Adobe Illustrator 26.2.1, SVG Export Plug-In . SVG Version: 6.00 Build 0)  -->
<svg version="1.1" xmlns="http://www.w3.org/2000/svg" xmlns:xlink="http://www.w3.org/1999/xlink" x="0px" y="0px"
	 viewBox="0 0 135 25" style="enable-background:new 0 0 135 25;" xml:space="preserve">
<path d="M109.6,14.2h-9.1V12l5.3-7.2h7v6.9h2.7l-0.2,2.5h-2.5v2.5h-3.2L109.6,14.2z M107.2,7.3l-3.2,4.4h5.5V7.3H107.2z M118,14.2
	l4.2-2.5c3.2-1.9,4.2-2.4,4.2-3.3c0-0.7-0.6-1.2-2.1-1.2c-2.1,0.1-4,0.7-5.7,1.9h0V6.1c1.8-1,3.9-1.6,6-1.6c3.7,0,5.7,1.4,5.7,3.6
	c0,2-1.5,2.9-5.1,4.9l-2,1.1h7.2v2.6H118L118,14.2L118,14.2z"/>
<path fill="#C84727" d="M20.3,5.5C16.4,2.2,10.2,2.6,6.6,6c-3.3,3-3.5,8.2-1.2,11.7L0,25l6.5-6l3.6-3.3c-0.5-0.4-0.8-0.9-1.1-1.5
	c-0.2-0.5-0.4-1.1-0.4-1.7c0-0.6,0.1-1.2,0.4-1.7c0.2-0.6,0.6-1.1,1.1-1.5C11,8.5,12.2,8,13.3,8c1.2-0.1,2.4,0.2,3.4,0.9
	C16.7,8.8,20.3,5.5,20.3,5.5z M18.8,11.4c0.4,0.9,0.4,2,0,2.9c-0.4,0.9-1,1.8-2,2.3c-0.9,0.5-2,0.8-3.1,0.7
	c-1.1-0.1-2.1-0.5-2.9-1.2L27.5,0C27.5,0,18.8,11.4,18.8,11.4z"/>
<path d="M75,4.8h-3.4v11.9H75V4.8z M79.3,7.4h5.4v9.4h3.6V7.4h5.4V4.8H79.3V7.4z M34.4,10.8c0,0.5,0.1,1,0.2,1.4
	c0.2,0.5,0.5,0.9,0.9,1.2s0.8,0.6,1.3,0.8c0.5,0.2,1,0.3,1.6,0.3c2.3,0,4.3-0.5,4.3-3.8v-6h3.5v6c0,3.8-2.3,6.3-7.8,6.3
	c-4.8,0-7.5-2.4-7.5-6.3v-6h3.6L34.4,10.8 M51.5,4.8h4.2l6.9,7.9V4.8h3.1v11.9h-3.2l-7.9-8.9v8.9h-3.1L51.5,4.8L51.5,4.8z"/>
<path fill="#807C7B" d="M30.9,20.9h1.6c0.6,0,0.9,0.2,0.9,0.7c0,0.3-0.1,0.5-0.4,0.6c0.3,0.1,0.5,0.3,0.5,0.6c0,0.6-0.4,0.7-1,0.7h-1.5
	V20.9z M32.3,21.9c0.2,0,0.3-0.1,0.3-0.3c0-0.2-0.1-0.2-0.3-0.2h-0.8v0.5H32.3z M32.4,23c0.3,0,0.4-0.1,0.4-0.3
	c0-0.2-0.1-0.3-0.4-0.3h-0.8V23L32.4,23z M34.8,22.6l-1.2-1.8h0.8l0.7,1.1h0l0.7-1.1h0.8l-1.2,1.8v0.9h-0.7V22.6z M38,20.9h1.5
	c0.6,0,1,0.4,1,1c0,0.7-0.4,1-1,1h-0.7v0.7H38V20.9z M39.4,22.3c0.3,0,0.4-0.2,0.4-0.4c0-0.3-0.1-0.4-0.4-0.4h-0.7v0.8H39.4z
	 M41.5,20.9h1.1l1,2.7h-0.7l-0.2-0.6h-1.2l-0.2,0.6h-0.7L41.5,20.9z M41.7,22.4h0.8l-0.3-0.9H42L41.7,22.4z M44.1,20.9h0.7v2h1.5
	l0,0.6h-2.1V20.9z M46.5,22.2c0-0.9,0.6-1.4,1.5-1.4c0.9,0,1.5,0.5,1.5,1.4c0,0.9-0.6,1.4-1.5,1.4C47,23.6,46.5,23.1,46.5,22.2z
	 M48.7,22.2c0-0.5-0.3-0.8-0.8-0.8c-0.5,0-0.8,0.3-0.8,0.8c0,0.5,0.3,0.8,0.8,0.8C48.4,23,48.7,22.7,48.7,22.2z M51.7,20.9h1.1
	l1,2.7H53l-0.2-0.6h-1.2l-0.2,0.6h-0.7L51.7,20.9z M51.8,22.4h0.8l-0.3-0.9h-0.1L51.8,22.4z M54.2,20.9h0.7v2h1.5l0,0.6h-2.1V20.9z
	 M57.2,21.5h-0.9l0-0.6h2.5l0,0.6h-0.9v2h-0.7V21.5z M59.1,22.2c0-0.9,0.6-1.4,1.5-1.4c0.9,0,1.5,0.5,1.5,1.4c0,0.9-0.6,1.4-1.5,1.4
	C59.7,23.6,59.1,23.1,59.1,22.2z M61.4,22.2c0-0.5-0.3-0.8-0.8-0.8c-0.5,0-0.8,0.3-0.8,0.8c0,0.5,0.3,0.8,0.8,0.8
	C61.1,23,61.4,22.7,61.4,22.2z M63.6,20.9h0.7l1.2,1.6h0v-1.6h0.7v2.7h-0.7l-1.3-1.7h0v1.7h-0.7V20.9z M66.9,20.9h2.3l0,0.6h-1.6
	v0.4h1.3v0.6h-1.3v0.5h1.7l0,0.6h-2.3V20.9z M70.6,21.5h-0.9l0-0.6h2.5l0,0.6h-0.9v2h-0.7V21.5z M72.5,20.9h0.7l0.5,2h0l0.6-2h0.7
	l0.6,2h0l0.5-2h0.7l-0.7,2.7h-0.9l-0.5-1.7h0l-0.5,1.7h-0.9L72.5,20.9z M77.2,22.2c0-0.9,0.6-1.4,1.5-1.4c0.9,0,1.5,0.5,1.5,1.4
	c0,0.9-0.6,1.4-1.5,1.4C77.8,23.6,77.2,23.1,77.2,22.2z M79.5,22.2c0-0.5-0.3-0.8-0.8-0.8c-0.5,0-0.8,0.3-0.8,0.8
	c0,0.5,0.3,0.8,0.8,0.8C79.2,23,79.5,22.7,79.5,22.2z M80.7,20.9h1.5c0.7,0,1,0.3,1,0.9c0,0.4-0.2,0.7-0.5,0.9l0.7,0.9h-0.8L82,22.8
	h-0.6v0.7h-0.7V20.9z M82.2,22.2c0.3,0,0.4-0.2,0.4-0.4c0-0.2-0.1-0.4-0.4-0.4h-0.7v0.8H82.2z M83.8,20.9h0.7v1h0.4l0.8-1h0.8v0
	l-1.1,1.3l1.1,1.4v0h-0.8l-0.9-1.1h-0.4v1.1h-0.7V20.9z M86.9,23.3v-0.7h0c0.4,0.2,0.9,0.3,1.2,0.3c0.3,0,0.5-0.1,0.5-0.2
	c0-0.2-0.1-0.2-0.7-0.3c-0.5-0.1-1-0.3-1-0.8c0-0.5,0.4-0.9,1.2-0.9c0.3,0,0.7,0.1,1,0.2v0.7h0c-0.3-0.2-0.7-0.3-1.1-0.3
	c-0.3,0-0.5,0.1-0.5,0.2c0,0.2,0.3,0.2,0.7,0.3c0.5,0.1,1,0.2,1,0.8c0,0.4-0.3,0.9-1.2,0.9C87.6,23.6,87.2,23.5,86.9,23.3z"/>
<path d="M132,5.2h-0.4l0-0.3h1.2l0,0.3h-0.4v0.9H132V5.2z M132.9,4.9h0.4l0.4,0.6l0.4-0.6h0.4v1.2H134V5.3h0L133.6,6h0l-0.4-0.7h0
	v0.8h-0.3V4.9z"/>
</svg>
