<svg width="288" height="117" viewBox="0 0 288 117" fill="none" xmlns="http://www.w3.org/2000/svg">
<g filter="url(#filter0_d_171_97)">
<rect x="4" width="280" height="109" rx="6" fill="#FCFCFF"/>
<rect x="4.5" y="0.5" width="279" height="108" rx="5.5" stroke="#E3EDFF"/>
</g>
<path d="M117.435 75V60.4545H122.889C124.007 60.4545 124.944 60.6487 125.702 61.0369C126.464 61.4252 127.039 61.9697 127.428 62.6705C127.821 63.3665 128.017 64.1785 128.017 65.1065C128.017 66.0393 127.818 66.849 127.42 67.5355C127.027 68.2173 126.447 68.7453 125.68 69.1193C124.913 69.4886 123.971 69.6733 122.854 69.6733H118.969V67.4858H122.499C123.152 67.4858 123.687 67.3958 124.104 67.2159C124.52 67.0312 124.828 66.7637 125.027 66.4134C125.231 66.0582 125.332 65.6226 125.332 65.1065C125.332 64.5904 125.231 64.1501 125.027 63.7855C124.823 63.4162 124.513 63.1368 124.097 62.9474C123.68 62.7533 123.143 62.6562 122.484 62.6562H120.07V75H117.435ZM124.949 68.4091L128.55 75H125.609L122.072 68.4091H124.949ZM135.002 75.2131C133.908 75.2131 132.964 74.9858 132.168 74.5312C131.378 74.072 130.769 73.4233 130.343 72.5852C129.917 71.7424 129.704 70.7505 129.704 69.6094C129.704 68.4872 129.917 67.5024 130.343 66.6548C130.774 65.8026 131.375 65.1397 132.147 64.6662C132.919 64.188 133.826 63.9489 134.867 63.9489C135.54 63.9489 136.174 64.0578 136.771 64.2756C137.372 64.4886 137.902 64.8201 138.362 65.2699C138.826 65.7197 139.19 66.2926 139.455 66.9886C139.72 67.6799 139.853 68.5038 139.853 69.4602V70.2486H130.911V68.5156H137.388C137.384 68.0232 137.277 67.5852 137.069 67.2017C136.861 66.8134 136.569 66.508 136.195 66.2855C135.826 66.063 135.395 65.9517 134.903 65.9517C134.377 65.9517 133.915 66.0795 133.518 66.3352C133.12 66.5862 132.81 66.9176 132.587 67.3295C132.37 67.7367 132.258 68.1842 132.254 68.6719V70.1847C132.254 70.8191 132.37 71.3636 132.602 71.8182C132.834 72.268 133.158 72.6136 133.575 72.8551C133.991 73.0919 134.479 73.2102 135.038 73.2102C135.412 73.2102 135.75 73.1581 136.053 73.054C136.356 72.9451 136.619 72.7865 136.842 72.5781C137.064 72.3698 137.232 72.1117 137.346 71.804L139.746 72.0739C139.595 72.7083 139.306 73.2623 138.88 73.7358C138.459 74.2045 137.919 74.5691 137.261 74.8295C136.603 75.0852 135.85 75.2131 135.002 75.2131ZM150.65 66.9744L148.306 67.2301C148.24 66.9934 148.124 66.7708 147.958 66.5625C147.797 66.3542 147.58 66.1861 147.305 66.0582C147.03 65.9304 146.694 65.8665 146.297 65.8665C145.761 65.8665 145.312 65.9825 144.947 66.2145C144.587 66.4465 144.41 66.7472 144.414 67.1165C144.41 67.4337 144.526 67.6918 144.762 67.8906C145.004 68.0895 145.402 68.2528 145.956 68.3807L147.816 68.7784C148.849 69.0009 149.616 69.3537 150.118 69.8366C150.624 70.3196 150.88 70.9517 150.885 71.733C150.88 72.4195 150.679 73.0256 150.281 73.5511C149.888 74.072 149.341 74.4792 148.64 74.7727C147.94 75.0663 147.135 75.2131 146.225 75.2131C144.89 75.2131 143.815 74.9337 143.001 74.375C142.187 73.8116 141.701 73.0279 141.545 72.0241L144.052 71.7827C144.166 72.2751 144.407 72.6468 144.777 72.8977C145.146 73.1487 145.627 73.2741 146.218 73.2741C146.829 73.2741 147.319 73.1487 147.689 72.8977C148.063 72.6468 148.25 72.3366 148.25 71.9673C148.25 71.6548 148.129 71.3968 147.887 71.1932C147.651 70.9896 147.281 70.8333 146.779 70.7244L144.919 70.3338C143.872 70.116 143.098 69.7491 142.596 69.233C142.094 68.7121 141.846 68.054 141.85 67.2585C141.846 66.5862 142.028 66.0038 142.397 65.5114C142.771 65.0142 143.29 64.6307 143.953 64.3608C144.62 64.0862 145.39 63.9489 146.261 63.9489C147.539 63.9489 148.546 64.2211 149.279 64.7656C150.018 65.3101 150.475 66.0464 150.65 66.9744ZM153.005 79.0909V64.0909H155.533V65.8949H155.682C155.815 65.6297 156.002 65.348 156.243 65.0497C156.485 64.7467 156.811 64.4886 157.223 64.2756C157.635 64.0578 158.161 63.9489 158.8 63.9489C159.643 63.9489 160.403 64.1643 161.08 64.5952C161.762 65.0213 162.301 65.6534 162.699 66.4915C163.102 67.3248 163.303 68.3475 163.303 69.5597C163.303 70.7576 163.106 71.7756 162.713 72.6136C162.32 73.4517 161.785 74.0909 161.108 74.5312C160.431 74.9716 159.664 75.1918 158.807 75.1918C158.182 75.1918 157.664 75.0876 157.252 74.8793C156.84 74.6709 156.508 74.42 156.257 74.1264C156.011 73.8281 155.819 73.5464 155.682 73.2812H155.576V79.0909H153.005ZM155.526 69.5455C155.526 70.2509 155.625 70.8688 155.824 71.3991C156.028 71.9295 156.319 72.3437 156.698 72.642C157.081 72.9356 157.545 73.0824 158.09 73.0824C158.658 73.0824 159.134 72.9309 159.517 72.6278C159.901 72.3201 160.19 71.901 160.384 71.3707C160.583 70.8357 160.682 70.2273 160.682 69.5455C160.682 68.8684 160.585 68.267 160.391 67.7415C160.197 67.2159 159.908 66.804 159.525 66.5057C159.141 66.2074 158.663 66.0582 158.09 66.0582C157.541 66.0582 157.074 66.2027 156.691 66.4915C156.307 66.7803 156.016 67.1851 155.817 67.706C155.623 68.2268 155.526 68.84 155.526 69.5455ZM170.263 75.2131C169.198 75.2131 168.275 74.9787 167.493 74.5099C166.712 74.0412 166.106 73.3854 165.675 72.5426C165.249 71.6998 165.036 70.715 165.036 69.5881C165.036 68.4612 165.249 67.474 165.675 66.6264C166.106 65.7789 166.712 65.1207 167.493 64.652C168.275 64.1832 169.198 63.9489 170.263 63.9489C171.328 63.9489 172.252 64.1832 173.033 64.652C173.814 65.1207 174.418 65.7789 174.844 66.6264C175.275 67.474 175.49 68.4612 175.49 69.5881C175.49 70.715 175.275 71.6998 174.844 72.5426C174.418 73.3854 173.814 74.0412 173.033 74.5099C172.252 74.9787 171.328 75.2131 170.263 75.2131ZM170.277 73.1534C170.855 73.1534 171.338 72.9948 171.726 72.6776C172.114 72.3556 172.403 71.9247 172.593 71.3849C172.787 70.8452 172.884 70.2438 172.884 69.581C172.884 68.9134 172.787 68.3097 172.593 67.7699C172.403 67.2254 172.114 66.7921 171.726 66.4702C171.338 66.1482 170.855 65.9872 170.277 65.9872C169.685 65.9872 169.193 66.1482 168.8 66.4702C168.412 66.7921 168.121 67.2254 167.926 67.7699C167.737 68.3097 167.642 68.9134 167.642 69.581C167.642 70.2438 167.737 70.8452 167.926 71.3849C168.121 71.9247 168.412 72.3556 168.8 72.6776C169.193 72.9948 169.685 73.1534 170.277 73.1534ZM180.244 68.608V75H177.673V64.0909H180.13V65.9446H180.258C180.509 65.3338 180.909 64.8485 181.458 64.4886C182.012 64.1288 182.696 63.9489 183.511 63.9489C184.263 63.9489 184.919 64.1098 185.478 64.4318C186.041 64.7538 186.477 65.2202 186.785 65.831C187.097 66.4418 187.251 67.1828 187.246 68.054V75H184.675V68.4517C184.675 67.7225 184.486 67.152 184.107 66.7401C183.733 66.3281 183.215 66.1222 182.552 66.1222C182.102 66.1222 181.702 66.2216 181.352 66.4205C181.006 66.6146 180.734 66.8963 180.535 67.2656C180.341 67.6349 180.244 68.0824 180.244 68.608ZM193.908 75.1918C193.051 75.1918 192.284 74.9716 191.607 74.5312C190.93 74.0909 190.395 73.4517 190.002 72.6136C189.609 71.7756 189.413 70.7576 189.413 69.5597C189.413 68.3475 189.612 67.3248 190.009 66.4915C190.412 65.6534 190.954 65.0213 191.636 64.5952C192.317 64.1643 193.077 63.9489 193.915 63.9489C194.555 63.9489 195.08 64.0578 195.492 64.2756C195.904 64.4886 196.231 64.7467 196.472 65.0497C196.714 65.348 196.901 65.6297 197.033 65.8949H197.14V60.4545H199.718V75H197.19V73.2812H197.033C196.901 73.5464 196.709 73.8281 196.458 74.1264C196.207 74.42 195.876 74.6709 195.464 74.8793C195.052 75.0876 194.533 75.1918 193.908 75.1918ZM194.626 73.0824C195.17 73.0824 195.634 72.9356 196.018 72.642C196.401 72.3437 196.692 71.9295 196.891 71.3991C197.09 70.8688 197.19 70.2509 197.19 69.5455C197.19 68.84 197.09 68.2268 196.891 67.706C196.697 67.1851 196.408 66.7803 196.025 66.4915C195.646 66.2027 195.18 66.0582 194.626 66.0582C194.053 66.0582 193.575 66.2074 193.191 66.5057C192.808 66.804 192.519 67.2159 192.325 67.7415C192.13 68.267 192.033 68.8684 192.033 69.5455C192.033 70.2273 192.13 70.8357 192.325 71.3707C192.523 71.901 192.815 72.3201 193.198 72.6278C193.586 72.9309 194.062 73.0824 194.626 73.0824Z" fill="#1B2C7E"/>
<path d="M121.64 35.8877C121.088 35.8877 120.591 35.9834 120.149 36.1748C119.712 36.3617 119.338 36.6351 119.028 36.9951C118.723 37.3506 118.488 37.7812 118.324 38.2871C118.16 38.793 118.078 39.3626 118.078 39.9961C118.078 40.8346 118.208 41.5638 118.468 42.1836C118.732 42.7988 119.124 43.2751 119.644 43.6123C120.168 43.9495 120.822 44.1182 121.605 44.1182C122.052 44.1182 122.471 44.0817 122.863 44.0088C123.26 43.9313 123.645 43.8356 124.019 43.7217V44.7334C123.654 44.8701 123.271 44.9704 122.87 45.0342C122.469 45.1025 121.993 45.1367 121.441 45.1367C120.425 45.1367 119.575 44.9271 118.892 44.5078C118.213 44.084 117.702 43.487 117.36 42.7168C117.023 41.9466 116.854 41.0374 116.854 39.9893C116.854 39.2327 116.959 38.5423 117.169 37.918C117.383 37.2891 117.693 36.7467 118.099 36.291C118.509 35.8353 119.01 35.4844 119.603 35.2383C120.2 34.9876 120.883 34.8623 121.653 34.8623C122.159 34.8623 122.647 34.9124 123.116 35.0127C123.586 35.113 124.009 35.2565 124.388 35.4434L123.923 36.4277C123.604 36.2819 123.253 36.1566 122.87 36.0518C122.492 35.9424 122.082 35.8877 121.64 35.8877ZM127.348 45H126.186V35.0059H131.75V36.0312H127.348V39.6953H131.483V40.7139H127.348V45ZM136.487 45H135.318V36.0312H132.174V35.0059H139.618V36.0312H136.487V45ZM143.829 35.0059C144.649 35.0059 145.326 35.1084 145.859 35.3135C146.397 35.514 146.798 35.8216 147.062 36.2363C147.327 36.651 147.459 37.1797 147.459 37.8223C147.459 38.3509 147.363 38.793 147.172 39.1484C146.98 39.4993 146.73 39.7842 146.42 40.0029C146.11 40.2217 145.78 40.3903 145.429 40.5088L148.17 45H146.816L144.369 40.8301H142.291V45H141.129V35.0059H143.829ZM143.761 36.0107H142.291V39.8457H143.877C144.693 39.8457 145.292 39.6794 145.675 39.3467C146.062 39.014 146.256 38.5241 146.256 37.877C146.256 37.1979 146.051 36.7171 145.641 36.4346C145.235 36.152 144.608 36.0107 143.761 36.0107Z" fill="#1B2C7E"/>
<mask id="mask0_171_97" style="mask-type:luminance" maskUnits="userSpaceOnUse" x="63" y="16" width="38" height="48">
<path fill-rule="evenodd" clip-rule="evenodd" d="M63.5366 16H100.69V63.4396H63.5366V16Z" fill="white"/>
</mask>
<g mask="url(#mask0_171_97)">
<path fill-rule="evenodd" clip-rule="evenodd" d="M69.9759 16.0064C73.2515 15.978 75.0558 17.5691 76.332 19.8816C76.9804 21.0559 77.519 22.3041 78.4754 23.2832C80.4941 25.3486 82.5196 25.6162 85.485 24.5903C87.4177 23.9208 89.3438 24.3652 90.3268 25.8449C91.4916 27.5964 91.0057 29.7555 89.1939 30.8795C87.5142 31.921 85.2254 31.3942 84.0798 29.6902C83.424 28.7147 82.6769 27.8101 81.6708 27.1534C79.8865 25.9897 77.9864 26.1587 76.076 26.8225C75.5515 27.005 75.067 27.294 74.5447 27.4842C73.3494 27.9173 72.8516 28.7168 72.9955 29.9309C73.161 31.3204 73.5141 32.6353 74.3807 33.7933C74.6389 34.1383 74.9512 34.2981 75.3912 34.3038C77.2505 34.3244 78.6356 35.1714 79.707 36.5765C80.3072 37.3617 80.9348 38.1293 81.7725 38.7029C83.789 40.0839 85.8723 39.9163 87.9764 38.9124C88.5722 38.627 89.1494 38.3032 89.7333 37.9958C91.7135 36.9521 93.7782 36.8541 95.8222 37.7025C97.6488 38.4594 98.8099 39.856 99.4628 41.6658C100.567 44.7244 98.6742 48.2233 95.7992 49.3742C95.15 49.6341 94.946 50.0423 94.9519 50.6827C94.969 52.4116 95.3763 54.0204 96.392 55.4688C96.7007 55.9105 97.0872 56.1753 97.6637 56.3024C99.718 56.7532 100.615 58.1008 100.688 59.8701C100.76 61.6231 99.0822 63.3086 97.2393 63.4301C95.8556 63.5202 94.676 62.9686 93.8628 61.8595C93.1506 60.8876 92.3574 60.0086 91.3061 59.3568C89.1234 58.0035 87.003 58.4274 84.8826 59.5158C83.9915 59.9731 83.188 60.573 82.2095 60.8925C80.3561 61.4989 78.7246 61.1119 77.292 59.9269C75.6894 58.6021 75.0959 56.8867 75.7124 54.9527C76.6035 52.1574 78.8805 50.9256 81.8659 51.5347C82.9373 51.7541 83.8113 52.3413 84.4686 53.2096C85.2335 54.2228 85.948 55.2715 86.8925 56.1582C88.8919 58.0348 90.9619 58.4288 93.5542 57.3667C95.1664 56.7064 95.1523 56.7064 95.1426 54.996C95.1345 53.4539 94.5246 52.1105 93.7085 50.8311C93.2982 50.1872 92.6438 50.021 91.893 49.8897C89.576 49.4807 88.0335 48.0976 86.9088 46.1586C85.8604 44.3481 84.5087 42.8074 82.159 42.5355C80.7011 42.3672 79.3731 42.7939 78.0925 43.4315C75.6946 44.6257 73.0927 44.1614 71.5043 42.2742C69.5805 39.9894 70.0508 36.9045 72.4205 35.2452C72.9792 34.8533 73.1766 34.4174 73.1825 33.7663C73.1944 32.396 72.8375 31.1471 72.1512 29.955C71.6927 29.1598 71.0858 28.7559 70.0968 28.7828C66.3168 28.8865 63.3224 25.5033 63.5487 22.0769C63.7801 18.5659 66.8814 15.8488 69.9759 16.0064" fill="url(#paint0_linear_171_97)"/>
</g>
<path fill-rule="evenodd" clip-rule="evenodd" d="M50.8773 57.7573C50.8121 56.01 50.2348 54.3635 49.2681 52.8243C48.7933 52.0667 48.1307 51.6393 47.2093 51.5378C45.9428 51.3993 44.9694 50.7766 44.2179 49.8075C43.5345 48.9257 42.8854 48.0133 42.1368 47.184C40.8748 45.7868 39.2982 44.9106 37.3002 45.0945C36.1005 45.2046 34.955 45.6064 33.9163 46.2028C31.695 47.4794 29.714 46.5898 28.7214 45.2969C27.3948 43.5687 28.0239 41.3422 29.5842 40.2885C31.3225 39.1142 33.5854 39.4649 34.8155 41.1356C35.4031 41.9336 36.0322 42.6826 36.8432 43.2883C38.7098 44.6848 40.6945 44.8212 42.8527 43.9521C44.0658 43.4629 45.0837 42.6521 46.3086 42.1942C48.495 41.377 50.8365 42.0799 52.3115 44.0231C53.5943 45.7151 53.6091 48.3868 51.9746 49.821C49.9974 51.5555 50.493 53.4796 50.9916 55.4754C51.157 56.1364 51.508 56.7605 51.8196 57.3803C52.2781 58.2934 52.9221 58.894 54.0936 59.0467C56.5679 59.3697 58.4227 61.5835 58.3826 63.962C58.3515 65.813 56.8824 67.8294 55.1263 68.4293C53.1053 69.1209 50.7965 68.5344 49.4402 66.998C48.8897 66.3739 48.4327 65.6816 47.8206 65.1009C45.741 63.1263 43.329 62.7749 40.7323 64.1019C40.1677 64.3894 39.5898 64.655 39.0385 64.9631C35.5567 66.9085 31.143 65.5368 29.5382 62.1565C28.0877 59.1014 29.2296 55.5187 32.4814 53.814C35.7956 52.0781 39.7789 53.2858 41.5863 56.5397C42.1427 57.5415 42.8297 58.4396 43.6866 59.2235C45.6557 61.029 48.3926 60.7351 50.3773 59.6509C51.1274 59.2412 50.7594 58.446 50.8773 57.7573" fill="#3B5DFF"/>
<path fill-rule="evenodd" clip-rule="evenodd" d="M40.7937 24.3107C41.9006 24.2382 42.9727 24.4761 44.0551 24.6358C45.8795 24.9049 47.5526 24.5379 49.0253 23.4466C50.0884 22.6578 50.5937 21.536 50.9654 20.3474C51.1791 19.6651 51.3475 18.975 51.7563 18.3566C52.5257 17.195 54.3144 16.4084 55.5423 16.7328C57.4631 17.2412 58.5182 18.4532 58.5872 20.1131C58.6317 21.1682 58.3965 22.0756 57.5729 22.8253C57.1508 23.2109 57.0046 23.749 56.9542 24.2915C56.7954 26.009 57.2272 27.5852 58.2362 29.0165C58.5649 29.4823 58.97 29.7968 59.5984 29.8387C61.773 29.9857 63.3978 31.2147 64.084 33.1949C64.6909 34.9464 64.07 36.9351 62.5045 38.2536C59.9478 40.4063 56.049 39.6949 54.5949 36.7363C53.577 34.6681 53.9546 32.2165 55.9608 30.8746C57.274 29.9977 57.2168 28.9505 57.0217 27.806C56.8963 27.0676 56.6181 26.3278 56.2516 25.6369C55.1981 23.6589 54.6246 23.7072 52.7134 23.9521C50.495 24.2361 48.8442 25.4048 48.1261 27.5156C47.7907 28.5032 47.514 29.5121 47.4806 30.5785C47.3968 33.2297 46.131 35.2113 43.633 36.4083C40.2061 38.052 35.9882 36.4168 34.5118 33.0365C33.1541 29.9267 34.6684 25.7484 38.6473 24.4761C39.3536 24.2503 40.0777 24.3447 40.7937 24.3107Z" fill="url(#paint1_linear_171_97)"/>
<path fill-rule="evenodd" clip-rule="evenodd" d="M87.677 78.7069C86.7355 78.7743 85.6612 78.5528 84.5832 78.3696C82.948 78.0927 81.427 78.4861 80.0589 79.2791C78.8518 79.9778 78.1796 81.1408 77.7901 82.4244C77.4325 83.6023 77.184 84.7909 75.9873 85.5598C75.2186 86.0532 74.4915 86.3209 73.5456 86.2279C72.3659 86.1122 71.4059 85.7721 70.7018 84.793C69.8234 83.5704 69.7039 81.6363 70.7997 80.5983C72.5581 78.9312 71.9979 77.1697 71.3465 75.3436C71.2694 75.1271 71.1351 74.9304 71.0446 74.7174C70.6336 73.7497 69.9235 73.2626 68.7988 73.1703C66.5582 72.9864 64.903 71.3925 64.4378 69.1098C64.0713 67.315 65.2249 65.0934 67.0219 64.1342C68.9546 63.1025 71.3109 63.3688 72.8972 64.7973C75.3477 67.0047 75.1333 70.4958 72.4008 72.4355C71.995 72.723 71.7546 73.0411 71.7316 73.4998C71.6455 75.208 72.0202 76.8048 73.0923 78.2028C73.5738 78.8311 74.2074 79.2124 75.0791 79.1364C78.1143 78.873 79.8912 77.7988 80.7393 74.9219C80.9997 74.0386 81.1607 73.1412 81.1881 72.2068C81.292 68.6853 84.4689 65.802 88.1451 65.9674C91.2471 66.1058 93.8512 68.0228 94.5509 71.2441C95.1555 74.0337 93.5478 77.0008 90.7975 78.2063C89.6431 78.7126 89.6431 78.7126 87.677 78.7069" fill="#3B5DFF"/>
<mask id="mask1_171_97" style="mask-type:luminance" maskUnits="userSpaceOnUse" x="37" y="71" width="29" height="16">
<path fill-rule="evenodd" clip-rule="evenodd" d="M37.7107 71.6227H65.1143V87H37.7107V71.6227Z" fill="white"/>
</mask>
<g mask="url(#mask1_171_97)">
<path fill-rule="evenodd" clip-rule="evenodd" d="M58.3842 86.9973C55.4366 87.0747 53.6441 85.4581 52.3495 83.1683C51.6899 82.0025 51.1817 80.7415 50.2194 79.7639C48.2808 77.7915 46.3488 77.3676 43.2238 78.4021C41.6903 78.9097 40.1938 78.9843 38.894 77.7808C37.6995 76.6732 37.4465 75.337 37.9681 73.9121C38.4414 72.6177 39.4586 71.8211 40.9343 71.6535C42.4634 71.4796 43.6371 72.0462 44.5244 73.2205C44.9154 73.7367 45.27 74.2869 45.7211 74.752C47.7837 76.8798 49.8625 77.1149 52.5587 76.2075C53.5187 75.8844 54.3927 75.3853 55.2815 74.9195C59.1106 72.9138 63.8477 75.1474 64.8976 78.9495C65.8673 82.4569 63.4694 86.0182 59.9831 86.8887C59.4563 87.0193 58.9214 86.9718 58.3842 86.9973" fill="url(#paint2_linear_171_97)"/>
</g>
<path fill-rule="evenodd" clip-rule="evenodd" d="M97.5264 32.2877C97.5264 32.9175 96.9929 33.4273 96.3356 33.4273C95.6775 33.4273 95.144 32.9175 95.144 32.2877C95.144 31.658 95.6775 31.1482 96.3356 31.1482C96.9929 31.1482 97.5264 31.658 97.5264 32.2877" fill="#3B5DFF"/>
<path fill-rule="evenodd" clip-rule="evenodd" d="M90.696 62.5904C90.696 63.2201 90.1626 63.7299 89.5052 63.7299C88.8472 63.7299 88.3145 63.2201 88.3145 62.5904C88.3145 61.9613 88.8472 61.4515 89.5052 61.4515C90.1626 61.4515 90.696 61.9613 90.696 62.5904" fill="#3B5DFF"/>
<path fill-rule="evenodd" clip-rule="evenodd" d="M100.691 52.4224C100.691 52.935 100.257 53.3503 99.7209 53.3503C99.186 53.3503 98.752 52.935 98.752 52.4224C98.752 51.9097 99.186 51.4944 99.7209 51.4944C100.257 51.4944 100.691 51.9097 100.691 52.4224" fill="url(#paint3_linear_171_97)"/>
<path fill-rule="evenodd" clip-rule="evenodd" d="M37.3938 49.8302C37.3938 50.3428 36.9598 50.7582 36.4241 50.7582C35.89 50.7582 35.4559 50.3428 35.4559 49.8302C35.4559 49.3176 35.89 48.9022 36.4241 48.9022C36.9598 48.9022 37.3938 49.3176 37.3938 49.8302" fill="url(#paint4_linear_171_97)"/>
<path fill-rule="evenodd" clip-rule="evenodd" d="M47.0779 20.9098C47.0779 21.4224 46.6439 21.8377 46.109 21.8377C45.574 21.8377 45.14 21.4224 45.14 20.9098C45.14 20.3972 45.574 19.9818 46.109 19.9818C46.6439 19.9818 47.0779 20.3972 47.0779 20.9098" fill="url(#paint5_linear_171_97)"/>
<path fill-rule="evenodd" clip-rule="evenodd" d="M50.8644 36.6741C50.8644 37.1867 50.4304 37.602 49.8947 37.602C49.3598 37.602 48.9258 37.1867 48.9258 36.6741C48.9258 36.1614 49.3598 35.7461 49.8947 35.7461C50.4304 35.7461 50.8644 36.1614 50.8644 36.6741" fill="#3B5DFF"/>
<defs>
<filter id="filter0_d_171_97" x="0" y="0" width="288" height="117" filterUnits="userSpaceOnUse" color-interpolation-filters="sRGB">
<feFlood flood-opacity="0" result="BackgroundImageFix"/>
<feColorMatrix in="SourceAlpha" type="matrix" values="0 0 0 0 0 0 0 0 0 0 0 0 0 0 0 0 0 0 127 0" result="hardAlpha"/>
<feOffset dy="4"/>
<feGaussianBlur stdDeviation="2"/>
<feComposite in2="hardAlpha" operator="out"/>
<feColorMatrix type="matrix" values="0 0 0 0 0.866667 0 0 0 0 0.866667 0 0 0 0 0.866667 0 0 0 0.25 0"/>
<feBlend mode="normal" in2="BackgroundImageFix" result="effect1_dropShadow_171_97"/>
<feBlend mode="normal" in="SourceGraphic" in2="effect1_dropShadow_171_97" result="shape"/>
</filter>
<linearGradient id="paint0_linear_171_97" x1="63.5366" y1="39.7327" x2="100.691" y2="39.7327" gradientUnits="userSpaceOnUse">
<stop stop-color="#5B77FC"/>
<stop offset="1" stop-color="#3B5DFF"/>
</linearGradient>
<linearGradient id="paint1_linear_171_97" x1="34.0249" y1="28.0869" x2="64.3135" y2="28.0869" gradientUnits="userSpaceOnUse">
<stop stop-color="#5B77FC"/>
<stop offset="1" stop-color="#3B5DFF"/>
</linearGradient>
<linearGradient id="paint2_linear_171_97" x1="37.7107" y1="79.3155" x2="65.1143" y2="79.3155" gradientUnits="userSpaceOnUse">
<stop stop-color="#5B77FC"/>
<stop offset="1" stop-color="#3B5DFF"/>
</linearGradient>
<linearGradient id="paint3_linear_171_97" x1="98.752" y1="52.4229" x2="100.691" y2="52.4229" gradientUnits="userSpaceOnUse">
<stop stop-color="#5B77FC"/>
<stop offset="1" stop-color="#3B5DFF"/>
</linearGradient>
<linearGradient id="paint4_linear_171_97" x1="35.4559" y1="49.8307" x2="37.3938" y2="49.8307" gradientUnits="userSpaceOnUse">
<stop stop-color="#5B77FC"/>
<stop offset="1" stop-color="#3B5DFF"/>
</linearGradient>
<linearGradient id="paint5_linear_171_97" x1="45.14" y1="20.9103" x2="47.0779" y2="20.9103" gradientUnits="userSpaceOnUse">
<stop stop-color="#5B77FC"/>
<stop offset="1" stop-color="#3B5DFF"/>
</linearGradient>
</defs>
</svg>
