<svg width="288" height="117" viewBox="0 0 288 117" fill="none" xmlns="http://www.w3.org/2000/svg">
<g filter="url(#filter0_d_171_87)">
<rect x="4" width="280" height="109" rx="6" fill="#FCFCFF"/>
<rect x="4.5" y="0.5" width="279" height="108" rx="5.5" stroke="#E3EDFF"/>
</g>
<path d="M127.432 58.7273C127.432 60.2945 127.138 61.6368 126.551 62.7543C125.969 63.867 125.173 64.7192 124.165 65.3111C123.161 65.9029 122.022 66.1989 120.749 66.1989C119.475 66.1989 118.334 65.9029 117.325 65.3111C116.321 64.7145 115.526 63.8598 114.939 62.7472C114.357 61.6297 114.065 60.2898 114.065 58.7273C114.065 57.16 114.357 55.8201 114.939 54.7074C115.526 53.59 116.321 52.7353 117.325 52.1435C118.334 51.5516 119.475 51.2557 120.749 51.2557C122.022 51.2557 123.161 51.5516 124.165 52.1435C125.173 52.7353 125.969 53.59 126.551 54.7074C127.138 55.8201 127.432 57.16 127.432 58.7273ZM124.783 58.7273C124.783 57.6241 124.61 56.6937 124.264 55.9361C123.923 55.1738 123.45 54.5985 122.844 54.2102C122.238 53.8172 121.539 53.6207 120.749 53.6207C119.958 53.6207 119.259 53.8172 118.653 54.2102C118.047 54.5985 117.571 55.1738 117.226 55.9361C116.885 56.6937 116.714 57.6241 116.714 58.7273C116.714 59.8305 116.885 60.7633 117.226 61.5256C117.571 62.2831 118.047 62.8584 118.653 63.2514C119.259 63.6397 119.958 63.8338 120.749 63.8338C121.539 63.8338 122.238 63.6397 122.844 63.2514C123.45 62.8584 123.923 62.2831 124.264 61.5256C124.61 60.7633 124.783 59.8305 124.783 58.7273ZM129.809 66V55.0909H132.302V56.9091H132.416C132.615 56.2794 132.956 55.794 133.439 55.4531C133.926 55.1075 134.483 54.9347 135.108 54.9347C135.25 54.9347 135.408 54.9418 135.583 54.956C135.763 54.9654 135.913 54.982 136.031 55.0057V57.3707C135.922 57.3329 135.749 57.2997 135.512 57.2713C135.28 57.2382 135.056 57.2216 134.838 57.2216C134.369 57.2216 133.948 57.3234 133.574 57.527C133.204 57.7259 132.913 58.0028 132.7 58.358C132.487 58.7131 132.38 59.1226 132.38 59.5866V66H129.809ZM142.048 66.2131C140.959 66.2131 140.024 65.974 139.243 65.4957C138.466 65.0175 137.867 64.357 137.446 63.5142C137.029 62.6667 136.821 61.6913 136.821 60.5881C136.821 59.4801 137.034 58.5024 137.46 57.6548C137.886 56.8026 138.488 56.1397 139.264 55.6662C140.045 55.188 140.969 54.9489 142.034 54.9489C142.92 54.9489 143.703 55.1122 144.385 55.4389C145.071 55.7609 145.618 56.2178 146.026 56.8097C146.433 57.3968 146.665 58.0833 146.722 58.8693H144.264C144.165 58.3437 143.928 57.9058 143.554 57.5554C143.185 57.2003 142.69 57.0227 142.07 57.0227C141.544 57.0227 141.082 57.1648 140.685 57.4489C140.287 57.7282 139.977 58.1307 139.754 58.6562C139.536 59.1818 139.428 59.8116 139.428 60.5455C139.428 61.2888 139.536 61.928 139.754 62.4631C139.972 62.9934 140.277 63.4029 140.67 63.6918C141.068 63.9759 141.535 64.1179 142.07 64.1179C142.448 64.1179 142.787 64.0469 143.085 63.9048C143.388 63.758 143.642 63.5473 143.845 63.2727C144.049 62.9981 144.188 62.6643 144.264 62.2713H146.722C146.66 63.0431 146.433 63.7273 146.04 64.3239C145.647 64.9157 145.112 65.3797 144.435 65.7159C143.758 66.0473 142.962 66.2131 142.048 66.2131ZM151.404 59.608V66H148.833V51.4545H151.347V56.9446H151.475C151.73 56.3291 152.126 55.8437 152.661 55.4886C153.201 55.1288 153.887 54.9489 154.721 54.9489C155.478 54.9489 156.139 55.1075 156.702 55.4247C157.266 55.742 157.701 56.206 158.009 56.8168C158.321 57.4276 158.478 58.1733 158.478 59.054V66H155.907V59.4517C155.907 58.7178 155.717 58.1473 155.338 57.7401C154.964 57.3281 154.439 57.1222 153.762 57.1222C153.307 57.1222 152.9 57.2216 152.54 57.4205C152.185 57.6146 151.906 57.8963 151.702 58.2656C151.503 58.6349 151.404 59.0824 151.404 59.608ZM165.928 66.2131C164.834 66.2131 163.89 65.9858 163.094 65.5312C162.303 65.072 161.695 64.4233 161.269 63.5852C160.843 62.7424 160.63 61.7505 160.63 60.6094C160.63 59.4872 160.843 58.5024 161.269 57.6548C161.7 56.8026 162.301 56.1397 163.073 55.6662C163.845 55.188 164.751 54.9489 165.793 54.9489C166.465 54.9489 167.1 55.0578 167.696 55.2756C168.298 55.4886 168.828 55.8201 169.287 56.2699C169.751 56.7197 170.116 57.2926 170.381 57.9886C170.646 58.6799 170.779 59.5038 170.779 60.4602V61.2486H161.837V59.5156H168.314C168.31 59.0232 168.203 58.5852 167.995 58.2017C167.786 57.8134 167.495 57.508 167.121 57.2855C166.752 57.063 166.321 56.9517 165.828 56.9517C165.303 56.9517 164.841 57.0795 164.444 57.3352C164.046 57.5862 163.736 57.9176 163.513 58.3295C163.295 58.7367 163.184 59.1842 163.179 59.6719V61.1847C163.179 61.8191 163.295 62.3636 163.527 62.8182C163.759 63.268 164.084 63.6136 164.5 63.8551C164.917 64.0919 165.405 64.2102 165.963 64.2102C166.337 64.2102 166.676 64.1581 166.979 64.054C167.282 63.9451 167.545 63.7865 167.767 63.5781C167.99 63.3698 168.158 63.1117 168.272 62.804L170.672 63.0739C170.521 63.7083 170.232 64.2623 169.806 64.7358C169.384 65.2045 168.845 65.5691 168.186 65.8295C167.528 66.0852 166.775 66.2131 165.928 66.2131ZM181.576 57.9744L179.232 58.2301C179.166 57.9934 179.05 57.7708 178.884 57.5625C178.723 57.3542 178.505 57.1861 178.231 57.0582C177.956 56.9304 177.62 56.8665 177.222 56.8665C176.687 56.8665 176.237 56.9825 175.873 57.2145C175.513 57.4465 175.335 57.7472 175.34 58.1165C175.335 58.4337 175.451 58.6918 175.688 58.8906C175.93 59.0895 176.327 59.2528 176.881 59.3807L178.742 59.7784C179.774 60.0009 180.541 60.3537 181.043 60.8366C181.55 61.3196 181.806 61.9517 181.81 62.733C181.806 63.4195 181.604 64.0256 181.207 64.5511C180.814 65.072 180.267 65.4792 179.566 65.7727C178.865 66.0663 178.06 66.2131 177.151 66.2131C175.816 66.2131 174.741 65.9337 173.927 65.375C173.112 64.8116 172.627 64.0279 172.471 63.0241L174.978 62.7827C175.092 63.2751 175.333 63.6468 175.702 63.8977C176.072 64.1487 176.552 64.2741 177.144 64.2741C177.755 64.2741 178.245 64.1487 178.614 63.8977C178.988 63.6468 179.175 63.3366 179.175 62.9673C179.175 62.6548 179.055 62.3968 178.813 62.1932C178.576 61.9896 178.207 61.8333 177.705 61.7244L175.844 61.3338C174.798 61.116 174.024 60.7491 173.522 60.233C173.02 59.7121 172.772 59.054 172.776 58.2585C172.772 57.5862 172.954 57.0038 173.323 56.5114C173.697 56.0142 174.216 55.6307 174.879 55.3608C175.546 55.0862 176.316 54.9489 177.187 54.9489C178.465 54.9489 179.471 55.2211 180.205 55.7656C180.944 56.3101 181.401 57.0464 181.576 57.9744ZM189.378 55.0909V57.0795H183.107V55.0909H189.378ZM184.655 52.4773H187.226V62.7188C187.226 63.0644 187.278 63.3295 187.382 63.5142C187.491 63.6941 187.633 63.8172 187.808 63.8835C187.983 63.9498 188.178 63.983 188.391 63.983C188.552 63.983 188.698 63.9711 188.831 63.9474C188.968 63.9238 189.072 63.9025 189.143 63.8835L189.577 65.8935C189.439 65.9408 189.243 65.9929 188.987 66.0497C188.736 66.1065 188.429 66.1397 188.064 66.1491C187.42 66.1681 186.84 66.071 186.324 65.858C185.808 65.6402 185.398 65.304 185.095 64.8494C184.797 64.3949 184.65 63.8267 184.655 63.1449V52.4773ZM191.528 66V55.0909H194.021V56.9091H194.135C194.333 56.2794 194.674 55.794 195.157 55.4531C195.645 55.1075 196.201 54.9347 196.826 54.9347C196.968 54.9347 197.127 54.9418 197.302 54.956C197.482 54.9654 197.631 54.982 197.75 55.0057V57.3707C197.641 57.3329 197.468 57.2997 197.231 57.2713C196.999 57.2382 196.774 57.2216 196.556 57.2216C196.088 57.2216 195.666 57.3234 195.292 57.527C194.923 57.7259 194.632 58.0028 194.419 58.358C194.206 58.7131 194.099 59.1226 194.099 59.5866V66H191.528ZM202.402 66.2202C201.71 66.2202 201.088 66.0971 200.534 65.8509C199.984 65.5999 199.549 65.2306 199.227 64.7429C198.91 64.2552 198.751 63.6539 198.751 62.9389C198.751 62.3234 198.865 61.8144 199.092 61.4119C199.319 61.0095 199.629 60.6875 200.022 60.446C200.415 60.2045 200.858 60.0223 201.35 59.8991C201.848 59.7713 202.361 59.679 202.892 59.6222C203.531 59.5559 204.049 59.4967 204.447 59.4446C204.845 59.3878 205.134 59.3026 205.314 59.1889C205.498 59.0705 205.591 58.8883 205.591 58.642V58.5994C205.591 58.0644 205.432 57.6501 205.115 57.3565C204.797 57.063 204.341 56.9162 203.744 56.9162C203.114 56.9162 202.615 57.0535 202.245 57.3281C201.881 57.6027 201.635 57.9271 201.507 58.3011L199.106 57.9602C199.296 57.2973 199.608 56.7434 200.044 56.2983C200.479 55.8485 201.012 55.5123 201.642 55.2898C202.271 55.0625 202.967 54.9489 203.73 54.9489C204.255 54.9489 204.779 55.0104 205.299 55.1335C205.82 55.2566 206.296 55.4602 206.727 55.7443C207.158 56.0237 207.503 56.4048 207.764 56.8878C208.029 57.3707 208.162 57.9744 208.162 58.6989V66H205.69V64.5014H205.605C205.449 64.8045 205.228 65.0885 204.944 65.3537C204.665 65.6141 204.312 65.8248 203.886 65.9858C203.465 66.142 202.97 66.2202 202.402 66.2202ZM203.069 64.331C203.585 64.331 204.033 64.2292 204.412 64.0256C204.79 63.8172 205.082 63.5426 205.285 63.2017C205.493 62.8608 205.598 62.4891 205.598 62.0866V60.8011C205.517 60.8674 205.38 60.929 205.186 60.9858C204.996 61.0426 204.783 61.0923 204.547 61.1349C204.31 61.1776 204.075 61.2154 203.843 61.2486C203.611 61.2817 203.41 61.3101 203.24 61.3338C202.856 61.3859 202.513 61.4711 202.21 61.5895C201.907 61.7079 201.668 61.8736 201.493 62.0866C201.317 62.295 201.23 62.5649 201.23 62.8963C201.23 63.3698 201.403 63.7273 201.748 63.9688C202.094 64.2102 202.534 64.331 203.069 64.331ZM216.194 55.0909V57.0795H209.923V55.0909H216.194ZM211.471 52.4773H214.042V62.7188C214.042 63.0644 214.094 63.3295 214.199 63.5142C214.307 63.6941 214.449 63.8172 214.625 63.8835C214.8 63.9498 214.994 63.983 215.207 63.983C215.368 63.983 215.515 63.9711 215.647 63.9474C215.785 63.9238 215.889 63.9025 215.96 63.8835L216.393 65.8935C216.256 65.9408 216.059 65.9929 215.804 66.0497C215.553 66.1065 215.245 66.1397 214.88 66.1491C214.236 66.1681 213.656 66.071 213.14 65.858C212.624 65.6402 212.215 65.304 211.912 64.8494C211.613 64.3949 211.467 63.8267 211.471 63.1449V52.4773ZM223.057 66.2131C221.963 66.2131 221.018 65.9858 220.223 65.5312C219.432 65.072 218.824 64.4233 218.398 63.5852C217.972 62.7424 217.759 61.7505 217.759 60.6094C217.759 59.4872 217.972 58.5024 218.398 57.6548C218.829 56.8026 219.43 56.1397 220.202 55.6662C220.973 55.188 221.88 54.9489 222.922 54.9489C223.594 54.9489 224.229 55.0578 224.825 55.2756C225.427 55.4886 225.957 55.8201 226.416 56.2699C226.88 56.7197 227.245 57.2926 227.51 57.9886C227.775 58.6799 227.908 59.5038 227.908 60.4602V61.2486H218.966V59.5156H225.443C225.438 59.0232 225.332 58.5852 225.124 58.2017C224.915 57.8134 224.624 57.508 224.25 57.2855C223.881 57.063 223.45 56.9517 222.957 56.9517C222.432 56.9517 221.97 57.0795 221.572 57.3352C221.175 57.5862 220.865 57.9176 220.642 58.3295C220.424 58.7367 220.313 59.1842 220.308 59.6719V61.1847C220.308 61.8191 220.424 62.3636 220.656 62.8182C220.888 63.268 221.213 63.6136 221.629 63.8551C222.046 64.0919 222.534 64.2102 223.092 64.2102C223.466 64.2102 223.805 64.1581 224.108 64.054C224.411 63.9451 224.674 63.7865 224.896 63.5781C225.119 63.3698 225.287 63.1117 225.401 62.804L227.801 63.0739C227.65 63.7083 227.361 64.2623 226.935 64.7358C226.513 65.2045 225.973 65.5691 225.315 65.8295C224.657 66.0852 223.904 66.2131 223.057 66.2131Z" fill="#1B2C7E"/>
<path fill-rule="evenodd" clip-rule="evenodd" d="M31.5595 65.9445C30.8762 65.9191 30.2122 65.7022 29.6422 65.3167C29.0346 64.9057 28.5609 64.3215 28.2813 63.638C28.0016 62.9545 27.9284 62.2023 28.071 61.4767C28.2136 60.7511 28.5655 60.0847 29.0823 59.5615C29.599 59.0384 30.2575 58.6821 30.9742 58.5378C31.691 58.3935 32.434 58.4676 33.1092 58.7507C33.7844 59.0338 34.3615 59.5132 34.7675 60.1284C35.1735 60.7435 35.3902 61.4667 35.3902 62.2065C35.3902 63.1985 35.0009 64.15 34.3079 64.8515C34.1087 65.0532 33.889 65.2295 33.6538 65.3783C33.6822 65.4287 33.7068 65.4813 33.7273 65.5356C36.025 72.1275 40.3398 77.8057 46.0443 81.7448C48.3265 83.3188 50.8723 84.4595 53.5577 85.1112C53.8291 85.1688 54.0702 85.3251 54.2354 85.5505C54.4006 85.7759 54.4784 86.0548 54.4541 86.3344C54.4299 86.614 54.3052 86.875 54.1036 87.0678C53.9021 87.2605 53.6378 87.3718 53.3606 87.3805L53.373 87.2932H53.1759C52.5723 87.1935 38.494 84.4629 31.6334 66.3461C31.5849 66.2178 31.5599 66.0817 31.5595 65.9445ZM30.9013 61.0164C31.1363 60.8575 31.4125 60.7726 31.6951 60.7726C32.074 60.7726 32.4375 60.925 32.7054 61.1962C32.9734 61.4675 33.1239 61.8354 33.1239 62.219C33.1239 62.505 33.0401 62.7847 32.8831 63.0225C32.7261 63.2604 32.503 63.4458 32.2419 63.5552C31.9808 63.6647 31.6935 63.6933 31.4164 63.6375C31.1392 63.5817 30.8846 63.444 30.6848 63.2417C30.485 63.0394 30.3489 62.7817 30.2938 62.5011C30.2387 62.2206 30.267 61.9298 30.3751 61.6655C30.4832 61.4012 30.6664 61.1753 30.9013 61.0164ZM93.4022 65.9457C94.3469 65.9206 95.2477 65.5297 95.9177 64.8515C96.6107 64.15 97 63.1985 97 62.2065C97 61.4667 96.7833 60.7435 96.3773 60.1284C95.9712 59.5132 95.3941 59.0338 94.719 58.7507C94.0438 58.4676 93.3008 58.3935 92.584 58.5378C91.8672 58.6821 91.2088 59.0384 90.6921 59.5615C90.1753 60.0847 89.8234 60.7511 89.6808 61.4767C89.5382 62.2023 89.6114 62.9545 89.8911 63.638C90.1412 64.2493 90.5465 64.7812 91.064 65.1808C91.0143 65.3056 90.9848 65.438 90.9769 65.573C87.5158 79.7872 71.6638 84.9741 71.5036 84.9741C71.1996 85.0745 70.9461 85.2907 70.7967 85.5769C70.6473 85.8631 70.6137 86.1969 70.7031 86.5077C70.7808 86.758 70.9345 86.9771 71.1424 87.1338C71.3503 87.2905 71.6017 87.3769 71.8608 87.3805C71.9805 87.3899 72.1008 87.3815 72.218 87.3556C72.2343 87.3499 72.259 87.3414 72.2919 87.3301C73.6807 86.8526 89.5875 81.3841 93.3294 66.1591C93.3601 66.0901 93.3844 66.0187 93.4022 65.9457ZM93.3049 60.7726C93.0223 60.7726 92.7461 60.8575 92.5111 61.0164C92.2762 61.1753 92.093 61.4012 91.9849 61.6655C91.8768 61.9298 91.8484 62.2206 91.9036 62.5011C91.9587 62.7817 92.0948 63.0394 92.2946 63.2417C92.4944 63.444 92.749 63.5817 93.0262 63.6375C93.3033 63.6933 93.5906 63.6647 93.8517 63.5552C94.1127 63.4458 94.3359 63.2604 94.4929 63.0225C94.6499 62.7847 94.7337 62.505 94.7337 62.219C94.7337 61.8354 94.5831 61.4675 94.3152 61.1962C94.0472 60.925 93.6838 60.7726 93.3049 60.7726Z" fill="#3B5DFF"/>
<path fill-rule="evenodd" clip-rule="evenodd" d="M32.9301 40.0749C32.9136 39.8458 32.9598 39.6147 33.0662 39.408C37.1766 31.7563 44.0894 26.0434 52.3177 23.4981C52.6077 23.4736 52.8968 23.5538 53.1339 23.7246C53.3711 23.8953 53.5408 24.1455 53.6131 24.4308C53.6854 24.7161 53.6556 25.0181 53.529 25.2833C53.4023 25.5485 53.187 25.7597 52.9213 25.8795C45.3712 28.3007 39.027 33.5626 35.1971 40.58C35.16 40.6467 35.1172 40.7095 35.0692 40.7678C35.4329 41.0298 35.7486 41.3577 35.9992 41.7373C36.4052 42.3525 36.6219 43.0756 36.6219 43.8154C36.6219 44.8075 36.2326 45.759 35.5396 46.4604C34.8467 47.1619 33.9068 47.556 32.9268 47.556C32.196 47.556 31.4816 47.3367 30.8739 46.9257C30.2662 46.5146 29.7926 45.9304 29.513 45.2469C29.2333 44.5634 29.1601 43.8113 29.3027 43.0857C29.4453 42.3601 29.7972 41.6936 30.314 41.1705C30.8307 40.6474 31.4891 40.2911 32.2059 40.1468C32.4455 40.0985 32.6881 40.0747 32.9301 40.0749ZM88.7329 41.1342C88.6818 41.0686 88.637 40.9976 88.5995 40.9223C86.8393 37.4428 84.3882 34.3689 81.3997 31.8929C78.4113 29.417 74.9499 27.5924 71.2325 26.5336C71.0515 26.5283 70.8739 26.4827 70.7123 26.3999C70.5508 26.3172 70.4092 26.1993 70.2977 26.0549C70.1862 25.9104 70.1076 25.7429 70.0674 25.5642C70.0272 25.3854 70.0264 25.2 70.0651 25.0209C70.1038 24.8418 70.181 24.6735 70.2913 24.5281C70.4015 24.3827 70.5421 24.2637 70.703 24.1796C70.8638 24.0954 71.0411 24.0483 71.222 24.0414C71.403 24.0345 71.5832 24.068 71.7498 24.1397C75.8385 25.2603 79.6467 27.2438 82.9243 29.9601C86.2019 32.6763 88.8748 36.0637 90.7673 39.8999C90.7985 39.9663 90.8235 40.0349 90.8425 40.1049C91.4792 40.0228 92.1277 40.1098 92.7234 40.3596C93.3986 40.6428 93.9757 41.1222 94.3818 41.7373C94.7878 42.3525 95.0045 43.0756 95.0045 43.8154C95.0045 44.8075 94.6152 45.759 93.9222 46.4604C93.2292 47.1619 92.2894 47.556 91.3094 47.556C90.5786 47.556 89.8641 47.3367 89.2565 46.9257C88.6488 46.5146 88.1752 45.9304 87.8955 45.2469C87.6159 44.5634 87.5427 43.8113 87.6853 43.0857C87.8278 42.3601 88.1798 41.6936 88.6965 41.1705L88.7329 41.1342ZM90.5042 42.6222C90.743 42.4629 91.0233 42.3791 91.3094 42.3816C91.6883 42.3816 92.0517 42.5339 92.3197 42.8052C92.5876 43.0764 92.7382 43.4443 92.7382 43.8279C92.7406 44.1175 92.6578 44.4012 92.5004 44.643C92.343 44.8849 92.1181 45.0738 91.8543 45.1857C91.5904 45.2977 91.2997 45.3276 91.019 45.2717C90.7383 45.2158 90.4804 45.0767 90.2781 44.8719C90.0758 44.6671 89.9383 44.406 89.8831 44.1219C89.8279 43.8378 89.8575 43.5434 89.9681 43.2763C90.0787 43.0093 90.2653 42.7816 90.5042 42.6222ZM32.9268 42.3816C32.6407 42.3791 32.3604 42.4629 32.1216 42.6222C31.8827 42.7816 31.6961 43.0093 31.5855 43.2763C31.4749 43.5434 31.4453 43.8378 31.5005 44.1219C31.5557 44.406 31.6932 44.6671 31.8955 44.8719C32.0978 45.0767 32.3557 45.2158 32.6364 45.2717C32.9171 45.3276 33.2078 45.2977 33.4717 45.1857C33.7355 45.0738 33.9604 44.8849 34.1178 44.643C34.2753 44.4012 34.358 44.1175 34.3556 43.8279C34.3524 43.4453 34.2008 43.0793 33.9335 42.8088C33.6663 42.5382 33.3047 42.3849 32.9268 42.3816Z" fill="#3B5DFF"/>
<path fill-rule="evenodd" clip-rule="evenodd" d="M56.2175 44.3263C56.4352 44.533 56.7197 44.6526 57.0181 44.6629C57.1322 44.6565 57.2446 44.6312 57.3507 44.5881C59.5706 43.8198 61.9401 43.6018 64.2605 43.9522C64.3068 43.963 64.3536 43.9708 64.4007 43.9755C64.3731 44.5274 64.4666 45.081 64.6772 45.5957C64.9569 46.2792 65.4305 46.8634 66.0382 47.2744C66.6458 47.6855 67.3603 47.9049 68.0911 47.9049C69.0711 47.9049 70.0109 47.5107 70.7039 46.8092C71.3969 46.1077 71.7862 45.1564 71.7862 44.1643C71.7862 43.4245 71.5695 42.7012 71.1635 42.0861C70.7574 41.471 70.1803 40.9915 69.5051 40.7084C68.8299 40.4253 68.087 40.3512 67.3702 40.4956C66.6534 40.6399 65.995 40.9962 65.4782 41.5193C65.3592 41.6398 65.249 41.7678 65.148 41.9025C65.0321 41.8223 64.9024 41.7647 64.7655 41.7328C62.2655 41.2961 59.6987 41.4671 57.2768 42.2316L36.695 21.3342C36.5909 21.2283 36.4671 21.1442 36.3307 21.0868C36.1944 21.0295 36.0482 21 35.9006 21C35.7529 21 35.6067 21.0295 35.4704 21.0868C35.3341 21.1442 35.2103 21.2283 35.1061 21.3342C34.8977 21.5488 34.781 21.8375 34.781 22.1384C34.781 22.4393 34.8977 22.7281 35.1061 22.9427L56.2175 44.3263ZM73.417 58.0185C73.4446 57.8478 73.5101 57.6851 73.6091 57.5429C74.8408 55.8971 73.6091 52.2064 73.1411 51.0344C73.0529 50.8266 73.0281 50.5969 73.0698 50.3747C73.1115 50.1526 73.2178 49.9481 73.3751 49.7875L94.117 28.6658C94.3277 28.4525 94.6134 28.3326 94.9114 28.3326C95.2094 28.3326 95.4952 28.4525 95.7059 28.6658C95.9165 28.8791 96.0349 29.1683 96.0349 29.4699C96.0349 29.7716 95.9165 30.0609 95.7059 30.2742L75.4813 50.8723C76.0654 52.4772 77.1225 56.1959 75.5822 58.6603C75.9759 58.9301 76.3164 59.2757 76.5831 59.6798C76.9891 60.2949 77.2059 61.0181 77.2059 61.7579C77.2059 62.75 76.8166 63.7014 76.1236 64.4029C75.4306 65.1044 74.4907 65.4985 73.5107 65.4985C72.7799 65.4985 72.0655 65.2791 71.4579 64.868C70.8502 64.457 70.3766 63.8729 70.0969 63.1894C69.8172 62.5059 69.7441 61.7538 69.8866 61.0282C70.0292 60.3026 70.3812 59.636 70.8979 59.1129C71.4147 58.5898 72.0731 58.2335 72.7899 58.0892C72.9975 58.0474 73.2073 58.0239 73.417 58.0185ZM72.7055 60.5647C72.9444 60.4053 73.2247 60.3215 73.5107 60.324C73.8897 60.324 74.2531 60.4764 74.5211 60.7476C74.789 61.0189 74.9395 61.3868 74.9395 61.7704C74.942 62.06 74.8592 62.3437 74.7018 62.5855C74.5444 62.8273 74.3195 63.0162 74.0556 63.1282C73.7918 63.2401 73.501 63.2701 73.2204 63.2142C72.9397 63.1583 72.6818 63.0191 72.4795 62.8143C72.2772 62.6096 72.1397 62.3485 72.0845 62.0644C72.0293 61.7802 72.0589 61.4859 72.1695 61.2188C72.2801 60.9517 72.4667 60.724 72.7055 60.5647ZM50.4856 53.3468C50.5608 53.3514 50.6363 53.3538 50.7119 53.3538C51.6919 53.3538 52.6318 52.9597 53.3248 52.2582C54.0177 51.5567 54.407 50.6053 54.407 49.6132C54.407 48.8734 54.1903 48.1502 53.7843 47.535C53.3783 46.9199 52.8012 46.4405 52.126 46.1573C51.4508 45.8742 50.7078 45.8002 49.991 45.9445C49.2743 46.0888 48.6159 46.4451 48.0991 46.9682C47.5823 47.4913 47.2304 48.1579 47.0878 48.8835C46.9452 49.6091 47.0184 50.3611 47.2981 51.0446C47.5442 51.646 47.9404 52.1705 48.446 52.5679C48.4355 52.5831 48.4255 52.5986 48.4157 52.6143C48.3376 52.741 48.2849 52.8821 48.2607 53.0295C47.9053 55.6108 48.0814 58.2385 48.778 60.7476L28.3194 81.3332C28.166 81.4934 28.0621 81.6955 28.0204 81.9146C27.9788 82.1337 28.0011 82.3604 28.0848 82.5669C28.1685 82.7733 28.3098 82.9505 28.4915 83.0769C28.6732 83.2033 28.8873 83.2733 29.1077 83.2783C29.4058 83.2786 29.6926 83.1625 29.9083 82.9541L50.8472 61.8822C50.9944 61.7309 51.0966 61.5408 51.1423 61.3336C51.188 61.1264 51.1754 60.9104 51.1059 60.7101C50.3713 58.3504 50.1569 55.8563 50.4777 53.4036C50.4808 53.3847 50.4835 53.3657 50.4856 53.3468ZM50.7119 48.1793C50.4293 48.1793 50.1531 48.2641 49.9181 48.4231C49.6832 48.582 49.5 48.8079 49.3919 49.0722C49.2838 49.3365 49.2555 49.6272 49.3106 49.9078C49.3657 50.1884 49.5018 50.4462 49.7016 50.6484C49.9014 50.8507 50.156 50.9884 50.4332 51.0442C50.7103 51.1 50.9976 51.0714 51.2587 50.9619C51.5198 50.8524 51.7429 50.6671 51.8999 50.4293C52.0569 50.1914 52.1407 49.9118 52.1407 49.6257C52.1407 49.2421 51.9902 48.8742 51.7222 48.603C51.4543 48.3317 51.0909 48.1793 50.7119 48.1793ZM56.119 70.9717C55.3881 70.9717 54.6737 70.7523 54.0661 70.3413C53.4584 69.9303 52.9848 69.3461 52.7051 68.6626C52.4255 67.9791 52.3523 67.227 52.4949 66.5014C52.6374 65.7758 52.9894 65.1093 53.5061 64.5862C54.0229 64.063 54.6813 63.7068 55.3981 63.5624C56.1149 63.4181 56.8578 63.4922 57.533 63.7753C58.2082 64.0584 58.7853 64.5378 59.1913 65.153C59.5974 65.7681 59.8141 66.4913 59.8141 67.2312C59.8141 67.2581 59.8138 67.285 59.8132 67.3118C59.8881 67.3188 59.9627 67.3335 60.0358 67.3559C62.353 67.9043 64.7802 67.726 66.9949 66.8447C67.2013 66.757 67.429 66.7338 67.6485 66.7783C67.868 66.8227 68.0694 66.9328 68.2266 67.0941L88.8083 88.0662C88.913 88.1716 88.996 88.2969 89.0527 88.435C89.1093 88.573 89.1385 88.721 89.1385 88.8704C89.1385 89.0199 89.1093 89.1679 89.0527 89.3059C88.996 89.4439 88.913 89.5692 88.8083 89.6747C88.7006 89.7838 88.5716 89.869 88.4295 89.9248C88.2874 89.9806 88.1353 90.0059 87.9831 89.9989C87.6849 89.9992 87.3982 89.883 87.1825 89.6747L67.1304 69.2137C64.6342 70.0835 61.9415 70.1962 59.383 69.5379C59.2889 69.5091 59.1999 69.4682 59.1177 69.4168C59.0022 69.5791 58.8733 69.7328 58.7318 69.8761C58.0388 70.5776 57.099 70.9717 56.119 70.9717ZM56.119 65.7972C55.8329 65.7948 55.5526 65.8785 55.3137 66.0379C55.0749 66.1972 54.8883 66.425 54.7777 66.6921C54.6671 66.9591 54.6375 67.2534 54.6927 67.5376C54.7479 67.8217 54.8854 68.0828 55.0877 68.2875C55.29 68.4923 55.5479 68.6316 55.8286 68.6875C56.1092 68.7433 56.4 68.7133 56.6638 68.6014C56.9277 68.4894 57.1526 68.3006 57.31 68.0588C57.4674 67.817 57.5502 67.5332 57.5477 67.2436C57.5445 66.8611 57.393 66.495 57.1257 66.2245C56.8585 65.9539 56.4969 65.8005 56.119 65.7972ZM68.0911 42.7304C67.8085 42.7304 67.5323 42.8152 67.2973 42.9741C67.0623 43.1331 66.8792 43.359 66.7711 43.6233C66.6629 43.8876 66.6346 44.1783 66.6898 44.4589C66.7449 44.7395 66.881 44.9972 67.0808 45.1994C67.2806 45.4017 67.5352 45.5395 67.8123 45.5953C68.0895 45.6511 68.3768 45.6225 68.6378 45.513C68.8989 45.4035 69.1221 45.2181 69.2791 44.9803C69.4361 44.7424 69.5199 44.4628 69.5199 44.1768C69.5166 43.7954 69.3646 43.4307 69.097 43.1621C68.8294 42.8936 68.4679 42.7429 68.0911 42.7429V42.7304Z" fill="#3B5DFF"/>
<path d="M62.9065 62.3683C61.6056 62.3683 60.334 61.9778 59.2524 61.2462C58.1707 60.5146 57.3277 59.4747 56.8299 58.2581C56.3321 57.0415 56.2018 55.7027 56.4556 54.4111C56.7094 53.1196 57.3358 51.9332 58.2557 51.002C59.1755 50.0708 60.3475 49.4367 61.6234 49.1798C62.8992 48.9229 64.2217 49.0548 65.4235 49.5587C66.6254 50.0627 67.6526 50.916 68.3753 52.011C69.0981 53.1059 69.4838 54.3933 69.4838 55.7101C69.4838 56.5845 69.3137 57.4503 68.9831 58.2581C68.6526 59.0659 68.1681 59.7999 67.5574 60.4182C66.9466 61.0365 66.2215 61.5269 65.4235 61.8615C64.6255 62.1961 63.7703 62.3683 62.9065 62.3683V62.3683ZM62.9065 52.5556C62.2902 52.5556 61.6877 52.7406 61.1752 53.0872C60.6628 53.4338 60.2634 53.9265 60.0275 54.5029C59.7917 55.0793 59.7299 55.7136 59.8502 56.3255C59.9704 56.9374 60.2672 57.4995 60.703 57.9407C61.1388 58.3819 61.6941 58.6823 62.2986 58.8041C62.9031 58.9258 63.5296 58.8633 64.099 58.6245C64.6684 58.3858 65.1551 57.9815 65.4976 57.4627C65.84 56.9439 66.0227 56.334 66.0227 55.7101C66.0227 54.8735 65.6944 54.0711 65.11 53.4795C64.5256 52.8879 63.733 52.5556 62.9065 52.5556Z" fill="#3B5DFF"/>
<path fill-rule="evenodd" clip-rule="evenodd" d="M62.4877 76.4851C73.7118 76.4851 82.8108 67.2742 82.8108 55.912C82.8108 44.5497 73.7118 35.3388 62.4877 35.3388C51.2635 35.3388 42.1646 44.5497 42.1646 55.912C42.1646 67.2742 51.2635 76.4851 62.4877 76.4851ZM62.4877 79.6022C75.4124 79.6022 85.89 68.9957 85.89 55.912C85.89 42.8282 75.4124 32.2217 62.4877 32.2217C49.5629 32.2217 39.0853 42.8282 39.0853 55.912C39.0853 68.9957 49.5629 79.6022 62.4877 79.6022Z" fill="url(#paint0_linear_171_87)"/>
<defs>
<filter id="filter0_d_171_87" x="0" y="0" width="288" height="117" filterUnits="userSpaceOnUse" color-interpolation-filters="sRGB">
<feFlood flood-opacity="0" result="BackgroundImageFix"/>
<feColorMatrix in="SourceAlpha" type="matrix" values="0 0 0 0 0 0 0 0 0 0 0 0 0 0 0 0 0 0 127 0" result="hardAlpha"/>
<feOffset dy="4"/>
<feGaussianBlur stdDeviation="2"/>
<feComposite in2="hardAlpha" operator="out"/>
<feColorMatrix type="matrix" values="0 0 0 0 0.866667 0 0 0 0 0.866667 0 0 0 0 0.866667 0 0 0 0.25 0"/>
<feBlend mode="normal" in2="BackgroundImageFix" result="effect1_dropShadow_171_87"/>
<feBlend mode="normal" in="SourceGraphic" in2="effect1_dropShadow_171_87" result="shape"/>
</filter>
<linearGradient id="paint0_linear_171_87" x1="39.0853" y1="55.9249" x2="85.89" y2="55.9249" gradientUnits="userSpaceOnUse">
<stop stop-color="#5B77FC"/>
<stop offset="1" stop-color="#3B5DFF"/>
</linearGradient>
</defs>
</svg>
