<svg xmlns="http://www.w3.org/2000/svg" viewBox="0 0 267.47 51.63"><defs><style>.cls-1,.cls-5{fill:#0d1521;}.cls-1,.cls-2,.cls-3,.cls-4{fill-rule:evenodd;}.cls-2{fill:#a600ce;}.cls-3{fill:#004efc;}.cls-4{fill:#00c689;}</style></defs><g id="Layer_2" data-name="Layer 2"><g id="Layer_1-2" data-name="Layer 1"><g id="Layer_2-2" data-name="Layer 2"><g id="Layer_1-2-2" data-name="Layer 1-2"><path class="cls-1" d="M89,33.84a.86.86,0,0,1,.91.82,1.5,1.5,0,0,1,0,.3,13.28,13.28,0,0,1-4.13,6.57,12.37,12.37,0,0,1-7.92,2.68,12.66,12.66,0,0,1-11-6.46c-.26-.55-.5-1-.7-1.57a10.89,10.89,0,0,1-.48-1.93,64,64,0,0,1-.37-8.42,62.81,62.81,0,0,1,.36-8.45,10.52,10.52,0,0,1,1.17-3.45A12.31,12.31,0,0,1,71,9.46a11.81,11.81,0,0,1,6.93-2.07,11.55,11.55,0,0,1,8.26,3.1A13.51,13.51,0,0,1,90,17a.86.86,0,0,1-.6,1H85.23a.87.87,0,0,1-.83-.58,8.07,8.07,0,0,0-2.15-3.1,6.77,6.77,0,0,0-4.33-1.52,7.2,7.2,0,0,0-3.25.77,6.69,6.69,0,0,0-2.33,1.89,6.06,6.06,0,0,0-1.37,3,43.74,43.74,0,0,0-.35,7.32A43.83,43.83,0,0,0,71,33.07,6.82,6.82,0,0,0,74.6,38a6.22,6.22,0,0,0,3.24.81q4.25,0,6.47-4.46a.87.87,0,0,1,.83-.5Z"/><path class="cls-1" d="M101.88,28.93,92,9a.88.88,0,0,1,.39-1.17h0a1.3,1.3,0,0,1,.39-.09h3.68a.9.9,0,0,1,.79.51l6.42,13.86a.88.88,0,0,0,1.14.44.94.94,0,0,0,.44-.44l6.42-13.81a.88.88,0,0,1,.82-.51h3.63a.89.89,0,0,1,.89.87h0a.85.85,0,0,1-.09.38L107.1,28.92a1,1,0,0,0-.1.39V43.08a.83.83,0,0,1-.82.87h-3.32a.86.86,0,0,1-.91-.81v0h0V29.25a1,1,0,0,0-.08-.38"/><path class="cls-1" d="M120.24,7.76h3.81a.86.86,0,0,1,.82.66L130.2,33.5h.11l6.63-25.1a.87.87,0,0,1,.83-.66h2.51a.84.84,0,0,1,.81.66l6.58,25.13h.1l5.39-25.08a.89.89,0,0,1,.83-.67h3.81a.83.83,0,0,1,.84.84.62.62,0,0,1,0,.19L150.31,43.4a.81.81,0,0,1-.81.66h-3a.89.89,0,0,1-.83-.66l-6.49-25.46h-.08L132.56,43.4a.86.86,0,0,1-.82.66h-3.1a.81.81,0,0,1-.82-.66l-8.4-34.62a.86.86,0,0,1,.64-1h.2"/><path class="cls-1" d="M179.12,31a.86.86,0,0,0,.82-.88.53.53,0,0,0,0-.25l-4.72-14.74h-.1L170.4,30a.82.82,0,0,0,.49,1H171a1.13,1.13,0,0,0,.26,0Zm2.07,4.87H169.13a.89.89,0,0,0-.82.6L166,43.4a.87.87,0,0,1-.82.59h-3.8a.87.87,0,0,1-.82-.87.75.75,0,0,1,.06-.29L172.77,8.34a.89.89,0,0,1,.82-.6h3.24a.85.85,0,0,1,.83.58l12.15,34.5a.88.88,0,0,1-.57,1.09,1.41,1.41,0,0,1-.29,0h-3.81a.81.81,0,0,1-.83-.6L182,36.38a.86.86,0,0,0-.81-.58Z"/><path class="cls-1" d="M201.22,22.73a.86.86,0,0,0,.86.87h7.24a5.89,5.89,0,0,0,4.5-1.8,5.71,5.71,0,0,0,1.47-3.95,4.76,4.76,0,0,0-1.77-4.14,6.08,6.08,0,0,0-3.9-1.1h-7.5a.81.81,0,0,0-.86.77v9.3ZM195.89,8.58a.88.88,0,0,1,.87-.87h12.86a10.62,10.62,0,0,1,7.17,2.39,9.88,9.88,0,0,1,3.48,7.73q-.11,6.92-6,9.7a.87.87,0,0,0-.38,1.17h0l7.05,14a.85.85,0,0,1-.28,1.19h0l-.08,0a1,1,0,0,1-.39.08h-4.35a.85.85,0,0,1-.82-.5l-6.77-14.56a.83.83,0,0,0-.81-.5h-5.4a.86.86,0,0,0-.86.88V43.08a.88.88,0,0,1-.86.87H196.8a.89.89,0,0,1-.88-.87h0Z"/><path class="cls-1" d="M228.84,7.76H249.5a.86.86,0,0,1,.82.86v3.44a.88.88,0,0,1-.82.87H234.16a.83.83,0,0,0-.87.77v8.69a.83.83,0,0,0,.78.87h13a.87.87,0,0,1,.88.86h0v3.1a.88.88,0,0,1-.86.87H234.16a.83.83,0,0,0-.87.78v9a.86.86,0,0,0,.83.88H249.5a.82.82,0,0,1,.83.81h0V43a.87.87,0,0,1-.83.87H228.84a.87.87,0,0,1-.87-.86h0V8.58a.87.87,0,0,1,.87-.87"/><path class="cls-2" d="M40.45,29.45,54.94,50.63a.64.64,0,0,1-.16.89.66.66,0,0,1-.36.11H25.48a.67.67,0,0,1-.62-.7.6.6,0,0,1,.1-.31L39.42,29.49a.64.64,0,0,1,.51-.26A.59.59,0,0,1,40.45,29.45Z"/><path class="cls-3" d="M18.08,50.84,35,26.22a.69.69,0,0,0,0-.78L18,.73a.61.61,0,0,0-.86-.14h0L17,.74.11,25.43a.63.63,0,0,0,0,.72L17,50.84a.63.63,0,0,0,.88.16h0A.44.44,0,0,0,18.08,50.84Z"/><path class="cls-4" d="M40.46,22.18,55,1a.67.67,0,0,0-.18-.92A.63.63,0,0,0,54.42,0H25.48a.67.67,0,0,0-.62.69A.51.51,0,0,0,25,1L39.42,22.14a.59.59,0,0,0,.51.26A.58.58,0,0,0,40.46,22.18Z"/><path class="cls-5" d="M257.82,2.48v6H257v-6H255V1.67h4.74v.81Zm8.79,6V2.86l-2.33,5.65H264L261.7,2.86V8.51h-.87V1.67h1.33l2,5,2-5h1.33V8.51Z"/></g></g></g></g></svg>