<svg width="21" height="21" viewBox="0 0 21 21" fill="none" xmlns="http://www.w3.org/2000/svg">
<path d="M7.875 10.0625L9.625 11.8125L13.5625 7.87501M17.5 10.5C17.5 14.7949 12.8153 17.9186 11.1107 18.913C10.917 19.026 10.8202 19.0825 10.6835 19.1119C10.5774 19.1346 10.4226 19.1346 10.3165 19.1119C10.1798 19.0825 10.083 19.026 9.88926 18.913C8.18472 17.9186 3.5 14.7949 3.5 10.5V6.31541C3.5 5.61584 3.5 5.26605 3.61442 4.96538C3.71549 4.69976 3.87973 4.46275 4.09295 4.27485C4.33431 4.06214 4.66182 3.93933 5.31685 3.69369L10.0084 1.93435C10.1903 1.86613 10.2813 1.83203 10.3749 1.8185C10.4579 1.80651 10.5421 1.80651 10.6251 1.8185C10.7187 1.83203 10.8097 1.86613 10.9916 1.93435L15.6831 3.69369C16.3382 3.93933 16.6657 4.06214 16.907 4.27485C17.1203 4.46275 17.2845 4.69976 17.3856 4.96538C17.5 5.26605 17.5 5.61584 17.5 6.31541V10.5Z" stroke="black" stroke-opacity="0.9" stroke-linecap="round" stroke-linejoin="round"/>
</svg>
