<?xml version="1.0" encoding="utf-8"?>
<!-- Generator: Adobe Illustrator 25.0.0, SVG Export Plug-In . SVG Version: 6.00 Build 0)  -->
<svg version="1.1" id="Layer_1" xmlns="http://www.w3.org/2000/svg" xmlns:xlink="http://www.w3.org/1999/xlink" x="0px" y="0px"
	 viewBox="0 0 1355.8 433.9" style="enable-background:new 0 0 1355.8 433.9;" xml:space="preserve">
<style type="text/css">
	.st0{fill:url(#SVGID_1_);}
	.st1{fill:url(#SVGID_2_);}
	.st2{fill:url(#SVGID_3_);}
	.st3{fill:url(#SVGID_4_);}
	.st4{fill:url(#SVGID_5_);}
	.st5{fill:url(#SVGID_6_);}
</style>
<g>
	<g>
		<g>
			<g>
				<g>
					<g>
						<path d="M585.3,16.5v121.9H567V16.5h-38.7V3.7h95.4v12.8H585.3z"/>
					</g>
					<g>
						<path d="M611.8,138.4V43h16.6v12.4c2.1-3.1,9.7-14.1,23.3-14.1c5.9,0,9,2.1,11.3,3.6v14.9c-2.5-1.7-7.6-5.3-15.8-5.3
							c-16.6,0-18.7,13-18.7,18.1v65.8H611.8L611.8,138.4z"/>
					</g>
					<g>
						<path d="M736.9,138.4v-11.1c-5,4.6-15.4,13-31.5,13c-5.9,0-12-0.8-18.3-5.5c-9.7-7.4-10.5-18.3-10.5-29.2V43h16.2v58.2
							c0,13.2,1.3,28.4,19.6,28.4c6.3,0,14.7-2.5,18.9-6.9c4.8-5,5.5-9.2,5.5-15.3V42.9H753v95.4L736.9,138.4L736.9,138.4z"/>
					</g>
					<g>
						<path d="M818.4,70.3v-2.7c0-6.5-3.2-16.6-17.9-16.6c-12.8,0-18.3,7.2-18.3,14.3c0,9.2,9.7,13,18.5,15.4l9.9,2.9
							c16,4.6,25.2,12.6,25.2,27.9c0,14.3-9,28.8-36.1,28.8c-26.7,0-35.3-13.2-35.3-29v-2.5h16.4v2.5c0,8.2,3.6,18.3,20.4,18.3
							c14.1,0,18.5-7.2,18.5-14.9c0-11.8-9.3-14.7-18.1-17.4l-12.2-3.6c-5.9-1.7-22.3-6.5-22.3-24.4c0-13.7,8-28.4,34-28.4
							c16.6,0,32.8,6.9,32.8,28.2v1.2L818.4,70.3L818.4,70.3z"/>
					</g>
					<path d="M1003.8,43l-21.6,78.4L960.4,43h-15.1l-24.4,78.4L900.3,43h-34.6V19.3l-16.6,2.9l-0.4,87.8c0,15.3,0.6,21,7.2,25.9
						c5.7,4.2,12.6,4.2,14.9,4.2c8.4,0,14.5-2.1,17.9-3.2v-11.1c-1.7,0.6-5.7,2.3-10.9,2.3c-11.1,0-12.4-7.6-12.4-17.7l0.2-57.6h20
						l24.8,85.7h17.4l23.1-73.3l21.2,73.3h17.6l28.2-95.4h-14.1L1003.8,43L1003.8,43z"/>
					<g>
						<path d="M1087.5,138.4c-6.3,0-7.8-2.1-7.8-7.8v-2.7c-8.2,9.3-19.3,12.4-28.2,12.4c-18.3,0-29.9-9.3-29.9-27.7
							c0-13,7.6-19.8,12-22.3c6.5-3.6,15.4-6.7,46.2-9.5V70.7c0-12.8-5.3-19.1-18.1-19.1c-5.9,0-21.2,0.8-21.2,20.4v1.3h-15.4v-2.9
							c0-22.7,19.3-29.6,37.8-29.6c15.3,0,24.2,4.6,28.6,10.9c3.6,5.2,4.4,13.4,4.4,20.6v52.1c0,7.2,0.9,11.1,4.4,11.6v2.3
							L1087.5,138.4L1087.5,138.4z M1079.7,89.8c-19.7,2.3-28,4.6-32.2,7.1c-6.5,3.8-8.6,9.7-8.6,15.4c0,10.7,6.3,17.2,17.4,17.2
							c5.9,0,10.9-1.5,14.7-4c8.2-5.3,8.8-14.3,8.8-21.4V89.8L1079.7,89.8L1079.7,89.8z"/>
					</g>
					<g>
						<path d="M1152.8,138.4h-17.4L1103.9,43h17.9l23.8,78.2l26.9-78.2h14.9L1152.8,138.4z"/>
					</g>
					<g>
						<path d="M1206.8,91.3c0,11.8,0.4,38.3,25,38.3c6.1,0,20.8-2.5,21.9-20.4h16.2c0,16.2-13.2,31.1-38.9,31.1
							c-29.9,0-41.6-19.5-41.6-46.9c0-31.1,12.4-52.5,42.7-52.5c24.4,0,38.2,14.1,38.2,44.6v4.8h-63.5L1206.8,91.3L1206.8,91.3z
							 M1254.1,80.4c-0.2-5.9-0.8-28.8-21.8-28.8c-13.7,0-23.8,9.7-25,28.8H1254.1z"/>
					</g>
				</g>
			</g>
		</g>
	</g>
	<g>
		<path d="M1300.8,70.8c-8.1,0-14.5-6.5-14.5-14.7c0-8.1,6.4-14.5,14.6-14.5s14.6,6.4,14.6,14.5C1315.4,64.4,1309,70.8,1300.8,70.8z
			 M1300.8,43.1c-7.3,0-13.1,5.9-13.1,13.2c0,7.3,5.8,13.2,13.1,13.2s13.1-5.9,13.1-13.1C1313.9,48.9,1308.2,43.1,1300.8,43.1z
			 M1302,47.6c3.5,0,5.3,1.3,5.3,4.5c0,2.4-1.1,3.8-3.3,4.5c1.5,0.4,2.2,1.2,2.7,3.1l0.9,3.3c0.2,0.9,0.6,1.5,1,2.1h-3.2
			c-0.3-0.3-0.5-0.7-0.7-1.3l-0.8-3c-0.7-2.6-1.2-3.1-4.6-3.1h-1.3v7.4h-2.9V47.7L1302,47.6L1302,47.6z M1298,55.5h1.8
			c3.1,0,4.5-0.5,4.5-3.1c0-2.1-0.9-2.9-3.8-2.9h-2.6L1298,55.5L1298,55.5z"/>
	</g>
	<g>
		<path d="M585.2,430.6h-31.8V199h127.1v22.3h-95.3v83.8h89.4v22.3h-89.4V430.6z"/>
		<path d="M829.2,430.6h-27.8v-19.3c-7.9,6.9-25.5,22.6-54,22.6c-9.5,0-18-1.6-24.9-5.2c-23.9-11.8-24.6-36-24.9-54.7V266.9h27.8
			v94.3c0,17.7,0.7,28.5,4.3,36.7c5.2,11.5,15.7,17.7,29.5,17.7c11.5,0,25.9-4.9,33.1-12.4c8.2-8.2,8.8-17.4,9.2-25.6V266.9h27.8
			L829.2,430.6L829.2,430.6z"/>
		<path d="M897.7,354.2c-14.7-4.6-39.9-12.4-39.9-42.6c0-32.1,24.2-48.5,58.3-48.5c15.7,0,31.1,4.3,40.9,11.8
			c15.7,12.8,15.4,31.4,15.4,38.3h-26.8c0.3-3.9,1-8.5-1-14.4c-4.3-12.4-15.1-18.3-29.8-18.3c-19,0-31.1,10.8-31.1,23.9
			c0,17,17,22.3,34.1,27.8l11.1,3.3c11.5,3.6,22.9,7.2,31.8,14.7c2.6,2,15.1,12.8,15.1,34.1c0,11.1-4.3,49.4-60.9,49.4
			c-26.2,0-63.2-6.6-61.2-54h27.8c-0.7,12.8,0.7,35.7,35.7,35.7c4.3,0,31.1,0,31.1-25.9c0-20.3-16.4-25.2-32.4-29.8L897.7,354.2z"/>
		<path d="M1027.7,231.4h-27.8v-28.5h27.8V231.4z M1028,430.6h-28.2V266.8h28.2V430.6z"/>
		<path d="M1125.9,433.8c-65.8,0-71.1-52.7-71.1-83.2c0-24.2,1.6-87.4,73.4-87.4c66.8,0,69.8,52.4,70.4,78.9
			C1199.3,370.3,1198.6,433.8,1125.9,433.8z M1128.2,281.2c-42.9,0-43.9,50.1-43.9,68.4c0,23.9,2.3,66.5,43.2,66.5
			c31.4,0,42.2-27.2,41.6-72.4C1168.8,306.7,1158.7,281.2,1128.2,281.2z"/>
		<path d="M1355.8,430.6H1328v-96.3c0-7.5,0-15.1-1-22.9c-0.7-6.6-3.6-29.8-32.1-29.8c-7.2,0-13.4,1.3-19,3.6
			c-21.3,8.8-21.9,24.9-22.3,35v110.4h-27.8V266.9h27.8v18.3c9.2-8.5,25.9-21.9,53.4-21.9c15.1,0,30.1,4.9,39.3,16.7
			c9.2,12.1,9.5,27.2,9.5,39.6V430.6L1355.8,430.6z"/>
	</g>
	<g>
		
			<linearGradient id="SVGID_1_" gradientUnits="userSpaceOnUse" x1="229.2735" y1="2367.0793" x2="354.9267" y2="2579.2668" gradientTransform="matrix(1 0 0 -1 0 2548.6001)">
			<stop  offset="0" style="stop-color:#B21F2C"/>
			<stop  offset="4.230000e-02" style="stop-color:#C01F30"/>
			<stop  offset="0.113" style="stop-color:#D11F36"/>
			<stop  offset="0.2012" style="stop-color:#DE1E3B"/>
			<stop  offset="0.3248" style="stop-color:#E71E3E"/>
			<stop  offset="0.6681" style="stop-color:#EA1E3F"/>
		</linearGradient>
		<polygon class="st0" points="143.5,132.9 191.5,49.8 305.8,49.8 363,148.8 315,231.9 343.8,281.7 334.6,297.6 334.6,297.6 
			420.5,148.8 334.6,0 162.7,0 86,132.9 		"/>
		
			<linearGradient id="SVGID_2_" gradientUnits="userSpaceOnUse" x1="3900.7913" y1="-8785.3975" x2="4019.0464" y2="-8585.7031" gradientTransform="matrix(-0.4983 0.867 0.867 0.4983 9877.6533 1262.1027)">
			<stop  offset="0" style="stop-color:#B21F2C"/>
			<stop  offset="4.220000e-02" style="stop-color:#C01F30"/>
			<stop  offset="0.1127" style="stop-color:#D11F36"/>
			<stop  offset="0.2006" style="stop-color:#DE1E3B"/>
			<stop  offset="0.324" style="stop-color:#E71E3E"/>
			<stop  offset="0.6664" style="stop-color:#EA1E3F"/>
		</linearGradient>
		<polygon class="st1" points="391.6,198.3 439.8,281.3 382.8,380.4 268.6,380.9 220.3,297.7 162.8,297.8 239.8,430.6 411.7,430.2 
			497.3,281.2 420.3,148.4 		"/>
		
			<linearGradient id="SVGID_3_" gradientUnits="userSpaceOnUse" x1="153.5" y1="2283.8501" x2="286.2" y2="2283.8501" gradientTransform="matrix(1 0 0 -1 0 2548.6001)">
			<stop  offset="0" style="stop-color:#EA1E3F"/>
			<stop  offset="0.4204" style="stop-color:#E61E3E"/>
			<stop  offset="0.6348" style="stop-color:#DC1E3A"/>
			<stop  offset="0.8025" style="stop-color:#CE1F35"/>
			<stop  offset="0.9452" style="stop-color:#BB1F2F"/>
			<stop  offset="1" style="stop-color:#B21F2C"/>
		</linearGradient>
		<polygon class="st2" points="162.7,297.6 277,297.6 286.2,281.7 266.6,247.8 191.5,247.8 182.3,231.9 153.5,281.7 		"/>
		
			<linearGradient id="SVGID_4_" gradientUnits="userSpaceOnUse" x1="266.7889" y1="2397.1841" x2="214.0835" y2="2307.1904" gradientTransform="matrix(1 0 0 -1 0 2548.6001)">
			<stop  offset="0" style="stop-color:#EA1E3F"/>
			<stop  offset="0.4204" style="stop-color:#E61E3E"/>
			<stop  offset="0.6348" style="stop-color:#DC1E3A"/>
			<stop  offset="0.8025" style="stop-color:#CE1F35"/>
			<stop  offset="0.9452" style="stop-color:#BB1F2F"/>
			<stop  offset="1" style="stop-color:#B21F2C"/>
		</linearGradient>
		<polygon class="st3" points="191.5,247.8 230.7,247.8 268.3,182.7 286.6,182.7 257.8,132.9 239.5,132.9 182.3,231.9 		"/>
		
			<linearGradient id="SVGID_5_" gradientUnits="userSpaceOnUse" x1="308.8495" y1="2263.4758" x2="259.8301" y2="2344.9785" gradientTransform="matrix(1 0 0 -1 0 2548.6001)">
			<stop  offset="0" style="stop-color:#EA1E3F"/>
			<stop  offset="0.4204" style="stop-color:#E61E3E"/>
			<stop  offset="0.6348" style="stop-color:#DC1E3A"/>
			<stop  offset="0.8025" style="stop-color:#CE1F35"/>
			<stop  offset="0.9452" style="stop-color:#BB1F2F"/>
			<stop  offset="1" style="stop-color:#B21F2C"/>
		</linearGradient>
		<polygon class="st4" points="286.2,281.7 277,297.6 334.6,297.6 343.8,281.7 286.6,182.7 268.3,182.7 248.6,216.7 		"/>
		
			<linearGradient id="SVGID_6_" gradientUnits="userSpaceOnUse" x1="-15.6244" y1="2266.8501" x2="224.1756" y2="2266.8501" gradientTransform="matrix(1 0 0 -1 0 2548.6001)">
			<stop  offset="0.3336" style="stop-color:#EA1E3F"/>
			<stop  offset="0.676" style="stop-color:#E71E3E"/>
			<stop  offset="0.7994" style="stop-color:#DE1E3B"/>
			<stop  offset="0.8873" style="stop-color:#D11F36"/>
			<stop  offset="0.9578" style="stop-color:#C01F30"/>
			<stop  offset="1" style="stop-color:#B21F2C"/>
		</linearGradient>
		<polygon class="st5" points="86,430.6 239.8,430.6 211,380.7 114.7,380.7 57.6,281.7 114.7,182.7 210.7,182.7 239.5,132.9 
			86,132.9 86,132.9 0,281.7 		"/>
	</g>
</g>
</svg>
