<?xml version="1.0" encoding="UTF-8"?>
<svg width="45px" height="57px" viewBox="0 0 45 57" version="1.1" xmlns="http://www.w3.org/2000/svg" xmlns:xlink="http://www.w3.org/1999/xlink">
    <!-- Generator: Sketch 64 (93537) - https://sketch.com -->
    <title>Group 11</title>
    <desc>Created with Sketch.</desc>
    <g id="Page-1" stroke="none" stroke-width="1" fill="none" fill-rule="evenodd">
        <g id="blog-main" transform="translate(-1208.000000, -2049.000000)">
            <g id="Group-9" transform="translate(1208.000000, 2049.000000)">
                <g id="Group-11">
                    <rect id="Rectangle" stroke="#C9CDD2" fill="#FFFFFF" x="0.5" y="0.5" width="44" height="56"></rect>
                    <path d="M16.087,45 L16.087,39.483 L18.247,39.483 L18.247,38.7 L13.036,38.7 L13.036,39.483 L15.196,39.483 L15.196,45 L16.087,45 Z M22.072,45.072 C22.702,45.072 23.272,44.9325 23.782,44.6535 C24.292,44.3745 24.691,43.9905 24.979,43.5015 C25.267,43.0125 25.411,42.462 25.411,41.85 C25.411,41.238 25.267,40.6875 24.979,40.1985 C24.691,39.7095 24.292,39.3255 23.782,39.0465 C23.272,38.7675 22.702,38.628 22.072,38.628 C21.436,38.628 20.863,38.7675 20.353,39.0465 C19.843,39.3255 19.4425,39.711 19.1515,40.203 C18.8605,40.695 18.715,41.244 18.715,41.85 C18.715,42.456 18.8605,43.005 19.1515,43.497 C19.4425,43.989 19.843,44.3745 20.353,44.6535 C20.863,44.9325 21.436,45.072 22.072,45.072 Z M22.072,44.271 C21.61,44.271 21.1915,44.166 20.8165,43.956 C20.4415,43.746 20.1475,43.4565 19.9345,43.0875 C19.7215,42.7185 19.615,42.306 19.615,41.85 C19.615,41.394 19.7215,40.9815 19.9345,40.6125 C20.1475,40.2435 20.4415,39.954 20.8165,39.744 C21.1915,39.534 21.61,39.429 22.072,39.429 C22.534,39.429 22.9495,39.534 23.3185,39.744 C23.6875,39.954 23.9785,40.2435 24.1915,40.6125 C24.4045,40.9815 24.511,41.394 24.511,41.85 C24.511,42.306 24.4045,42.7185 24.1915,43.0875 C23.9785,43.4565 23.6875,43.746 23.3185,43.956 C22.9495,44.166 22.534,44.271 22.072,44.271 Z M27.688,45 L27.688,43.092 L29.245,43.092 C30.061,43.092 30.703,42.897 31.171,42.507 C31.639,42.117 31.873,41.58 31.873,40.896 C31.873,40.212 31.639,39.675 31.171,39.285 C30.703,38.895 30.061,38.7 29.245,38.7 L29.245,38.7 L26.788,38.7 L26.788,45 L27.688,45 Z M29.218,42.309 L27.688,42.309 L27.688,39.483 L29.218,39.483 C29.788,39.483 30.223,39.6045 30.523,39.8475 C30.823,40.0905 30.973,40.44 30.973,40.896 C30.973,41.352 30.823,41.7015 30.523,41.9445 C30.223,42.1875 29.788,42.309 29.218,42.309 L29.218,42.309 Z" id="TOP" fill="#121B1F" fill-rule="nonzero"></path>
                    <g id="Group-5" transform="translate(15.000000, 11.000000)" stroke="#121B1F" stroke-linecap="round">
                        <g id="Group" transform="translate(12.000000, 5.000000) rotate(-90.000000) translate(-12.000000, -5.000000) translate(7.000000, 1.000000)">
                            <line x1="9.21428571" y1="7.5" x2="1.07513341" y2="0.0714983259" id="Path-2" transform="translate(5.357143, 4.000000) scale(-1, 1) translate(-5.357143, -4.000000) "></line>
                        </g>
                        <g id="Group" transform="translate(4.000000, 5.000000) scale(-1, 1) rotate(-90.000000) translate(-4.000000, -5.000000) translate(-1.000000, 1.000000)" stroke-linejoin="round">
                            <line x1="9.21428571" y1="7.5" x2="1.07513341" y2="0.0714983259" id="Path-2" transform="translate(5.357143, 4.000000) scale(-1, 1) translate(-5.357143, -4.000000) "></line>
                        </g>
                        <line x1="8.5" y1="1.5" x2="7.98725523" y2="15.4906073" id="Line-4" stroke-linejoin="round" transform="translate(8.243628, 8.495304) rotate(-2.098906) translate(-8.243628, -8.495304) "></line>
                    </g>
                </g>
            </g>
        </g>
    </g>
</svg>