<svg id="Layer_1" data-name="Layer 1" xmlns="http://www.w3.org/2000/svg" width="93.72096" height="19.74418" viewBox="0 0 93.72096 19.74418">
  <title>Artboard 1</title>
  <g>
    <path d="M11.63964,11.78687H8.52056V9.45325h6.61831v6.316a20.29422,20.29422,0,0,1-6.033.84571c-5.27438,0-7.927-2.12683-7.927-6.33277,0-4.15151,2.68947-6.48684,7.567-6.48684,4.10045,0,6.21975,1.36905,6.39307,4.13393H11.34569C11.29461,6.78885,10.2965,6.0788,8.6411,6.0788c-2.44753,0-3.80988,1.43854-3.80988,4.015,0,2.73307,1.39834,4.11718,4.16993,4.11718a10.44783,10.44783,0,0,0,2.6376-.36425V11.78688Z" style="fill: #fefefe;fill-rule: evenodd"/>
    <path d="M17.16354,16.25154h3.15255V7.80032H17.16354v8.45123ZM17.03293,6.505h3.3979V4.13028H17.03292Zm10.53619,7.57874a2.12816,2.12816,0,0,0,2.37635-2.368,2.12743,2.12743,0,0,0-2.34286-2.32026,2.17784,2.17784,0,0,0-2.342,2.43748,2.13874,2.13874,0,0,0,2.30852,2.25077m2.53046-6.342h3.16509a15.52312,15.52312,0,0,0-.1164,1.94429v4.36587a6.123,6.123,0,0,1-.77536,3.80318c-.9462,1.24261-2.63007,1.8053-5.17478,1.8053-3.16932,0-4.77114-.99057-4.80295-3.01524h3.202c.03433.76783.60539,1.15719,1.70146,1.15719,1.78771,0,2.61248-.81894,2.61248-2.55638V14.53a4.53564,4.53564,0,0,1-3.60389,1.44608,4.05653,4.05653,0,0,1-4.36586-4.16072c0-2.64263,1.68556-4.27715,4.51575-4.27715a4.95464,4.95464,0,0,1,3.53942,1.48046,6.73893,6.73893,0,0,1,.10379-1.27777M41.391,12.54967c-2.47267,0-3.60725.2579-3.60725,1.22753,0,.64057.54259.9688,1.62946.9688,1.43686,0,2.234-.70755,2.234-2.0071v-.18923ZM37.76618,16.63c-2.18544,0-3.36859-.98387-3.36859-2.62588a2.73279,2.73279,0,0,1,1.32048-2.44c.8457-.5359,2.28592-.60372,4.35163-.60372h1.57753c0-.08708.016-.17417.016-.24032,0-.95124-.5585-1.45445-1.59345-1.45445-1.13543,0-1.709.27632-1.82958,1.055H34.93766C35.157,8.38643,36.83423,7.539,40.12157,7.539c3.16932,0,4.67484,1.0182,4.67484,3.31585v4.427a3.14479,3.14479,0,0,0,.17083,1.14045h-3.032a2.77563,2.77563,0,0,1-.20431-1.122v-.1574A4.6957,4.6957,0,0,1,37.76618,16.63Zm8.43365-6.88875A15.86821,15.86821,0,0,0,46.09934,7.74h3.24551c.067.45887.12059.91605.15407,1.37325a4.663,4.663,0,0,1,3.57375-1.57419A2.95711,2.95711,0,0,1,56.16248,9.3a4.08966,4.08966,0,0,1,3.52185-1.76091c2.4199,0,3.77973,1.25181,3.77973,3.60892v5.10355H60.18334V11.06341a1.49315,1.49315,0,0,0-1.66713-1.61187c-1.42516,0-2.0791.81473-2.0791,2.47433v4.32567H53.19159V11.06341a1.491,1.491,0,0,0-1.63281-1.61187c-1.46031,0-2.11093.81473-2.11093,2.47433v4.32567H46.199V9.74126ZM72.8405,12.00709c0-1.69147-.92526-2.72637-2.38306-2.72637-1.51474,0-2.3889.96713-2.3889,2.71046,0,1.75673.84068,2.70459,2.40318,2.70459,1.45948,0,2.36883-1.01739,2.36883-2.68785m-8.24357.06866c0-2.89718,2.00876-4.53834,5.84293-4.53834,3.8283,0,5.85884,1.64117,5.85884,4.57269,0,2.9826-2.013,4.5191-5.99785,4.5191-3.7454,0-5.70392-1.63867-5.70392-4.55343m12.5617-2.33533A15.11842,15.11842,0,0,0,77.054,7.74h3.22961a11.41769,11.41769,0,0,1,.08373,1.35649,4.61978,4.61978,0,0,1,3.60976-1.55744,3.28048,3.28048,0,0,1,3.6466,3.5084v5.204H84.39657v-5.0516a1.57138,1.57138,0,0,0-1.77095-1.74835c-1.54154,0-2.25834.81472-2.25834,2.47432v4.32567H77.15864ZM90.18339,6.08376h.51831a.84269.84269,0,0,0,.50492-.11052.3593.3593,0,0,0,.134-.29475.3726.3726,0,0,0-.06281-.20933.39276.39276,0,0,0-.18336-.139,1.30436,1.30436,0,0,0-.42706-.04605h-.484Zm-.427,1.49046V4.92658H90.664a2.20273,2.20273,0,0,1,.67323.07285.63936.63936,0,0,1,.33158.25622.68612.68612,0,0,1,.12645.38852.71516.71516,0,0,1-.20766.50659.81551.81551,0,0,1-.54929.24032.77831.77831,0,0,1,.22607.14066,3.16172,3.16172,0,0,1,.38936.525l.32154.51915h-.51915l-.23446-.41867a2.15481,2.15481,0,0,0-.44629-.61545.5405.5405,0,0,0-.34079-.09124h-.25122V7.57593h-.427ZM90.834,4.15789a2.07329,2.07329,0,0,0-1.00649.26711,1.88072,1.88072,0,0,0-.76365.75947,2.04975,2.04975,0,0,0-.00671,2.0498,1.9069,1.9069,0,0,0,.75947.76029,2.03229,2.03229,0,0,0,2.03477,0A1.92072,1.92072,0,0,0,92.61,7.23427a2.06609,2.06609,0,0,0-.005-2.0498,1.88916,1.88916,0,0,0-.76449-.75947A2.0976,2.0976,0,0,0,90.834,4.15789Zm0-.40694a2.49963,2.49963,0,0,1,1.20743.31822,2.263,2.263,0,0,1,.91688.91017,2.48782,2.48782,0,0,1,.005,2.45842,2.2943,2.2943,0,0,1-.90767.9127,2.45784,2.45784,0,0,1-2.4425,0,2.29352,2.29352,0,0,1-.90851-.9127,2.463,2.463,0,0,1,.00418-2.45842,2.27106,2.27106,0,0,1,.9194-.911A2.49515,2.49515,0,0,1,90.834,3.751Z" style="fill: #fefefe;fill-rule: evenodd"/>
  </g>
</svg>
