<?xml version="1.0" encoding="utf-8"?>
<!-- Generator: Adobe Illustrator 22.0.0, SVG Export Plug-In . SVG Version: 6.00 Build 0)  -->
<svg version="1.1" id="Layer_1" xmlns="http://www.w3.org/2000/svg" xmlns:xlink="http://www.w3.org/1999/xlink" x="0px" y="0px"
	 viewBox="0 0 84 43" style="enable-background:new 0 0 84 43;" xml:space="preserve">
<style type="text/css">
	.st0{fill:#FFFFFF;}
</style>
<g>
	<path class="st0" d="M34,36.9l0,2.8l0.2,0c0.6,0.1,1.3,0.2,1.9,0.2c0.6,0.1,1.1,0.1,1.7,0c0.5,0,1.1-0.1,1.6-0.3
		c0.6-0.2,1.2-0.5,1.7-0.9c0.4-0.4,0.8-0.9,1-1.4c0.4-0.9,0.3-1.9,0-2.8c-0.2-0.5-0.5-0.9-0.9-1.2c-0.4-0.3-0.8-0.6-1.3-0.7
		l-2.1-0.8c-0.3-0.1-0.5-0.3-0.6-0.5c-0.1-0.2-0.1-0.4,0-0.6c0-0.1,0.1-0.1,0.1-0.2c0.1-0.1,0.1-0.1,0.2-0.2c0,0,0.1,0,0.1-0.1
		c0.2-0.1,0.5-0.2,0.8-0.2c0.4-0.1,0.9-0.1,1.3,0c0.5,0.1,1.1,0.1,1.6,0.3l0.1,0v-2.6l-0.2,0c-0.5-0.1-1.1-0.2-1.6-0.3
		c-0.7-0.1-1.4-0.1-2.1,0c-0.9,0.1-1.7,0.4-2.4,1c-0.5,0.4-0.8,0.9-1,1.4c-0.3,0.8-0.3,1.8,0,2.6c0.2,0.4,0.4,0.8,0.7,1.1
		c0.3,0.3,0.6,0.5,1,0.7c0.5,0.2,0.9,0.4,1.5,0.6c0.2,0,0.3,0.1,0.5,0.2l0.2,0.1c0,0,0,0,0.1,0c0.2,0.1,0.5,0.2,0.7,0.4
		c0.1,0.1,0.2,0.3,0.3,0.4c0,0.2,0,0.3,0,0.5c-0.1,0.2-0.3,0.5-0.5,0.6c-0.3,0.1-0.5,0.2-0.8,0.2c-0.4,0.1-0.8,0.1-1.2,0.1
		c-0.5,0-1.1-0.1-1.6-0.2c-0.3-0.1-0.6-0.1-0.8-0.2L34,36.9"/>
	<path class="st0" d="M22.5,39.6v-3.3l-0.1,0c-0.7,0.4-1.5,0.6-2.3,0.6c-0.8,0.1-1.7-0.2-2.4-0.7c-0.5-0.4-0.8-0.9-1-1.5
		c-0.2-0.6-0.2-1.3-0.1-1.9c0.1-0.7,0.5-1.2,1-1.7c0.5-0.4,1-0.6,1.6-0.7c1.1-0.1,2.1,0.1,3.1,0.6l0.1,0v-3.3l-0.1,0
		c-1-0.3-2-0.4-3-0.4c-0.9,0-1.8,0.2-2.6,0.6c-0.8,0.4-1.6,1-2.2,1.7c-1.8,2.3-1.9,5.6-0.1,7.9c0.9,1.1,2.1,1.9,3.4,2.2
		c1.4,0.3,2.9,0.3,4.3-0.2L22.5,39.6"/>
	<polyline class="st0" points="29.8,39.8 29.8,27.6 26.8,27.6 26.8,39.8 29.8,39.8 	"/>
	<path class="st0" d="M6.9,17.8c0,0.4,0.2,0.7,0.5,1c0.3,0.3,0.7,0.4,1,0.4c0.4,0,0.8-0.1,1-0.4c0.3-0.3,0.5-0.6,0.5-1v-3.4
		c0-0.4-0.2-0.8-0.5-1C9.2,13.1,8.8,13,8.4,13s-0.8,0.2-1.1,0.4c-0.3,0.3-0.5,0.6-0.5,1L6.9,17.8"/>
	<path class="st0" d="M15.3,17.8c0,0.4,0.2,0.7,0.5,1c0.3,0.3,0.7,0.4,1,0.4c0.4,0,0.8-0.1,1-0.4c0.3-0.3,0.5-0.6,0.5-1v-7.6
		c0-0.4-0.2-0.8-0.5-1c-0.3-0.3-0.7-0.4-1.1-0.4s-0.8,0.2-1.1,0.4c-0.3,0.3-0.5,0.6-0.5,1V17.8"/>
	<path class="st0" d="M23.7,20.8c0,0.4,0.2,0.7,0.5,1c0.3,0.3,0.7,0.4,1,0.4c0.4,0,0.8-0.1,1-0.4c0.3-0.3,0.5-0.6,0.5-1V4.5
		c0-0.4-0.2-0.8-0.5-1C26,3.2,25.6,3,25.2,3c-0.4,0-0.8,0.2-1.1,0.4c-0.3,0.3-0.4,0.6-0.5,1V20.8"/>
	<path class="st0" d="M32.1,17.8c0,0.4,0.2,0.7,0.5,1c0.3,0.3,0.7,0.4,1,0.4c0.4,0,0.8-0.1,1-0.4c0.3-0.3,0.5-0.6,0.5-1v-7.6
		c0-0.4-0.2-0.8-0.5-1c-0.3-0.3-0.7-0.4-1.1-0.4s-0.8,0.2-1.1,0.4c-0.3,0.3-0.5,0.6-0.5,1L32.1,17.8"/>
	<path class="st0" d="M40.5,17.8c0,0.4,0.2,0.7,0.5,1c0.3,0.3,0.7,0.4,1,0.4c0.4,0,0.8-0.1,1-0.4c0.3-0.3,0.5-0.6,0.5-1v-3.4
		c0-0.4-0.2-0.8-0.5-1C42.8,13.1,42.4,13,42,13c-0.4,0-0.8,0.2-1.1,0.4c-0.3,0.3-0.5,0.6-0.5,1L40.5,17.8"/>
	<path class="st0" d="M48.9,17.8c0,0.4,0.2,0.7,0.5,1c0.3,0.3,0.7,0.4,1,0.4s0.8-0.1,1-0.4c0.3-0.3,0.5-0.6,0.5-1v-7.6
		c0-0.4-0.2-0.8-0.5-1c-0.3-0.3-0.7-0.4-1.1-0.4c-0.4,0-0.8,0.2-1.1,0.4c-0.3,0.3-0.5,0.6-0.5,1L48.9,17.8"/>
	<path class="st0" d="M57.3,20.8c0,0.4,0.2,0.7,0.5,1c0.3,0.3,0.7,0.4,1,0.4c0.4,0,0.8-0.1,1-0.4c0.3-0.3,0.5-0.6,0.5-1V4.5
		c0-0.4-0.2-0.8-0.5-1C59.6,3.2,59.2,3,58.8,3c-0.4,0-0.8,0.2-1.1,0.4c-0.3,0.3-0.5,0.6-0.5,1L57.3,20.8"/>
	<path class="st0" d="M65.7,17.8c0,0.4,0.2,0.7,0.5,1c0.3,0.3,0.7,0.4,1,0.4s0.8-0.1,1-0.4c0.3-0.3,0.5-0.6,0.5-1v-7.6
		c0-0.4-0.2-0.8-0.5-1c-0.3-0.3-0.7-0.4-1.1-0.4s-0.8,0.2-1.1,0.4c-0.3,0.3-0.5,0.6-0.5,1L65.7,17.8"/>
	<path class="st0" d="M74,17.8c0,0.4,0.2,0.7,0.5,1c0.3,0.3,0.7,0.4,1,0.4s0.8-0.1,1-0.4c0.3-0.3,0.5-0.6,0.5-1v-3.4
		c0-0.4-0.2-0.8-0.5-1C76.3,13.1,76,13,75.6,13c-0.4,0-0.8,0.2-1.1,0.4c-0.3,0.3-0.4,0.6-0.5,1L74,17.8"/>
	<path class="st0" d="M54.6,39.6v-3.3l-0.1,0c-0.7,0.4-1.5,0.6-2.3,0.6c-0.8,0.1-1.7-0.2-2.4-0.7c-0.5-0.4-0.8-0.9-1-1.5
		c-0.2-0.6-0.2-1.3-0.1-1.9c0.1-0.7,0.5-1.2,1-1.7c0.5-0.4,1-0.6,1.6-0.7c1.1-0.1,2.1,0.1,3.1,0.6l0.1,0v-3.3l-0.1,0
		c-1-0.3-2-0.4-3-0.4c-0.9,0-1.8,0.2-2.6,0.6c-0.8,0.4-1.6,1-2.2,1.7c-1.8,2.3-1.9,5.6-0.1,7.9c0.9,1.1,2.1,1.9,3.4,2.2
		c1.4,0.3,2.9,0.3,4.3-0.2L54.6,39.6"/>
	<path class="st0" d="M57.9,33.7c0,1.9,0.9,3.7,2.4,4.9c1.5,1.2,3.5,1.6,5.4,1.2c2.6-0.5,4.5-2.5,5-5.1s-0.7-5.1-2.9-6.5
		c-2-1.2-4.4-1.3-6.5-0.2C59.2,29.3,57.9,31.4,57.9,33.7 M62.3,31.2c0.7-0.5,1.5-0.8,2.4-0.7c0.8,0.1,1.6,0.5,2.1,1.2
		c0.5,0.7,0.8,1.5,0.7,2.4c-0.1,0.8-0.5,1.6-1.2,2.1c-0.7,0.5-1.5,0.8-2.4,0.7c-0.8-0.1-1.6-0.5-2.1-1.2c-0.5-0.7-0.8-1.5-0.7-2.4
		C61.2,32.5,61.7,31.7,62.3,31.2"/>
</g>
</svg>
