<svg id="Layer_1" data-name="Layer 1" xmlns="http://www.w3.org/2000/svg" width="32.81" height="33.96" viewBox="0 0 32.81 33.96"><rect x="5.66" y="6.63" width="6.6" height="1.88" style="fill:#999"/><rect x="11.31" y="14.17" width="5.65" height="0.94" style="fill:#999"/><rect x="11.31" y="19.82" width="4.71" height="0.94" style="fill:#999"/><rect x="11.31" y="25.47" width="6.6" height="0.94" style="fill:#999"/><polygon points="6.91 25.71 6 24.69 5.3 25.32 6.91 27.13 9.78 23.9 9.07 23.28 6.91 25.71" style="fill:#999;fill-rule:evenodd"/><polygon points="6.91 20.05 6 19.04 5.3 19.66 6.91 21.47 9.78 18.25 9.07 17.62 6.91 20.05" style="fill:#999;fill-rule:evenodd"/><polygon points="6.91 14.4 6 13.38 5.3 14.01 6.91 15.82 9.78 12.59 9.07 11.97 6.91 14.4" style="fill:#999;fill-rule:evenodd"/><path d="M24.5,32.07H1.88V1.88H16V10.4H24.5v2.82h1.89V7.85L18.29,0H0V34H26.39V28.3H24.5ZM17.91,2.25l6.45,6.26H17.91Z" style="fill:#fff;fill-rule:evenodd"/><path d="M32.81,27,29.74,23.9a5.28,5.28,0,1,0-1.35,1.31l3.09,3.09ZM23,23.2a3.44,3.44,0,1,1,4.87,0A3.43,3.43,0,0,1,23,23.2Z" style="fill:#fff;fill-rule:evenodd"/></svg>