<svg width="21" height="21" viewBox="0 0 21 21" fill="none" xmlns="http://www.w3.org/2000/svg">
<path d="M14 15.75L16.625 13.125M16.625 13.125L19.25 15.75M16.625 13.125V18.375M10.5 13.5625H6.5625C5.34138 13.5625 4.73082 13.5625 4.234 13.7132C3.1154 14.0525 2.24004 14.9279 1.90071 16.0465C1.75 16.5433 1.75 17.1539 1.75 18.375M12.6875 6.5625C12.6875 8.73712 10.9246 10.5 8.75 10.5C6.57538 10.5 4.8125 8.73712 4.8125 6.5625C4.8125 4.38788 6.57538 2.625 8.75 2.625C10.9246 2.625 12.6875 4.38788 12.6875 6.5625Z" stroke="black" stroke-opacity="0.9" stroke-linecap="round" stroke-linejoin="round"/>
</svg>
