<svg width="21" height="21" viewBox="0 0 21 21" fill="none" xmlns="http://www.w3.org/2000/svg">
<path d="M14 15.75L15.75 17.5L19.25 14M10.5 13.125H7C5.3692 13.125 4.55381 13.125 3.91061 13.3914C3.05301 13.7467 2.37165 14.428 2.01642 15.2856C1.75 15.9288 1.75 16.7442 1.75 18.375M13.5625 2.87941C14.8452 3.39863 15.75 4.65615 15.75 6.125C15.75 7.59385 14.8452 8.85137 13.5625 9.37059M11.8125 6.125C11.8125 8.058 10.2455 9.625 8.3125 9.625C6.3795 9.625 4.8125 8.058 4.8125 6.125C4.8125 4.192 6.3795 2.625 8.3125 2.625C10.2455 2.625 11.8125 4.192 11.8125 6.125Z" stroke="black" stroke-opacity="0.9" stroke-linecap="round" stroke-linejoin="round"/>
</svg>
