<?xml version="1.0" encoding="UTF-8"?>
<svg id="Layer_1" data-name="Layer 1" xmlns="http://www.w3.org/2000/svg" width="381.3" height="377" viewBox="0 0 381.3 377">
  <defs>
    <style>
      .cls-1 {
        stroke: rgba(0, 0, 0, .6);
        stroke-width: 6.88px;
      }

      .cls-1, .cls-2 {
        fill: none;
        stroke-linecap: round;
        stroke-linejoin: round;
      }

      .cls-2 {
        stroke: #000;
        stroke-width: 9.17px;
      }
    </style>
  </defs>
  <path class="cls-2" d="m304.87,197.17V4.67H72.65L10.52,62.72v308.61h294.35v-32.77M52.12,218.38h155.49m-155.49-30.39h205.42m-205.42-28.43h216.08M52.12,101.31h100.63M52.12,249.62h155.49M78.03,24.55v45.49h-45.32m338.07,199.57c0,36.4-29.5,65.9-65.9,65.9-36.4,0-65.9-29.5-65.9-65.9,0-36.4,29.5-65.9,65.9-65.9h0c36.39,0,65.89,29.51,65.89,65.9h0Z"/>
  <path class="cls-1" d="m347.7,264.63l-.02,11.69c0,2.45-2,4.44-4.45,4.44h-6.26c-.09,0-.17.07-.2.16-.59,1.86-1.35,3.66-2.25,5.4-.05.08-.04.19.02.26l4.42,4.44c1.73,1.74,1.73,4.55,0,6.29l-8.28,8.25c-1.73,1.74-4.55,1.74-6.28,0,0,0,0,0,0,0l-4.42-4.44c-.07-.06-.18-.07-.26-.02-1.73.89-3.54,1.64-5.4,2.23-.09.02-.16.1-.17.19v6.26c0,2.45-2,4.44-4.45,4.44h-10.22c-2.45,0-4.45-1.98-4.45-4.44v-6.26c0-.09-.07-.17-.17-.19-1.86-.59-3.67-1.34-5.4-2.23-.08-.05-.19-.04-.26.02l-4.42,4.44c-1.73,1.74-4.55,1.74-6.28,0,0,0,0,0,0,0l-8.28-8.25c-1.73-1.74-1.73-4.55,0-6.29l4.42-4.44c.06-.07.07-.18.02-.26-.9-1.73-1.65-3.54-2.25-5.4-.02-.09-.1-.16-.2-.16h-6.26c-2.45,0-4.45-1.98-4.45-4.44l-.02-11.69c0-2.15,1.54-4,3.66-4.38.26-.05.52-.07.78-.07h6.26c.09,0,.17-.08.2-.17.59-1.86,1.33-3.67,2.23-5.4.05-.08.04-.18-.02-.26l-4.48-4.42c-1.73-1.73-1.73-4.55,0-6.28l8.25-8.28c1.74-1.73,4.55-1.73,6.29,0l4.44,4.42s.11.06.18.05c1.76-.91,3.59-1.67,5.48-2.27.09-.02.16-.1.16-.2v-6.26c0-2.15,1.53-4,3.66-4.38.26-.05.52-.07.78-.07h10.49c.26,0,.52.02.78.07,2.12.38,3.66,2.23,3.66,4.38v6.26c0,.09.07.17.17.2,1.89.61,3.72,1.37,5.48,2.27.06.01.13,0,.18-.05l4.44-4.42c1.74-1.73,4.55-1.73,6.29,0l8.25,8.28c1.73,1.73,1.74,4.54,0,6.28t0,0l-4.44,4.42c-.06.07-.07.17-.02.26.9,1.73,1.64,3.54,2.23,5.4.02.09.1.16.2.17h6.26c.26,0,.52.02.78.07,2.1.4,3.62,2.24,3.62,4.38Zm-43.12-15.31c-11.65,0-21.1,9.45-21.1,21.1s9.45,21.1,21.1,21.1,21.1-9.45,21.1-21.1-9.45-21.1-21.1-21.1Z"/>
</svg>