<svg width="21" height="21" viewBox="0 0 21 21" fill="none" xmlns="http://www.w3.org/2000/svg">
<path d="M7.875 9.1875L9.625 10.9375L13.5625 7M6.125 15.75V17.7936C6.125 18.2598 6.125 18.4929 6.22058 18.6127C6.30369 18.7168 6.42974 18.7774 6.56297 18.7772C6.71617 18.7771 6.89821 18.6314 7.26229 18.3402L9.34956 16.6704C9.77595 16.3292 9.98915 16.1587 10.2266 16.0374C10.4372 15.9298 10.6614 15.8511 10.8931 15.8036C11.1542 15.75 11.4272 15.75 11.9733 15.75H14.175C15.6451 15.75 16.3802 15.75 16.9417 15.4639C17.4356 15.2122 17.8372 14.8107 18.0889 14.3167C18.375 13.7552 18.375 13.0201 18.375 11.55V6.825C18.375 5.35486 18.375 4.61979 18.0889 4.05827C17.8372 3.56435 17.4356 3.16278 16.9417 2.91111C16.3802 2.625 15.6451 2.625 14.175 2.625H6.825C5.35486 2.625 4.61979 2.625 4.05827 2.91111C3.56435 3.16278 3.16278 3.56435 2.91111 4.05827C2.625 4.61979 2.625 5.35486 2.625 6.825V12.25C2.625 13.0637 2.625 13.4706 2.71444 13.8044C2.95717 14.7103 3.66473 15.4178 4.5706 15.6606C4.90441 15.75 5.31127 15.75 6.125 15.75Z" stroke="black" stroke-opacity="0.9" stroke-linecap="round" stroke-linejoin="round"/>
</svg>
