<svg width="21" height="21" viewBox="0 0 21 21" fill="none" xmlns="http://www.w3.org/2000/svg">
<path d="M10.4998 7.87496V11.375M10.4998 14.875H10.5085M9.28819 3.40522L2.09141 15.836C1.69223 16.5255 1.49264 16.8702 1.52214 17.1532C1.54787 17.4 1.67717 17.6242 1.87786 17.7702C2.10795 17.9375 2.5063 17.9375 3.30301 17.9375H17.6966C18.4933 17.9375 18.8916 17.9375 19.1217 17.7702C19.3224 17.6242 19.4517 17.4 19.4774 17.1532C19.5069 16.8702 19.3073 16.5255 18.9082 15.836L11.7114 3.40521C11.3136 2.7182 11.1148 2.37469 10.8553 2.25932C10.629 2.15868 10.3706 2.15868 10.1443 2.25932C9.88481 2.37469 9.68594 2.7182 9.28819 3.40522Z" stroke="black" stroke-opacity="0.9" stroke-linecap="round" stroke-linejoin="round"/>
</svg>
