<svg width="21" height="21" viewBox="0 0 21 21" fill="none" xmlns="http://www.w3.org/2000/svg">
<path d="M2.11761 11.124C1.99844 10.9353 1.93886 10.841 1.90551 10.6955C1.88046 10.5862 1.88046 10.4138 1.90551 10.3045C1.93886 10.159 1.99844 10.0647 2.11761 9.87597C3.10234 8.31674 6.03347 4.375 10.5004 4.375C14.9672 4.375 17.8984 8.31674 18.8831 9.87597C19.0023 10.0647 19.0618 10.159 19.0952 10.3045C19.1203 10.4138 19.1203 10.5862 19.0952 10.6955C19.0618 10.841 19.0023 10.9353 18.8831 11.124C17.8984 12.6833 14.9672 16.625 10.5004 16.625C6.03348 16.625 3.10234 12.6833 2.11761 11.124Z" stroke="black" stroke-opacity="0.9" stroke-linecap="round" stroke-linejoin="round"/>
<path d="M10.5004 13.125C11.9501 13.125 13.1254 11.9497 13.1254 10.5C13.1254 9.05025 11.9501 7.875 10.5004 7.875C9.05061 7.875 7.87535 9.05025 7.87535 10.5C7.87535 11.9497 9.05061 13.125 10.5004 13.125Z" stroke="black" stroke-opacity="0.9" stroke-linecap="round" stroke-linejoin="round"/>
</svg>
