<svg width="21" height="21" viewBox="0 0 21 21" fill="none" xmlns="http://www.w3.org/2000/svg">
<path d="M18.375 8.75H2.625M14 1.75V5.25M7 1.75V5.25M6.825 19.25H14.175C15.6451 19.25 16.3802 19.25 16.9417 18.9639C17.4356 18.7122 17.8372 18.3106 18.0889 17.8167C18.375 17.2552 18.375 16.5201 18.375 15.05V7.7C18.375 6.22986 18.375 5.49479 18.0889 4.93327C17.8372 4.43935 17.4356 4.03778 16.9417 3.78611C16.3802 3.5 15.6451 3.5 14.175 3.5H6.825C5.35486 3.5 4.61979 3.5 4.05827 3.78611C3.56435 4.03778 3.16278 4.43935 2.91111 4.93327C2.625 5.49479 2.625 6.22986 2.625 7.7V15.05C2.625 16.5201 2.625 17.2552 2.91111 17.8167C3.16278 18.3106 3.56435 18.7122 4.05827 18.9639C4.61979 19.25 5.35486 19.25 6.825 19.25Z" stroke="black" stroke-opacity="0.9" stroke-linecap="round" stroke-linejoin="round"/>
</svg>
