<svg width="14" height="14" viewBox="0 0 14 14" fill="none" xmlns="http://www.w3.org/2000/svg">
<path d="M8.35189 7.17613L13.0846 2.4431C13.4334 2.09375 13.4334 1.52806 13.0846 1.17871C12.7347 0.829366 12.1686 0.829366 11.8198 1.17871L7.08715 5.91138L2.35448 1.17871C2.00478 0.829366 1.43961 0.829366 1.08974 1.17871C0.740921 1.52806 0.740921 2.09375 1.08974 2.4431L5.82241 7.17613L1.08974 11.909C0.740921 12.2578 0.740921 12.8238 1.08974 13.1737C1.26512 13.348 1.49352 13.4355 1.72211 13.4355C1.9514 13.4355 2.17998 13.3482 2.3543 13.1737L7.08697 8.44104L11.8196 13.1737C11.994 13.348 12.2234 13.4355 12.4518 13.4355C12.6804 13.4355 12.9088 13.3482 13.0842 13.1737C13.433 12.8238 13.433 12.2578 13.0842 11.909L8.35189 7.17613Z" fill="#434649"/>
</svg>
