<?xml version="1.0" encoding="utf-8"?>
<!-- Generator: Adobe Illustrator 24.3.0, SVG Export Plug-In . SVG Version: 6.00 Build 0)  -->
<svg version="1.1" id="Layer_1" xmlns="http://www.w3.org/2000/svg" xmlns:xlink="http://www.w3.org/1999/xlink" x="0px" y="0px"
	 viewBox="0 0 1623.5 200" style="enable-background:new 0 0 1623.5 200;" xml:space="preserve">
<style type="text/css">
	.st0{fill:#101316;}
</style>
<path class="st0" d="M109.5,121.6H84.6v-45h24.8c0.7,0,1.8,0,2.2,0s0.7,0.1,1,0.1c9.7,1.3,17.2,10.8,17.2,22.4s-7.6,21.2-17.4,22.4
	c-0.2,0-0.5,0.1-0.9,0.1S110,121.6,109.5,121.6L109.5,121.6z M55.6,123.3V47.4h53.9c14.3,0,18.9,3,18.9,3l32.5-31.3
	C116.3-13,54.1-2.8,22,41.8c-25,34.8-25,81.7,0.2,116.4L55.6,123.3z M183,40.9l-31.2,31.2c0,0,1.4,3,3.6,8.6
	c3.1,7.7,4.1,16.1,2.9,24.3c-1.3,10-4.1,21.8-14.1,32s-19.6,13.3-31.6,13.6s-39.2,0-39.2,0l-29.7,29.4
	c44.1,32.8,106.4,23.6,139.2-20.5C209,124.3,209,76.2,183,40.9z"/>
<g>
	<path d="M319.4,131.5v9.8c-7.5,2.3-15.8,3.5-25,3.5c-13.6,0-23.9-3.8-30.9-11.4c-7-7.6-10.5-18-10.5-31.3
		c0-14.7,3.4-26.1,10.1-34.2c6.8-8.1,17.2-12.2,31.2-12.2c9.2,0,17.6,1.3,25.1,4v9.7c-7.6-2.9-15.7-4.3-24.2-4.3
		c-11.2,0-19.2,3.1-24,9.4c-4.8,6.3-7.2,15.5-7.2,27.6c0,22.2,10.5,33.3,31.5,33.3C304.6,135.4,312.5,134.1,319.4,131.5z"/>
	<path d="M362.4,111.3l-30.9-54.2h11.4l25,44.8l25-44.8h11.4l-30.9,54.2v32.2h-11V111.3z"/>
	<path d="M467.2,143.5H425V57.1h40c16.5,0,24.7,7.6,24.7,22.8c0,4.7-0.9,8.6-2.8,11.7c-1.9,3.2-4.6,5.6-8.1,7.3
		c9.5,2.3,14.2,8.9,14.2,19.9C493.1,135.2,484.4,143.5,467.2,143.5z M475.7,69.1c-2.5-2.4-6.9-3.6-13.4-3.6H436v29.4h28.3
		c10,0,15-4.7,15-14.2C479.4,75.4,478.1,71.5,475.7,69.1z M478,131.3c2.7-2.6,4-6.9,4-12.9c0-5.2-1.4-9-4.2-11.5
		c-2.8-2.5-7.6-3.7-14.4-3.7H436v31.9h29.3C471.1,135.1,475.3,133.9,478,131.3z"/>
	<path d="M513.9,57.1h58.4v8.7h-47.4V96h42.5v8.6h-42.5v30.3h47.4v8.6h-58.4V57.1z"/>
	<path d="M653,99.8c-3.1,4.2-7.7,7-13.7,8.4c1.7,1,3,2.1,3.9,3.4c0.9,1.3,1.9,3.2,3.1,5.8l11.3,26h-11.3l-11-25.1
		c-1.3-2.9-2.8-4.8-4.5-5.9c-1.7-1.1-4.6-1.6-8.5-1.6H604v32.6h-11V57.1h38c9,0,15.7,2.3,20.1,7c4.4,4.7,6.6,11.3,6.6,19.8
		C657.7,90.3,656.1,95.6,653,99.8z M646.7,83.9c0-12.1-5.8-18.1-17.3-18.1H604v36.5h23.9C640.4,102.3,646.7,96.1,646.7,83.9z"/>
	<path d="M728.6,138.6c-5.6,4.1-13.8,6.2-24.8,6.2c-10.7,0-19.4-1.3-26-4V131c7.9,3,16.2,4.4,25.1,4.4c8,0,13.8-1.1,17.5-3.2
		c3.7-2.1,5.6-5.9,5.6-11.3c0-3.3-0.8-6-2.3-8c-1.6-2-4-3.7-7.4-5.1c-3.4-1.4-8.3-2.8-14.7-4.4c-9.5-2.3-16.1-5.3-20-9
		c-3.8-3.7-5.8-8.7-5.8-15c0-7.5,2.7-13.4,8.1-17.5c5.4-4.2,13.4-6.2,24-6.2c4.7,0,9.1,0.3,13.5,1c4.3,0.7,7.8,1.5,10.4,2.3v9.7
		c-6.8-2.4-14.2-3.6-22.1-3.6c-7.6,0-13.3,1.1-17.1,3.4c-3.8,2.2-5.7,5.9-5.7,11c0,3,0.7,5.3,2,7.1c1.3,1.8,3.6,3.3,6.8,4.6
		c3.2,1.3,7.9,2.7,14.2,4.2c10.1,2.4,17.2,5.7,21.2,9.7c4,4.1,6,9.3,6,15.8C737,128.6,734.2,134.5,728.6,138.6z"/>
	<path d="M757.8,57.1h58.4v8.7h-47.4V96h42.5v8.6h-42.5v30.3h47.4v8.6h-58.4V57.1z"/>
	<path d="M893.3,131.5v9.8c-7.5,2.3-15.8,3.5-25,3.5c-13.6,0-23.9-3.8-30.9-11.4c-7-7.6-10.5-18-10.5-31.3
		c0-14.7,3.4-26.1,10.1-34.2c6.8-8.1,17.2-12.2,31.2-12.2c9.2,0,17.6,1.3,25.1,4v9.7c-7.6-2.9-15.7-4.3-24.2-4.3
		c-11.2,0-19.2,3.1-24,9.4c-4.8,6.3-7.2,15.5-7.2,27.6c0,22.2,10.5,33.3,31.5,33.3C878.5,135.4,886.4,134.1,893.3,131.5z"/>
	<path d="M968.5,129.5c4.3-3.9,6.5-9.8,6.5-17.6V57.1h11v54.7c0,10.7-3.1,18.9-9.3,24.6c-6.2,5.6-15.2,8.5-26.9,8.5
		c-11.8,0-20.8-2.8-27-8.5s-9.3-13.8-9.3-24.6V57.1h11v54.9c0,7.8,2.2,13.6,6.6,17.6c4.4,3.9,10.6,5.9,18.8,5.9
		C958,135.4,964.2,133.5,968.5,129.5z"/>
	<path d="M1068.9,99.8c-3.1,4.2-7.7,7-13.7,8.4c1.7,1,3,2.1,3.9,3.4c0.9,1.3,1.9,3.2,3.1,5.8l11.3,26h-11.3l-11-25.1
		c-1.3-2.9-2.8-4.8-4.5-5.9c-1.7-1.1-4.6-1.6-8.5-1.6h-18.2v32.6h-11V57.1h38c9,0,15.7,2.3,20.1,7c4.4,4.7,6.6,11.3,6.6,19.8
		C1073.5,90.3,1072,95.6,1068.9,99.8z M1062.5,83.9c0-12.1-5.8-18.1-17.3-18.1h-25.4v36.5h23.9
		C1056.3,102.3,1062.5,96.1,1062.5,83.9z"/>
	<path d="M1094.3,57.1h11v86.4h-11V57.1z"/>
	<path d="M1163.2,143.5h-11V65.8h-28.7v-8.7h68.4v8.7h-28.7V143.5z"/>
	<path d="M1236.9,111.3L1206,57.1h11.4l25,44.8l25-44.8h11.4l-30.9,54.2v32.2h-11V111.3z"/>
</g>
<path class="st0" d="M1345.3,124c3.7,0.1,7.5-0.5,10.9-2c2.9-1.5,5.2-3.9,6.4-7c1.5-3.3,2.2-8.2,2.2-14.5s-0.7-11.3-2-14.9
	c-1.1-3.2-3.3-5.9-6.3-7.5c-2.8-1.4-6.6-2.2-11.2-2.2h-10.2v48H1345.3z M1309.8,56.7h38.8c13.8,0,24.3,3.5,31.4,10.4
	c7.1,7,10.7,18.1,10.7,33.5c0,14.6-3.6,25.4-10.7,32.4c-7.1,7-17.6,10.4-31.4,10.4h-38.8V56.7L1309.8,56.7z M1406.9,56.7h25.3v86.7
	h-25.3V56.7L1406.9,56.7z M1445.6,56.7h26.4l20.2,57.3l20.2-57.3h26.5l-33.3,86.7h-26.8L1445.6,56.7L1445.6,56.7z M1549.7,56.7h65.7
	v19.4H1575v14.1h35.5v19.7h-35.4V124h40.4v19.4h-65.7L1549.7,56.7L1549.7,56.7z"/>
</svg>
