<svg width="1188" height="204" viewBox="0 0 1188 204" fill="none" xmlns="http://www.w3.org/2000/svg">
<path d="M247.05 58.87H257.71V142.59H247.05V58.87Z" fill="#0A0A0A"/>
<path d="M293.07 142.59H282.41V58.87H292L339.71 126.21V58.87H350.4V142.59H340.65L293.07 75.38V142.59Z" fill="#0A0A0A"/>
<path d="M434.64 132.71C429.086 139.29 420.16 142.583 407.86 142.59H375.1V58.87H407.86C420.08 58.87 428.983 62.1833 434.57 68.81C440.156 75.4367 442.966 86.25 443 101.25C443 115.63 440.213 126.117 434.64 132.71ZM429.7 80.64C427.96 75.7533 425.206 72.31 421.44 70.31C417.673 68.31 412.496 67.31 405.91 67.31H385.76V134.31H405.91C412.15 134.31 417.15 133.4 420.91 131.58C424.67 129.76 427.51 126.467 429.43 121.7C431.33 116.927 432.283 110.123 432.29 101.29C432.296 92.4567 431.433 85.5733 429.7 80.64Z" fill="#0A0A0A"/>
<path d="M517.77 129.07C521.983 125.25 524.086 119.583 524.08 112.07V58.87H534.74V111.87C534.74 122.27 531.74 130.2 525.74 135.66C519.74 141.12 511.053 143.85 499.68 143.85C488.24 143.85 479.506 141.12 473.48 135.66C467.453 130.2 464.453 122.27 464.48 111.87V58.87H475.14V112C475.14 119.54 477.263 125.207 481.51 129C485.756 132.793 491.823 134.7 499.71 134.72C507.543 134.767 513.563 132.883 517.77 129.07Z" fill="#0A0A0A"/>
<path d="M607.34 137.91C601.92 141.91 593.92 143.91 583.34 143.91C572.94 143.91 564.533 142.61 558.12 140.01V130.5C565.897 133.388 574.134 134.841 582.43 134.79C590.137 134.79 595.803 133.75 599.43 131.67C603.057 129.59 604.857 125.95 604.83 120.75C604.967 117.986 604.163 115.258 602.55 113.01C600.629 110.778 598.167 109.077 595.4 108.07C590.769 106.31 586.012 104.899 581.17 103.85C571.983 101.59 565.527 98.6867 561.8 95.14C558.073 91.5933 556.21 86.74 556.21 80.58C556.21 73.3 558.83 67.6334 564.07 63.58C569.31 59.5267 577.047 57.5267 587.28 57.58C591.652 57.5784 596.019 57.9128 600.34 58.58C603.759 59.0494 607.132 59.8122 610.42 60.86V70.22C603.536 67.819 596.291 66.6182 589 66.67C581.627 66.67 576.1 67.7533 572.42 69.92C568.74 72.0867 566.9 75.64 566.9 80.58C566.78 83.028 567.465 85.448 568.85 87.47C570.578 89.5331 572.825 91.097 575.36 92C579.833 93.6816 584.417 95.0516 589.08 96.1C598.867 98.44 605.713 101.58 609.62 105.52C613.527 109.46 615.477 114.553 615.47 120.8C615.47 128.213 612.76 133.917 607.34 137.91Z" fill="#0A0A0A"/>
<path d="M667.6 142.59H656.94V67.32H629.12V58.87H695.42V67.32H667.6V142.59Z" fill="#0A0A0A"/>
<path d="M773 100.27C769.96 104.27 765.54 106.98 759.74 108.4C761.224 109.214 762.511 110.344 763.51 111.71C764.666 113.51 765.67 115.403 766.51 117.37L777.43 142.59H766.53L755.87 118.28C754.65 115.5 753.2 113.6 751.51 112.56C749.82 111.52 747.07 111 743.26 111H725.58V142.59H714.92V58.87H751.71C760.463 58.87 766.963 61.1433 771.21 65.69C775.457 70.2367 777.58 76.63 777.58 84.87C777.58 91.11 776.053 96.2433 773 100.27ZM766.89 84.87C766.89 73.17 761.3 67.32 750.12 67.32H725.58V102.68H748.72C760.853 102.68 766.92 96.7433 766.92 84.87H766.89Z" fill="#0A0A0A"/>
<path d="M818.53 111.39L788.63 58.87H799.63L823.81 102.29L848 58.87H859.05L829.15 111.39V142.59H818.53V111.39Z" fill="#0A0A0A"/>
<path d="M887 58.87H924.44C937.773 58.87 947.89 62.2267 954.79 68.94C961.69 75.6533 965.137 86.4233 965.13 101.25C965.13 115.37 961.683 125.79 954.79 132.51C947.897 139.23 937.78 142.59 924.44 142.59H887V58.87ZM921.32 123.87C924.937 124.019 928.544 123.381 931.89 122C934.716 120.593 936.916 118.182 938.06 115.24C939.493 111.993 940.21 107.327 940.21 101.24C940.21 95.08 939.56 90.3 938.21 86.87C937.204 83.7886 935.057 81.2088 932.21 79.66C929.477 78.2733 925.86 77.58 921.36 77.58H911.48V123.86L921.32 123.87Z" fill="#0A0A0A"/>
<path d="M980.76 58.87H1005.2V142.59H980.76V58.87Z" fill="#0A0A0A"/>
<path d="M1018.2 58.87H1043.68L1063.18 114.25L1082.68 58.87H1108.29L1076.18 142.59H1050.31L1018.2 58.87Z" fill="#0A0A0A"/>
<path d="M1118.69 58.87H1182.13V77.59H1143.13V91.24H1177.32V110.24H1143.13V123.89H1182.13V142.61H1118.69V58.87Z" fill="#0A0A0A"/>
<path d="M106.29 121.62H82.21V78.12H106.21C106.92 78.12 107.94 78.12 108.29 78.12C108.64 78.12 108.98 78.12 109.21 78.2C118.56 79.45 125.82 88.65 125.82 99.82C125.82 110.99 118.46 120.33 109 121.5C108.82 121.5 108.56 121.56 108.09 121.6C107.62 121.64 106.73 121.61 106.29 121.62Z" fill="#0A0A0A"/>
<path d="M54.2104 123.29V50H106.27C120.09 50 124.54 53 124.54 53L155.89 22.7C137.364 9.40803 114.714 3.1387 91.9901 5.01284C69.266 6.88697 47.9493 16.7824 31.851 32.9299C15.7528 49.0775 5.92257 70.4244 4.11792 93.1541C2.31327 115.884 8.65183 138.514 22.0004 157L54.2104 123.29Z" fill="#0A0A0A"/>
<path d="M177.19 43.73L147.07 73.81C147.07 73.81 148.42 76.72 150.53 82.11C153.527 89.5293 154.497 97.6123 153.34 105.53C152.13 115.16 149.34 126.61 139.76 136.45C130.18 146.29 120.76 149.33 109.2 149.56C97.6396 149.79 71.3196 149.56 71.3196 149.56L42.6396 177.92C61.1251 191.635 83.9206 198.258 106.877 196.582C129.834 194.907 151.426 185.044 167.724 168.79C184.022 152.536 193.943 130.97 195.68 108.018C197.417 85.0652 190.855 62.2521 177.19 43.73V43.73Z" fill="#0A0A0A"/>
</svg>
