<svg width="15" height="11" viewBox="0 0 15 11" fill="none" xmlns="http://www.w3.org/2000/svg">
<path d="M1.33965 0.653839C1.12837 0.653839 0.932995 0.71587 0.767673 0.822108L6.70961 6.36939C7.02219 6.66131 7.3739 6.66128 7.68697 6.36939L13.64 0.822108C13.4747 0.71587 13.2793 0.653839 13.068 0.653839H1.33965ZM0.32897 1.38863C0.293459 1.49619 0.273438 1.61081 0.273438 1.73076V9.26922C0.273438 9.86584 0.748977 10.3461 1.33965 10.3461H13.068C13.6587 10.3461 14.1342 9.86584 14.1342 9.26922V1.73076C14.1342 1.61081 14.1142 1.49619 14.0787 1.38863L8.1701 6.89662C7.61831 7.4111 6.77812 7.41182 6.22648 6.89662L0.32897 1.38863H0.32897Z" fill="white"/>
</svg>
