<svg width="15" height="14" viewBox="0 0 15 14" fill="none" xmlns="http://www.w3.org/2000/svg">
<g clip-path="url(#clip0)">
<path fill-rule="evenodd" clip-rule="evenodd" d="M6.11573 0C8.98907 0 11.3184 2.35106 11.3184 5.25123C11.3184 6.33864 10.9909 7.34886 10.4301 8.18689L14.0775 11.8684C14.0775 11.8684 14.6906 12.4872 14.0775 13.1061L13.4644 13.7249C12.8512 14.3438 12.2381 13.7249 12.2381 13.7249L8.47895 9.93071C7.76983 10.2963 6.96664 10.5025 6.11573 10.5025C3.24239 10.5025 0.913086 8.15141 0.913086 5.25123C0.913086 2.35106 3.24239 0 6.11573 0ZM6.11573 1.75041C4.20017 1.75041 2.6473 3.31778 2.6473 5.25123C2.6473 7.18468 4.20017 8.75205 6.11573 8.75205C8.03129 8.75205 9.58416 7.18468 9.58416 5.25123C9.58416 3.31778 8.03129 1.75041 6.11573 1.75041Z" fill="#0A0A0A"/>
</g>
<defs>
<clipPath id="clip0">
<rect width="13.8704" height="14" fill="white" transform="translate(0.913086)"/>
</clipPath>
</defs>
</svg>
