<svg width="100" height="100" viewBox="0 0 100 100" fill="none" xmlns="http://www.w3.org/2000/svg">
<path d="M45.6665 54C45.6665 55.2 46.5808 56 47.9522 56H75.3808C76.7522 56 77.6665 55.2 77.6665 54C77.6665 52.8 76.7522 52 75.3808 52H47.9522C46.5808 52 45.6665 52.8 45.6665 54Z" fill="#0A0A0A"/>
<path d="M47.9998 65.3333H61.9998C63.3998 65.3333 64.3332 64.5333 64.3332 63.3333C64.3332 62.1333 63.3998 61.3333 61.9998 61.3333H47.9998C46.5998 61.3333 45.6665 62.1333 45.6665 63.3333C45.6665 64.5333 46.5998 65.3333 47.9998 65.3333Z" fill="#0A0A0A"/>
<path d="M47.8887 32C46.5554 32 45.6665 32.8 45.6665 34C45.6665 35.2 46.5554 36 47.8887 36H70.1109C71.4443 36 72.3332 35.2 72.3332 34C72.3332 32.8 71.4443 32 70.1109 32H47.8887Z" fill="#0A0A0A"/>
<path d="M48.0665 45.3333H55.2665C56.7065 45.3333 57.6665 44.5333 57.6665 43.3333C57.6665 42.1333 56.7065 41.3333 55.2665 41.3333H48.0665C46.6265 41.3333 45.6665 42.1333 45.6665 43.3333C45.6665 44.5333 46.6265 45.3333 48.0665 45.3333Z" fill="#0A0A0A"/>
<path d="M68.6968 73.3333H47.9695C46.5877 73.3333 45.6665 74.1333 45.6665 75.3333C45.6665 76.5333 46.5877 77.3333 47.9695 77.3333H68.6968C70.0786 77.3333 70.9998 76.5333 70.9998 75.3333C70.9998 74.1333 70.0786 73.3333 68.6968 73.3333Z" fill="#0A0A0A"/>
<path d="M59.3808 81.3333H47.9522C46.5808 81.3333 45.6665 82.1333 45.6665 83.3333C45.6665 84.5333 46.5808 85.3333 47.9522 85.3333H59.3808C60.7522 85.3333 61.6665 84.5333 61.6665 83.3333C61.6665 82.1333 60.7522 81.3333 59.3808 81.3333Z" fill="#0A0A0A"/>
<path d="M35.4446 52H26.5557C25.2224 52 24.3335 52.8889 24.3335 54.2222V63.1111C24.3335 64.4444 25.2224 65.3333 26.5557 65.3333H35.4446C36.7779 65.3333 37.6668 64.4444 37.6668 63.1111V54.2222C37.6668 52.8889 36.7779 52 35.4446 52ZM33.2224 60.8889H28.7779V56.4444H33.2224V60.8889Z" fill="#0A0A0A"/>
<path d="M35.4446 32H26.5557C25.2224 32 24.3335 32.8889 24.3335 34.2222V43.1111C24.3335 44.4444 25.2224 45.3333 26.5557 45.3333H35.4446C36.7779 45.3333 37.6668 44.4444 37.6668 43.1111V34.2222C37.6668 32.8889 36.7779 32 35.4446 32ZM33.2224 40.8889H28.7779V36.4444H33.2224V40.8889Z" fill="#0A0A0A"/>
<path d="M35.4446 73.3333H26.5557C25.2224 73.3333 24.3335 74.2221 24.3335 75.5555V84.4444C24.3335 85.7777 25.2224 86.6666 26.5557 86.6666H35.4446C36.7779 86.6666 37.6668 85.7777 37.6668 84.4444V75.5555C37.6668 74.2221 36.7779 73.3333 35.4446 73.3333ZM33.2224 82.2221H28.7779V77.7777H33.2224V82.2221Z" fill="#0A0A0A"/>
<path d="M67.1804 0.681818C66.7255 0.227273 66.2706 0 65.5882 0H17.8235C13.9569 0 11 2.95455 11 6.81818V93.1818C11 97.0455 13.9569 100 17.8235 100H81.5098C85.3765 100 88.3333 97.0455 88.3333 93.1818V22.7273C88.3333 22.0455 88.1059 21.5909 87.651 21.1364L67.1804 0.681818ZM67.8627 7.72727L80.6 20.4545H70.1373C68.7726 20.4545 67.8627 19.5455 67.8627 18.1818V7.72727ZM83.7843 29.5455V93.1818C83.7843 94.5455 82.8745 95.4545 81.5098 95.4545H17.8235C16.4588 95.4545 15.549 94.5455 15.549 93.1818V6.81818C15.549 5.45455 16.4588 4.54545 17.8235 4.54545H63.3137V18.1818C63.3137 22.0455 66.2706 25 70.1373 25H83.7843V29.5455Z" fill="#0A0A0A"/>
</svg>
