<?xml version="1.0" encoding="utf-8"?>
<!-- Generator: Adobe Illustrator 23.0.2, SVG Export Plug-In . SVG Version: 6.00 Build 0)  -->
<svg version="1.1" id="Layer_1" xmlns="http://www.w3.org/2000/svg" xmlns:xlink="http://www.w3.org/1999/xlink" x="0px" y="0px"
	 viewBox="0 0 86.7 86.7" style="enable-background:new 0 0 86.7 86.7;" xml:space="preserve">
<style type="text/css">
	.st0{fill:#FFFFFF;}
</style>
<title>04</title>
<g>
	<path class="st0" d="M15.5,5c-2.9,0-5.2,2.3-5.2,5.2s2.3,5.2,5.2,5.2l0,0c2.9,0,5.2-2.3,5.2-5.2S18.3,5,15.5,5z"/>
	<path class="st0" d="M15.5,38.2c-2.9,0-5.2,2.3-5.2,5.2c0,2.9,2.3,5.2,5.2,5.2c2.9,0,5.2-2.3,5.2-5.2S18.3,38.2,15.5,38.2z"/>
	<path class="st0" d="M15.5,71.4c-2.9,0-5.2,2.3-5.2,5.2c0,2.9,2.3,5.2,5.2,5.2l0,0c2.9,0,5.2-2.3,5.2-5.2
		C20.7,73.7,18.3,71.4,15.5,71.4z"/>
	<path class="st0" d="M66.4,20.4v-18h-31v18H66.4z M40.4,7.4h11.5c0.8,0,1.5,0.7,1.5,1.5s-0.7,1.5-1.5,1.5H40.4
		c-0.8,0-1.5-0.7-1.5-1.5S39.5,7.4,40.4,7.4z M40.4,13.4h21.5c0.8,0,1.5,0.7,1.5,1.5s-0.7,1.5-1.5,1.5H40.4c-0.8,0-1.5-0.7-1.5-1.5
		S39.5,13.4,40.4,13.4z"/>
	<path class="st0" d="M35.4,52.4h41v-18h-41V52.4z M40.4,39.4h11.5c0.8,0,1.5,0.7,1.5,1.5s-0.7,1.5-1.5,1.5H40.4
		c-0.8,0-1.5-0.7-1.5-1.5S39.5,39.4,40.4,39.4z M40.4,45.4h21.5c0.8,0,1.5,0.7,1.5,1.5s-0.7,1.5-1.5,1.5H40.4
		c-0.8,0-1.5-0.7-1.5-1.5S39.5,45.4,40.4,45.4z"/>
	<path class="st0" d="M35.4,84.4h31v-18h-31V84.4z M40.4,71.4h11.5c0.8,0,1.5,0.7,1.5,1.5s-0.7,1.5-1.5,1.5H40.4
		c-0.8,0-1.5-0.7-1.5-1.5S39.5,71.4,40.4,71.4z M40.4,77.4h21.5c0.8,0,1.5,0.7,1.5,1.5s-0.7,1.5-1.5,1.5H40.4
		c-0.8,0-1.5-0.7-1.5-1.5S39.5,77.4,40.4,77.4z"/>
	<polygon class="st0" points="16.4,16.8 14.4,16.9 14.4,36.4 16.4,36.4 	"/>
	<rect x="14.4" y="49.4" class="st0" width="2" height="21"/>
</g>
</svg>
