<svg xmlns="http://www.w3.org/2000/svg" width="23.29" height="22.261" viewBox="0 0 23.29 22.261">
  <path id="_367593_linkedin_business_network_social_icon_2_" data-name="367593_linkedin_business_network_social_icon (2)" d="M46.3,62.519h4.991V77.539H46.3Zm2.529-7.241a2.6,2.6,0,1,0-.065,5.189h.032a2.6,2.6,0,1,0,.033-5.189Zm14.717,6.888a4.955,4.955,0,0,0-4.5,2.479V62.519H54.05c.066,1.409,0,15.021,0,15.021h4.993V69.151a3.437,3.437,0,0,1,.164-1.219,2.734,2.734,0,0,1,2.561-1.826c1.808,0,2.53,1.378,2.53,3.4v8.037H69.29V68.926C69.29,64.312,66.828,62.166,63.542,62.166Z" transform="translate(-46 -55.278)" fill="#f6f9fc"/>
</svg>
