<?xml version="1.0" encoding="utf-8"?>
<!-- Generator: Adobe Illustrator 27.1.1, SVG Export Plug-In . SVG Version: 6.00 Build 0)  -->
<svg version="1.1" id="Layer_1" xmlns="http://www.w3.org/2000/svg" xmlns:xlink="http://www.w3.org/1999/xlink" x="0px" y="0px"
	 viewBox="0 0 499.5 66" style="enable-background:new 0 0 499.5 66;" xml:space="preserve">
<style type="text/css">
	.st0{fill:#00CC66;}
</style>
<g>
	<g>
		<path d="M147.5,52.9c-3.1,0-5.7-0.7-8-2.1c-2.3-1.4-4-3.6-5.2-6.5s-1.8-6.7-1.8-11.3s0.6-8.3,1.9-11.2c1.2-2.9,3-5.1,5.2-6.4
			c2.2-1.4,4.7-2.1,7.5-2.1c1.7,0,3.3,0.2,4.8,0.6c1.4,0.4,2.7,1,3.8,1.8s2,1.8,2.8,2.9h0.4V0h8.8v52.1h-7.3l-0.7-5h-0.5
			c-1.2,2-2.8,3.4-4.9,4.4C152.2,52.4,150,52.9,147.5,52.9z M150.2,45.4c2,0,3.6-0.5,4.9-1.4c1.2-0.9,2.2-2.2,2.8-4
			c0.6-1.7,0.9-3.8,0.9-6.3v-0.9c0-1.9-0.2-3.6-0.5-5c-0.3-1.5-0.9-2.7-1.5-3.7c-0.7-1-1.6-1.8-2.7-2.3c-1.1-0.5-2.4-0.8-3.9-0.8
			c-2.2,0-3.9,0.4-5.1,1.3c-1.3,0.8-2.2,2.1-2.7,3.9c-0.6,1.8-0.8,4-0.8,6.7v1c0,2.6,0.3,4.8,0.8,6.6c0.6,1.7,1.5,3,2.7,3.9
			C146.4,45,148.1,45.4,150.2,45.4z"/>
		<path d="M193.2,52.9c-4,0-7.4-0.7-10.1-2.1c-2.7-1.4-4.7-3.6-6-6.5s-2-6.6-2-11.2s0.7-8.3,2-11.2s3.4-5.1,6-6.5
			c2.7-1.4,6-2.1,10.1-2.1c3.6,0,6.7,0.7,9.2,2.1s4.3,3.5,5.6,6.3c1.2,2.8,1.9,6.5,1.9,11v2.6h-25.8c0.1,2.4,0.5,4.3,1.1,5.9
			c0.6,1.6,1.6,2.8,2.9,3.6s3.1,1.2,5.2,1.2c1.1,0,2.1-0.1,3.1-0.4c1-0.3,1.8-0.7,2.5-1.3s1.3-1.4,1.7-2.3c0.4-0.9,0.6-2,0.6-3.2
			h8.6c0,2.4-0.4,4.5-1.3,6.3c-0.8,1.8-2,3.2-3.5,4.4s-3.3,2-5.3,2.6S195.6,52.9,193.2,52.9z M184.2,29.1h16.5c0-1.6-0.2-2.9-0.5-4
			c-0.4-1.1-0.9-2-1.5-2.7s-1.4-1.2-2.3-1.5c-0.9-0.3-1.9-0.5-3.1-0.5c-1.9,0-3.4,0.3-4.7,0.9s-2.2,1.6-2.9,2.9
			C184.9,25.4,184.5,27.1,184.2,29.1z"/>
		<path d="M233.6,52.9c-4,0-7.4-0.7-10.1-2.1c-2.7-1.4-4.7-3.6-6-6.5s-2-6.6-2-11.2s0.7-8.3,2-11.2s3.4-5.1,6-6.5
			c2.7-1.4,6-2.1,10.1-2.1c3.6,0,6.7,0.7,9.2,2.1s4.3,3.5,5.6,6.3c1.2,2.8,1.9,6.5,1.9,11v2.6h-25.8c0.1,2.4,0.5,4.3,1.1,5.9
			c0.6,1.6,1.6,2.8,2.9,3.6s3.1,1.2,5.2,1.2c1.1,0,2.1-0.1,3.1-0.4c1-0.3,1.8-0.7,2.5-1.3s1.3-1.4,1.7-2.3c0.4-0.9,0.6-2,0.6-3.2
			h8.6c0,2.4-0.4,4.5-1.3,6.3c-0.8,1.8-2,3.2-3.5,4.4s-3.3,2-5.3,2.6S236,52.9,233.6,52.9z M224.6,29.1h16.5c0-1.6-0.2-2.9-0.5-4
			c-0.4-1.1-0.9-2-1.5-2.7s-1.4-1.2-2.3-1.5c-0.9-0.3-1.9-0.5-3.1-0.5c-1.9,0-3.4,0.3-4.7,0.9s-2.2,1.6-2.9,2.9
			C225.3,25.4,224.9,27.1,224.6,29.1z"/>
		<path d="M257.7,64.5V14.2h7.3l0.7,5h0.5c1.2-2,2.9-3.4,4.9-4.4s4.2-1.5,6.7-1.5c3.1,0,5.8,0.7,8,2.1s4,3.6,5.2,6.5
			s1.8,6.7,1.8,11.3c0,4.5-0.6,8.2-1.9,11.2c-1.2,2.9-3,5.1-5.1,6.5c-2.2,1.4-4.7,2.1-7.5,2.1c-1.7,0-3.3-0.2-4.8-0.6
			c-1.4-0.4-2.7-1-3.8-1.8c-1.1-0.8-2-1.8-2.8-2.9h-0.4v16.8H257.7z M275.1,45.4c2.2,0,3.9-0.4,5.1-1.3c1.3-0.8,2.2-2.1,2.7-3.9
			c0.6-1.7,0.8-3.9,0.8-6.6v-1c0-2.7-0.3-4.9-0.8-6.7c-0.6-1.8-1.5-3-2.7-3.9c-1.3-0.8-3-1.3-5.1-1.3c-2,0-3.6,0.5-4.9,1.4
			s-2.2,2.2-2.8,4c-0.6,1.8-0.9,3.9-0.9,6.4v0.9c0,1.9,0.2,3.5,0.5,5s0.9,2.7,1.5,3.7c0.7,1,1.6,1.8,2.7,2.3
			C272.3,45.1,273.6,45.4,275.1,45.4z"/>
		<path d="M307.2,52.1l-11.3-37.9h9.1l5.3,20.6c0.3,1.1,0.5,2.1,0.7,3.1s0.4,1.9,0.5,2.6c0.1,0.7,0.2,1.2,0.3,1.3h0.4
			c0.2-0.9,0.4-1.8,0.6-2.8s0.4-1.9,0.5-2.8c0.2-0.8,0.3-1.4,0.3-1.7l4.9-20.4h9.4l5.1,20.4c0.2,0.7,0.4,1.5,0.5,2.3
			c0.2,0.9,0.3,1.8,0.5,2.6c0.2,0.9,0.3,1.6,0.4,2.2h0.4c0.1-0.6,0.2-1.3,0.4-2.1c0.2-0.8,0.3-1.7,0.5-2.5c0.2-0.9,0.4-1.7,0.5-2.4
			l5.2-20.7h8.4l-11.2,37.9h-9.3L325,33.7c-0.2-0.9-0.4-1.9-0.7-3.1c-0.3-1.2-0.5-2.3-0.7-3.5s-0.4-2.1-0.5-3h-0.4
			c0,0.3-0.1,0.9-0.2,1.8c-0.1,0.9-0.3,1.9-0.6,3.2c-0.3,1.3-0.6,2.8-1,4.5l-4.5,18.1h-9.2V52.1z"/>
		<path d="M364.3,52.9c-1.1,0-2.3-0.1-3.6-0.4c-1.4-0.3-2.7-0.8-4-1.5s-2.3-1.8-3.1-3.2c-0.8-1.4-1.2-3.3-1.2-5.6
			c0-2.6,0.6-4.7,1.7-6.4c1.2-1.7,2.8-3,4.9-4s4.6-1.7,7.5-2.1c2.9-0.4,6.1-0.6,9.5-0.6V26c0-1.1-0.2-2.1-0.5-3
			c-0.3-0.9-0.9-1.5-1.8-2.1c-0.9-0.5-2.2-0.8-4-0.8s-3.2,0.2-4.2,0.6s-1.7,1-2.1,1.6s-0.6,1.3-0.6,1.9v1h-8.5
			c0-0.2-0.1-0.5-0.1-0.7s0-0.5,0-0.9c0-2.2,0.6-4,1.9-5.6s3.1-2.8,5.4-3.6c2.3-0.8,5-1.3,8-1.3c3.5,0,6.3,0.5,8.5,1.4
			c2.2,1,3.9,2.3,5,4.1c1.1,1.8,1.7,3.9,1.7,6.5V43c0,0.9,0.3,1.6,0.8,1.9c0.5,0.4,1.1,0.6,1.7,0.6h2.3v6c-0.5,0.2-1.2,0.4-2.1,0.7
			s-2,0.4-3.4,0.4c-1.2,0-2.4-0.2-3.3-0.6c-1-0.4-1.8-1-2.5-1.8s-1.2-1.7-1.4-2.7h-0.4c-0.8,1-1.8,1.9-2.9,2.7s-2.4,1.4-4,1.8
			C368,52.7,366.3,52.9,364.3,52.9z M367,45.7c1.4,0,2.7-0.2,3.9-0.6c1.1-0.4,2.1-1,2.8-1.8c0.7-0.8,1.3-1.7,1.7-2.8
			c0.4-1.1,0.6-2.3,0.6-3.6v-1.7c-2.6,0-5.1,0.2-7.3,0.5c-2.2,0.3-4,1-5.3,1.9s-2,2.2-2,3.9c0,0.9,0.2,1.6,0.6,2.3
			c0.4,0.6,1,1.2,1.9,1.5S365.7,45.7,367,45.7z"/>
		<path d="M404.6,52.9c-2.4,0-4.2-0.5-5.5-1.4s-2.3-2.1-2.8-3.6c-0.6-1.5-0.8-3-0.8-4.5v-22h-4.6v-7.2h4.8l1.6-10.6h7v10.6h6.6v7.2
			h-6.6v21.2c0,1,0.3,1.8,0.8,2.3c0.5,0.6,1.3,0.8,2.4,0.8h3.4v6c-0.5,0.2-1.1,0.4-1.8,0.5c-0.7,0.2-1.4,0.3-2.2,0.4
			C406,52.9,405.3,52.9,404.6,52.9z"/>
		<path d="M433,52.9c-3.9,0-7.2-0.7-9.8-2.1c-2.6-1.4-4.6-3.6-5.9-6.5s-1.9-6.6-1.9-11.2s0.7-8.3,2-11.2s3.3-5.1,5.9-6.5
			s5.9-2.1,9.8-2.1c2.5,0,4.8,0.3,6.8,0.9s3.7,1.6,5.1,2.8c1.4,1.3,2.5,2.8,3.2,4.7s1.1,4.1,1.1,6.6h-8.9c0-1.8-0.3-3.2-0.8-4.4
			s-1.3-2-2.4-2.6s-2.5-0.9-4.1-0.9c-2,0-3.6,0.5-4.8,1.4c-1.2,0.9-2.2,2.3-2.8,4.1c-0.6,1.8-0.9,4.1-0.9,6.8v0.9
			c0,2.7,0.3,4.9,0.9,6.8c0.6,1.8,1.5,3.2,2.8,4.1c1.3,0.9,3,1.3,5.1,1.3c1.6,0,3-0.3,4.1-0.9c1.1-0.6,1.9-1.5,2.5-2.7
			s0.9-2.6,0.9-4.3h8.5c0,2.4-0.4,4.5-1.1,6.3s-1.8,3.5-3.2,4.8c-1.4,1.3-3.1,2.3-5.1,3C437.8,52.6,435.5,52.9,433,52.9z"/>
		<path d="M456.6,52.1V0h8.8v18.5h0.5c0.8-1,1.8-1.9,2.9-2.7c1.1-0.8,2.4-1.4,3.8-1.8c1.4-0.5,3-0.7,4.7-0.7c2.4,0,4.5,0.4,6.4,1.3
			c1.8,0.9,3.3,2.3,4.4,4.2c1.1,1.9,1.6,4.5,1.6,7.7v25.6h-8.9v-24c0-1.3-0.2-2.5-0.5-3.3c-0.3-0.9-0.8-1.6-1.4-2.2
			s-1.3-0.9-2.2-1.2c-0.9-0.2-1.8-0.4-2.9-0.4c-1.6,0-3,0.4-4.3,1.2c-1.3,0.8-2.3,1.8-3,3.2c-0.7,1.3-1.1,2.9-1.1,4.7v22H456.6z"/>
		<path class="st0" d="M56.6,55.3c-15.8-7.4-20-29.1-4.6-41.7c-2.5-0.8-5.1-1.3-7.9-1.3c-8.7,0-23,4.1-41.1,23.5l-0.8,0.8
			C13.7,54.3,33.6,66,56.3,66c24.1,0,45.2-13.3,56.2-32.9C89.3,57.9,69.3,61.3,56.6,55.3z"/>
		<path class="st0" d="M60.5,52.6c2.5,0.8,5.1,1.3,7.9,1.3c8.7,0,23-4.1,41.1-23.5l0.8-0.8C98.8,11.9,78.9,0.2,56.3,0.2
			C32.1,0.2,11.1,13.5,0,33.1C23.3,8.4,43.3,5,55.9,10.9C71.7,18.3,75.9,40.1,60.5,52.6z"/>
	</g>
	<g>
		<path d="M491.3,13.3v-4h-1.7V8.5h4.2v0.8h-1.7v4H491.3z M494.4,13.3V8.5h1.3l1.2,3.7h0.1l1.2-3.7h1.3v4.9h-0.9V9.8l0,0l-1.2,3.6
			h-0.9l-1.2-3.7l0,0v3.7h-0.9V13.3z"/>
	</g>
</g>
</svg>
