<?xml version="1.0" encoding="utf-8"?>
<!-- Generator: Adobe Illustrator 26.0.3, SVG Export Plug-In . SVG Version: 6.00 Build 0)  -->
<svg version="1.1" id="Layer_1" xmlns="http://www.w3.org/2000/svg" xmlns:xlink="http://www.w3.org/1999/xlink" x="0px" y="0px"
	 viewBox="0 0 280 280" style="enable-background:new 0 0 280 280;" xml:space="preserve">
<style type="text/css">
	.st0{fill:#00CC66;}
</style>
<path class="st0" d="M140,0C62.7,0,0,62.7,0,140s62.7,140,140,140s140-62.7,140-140S217.3,0,140,0z M176.4,70.2
	c-1,6.3-2,12.5-3,18.8c-0.2,1.6-0.5,3.2-0.8,4.8c0,0.1-0.1,0.2-0.1,0.3c-0.1,0-0.3,0-0.4-0.1c-3.7-1-7.4-1.6-11.2-2
	c-2.2-0.3-4.5-0.1-6.7,0.5c-3.3,0.9-5.8,3.5-6.5,6.7c-0.5,2-0.7,4-0.7,6c0,4.5,0,9,0,13.4c0,0.5,0.2,0.7,0.7,0.7c8,0,16,0,23.9,0
	c0.1,0,0.3,0,0.4,0c0.4,0,0.5,0.1,0.5,0.5c-0.2,1.8-0.4,3.6-0.7,5.4l-1,8.5c-0.3,2.7-0.7,5.4-1,8.1c0,0.4-0.3,0.4-0.6,0.4H147
	c0,0.1,0,0.2,0,0.4c0,16.8,0,49.6,0,66.3c0,0.6,0,0.8,0.2,0.9h0.7c-0.2,0-0.5,0-0.7,0h-30.7v-67.5h-15.7v-23c0.3,0,0.5,0,0.8,0h14.1
	c0.9,0,0.8,0,0.8-0.8c0-8,0-16,0-24s3.3-14.2,9.4-19.1c4.7-3.7,10.2-6.1,16-7.1c3.7-0.7,7.6-0.9,11.4-0.7c4,0.1,8,0.2,12,0.6
	c3.5,0.3,7,0.8,10.5,1.2C176.4,69.6,176.5,69.7,176.4,70.2z"/>
</svg>
