<?xml version="1.0" encoding="utf-8"?>
<!-- Generator: Adobe Illustrator 26.0.2, SVG Export Plug-In . SVG Version: 6.00 Build 0)  -->
<svg version="1.1" id="Layer_1" xmlns="http://www.w3.org/2000/svg" xmlns:xlink="http://www.w3.org/1999/xlink" x="0px" y="0px"
	 viewBox="0 0 280 280" style="enable-background:new 0 0 280 280;" xml:space="preserve">
<style type="text/css">
	.st0{fill:#00CC66;}
</style>
<g>
	<path class="st0" d="M140,0C62.7,0,0,62.7,0,140s62.7,140,140,140s140-62.7,140-140S217.3,0,140,0z M103,190.3H75.7v-82.5H103
		V190.3z M91.8,96.1c-0.8,0.1-1.7,0.1-2.6,0.1c-11,0-18-9.4-14.4-19.4c2-5.5,7.4-9,14.5-9.2s13.1,3.8,15,10c2.4,7.4-1.6,15.3-9,17.7
		C94.2,95.8,93,96,91.8,96.1z M203.1,187.8v2.5h-27.7v-2.6c0-13.5,0.1-27-0.1-40.5c0-3.5-0.4-6.9-1.3-10.3
		c-3.3-11.8-16.6-11.2-22.5-5.8c-4.2,3.9-5.4,8.8-5.4,14.2c0.1,14.1,0,28.1,0,42.2v2.7h-27.5v-82.4h27.5v11.3
		c0.7-0.8,1.1-1.2,1.4-1.6c5.1-7.4,13.5-11.8,22.5-11.8c10.3-0.2,19.4,2.8,25.8,11.3c4.5,6,6.5,12.9,6.9,20.2
		c0.4,7.1,0.3,14.2,0.4,21.3C203.1,168.3,203.1,178,203.1,187.8z"/>
</g>
</svg>
