<?xml version="1.0" encoding="UTF-8"?> <svg xmlns="http://www.w3.org/2000/svg" xmlns:xlink="http://www.w3.org/1999/xlink" version="1.1" id="Layer_1" x="0px" y="0px" viewBox="0 0 400 400" style="enable-background:new 0 0 400 400;" xml:space="preserve"> <style type="text/css"> .st0{fill:#FFFFFF;} </style> <path class="st0" d="M396.7,373.4L291.2,268c26.6-32.7,39.7-74.4,36.5-116.5C324.5,109.5,305.3,70.3,274,42 C242.7,13.7,201.8-1.6,159.6-0.6c-42.2,1-82.4,18.1-112.3,47.9C17.6,77.2,0.4,117.4-0.6,159.6c-1,42.2,14.2,83.1,42.5,114.4 c28.3,31.3,67.5,50.5,109.6,53.7c42.1,3.2,83.8-9.8,116.5-36.5l105.4,105.4c4.2,3.6,10,4.9,15.4,3.3c5.4-1.6,9.5-5.8,11.1-11.1 C401.5,383.5,400.3,377.7,396.7,373.4L396.7,373.4z M70.5,257c-24.7-24.7-38.6-58.2-38.6-93.2c0-35,13.9-68.5,38.6-93.2 C95.2,45.9,128.7,32,163.7,32c34.9,0,68.5,13.9,93.2,38.6c24.7,24.7,38.6,58.2,38.6,93.2c0,34.9-13.9,68.5-38.6,93.2 c-24.6,24.9-58.1,38.9-93.1,38.9C128.7,295.9,95.1,281.9,70.5,257z"></path> </svg> 