<?xml version="1.0" encoding="utf-8"?>
<!-- Generator: Adobe Illustrator 26.0.2, SVG Export Plug-In . SVG Version: 6.00 Build 0)  -->
<svg version="1.1" id="Layer_1" xmlns="http://www.w3.org/2000/svg" xmlns:xlink="http://www.w3.org/1999/xlink" x="0px" y="0px"
	 viewBox="0 0 280 280" style="enable-background:new 0 0 280 280;" xml:space="preserve">
<style type="text/css">
	.st0{fill:#00CC66;}
</style>
<g>
	<path class="st0" d="M124,158.5c13-6.7,25.4-13.2,38.2-19.9c-12.9-6.7-25.2-13.3-38.2-19.9C124,132,124,145.1,124,158.5z"/>
	<path class="st0" d="M140,0C62.7,0,0,62.7,0,140s62.7,140,140,140s140-62.7,140-140S217.3,0,140,0z M209.7,159.3
		c-0.3,5.5-0.9,11-3,16.2c-2.3,6-6.6,9.9-12.8,11.1c-4.3,0.9-8.8,1.1-13.2,1.3c-13.8,0.5-27.6,0.8-42.3,1.2
		c-15-0.5-30.9-0.9-46.8-1.6c-3.4-0.1-7-0.8-10.3-1.7c-6.4-1.8-9.9-6.6-11.8-12.8c-1.6-5.1-2.1-10.5-2.2-15.7
		c-0.2-12.4-0.2-24.9,0-37.4c0.1-4.3,0.7-8.6,1.5-12.8c0.8-4.1,2.1-8.2,5.2-11.4c3.4-3.5,7.5-5.5,12.4-5.8
		c9.4-0.6,18.9-1.2,28.3-1.3c17.6-0.2,35.1-0.1,52.7,0.1c7.9,0.1,15.8,0.6,23.6,1.2c7.7,0.7,13.1,4.6,16,12c2.1,5.5,2.6,11.4,3,17.2
		C210.5,132.6,210.5,145.9,209.7,159.3z"/>
</g>
</svg>
