<svg width="18" height="18" viewBox="0 0 18 18" fill="none" xmlns="http://www.w3.org/2000/svg">
<path d="M13.3052 4.93687C13.4842 5.8316 14.2 6.36844 15.1842 6.54739V13.4369C14.2895 13.6158 13.5737 14.2421 13.3947 15.1369H6.23682C6.05788 14.2421 5.34209 13.6158 4.35788 13.4369V8.06844C6.05788 7.8895 7.48945 6.54739 7.6684 4.93687H13.3052ZM13.6631 4.40002H7.31051C7.31051 6.1895 5.78945 7.5316 3.91051 7.5316V7.62108V13.7948C4.98419 13.7948 5.78945 14.6 5.78945 15.5842H13.6631C13.6631 14.6 14.5579 13.8842 15.5421 13.8842V6.36845V6.27897C14.5579 6.1895 13.6631 5.38423 13.6631 4.40002Z" fill="black"/>
<path d="M1.13682 6.1C0.778923 5.56316 0.599976 4.93684 0.599976 4.31053C0.689449 2.52105 2.2105 1 3.99998 1C4.80524 1 5.52103 1.26842 6.14734 1.71579" stroke="black" stroke-width="0.5" stroke-miterlimit="10" stroke-linecap="round" stroke-linejoin="round"/>
<path d="M3.99997 6.01053C4.93886 6.01053 5.69997 5.24942 5.69997 4.31053C5.69997 3.37165 4.93886 2.61053 3.99997 2.61053C3.06109 2.61053 2.29997 3.37165 2.29997 4.31053C2.29997 5.24942 3.06109 6.01053 3.99997 6.01053Z" stroke="black" stroke-width="0.5" stroke-miterlimit="10" stroke-linecap="round" stroke-linejoin="round"/>
<path d="M3.73156 16.9263C4.27512 16.9263 4.71577 16.4857 4.71577 15.9421C4.71577 15.3985 4.27512 14.9579 3.73156 14.9579C3.18799 14.9579 2.74734 15.3985 2.74734 15.9421C2.74734 16.4857 3.18799 16.9263 3.73156 16.9263Z" fill="black"/>
<path d="M15.721 16.9263C16.2646 16.9263 16.7052 16.4857 16.7052 15.9421C16.7052 15.3985 16.2646 14.9579 15.721 14.9579C15.1775 14.9579 14.7368 15.3985 14.7368 15.9421C14.7368 16.4857 15.1775 16.9263 15.721 16.9263Z" fill="black"/>
<path d="M15.721 5.29472C16.2646 5.29472 16.7052 4.85407 16.7052 4.3105C16.7052 3.76694 16.2646 3.32629 15.721 3.32629C15.1775 3.32629 14.7368 3.76694 14.7368 4.3105C14.7368 4.85407 15.1775 5.29472 15.721 5.29472Z" fill="black"/>
<path d="M1.8526 7.8V17.7316H17.6V2.43158H7.75786" stroke="black" stroke-width="0.5" stroke-miterlimit="10" stroke-linecap="round" stroke-linejoin="round"/>
</svg>
