<svg width="21" height="21" viewBox="0 0 21 21" fill="none" xmlns="http://www.w3.org/2000/svg">
<path d="M14 6.125C14 5.31127 14 4.90441 13.9106 4.5706C13.6678 3.66473 12.9603 2.95717 12.0544 2.71444C11.7206 2.625 11.3137 2.625 10.5 2.625C9.68627 2.625 9.27941 2.625 8.9456 2.71444C8.03973 2.95717 7.33217 3.66473 7.08944 4.5706C7 4.90441 7 5.31127 7 6.125M4.55 18.375H16.45C17.4301 18.375 17.9201 18.375 18.2945 18.1843C18.6238 18.0165 18.8915 17.7488 19.0593 17.4195C19.25 17.0451 19.25 16.5551 19.25 15.575V8.925C19.25 7.94491 19.25 7.45486 19.0593 7.08052C18.8915 6.75123 18.6238 6.48352 18.2945 6.31574C17.9201 6.125 17.4301 6.125 16.45 6.125H4.55C3.56991 6.125 3.07986 6.125 2.70552 6.31574C2.37623 6.48352 2.10852 6.75123 1.94074 7.08052C1.75 7.45486 1.75 7.94491 1.75 8.925V15.575C1.75 16.5551 1.75 17.0451 1.94074 17.4195C2.10852 17.7488 2.37623 18.0165 2.70552 18.1843C3.07986 18.375 3.56991 18.375 4.55 18.375Z" stroke="black" stroke-opacity="0.9" stroke-linecap="round" stroke-linejoin="round"/>
</svg>
