<svg width="21" height="21" viewBox="0 0 21 21" fill="none" xmlns="http://www.w3.org/2000/svg">
<path d="M17.5 10.9375V5.95C17.5 4.47986 17.5 3.74479 17.2139 3.18327C16.9622 2.68935 16.5607 2.28778 16.0667 2.03611C15.5052 1.75 14.7701 1.75 13.3 1.75H7.7C6.22986 1.75 5.49479 1.75 4.93327 2.03611C4.43935 2.28778 4.03778 2.68935 3.78611 3.18327C3.5 3.74479 3.5 4.47986 3.5 5.95V15.05C3.5 16.5201 3.5 17.2552 3.78611 17.8167C4.03778 18.3107 4.43935 18.7122 4.93327 18.9639C5.49479 19.25 6.22986 19.25 7.7 19.25H10.5M12.25 9.625H7M8.75 13.125H7M14 6.125H7M12.6875 16.625L14.4375 18.375L18.375 14.4375" stroke="black" stroke-opacity="0.9" stroke-linecap="round" stroke-linejoin="round"/>
</svg>
